<?xml version="1.0" encoding="UTF-8"?>
<svg xmlns="http://www.w3.org/2000/svg" xmlns:xlink="http://www.w3.org/1999/xlink" width="810pt" height="809.999993pt" viewBox="0 0 810 809.999993" version="1.2">
<defs>
<clipPath id="clip1">
  <path d="M 101.589844 52.3125 L 774.914062 52.3125 L 774.914062 694.3125 L 101.589844 694.3125 Z M 101.589844 52.3125 "/>
</clipPath>
<clipPath id="clip2">
  <path d="M 541.433594 664.734375 C 558.5 656.554688 574.832031 646.75 590.238281 635.410156 C 611.5625 622.570312 631.460938 607.027344 649.507812 588.957031 C 707.5 530.875 739.4375 453.65625 739.4375 371.519531 C 739.4375 289.378906 707.5 212.15625 649.507812 154.082031 C 622.515625 127.050781 591.378906 105.675781 557.542969 90.542969 C 546.570312 84.453125 535.257812 79.054688 523.648438 74.378906 C 663.414062 100.796875 769.46875 223.976562 769.46875 371.519531 C 769.46875 512.734375 672.3125 631.632812 541.433594 664.734375 Z M 408.972656 689.550781 C 257.476562 689.550781 131.695312 577.21875 110.269531 431.359375 C 123.25 486.140625 151.113281 536.414062 191.863281 577.226562 C 218.855469 604.257812 249.992188 625.628906 283.832031 640.761719 C 328.792969 665.730469 379.574219 679.023438 432.398438 679.023438 C 438.28125 679.023438 444.136719 678.835938 449.964844 678.507812 C 455.789062 678.835938 461.648438 679.023438 467.53125 679.023438 C 475.535156 679.023438 483.484375 678.707031 491.378906 678.101562 C 465.175781 685.558594 437.53125 689.550781 408.972656 689.550781 Z M 494.960938 70.378906 C 495.722656 70.449219 496.484375 70.507812 497.246094 70.589844 C 498.171875 70.871094 499.097656 71.160156 500.023438 71.453125 C 498.339844 71.074219 496.648438 70.730469 494.960938 70.378906 Z M 707.679688 315.582031 C 694.699219 260.800781 666.835938 210.527344 626.085938 169.714844 C 568.089844 111.636719 490.988281 79.648438 408.972656 79.648438 C 400.976562 79.648438 393.019531 79.964844 385.125 80.570312 C 405.917969 74.652344 427.625 70.933594 449.964844 69.644531 C 487.199219 71.796875 522.644531 80.726562 555.082031 95.238281 C 635.671875 140.054688 693.746094 220.71875 707.679688 315.582031 Z M 715.699219 373.472656 C 715.898438 368.921875 716.015625 364.363281 716.015625 359.789062 C 716.015625 277.648438 684.078125 200.429688 626.085938 142.351562 C 620.363281 136.617188 614.441406 131.140625 608.355469 125.921875 C 684.59375 180.867188 734.339844 270.480469 734.339844 371.519531 C 734.339844 460.945312 695.363281 541.414062 633.546875 596.824219 C 686.800781 539.71875 716.015625 465.6875 716.015625 387.152344 C 716.015625 382.578125 715.898438 378.019531 715.699219 373.472656 Z M 377.710938 665.71875 C 386.664062 668.449219 395.761719 670.75 404.96875 672.648438 C 383.007812 670.664062 361.714844 666.3125 341.355469 659.847656 C 353.28125 662.523438 365.417969 664.484375 377.710938 665.71875 Z M 360.929688 88.601562 C 376.582031 86.085938 392.625 84.753906 408.972656 84.753906 C 570.886719 84.753906 703.417969 213.058594 710.589844 373.472656 C 703.417969 533.882812 570.886719 662.1875 408.972656 662.1875 C 398.949219 662.1875 389.039062 661.679688 379.265625 660.71875 C 255.703125 622.820312 165.589844 507.511719 165.589844 371.519531 C 165.589844 242.339844 246.894531 131.847656 360.929688 88.601562 Z M 302.378906 98.628906 C 333.945312 83.480469 368.539062 73.683594 404.96875 70.378906 C 389.277344 73.621094 373.933594 78.070312 359.039062 83.695312 C 339.613281 86.859375 320.65625 91.863281 302.378906 98.628906 Z M 233.023438 605.382812 C 160.242188 552.933594 111.625 468.890625 107.359375 373.472656 C 111.113281 289.542969 149.179688 214.410156 207.824219 161.839844 C 154.570312 218.953125 125.355469 292.980469 125.355469 371.519531 C 125.355469 453.65625 157.292969 530.875 215.289062 588.957031 C 221.015625 594.691406 226.933594 600.160156 233.023438 605.382812 Z M 130.457031 371.519531 C 130.457031 271.621094 179.089844 182.902344 253.867188 127.808594 C 278.828125 112.773438 306.125 101.257812 335.074219 93.9375 C 304.058594 108.808594 275.457031 129.007812 250.421875 154.082031 C 192.429688 212.15625 160.492188 289.378906 160.492188 371.519531 C 160.492188 453.65625 192.429688 530.875 250.421875 588.957031 C 280.171875 618.75 314.960938 641.660156 352.855469 656.929688 C 329.625 652.53125 307.324219 645.480469 286.289062 636.070312 C 193.441406 584.429688 130.457031 485.207031 130.457031 371.519531 Z M 538.992188 660.039062 C 531.363281 663.707031 523.546875 667.046875 515.578125 670.066406 C 508.777344 671.164062 501.902344 672.019531 494.960938 672.648438 C 509.988281 669.550781 524.699219 665.335938 538.992188 660.039062 Z M 449.964844 673.390625 C 434.421875 672.488281 419.195312 670.410156 404.363281 667.234375 C 405.902344 667.257812 407.4375 667.292969 408.972656 667.292969 C 490.988281 667.292969 568.089844 635.304688 626.085938 577.226562 C 666.835938 536.414062 694.699219 486.140625 707.679688 431.359375 C 695.695312 512.960938 651.050781 584.050781 587.503906 630.863281 C 546.863281 655.335938 500.035156 670.492188 449.964844 673.390625 Z M 408.972656 57.390625 C 430.632812 57.390625 451.761719 59.707031 472.140625 64.070312 C 470.605469 64.042969 469.074219 64.015625 467.53125 64.015625 C 461.648438 64.015625 455.789062 64.195312 449.964844 64.519531 C 444.136719 64.195312 438.28125 64.015625 432.398438 64.015625 C 366.308594 64.015625 303.414062 84.796875 251.132812 123.257812 C 229.808594 136.097656 209.910156 151.644531 191.863281 169.714844 C 151.113281 210.527344 123.25 260.800781 110.269531 315.582031 C 131.695312 169.722656 257.476562 57.390625 408.972656 57.390625 Z M 774.574219 371.519531 C 774.574219 289.378906 742.632812 212.15625 684.640625 154.082031 C 634.082031 103.445312 568.992188 72.648438 498.796875 65.585938 C 470.058594 56.824219 439.867188 52.285156 408.972656 52.285156 C 326.960938 52.285156 249.855469 84.273438 191.863281 142.351562 C 133.871094 200.429688 101.933594 277.648438 101.933594 359.789062 C 101.933594 364.363281 102.050781 368.921875 102.246094 373.472656 C 102.050781 378.019531 101.933594 382.578125 101.933594 387.152344 C 101.933594 469.292969 133.871094 546.511719 191.863281 604.589844 C 249.855469 662.671875 326.960938 694.65625 408.972656 694.65625 C 446.636719 694.65625 483.253906 687.894531 517.46875 674.976562 C 580.5 664.710938 638.597656 635.066406 684.640625 588.957031 C 742.632812 530.875 774.574219 453.65625 774.574219 371.519531 Z M 774.574219 371.519531 "/>
</clipPath>
<clipPath id="clip3">
  <path d="M 541.433594 664.734375 C 558.5 656.554688 574.832031 646.75 590.238281 635.410156 C 611.5625 622.570312 631.460938 607.027344 649.507812 588.957031 C 707.5 530.875 739.4375 453.65625 739.4375 371.519531 C 739.4375 289.378906 707.5 212.15625 649.507812 154.082031 C 622.515625 127.050781 591.378906 105.675781 557.542969 90.542969 C 546.570312 84.453125 535.257812 79.054688 523.648438 74.378906 C 663.414062 100.796875 769.46875 223.976562 769.46875 371.519531 C 769.46875 512.734375 672.3125 631.632812 541.433594 664.734375 Z M 408.972656 689.550781 C 257.476562 689.550781 131.695312 577.21875 110.269531 431.359375 C 123.25 486.140625 151.113281 536.414062 191.863281 577.226562 C 218.855469 604.257812 249.992188 625.628906 283.832031 640.761719 C 328.792969 665.730469 379.574219 679.023438 432.398438 679.023438 C 438.28125 679.023438 444.136719 678.835938 449.964844 678.507812 C 455.789062 678.835938 461.648438 679.023438 467.53125 679.023438 C 475.535156 679.023438 483.484375 678.707031 491.378906 678.101562 C 465.175781 685.558594 437.53125 689.550781 408.972656 689.550781 Z M 494.960938 70.378906 C 495.722656 70.449219 496.484375 70.507812 497.246094 70.589844 C 498.171875 70.871094 499.097656 71.160156 500.023438 71.453125 C 498.339844 71.074219 496.648438 70.730469 494.960938 70.378906 Z M 707.679688 315.582031 C 694.699219 260.800781 666.835938 210.527344 626.085938 169.714844 C 568.089844 111.636719 490.988281 79.648438 408.972656 79.648438 C 400.976562 79.648438 393.019531 79.964844 385.125 80.570312 C 405.917969 74.652344 427.625 70.933594 449.964844 69.644531 C 487.199219 71.796875 522.644531 80.726562 555.082031 95.238281 C 635.671875 140.054688 693.746094 220.71875 707.679688 315.582031 Z M 715.699219 373.472656 C 715.898438 368.921875 716.015625 364.363281 716.015625 359.789062 C 716.015625 277.648438 684.078125 200.429688 626.085938 142.351562 C 620.363281 136.617188 614.441406 131.140625 608.355469 125.921875 C 684.59375 180.867188 734.339844 270.480469 734.339844 371.519531 C 734.339844 460.945312 695.363281 541.414062 633.546875 596.824219 C 686.800781 539.71875 716.015625 465.6875 716.015625 387.152344 C 716.015625 382.578125 715.898438 378.019531 715.699219 373.472656 Z M 377.710938 665.71875 C 386.664062 668.449219 395.761719 670.75 404.96875 672.648438 C 383.007812 670.664062 361.714844 666.3125 341.355469 659.847656 C 353.28125 662.523438 365.417969 664.484375 377.710938 665.71875 Z M 360.929688 88.601562 C 376.582031 86.085938 392.625 84.753906 408.972656 84.753906 C 570.886719 84.753906 703.417969 213.058594 710.589844 373.472656 C 703.417969 533.882812 570.886719 662.1875 408.972656 662.1875 C 398.949219 662.1875 389.039062 661.679688 379.265625 660.71875 C 255.703125 622.820312 165.589844 507.511719 165.589844 371.519531 C 165.589844 242.339844 246.894531 131.847656 360.929688 88.601562 Z M 302.378906 98.628906 C 333.945312 83.480469 368.539062 73.683594 404.96875 70.378906 C 389.277344 73.621094 373.933594 78.070312 359.039062 83.695312 C 339.613281 86.859375 320.65625 91.863281 302.378906 98.628906 Z M 233.023438 605.382812 C 160.242188 552.933594 111.625 468.890625 107.359375 373.472656 C 111.113281 289.542969 149.179688 214.410156 207.824219 161.839844 C 154.570312 218.953125 125.355469 292.980469 125.355469 371.519531 C 125.355469 453.65625 157.292969 530.875 215.289062 588.957031 C 221.015625 594.691406 226.933594 600.160156 233.023438 605.382812 Z M 130.457031 371.519531 C 130.457031 271.621094 179.089844 182.902344 253.867188 127.808594 C 278.828125 112.773438 306.125 101.257812 335.074219 93.9375 C 304.058594 108.808594 275.457031 129.007812 250.421875 154.082031 C 192.429688 212.15625 160.492188 289.378906 160.492188 371.519531 C 160.492188 453.65625 192.429688 530.875 250.421875 588.957031 C 280.171875 618.75 314.960938 641.660156 352.855469 656.929688 C 329.625 652.53125 307.324219 645.480469 286.289062 636.070312 C 193.441406 584.429688 130.457031 485.207031 130.457031 371.519531 Z M 538.992188 660.039062 C 531.363281 663.707031 523.546875 667.046875 515.578125 670.066406 C 508.777344 671.164062 501.902344 672.019531 494.960938 672.648438 C 509.988281 669.550781 524.699219 665.335938 538.992188 660.039062 Z M 449.964844 673.390625 C 434.421875 672.488281 419.195312 670.410156 404.363281 667.234375 C 405.902344 667.257812 407.4375 667.292969 408.972656 667.292969 C 490.988281 667.292969 568.089844 635.304688 626.085938 577.226562 C 666.835938 536.414062 694.699219 486.140625 707.679688 431.359375 C 695.695312 512.960938 651.050781 584.050781 587.503906 630.863281 C 546.863281 655.335938 500.035156 670.492188 449.964844 673.390625 Z M 408.972656 57.390625 C 430.632812 57.390625 451.761719 59.707031 472.140625 64.070312 C 470.605469 64.042969 469.074219 64.015625 467.53125 64.015625 C 461.648438 64.015625 455.789062 64.195312 449.964844 64.519531 C 444.136719 64.195312 438.28125 64.015625 432.398438 64.015625 C 366.308594 64.015625 303.414062 84.796875 251.132812 123.257812 C 229.808594 136.097656 209.910156 151.644531 191.863281 169.714844 C 151.113281 210.527344 123.25 260.800781 110.269531 315.582031 C 131.695312 169.722656 257.476562 57.390625 408.972656 57.390625 Z M 774.574219 371.519531 C 774.574219 289.378906 742.632812 212.15625 684.640625 154.082031 C 634.082031 103.445312 568.992188 72.648438 498.796875 65.585938 C 470.058594 56.824219 439.867188 52.285156 408.972656 52.285156 C 326.960938 52.285156 249.855469 84.273438 191.863281 142.351562 C 133.871094 200.429688 101.933594 277.648438 101.933594 359.789062 C 101.933594 364.363281 102.050781 368.921875 102.246094 373.472656 C 102.050781 378.019531 101.933594 382.578125 101.933594 387.152344 C 101.933594 469.292969 133.871094 546.511719 191.863281 604.589844 C 249.855469 662.671875 326.960938 694.65625 408.972656 694.65625 C 446.636719 694.65625 483.253906 687.894531 517.46875 674.976562 C 580.5 664.710938 638.597656 635.066406 684.640625 588.957031 C 742.632812 530.875 774.574219 453.65625 774.574219 371.519531 "/>
</clipPath>
<clipPath id="clip4">
  <path d="M 339.328125 -269.640625 L -204.578125 467.945312 L 537.175781 1016.582031 L 1081.082031 278.996094 Z M 339.328125 -269.640625 "/>
</clipPath>
<linearGradient id="linear0" gradientUnits="userSpaceOnUse" x1="-0.182967" y1="0" x2="1.196569" y2="0" gradientTransform="matrix(537.559135,397.602867,-397.003847,538.370235,162.943483,175.704548)">
<stop offset="0" style="stop-color:rgb(68.199158%,52.49939%,17.298889%);stop-opacity:1;"/>
<stop offset="0.125" style="stop-color:rgb(68.199158%,52.49939%,17.298889%);stop-opacity:1;"/>
<stop offset="0.132812" style="stop-color:rgb(68.199158%,52.49939%,17.298889%);stop-opacity:1;"/>
<stop offset="0.136719" style="stop-color:rgb(68.959045%,53.639221%,18.56842%);stop-opacity:1;"/>
<stop offset="0.140625" style="stop-color:rgb(69.718933%,54.779053%,19.839478%);stop-opacity:1;"/>
<stop offset="0.144531" style="stop-color:rgb(70.814514%,56.44989%,21.330261%);stop-opacity:1;"/>
<stop offset="0.148437" style="stop-color:rgb(71.911621%,58.122253%,22.822571%);stop-opacity:1;"/>
<stop offset="0.152344" style="stop-color:rgb(72.83783%,59.5047%,24.005127%);stop-opacity:1;"/>
<stop offset="0.15625" style="stop-color:rgb(73.765564%,60.887146%,25.187683%);stop-opacity:1;"/>
<stop offset="0.160156" style="stop-color:rgb(74.934387%,62.199402%,26.499939%);stop-opacity:1;"/>
<stop offset="0.164062" style="stop-color:rgb(76.104736%,63.511658%,27.812195%);stop-opacity:1;"/>
<stop offset="0.167969" style="stop-color:rgb(77.029419%,64.881897%,29.180908%);stop-opacity:1;"/>
<stop offset="0.171875" style="stop-color:rgb(77.955627%,66.252136%,30.551147%);stop-opacity:1;"/>
<stop offset="0.175781" style="stop-color:rgb(78.741455%,67.376709%,31.858826%);stop-opacity:1;"/>
<stop offset="0.179687" style="stop-color:rgb(79.528809%,68.502808%,33.16803%);stop-opacity:1;"/>
<stop offset="0.183594" style="stop-color:rgb(80.310059%,69.869995%,34.352112%);stop-opacity:1;"/>
<stop offset="0.1875" style="stop-color:rgb(81.091309%,71.237183%,35.53772%);stop-opacity:1;"/>
<stop offset="0.191406" style="stop-color:rgb(82.121277%,72.721863%,37.208557%);stop-opacity:1;"/>
<stop offset="0.195312" style="stop-color:rgb(83.152771%,74.208069%,38.88092%);stop-opacity:1;"/>
<stop offset="0.199219" style="stop-color:rgb(84.136963%,75.567627%,40.254211%);stop-opacity:1;"/>
<stop offset="0.203125" style="stop-color:rgb(85.122681%,76.928711%,41.629028%);stop-opacity:1;"/>
<stop offset="0.207031" style="stop-color:rgb(86.294556%,78.442383%,43.141174%);stop-opacity:1;"/>
<stop offset="0.210937" style="stop-color:rgb(87.466431%,79.956055%,44.654846%);stop-opacity:1;"/>
<stop offset="0.214844" style="stop-color:rgb(88.388062%,81.271362%,46.369934%);stop-opacity:1;"/>
<stop offset="0.21875" style="stop-color:rgb(89.309692%,82.58667%,48.086548%);stop-opacity:1;"/>
<stop offset="0.222656" style="stop-color:rgb(90.104675%,83.769226%,49.64447%);stop-opacity:1;"/>
<stop offset="0.226562" style="stop-color:rgb(90.901184%,84.951782%,51.203918%);stop-opacity:1;"/>
<stop offset="0.230469" style="stop-color:rgb(91.731262%,86.422729%,52.714539%);stop-opacity:1;"/>
<stop offset="0.234375" style="stop-color:rgb(92.562866%,87.895203%,54.226685%);stop-opacity:1;"/>
<stop offset="0.238281" style="stop-color:rgb(93.344116%,89.065552%,55.580139%);stop-opacity:1;"/>
<stop offset="0.242187" style="stop-color:rgb(94.125366%,90.237427%,56.93512%);stop-opacity:1;"/>
<stop offset="0.246094" style="stop-color:rgb(94.906616%,91.358948%,58.255005%);stop-opacity:1;"/>
<stop offset="0.25" style="stop-color:rgb(95.687866%,92.481995%,59.57489%);stop-opacity:1;"/>
<stop offset="0.253906" style="stop-color:rgb(96.2677%,93.452454%,60.749817%);stop-opacity:1;"/>
<stop offset="0.257812" style="stop-color:rgb(96.84906%,94.424438%,61.924744%);stop-opacity:1;"/>
<stop offset="0.261719" style="stop-color:rgb(97.579956%,95.417786%,63.046265%);stop-opacity:1;"/>
<stop offset="0.265625" style="stop-color:rgb(98.310852%,96.411133%,64.167786%);stop-opacity:1;"/>
<stop offset="0.269531" style="stop-color:rgb(97.767639%,95.799255%,63.581848%);stop-opacity:1;"/>
<stop offset="0.273437" style="stop-color:rgb(97.225952%,95.188904%,62.997437%);stop-opacity:1;"/>
<stop offset="0.277344" style="stop-color:rgb(96.644592%,94.02771%,62.071228%);stop-opacity:1;"/>
<stop offset="0.28125" style="stop-color:rgb(96.063232%,92.868042%,61.14502%);stop-opacity:1;"/>
<stop offset="0.285156" style="stop-color:rgb(95.281982%,91.934204%,60.173035%);stop-opacity:1;"/>
<stop offset="0.289063" style="stop-color:rgb(94.500732%,91.001892%,59.20105%);stop-opacity:1;"/>
<stop offset="0.292969" style="stop-color:rgb(93.919373%,90.220642%,58.4198%);stop-opacity:1;"/>
<stop offset="0.296875" style="stop-color:rgb(93.339539%,89.439392%,57.640076%);stop-opacity:1;"/>
<stop offset="0.300781" style="stop-color:rgb(92.602539%,88.502502%,56.907654%);stop-opacity:1;"/>
<stop offset="0.304688" style="stop-color:rgb(91.867065%,87.567139%,56.176758%);stop-opacity:1;"/>
<stop offset="0.308594" style="stop-color:rgb(91.261292%,86.419678%,55.395508%);stop-opacity:1;"/>
<stop offset="0.3125" style="stop-color:rgb(90.657043%,85.273743%,54.615784%);stop-opacity:1;"/>
<stop offset="0.316406" style="stop-color:rgb(89.805603%,84.355164%,53.736877%);stop-opacity:1;"/>
<stop offset="0.320312" style="stop-color:rgb(88.954163%,83.436584%,52.859497%);stop-opacity:1;"/>
<stop offset="0.324219" style="stop-color:rgb(88.371277%,82.511902%,52.125549%);stop-opacity:1;"/>
<stop offset="0.328125" style="stop-color:rgb(87.788391%,81.587219%,51.391602%);stop-opacity:1;"/>
<stop offset="0.332031" style="stop-color:rgb(86.859131%,80.607605%,50.418091%);stop-opacity:1;"/>
<stop offset="0.335937" style="stop-color:rgb(85.929871%,79.629517%,49.44458%);stop-opacity:1;"/>
<stop offset="0.339844" style="stop-color:rgb(85.148621%,78.511047%,48.655701%);stop-opacity:1;"/>
<stop offset="0.34375" style="stop-color:rgb(84.367371%,77.392578%,47.868347%);stop-opacity:1;"/>
<stop offset="0.347656" style="stop-color:rgb(83.586121%,76.425171%,47.135925%);stop-opacity:1;"/>
<stop offset="0.351562" style="stop-color:rgb(82.806396%,75.45929%,46.405029%);stop-opacity:1;"/>
<stop offset="0.355469" style="stop-color:rgb(82.188416%,74.551392%,45.324707%);stop-opacity:1;"/>
<stop offset="0.359375" style="stop-color:rgb(81.57196%,73.643494%,44.244385%);stop-opacity:1;"/>
<stop offset="0.363281" style="stop-color:rgb(80.981445%,72.712708%,43.463135%);stop-opacity:1;"/>
<stop offset="0.367188" style="stop-color:rgb(80.39093%,71.781921%,42.683411%);stop-opacity:1;"/>
<stop offset="0.371094" style="stop-color:rgb(79.804993%,71.000671%,42.146301%);stop-opacity:1;"/>
<stop offset="0.375" style="stop-color:rgb(79.219055%,70.219421%,41.609192%);stop-opacity:1;"/>
<stop offset="0.378906" style="stop-color:rgb(78.437805%,69.238281%,40.83252%);stop-opacity:1;"/>
<stop offset="0.382812" style="stop-color:rgb(77.658081%,68.257141%,40.057373%);stop-opacity:1;"/>
<stop offset="0.386719" style="stop-color:rgb(76.927185%,67.326355%,39.276123%);stop-opacity:1;"/>
<stop offset="0.390625" style="stop-color:rgb(76.196289%,66.395569%,38.496399%);stop-opacity:1;"/>
<stop offset="0.394531" style="stop-color:rgb(75.531006%,65.513611%,37.664795%);stop-opacity:1;"/>
<stop offset="0.398437" style="stop-color:rgb(74.867249%,64.633179%,36.833191%);stop-opacity:1;"/>
<stop offset="0.402344" style="stop-color:rgb(74.269104%,63.653564%,36.251831%);stop-opacity:1;"/>
<stop offset="0.40625" style="stop-color:rgb(73.672485%,62.675476%,35.671997%);stop-opacity:1;"/>
<stop offset="0.410156" style="stop-color:rgb(72.940063%,61.74469%,34.890747%);stop-opacity:1;"/>
<stop offset="0.414062" style="stop-color:rgb(72.209167%,60.81543%,34.109497%);stop-opacity:1;"/>
<stop offset="0.417969" style="stop-color:rgb(71.627808%,60.031128%,33.328247%);stop-opacity:1;"/>
<stop offset="0.421875" style="stop-color:rgb(71.047974%,59.248352%,32.548523%);stop-opacity:1;"/>
<stop offset="0.425781" style="stop-color:rgb(70.645142%,58.84552%,32.017517%);stop-opacity:1;"/>
<stop offset="0.429688" style="stop-color:rgb(70.24231%,58.442688%,31.486511%);stop-opacity:1;"/>
<stop offset="0.433594" style="stop-color:rgb(70.588684%,58.789062%,31.442261%);stop-opacity:1;"/>
<stop offset="0.4375" style="stop-color:rgb(70.936584%,59.136963%,31.399536%);stop-opacity:1;"/>
<stop offset="0.441406" style="stop-color:rgb(71.186829%,59.376526%,30.989075%);stop-opacity:1;"/>
<stop offset="0.445312" style="stop-color:rgb(71.437073%,59.617615%,30.580139%);stop-opacity:1;"/>
<stop offset="0.449219" style="stop-color:rgb(71.968079%,60.00824%,30.389404%);stop-opacity:1;"/>
<stop offset="0.453125" style="stop-color:rgb(72.499084%,60.398865%,30.198669%);stop-opacity:1;"/>
<stop offset="0.457031" style="stop-color:rgb(72.889709%,60.78949%,29.808044%);stop-opacity:1;"/>
<stop offset="0.460937" style="stop-color:rgb(73.280334%,61.180115%,29.418945%);stop-opacity:1;"/>
<stop offset="0.464844" style="stop-color:rgb(73.469543%,61.57074%,29.02832%);stop-opacity:1;"/>
<stop offset="0.46875" style="stop-color:rgb(73.660278%,61.961365%,28.637695%);stop-opacity:1;"/>
<stop offset="0.472656" style="stop-color:rgb(74.221802%,62.307739%,28.617859%);stop-opacity:1;"/>
<stop offset="0.476562" style="stop-color:rgb(74.784851%,62.65564%,28.599548%);stop-opacity:1;"/>
<stop offset="0.480469" style="stop-color:rgb(75.253296%,63.088989%,28.387451%);stop-opacity:1;"/>
<stop offset="0.484375" style="stop-color:rgb(75.723267%,63.522339%,28.175354%);stop-opacity:1;"/>
<stop offset="0.488281" style="stop-color:rgb(75.912476%,63.912964%,27.984619%);stop-opacity:1;"/>
<stop offset="0.492187" style="stop-color:rgb(76.10321%,64.303589%,27.79541%);stop-opacity:1;"/>
<stop offset="0.496094" style="stop-color:rgb(76.493835%,64.694214%,27.6474%);stop-opacity:1;"/>
<stop offset="0.5" style="stop-color:rgb(76.88446%,65.084839%,27.49939%);stop-opacity:1;"/>
<stop offset="0.503906" style="stop-color:rgb(77.229309%,65.275574%,27.116394%);stop-opacity:1;"/>
<stop offset="0.507812" style="stop-color:rgb(77.574158%,65.466309%,26.733398%);stop-opacity:1;"/>
<stop offset="0.511719" style="stop-color:rgb(77.786255%,65.855408%,26.342773%);stop-opacity:1;"/>
<stop offset="0.515625" style="stop-color:rgb(77.999878%,66.246033%,25.952148%);stop-opacity:1;"/>
<stop offset="0.519531" style="stop-color:rgb(78.413391%,66.487122%,25.724792%);stop-opacity:1;"/>
<stop offset="0.523438" style="stop-color:rgb(78.82843%,66.72821%,25.498962%);stop-opacity:1;"/>
<stop offset="0.527344" style="stop-color:rgb(79.217529%,67.11731%,25.294495%);stop-opacity:1;"/>
<stop offset="0.53125" style="stop-color:rgb(79.608154%,67.506409%,25.090027%);stop-opacity:1;"/>
<stop offset="0.535156" style="stop-color:rgb(79.998779%,67.848206%,24.894714%);stop-opacity:1;"/>
<stop offset="0.539062" style="stop-color:rgb(80.389404%,68.190002%,24.699402%);stop-opacity:1;"/>
<stop offset="0.542969" style="stop-color:rgb(80.780029%,68.580627%,24.499512%);stop-opacity:1;"/>
<stop offset="0.546875" style="stop-color:rgb(81.170654%,68.971252%,24.299622%);stop-opacity:1;"/>
<stop offset="0.554688" style="stop-color:rgb(81.361389%,69.160461%,24.12262%);stop-opacity:1;"/>
<stop offset="0.558594" style="stop-color:rgb(81.741333%,69.5755%,23.922729%);stop-opacity:1;"/>
<stop offset="0.5625" style="stop-color:rgb(81.932068%,69.799805%,23.899841%);stop-opacity:1;"/>
<stop offset="0.566406" style="stop-color:rgb(82.170105%,70.205688%,23.892212%);stop-opacity:1;"/>
<stop offset="0.570312" style="stop-color:rgb(82.409668%,70.613098%,23.884583%);stop-opacity:1;"/>
<stop offset="0.578125" style="stop-color:rgb(82.554626%,70.805359%,23.690796%);stop-opacity:1;"/>
<stop offset="0.582031" style="stop-color:rgb(82.899475%,71.386719%,24.075317%);stop-opacity:1;"/>
<stop offset="0.585938" style="stop-color:rgb(83.099365%,71.775818%,24.6521%);stop-opacity:1;"/>
<stop offset="0.589844" style="stop-color:rgb(83.477783%,72.315979%,25.231934%);stop-opacity:1;"/>
<stop offset="0.59375" style="stop-color:rgb(83.856201%,72.85614%,25.813293%);stop-opacity:1;"/>
<stop offset="0.597656" style="stop-color:rgb(84.246826%,73.446655%,26.425171%);stop-opacity:1;"/>
<stop offset="0.601562" style="stop-color:rgb(84.637451%,74.03717%,27.037048%);stop-opacity:1;"/>
<stop offset="0.605469" style="stop-color:rgb(85.076904%,74.87793%,27.836609%);stop-opacity:1;"/>
<stop offset="0.609375" style="stop-color:rgb(85.517883%,75.718689%,28.637695%);stop-opacity:1;"/>
<stop offset="0.613281" style="stop-color:rgb(85.908508%,76.309204%,29.618835%);stop-opacity:1;"/>
<stop offset="0.617188" style="stop-color:rgb(86.299133%,76.899719%,30.599976%);stop-opacity:1;"/>
<stop offset="0.621094" style="stop-color:rgb(86.689758%,77.432251%,31.381226%);stop-opacity:1;"/>
<stop offset="0.625" style="stop-color:rgb(87.080383%,77.966309%,32.162476%);stop-opacity:1;"/>
<stop offset="0.628906" style="stop-color:rgb(87.425232%,78.544617%,33.093262%);stop-opacity:1;"/>
<stop offset="0.632812" style="stop-color:rgb(87.771606%,79.124451%,34.024048%);stop-opacity:1;"/>
<stop offset="0.636719" style="stop-color:rgb(88.156128%,79.904175%,35.176086%);stop-opacity:1;"/>
<stop offset="0.640625" style="stop-color:rgb(88.542175%,80.685425%,36.329651%);stop-opacity:1;"/>
<stop offset="0.644531" style="stop-color:rgb(88.983154%,81.35376%,37.388611%);stop-opacity:1;"/>
<stop offset="0.648437" style="stop-color:rgb(89.424133%,82.023621%,38.447571%);stop-opacity:1;"/>
<stop offset="0.652344" style="stop-color:rgb(89.813232%,82.563782%,39.428711%);stop-opacity:1;"/>
<stop offset="0.65625" style="stop-color:rgb(90.203857%,83.103943%,40.409851%);stop-opacity:1;"/>
<stop offset="0.660156" style="stop-color:rgb(90.594482%,83.686829%,41.191101%);stop-opacity:1;"/>
<stop offset="0.664062" style="stop-color:rgb(90.985107%,84.27124%,41.972351%);stop-opacity:1;"/>
<stop offset="0.667969" style="stop-color:rgb(91.375732%,84.8526%,42.886353%);stop-opacity:1;"/>
<stop offset="0.671875" style="stop-color:rgb(91.766357%,85.43396%,43.800354%);stop-opacity:1;"/>
<stop offset="0.675781" style="stop-color:rgb(92.112732%,85.839844%,44.772339%);stop-opacity:1;"/>
<stop offset="0.679688" style="stop-color:rgb(92.460632%,86.247253%,45.744324%);stop-opacity:1;"/>
<stop offset="0.683594" style="stop-color:rgb(92.643738%,86.802673%,46.673584%);stop-opacity:1;"/>
<stop offset="0.6875" style="stop-color:rgb(92.828369%,87.358093%,47.60437%);stop-opacity:1;"/>
<stop offset="0.691406" style="stop-color:rgb(93.267822%,87.983704%,48.516846%);stop-opacity:1;"/>
<stop offset="0.695312" style="stop-color:rgb(93.708801%,88.609314%,49.429321%);stop-opacity:1;"/>
<stop offset="0.699219" style="stop-color:rgb(93.904114%,88.999939%,50.405884%);stop-opacity:1;"/>
<stop offset="0.703125" style="stop-color:rgb(94.099426%,89.390564%,51.382446%);stop-opacity:1;"/>
<stop offset="0.707031" style="stop-color:rgb(94.485474%,89.967346%,52.302551%);stop-opacity:1;"/>
<stop offset="0.710938" style="stop-color:rgb(94.871521%,90.544128%,53.222656%);stop-opacity:1;"/>
<stop offset="0.714844" style="stop-color:rgb(95.085144%,90.948486%,54.190063%);stop-opacity:1;"/>
<stop offset="0.71875" style="stop-color:rgb(95.298767%,91.352844%,55.158997%);stop-opacity:1;"/>
<stop offset="0.722656" style="stop-color:rgb(95.498657%,91.868591%,56.163025%);stop-opacity:1;"/>
<stop offset="0.726562" style="stop-color:rgb(95.698547%,92.384338%,57.167053%);stop-opacity:1;"/>
<stop offset="0.730469" style="stop-color:rgb(96.105957%,93.049622%,58.198547%);stop-opacity:1;"/>
<stop offset="0.734375" style="stop-color:rgb(96.514893%,93.714905%,59.230042%);stop-opacity:1;"/>
<stop offset="0.738281" style="stop-color:rgb(96.707153%,94.10553%,60.009766%);stop-opacity:1;"/>
<stop offset="0.742188" style="stop-color:rgb(96.899414%,94.496155%,60.791016%);stop-opacity:1;"/>
<stop offset="0.746094" style="stop-color:rgb(97.239685%,95.074463%,61.572266%);stop-opacity:1;"/>
<stop offset="0.75" style="stop-color:rgb(97.581482%,95.652771%,62.353516%);stop-opacity:1;"/>
<stop offset="0.753906" style="stop-color:rgb(97.790527%,95.854187%,63.084412%);stop-opacity:1;"/>
<stop offset="0.757812" style="stop-color:rgb(97.999573%,96.057129%,63.815308%);stop-opacity:1;"/>
<stop offset="0.761719" style="stop-color:rgb(97.479248%,95.33844%,62.960815%);stop-opacity:1;"/>
<stop offset="0.765625" style="stop-color:rgb(96.960449%,94.621277%,62.106323%);stop-opacity:1;"/>
<stop offset="0.769531" style="stop-color:rgb(95.281982%,91.752625%,58.831787%);stop-opacity:1;"/>
<stop offset="0.773437" style="stop-color:rgb(93.603516%,88.883972%,55.558777%);stop-opacity:1;"/>
<stop offset="0.777344" style="stop-color:rgb(91.897583%,86.387634%,52.674866%);stop-opacity:1;"/>
<stop offset="0.78125" style="stop-color:rgb(90.193176%,83.891296%,49.790955%);stop-opacity:1;"/>
<stop offset="0.785156" style="stop-color:rgb(88.288879%,81.39801%,46.907043%);stop-opacity:1;"/>
<stop offset="0.789062" style="stop-color:rgb(86.384583%,78.90625%,44.024658%);stop-opacity:1;"/>
<stop offset="0.792969" style="stop-color:rgb(84.815979%,76.612854%,41.340637%);stop-opacity:1;"/>
<stop offset="0.796875" style="stop-color:rgb(83.247375%,74.320984%,38.658142%);stop-opacity:1;"/>
<stop offset="0.800781" style="stop-color:rgb(81.906128%,72.399902%,36.546326%);stop-opacity:1;"/>
<stop offset="0.804688" style="stop-color:rgb(80.566406%,70.478821%,34.434509%);stop-opacity:1;"/>
<stop offset="0.808594" style="stop-color:rgb(79.232788%,68.566895%,32.695007%);stop-opacity:1;"/>
<stop offset="0.8125" style="stop-color:rgb(77.89917%,66.654968%,30.955505%);stop-opacity:1;"/>
<stop offset="0.816406" style="stop-color:rgb(76.589966%,64.665222%,29.014587%);stop-opacity:1;"/>
<stop offset="0.820312" style="stop-color:rgb(75.280762%,62.677002%,27.075195%);stop-opacity:1;"/>
<stop offset="0.824219" style="stop-color:rgb(74.108887%,61.16333%,25.512695%);stop-opacity:1;"/>
<stop offset="0.828125" style="stop-color:rgb(72.938538%,59.651184%,23.951721%);stop-opacity:1;"/>
<stop offset="0.832031" style="stop-color:rgb(72.016907%,58.13446%,22.819519%);stop-opacity:1;"/>
<stop offset="0.835938" style="stop-color:rgb(71.095276%,56.619263%,21.687317%);stop-opacity:1;"/>
<stop offset="0.839844" style="stop-color:rgb(70.472717%,55.635071%,20.69397%);stop-opacity:1;"/>
<stop offset="0.84375" style="stop-color:rgb(69.850159%,54.652405%,19.700623%);stop-opacity:1;"/>
<stop offset="0.847656" style="stop-color:rgb(69.259644%,53.845215%,18.919373%);stop-opacity:1;"/>
<stop offset="0.851562" style="stop-color:rgb(68.669128%,53.039551%,18.139648%);stop-opacity:1;"/>
<stop offset="0.855469" style="stop-color:rgb(68.434143%,52.76947%,17.718506%);stop-opacity:1;"/>
<stop offset="0.859375" style="stop-color:rgb(68.199158%,52.49939%,17.298889%);stop-opacity:1;"/>
<stop offset="0.875" style="stop-color:rgb(68.199158%,52.49939%,17.298889%);stop-opacity:1;"/>
<stop offset="1" style="stop-color:rgb(68.199158%,52.49939%,17.298889%);stop-opacity:1;"/>
</linearGradient>
</defs>
<g id="surface1">
<rect x="0" y="0" width="810" height="809.999993" style="fill:rgb(100%,100%,100%);fill-opacity:1;stroke:none;"/>
<rect x="0" y="0" width="810" height="809.999993" style="fill:rgb(100%,100%,100%);fill-opacity:1;stroke:none;"/>
<rect x="0" y="0" width="810" height="809.999993" style="fill:rgb(100%,100%,100%);fill-opacity:1;stroke:none;"/>
<g clip-path="url(#clip1)" clip-rule="nonzero">
<g clip-path="url(#clip2)" clip-rule="nonzero">
<g clip-path="url(#clip3)" clip-rule="nonzero">
<g clip-path="url(#clip4)" clip-rule="nonzero">
<path style=" stroke:none;fill-rule:nonzero;fill:url(#linear0);" d="M 339.328125 -269.613281 L -204.402344 467.730469 L 537.179688 1016.238281 L 1080.910156 278.894531 Z M 339.328125 -269.613281 "/>
</g>
</g>
</g>
</g>
</g>
</svg>
