<?xml version="1.0" encoding="UTF-8"?>
<svg xmlns="http://www.w3.org/2000/svg" xmlns:xlink="http://www.w3.org/1999/xlink" width="810pt" height="809.999993pt" viewBox="0 0 810 809.999993" version="1.2">
<defs>
<clipPath id="clip1">
  <path d="M 193.773438 119.355469 L 690.273438 119.355469 L 690.273438 624.105469 L 193.773438 624.105469 Z M 193.773438 119.355469 "/>
</clipPath>
</defs>
<g id="surface1">
<rect x="0" y="0" width="810" height="809.999993" style="fill:rgb(100%,100%,100%);fill-opacity:1;stroke:none;"/>
<rect x="0" y="0" width="810" height="809.999993" style="fill:rgb(100%,100%,100%);fill-opacity:1;stroke:none;"/>
<rect x="0" y="0" width="810" height="809.999993" style="fill:rgb(100%,100%,100%);fill-opacity:1;stroke:none;"/>
<g clip-path="url(#clip1)" clip-rule="nonzero">
<path style=" stroke:none;fill-rule:nonzero;fill:rgb(65.879822%,54.508972%,7.449341%);fill-opacity:1;" d="M 689.894531 224.683594 C 689.828125 224.441406 689.722656 224.226562 689.632812 224.003906 C 689.449219 223.53125 689.25 223.078125 688.984375 222.648438 C 688.835938 222.40625 688.679688 222.191406 688.507812 221.96875 C 688.226562 221.585938 687.910156 221.238281 687.554688 220.917969 C 687.347656 220.71875 687.140625 220.535156 686.910156 220.363281 C 686.777344 220.265625 686.675781 220.140625 686.546875 220.046875 C 686.238281 219.839844 685.898438 219.726562 685.578125 219.558594 C 685.410156 219.476562 685.289062 219.355469 685.113281 219.277344 L 445.175781 119.984375 C 443.140625 119.140625 440.871094 119.140625 438.835938 119.984375 L 198.898438 219.277344 C 198.726562 219.355469 198.59375 219.476562 198.425781 219.558594 C 198.105469 219.71875 197.773438 219.839844 197.476562 220.039062 C 197.34375 220.132812 197.242188 220.253906 197.113281 220.355469 C 196.878906 220.527344 196.679688 220.71875 196.472656 220.910156 C 196.128906 221.230469 195.8125 221.578125 195.523438 221.960938 C 195.347656 222.183594 195.191406 222.398438 195.042969 222.636719 C 194.777344 223.070312 194.578125 223.523438 194.398438 223.996094 C 194.308594 224.226562 194.199219 224.433594 194.132812 224.675781 C 193.941406 225.402344 193.808594 226.15625 193.808594 226.925781 L 193.808594 516.535156 C 193.808594 519.886719 195.828125 522.90625 198.914062 524.179688 L 438.855469 623.476562 C 438.960938 623.519531 439.078125 623.5 439.183594 623.542969 C 440.101562 623.882812 441.046875 624.105469 442.023438 624.105469 C 443 624.105469 443.941406 623.882812 444.859375 623.542969 C 444.96875 623.5 445.085938 623.519531 445.191406 623.476562 L 685.128906 524.179688 C 688.214844 522.90625 690.234375 519.886719 690.234375 516.535156 L 690.234375 226.925781 C 690.234375 226.15625 690.101562 225.402344 689.894531 224.683594 Z M 442.023438 136.582031 L 660.324219 226.925781 L 442.023438 317.265625 L 223.71875 226.925781 Z M 210.359375 239.304688 L 433.75 331.746094 L 433.75 603.445312 L 210.359375 511.007812 Z M 673.6875 511.007812 L 450.296875 603.453125 L 450.296875 331.746094 L 673.6875 239.304688 Z M 673.6875 511.007812 "/>
</g>
</g>
</svg>
