<?xml version="1.0" encoding="UTF-8"?>
<svg xmlns="http://www.w3.org/2000/svg" xmlns:xlink="http://www.w3.org/1999/xlink" width="810pt" height="809.999993pt" viewBox="0 0 810 809.999993" version="1.2">
<defs>
<clipPath id="clip1">
  <path d="M 371 313 L 412 313 L 412 353 L 371 353 Z M 371 313 "/>
</clipPath>
<clipPath id="clip2">
  <path d="M 170.195312 407.304688 L 396.492188 146.890625 L 639.921875 358.429688 L 413.625 618.839844 Z M 170.195312 407.304688 "/>
</clipPath>
<clipPath id="clip3">
  <path d="M 170.195312 407.304688 L 396.492188 146.890625 L 639.921875 358.429688 L 413.625 618.839844 Z M 170.195312 407.304688 "/>
</clipPath>
<clipPath id="clip4">
  <path d="M 409 350 L 412 350 L 412 353 L 409 353 Z M 409 350 "/>
</clipPath>
<clipPath id="clip5">
  <path d="M 170.195312 407.304688 L 396.492188 146.890625 L 639.921875 358.429688 L 413.625 618.839844 Z M 170.195312 407.304688 "/>
</clipPath>
<clipPath id="clip6">
  <path d="M 170.195312 407.304688 L 396.492188 146.890625 L 639.921875 358.429688 L 413.625 618.839844 Z M 170.195312 407.304688 "/>
</clipPath>
<clipPath id="clip7">
  <path d="M 371 313 L 412 313 L 412 353 L 371 353 Z M 371 313 "/>
</clipPath>
<clipPath id="clip8">
  <path d="M 170.195312 407.304688 L 396.492188 146.890625 L 639.921875 358.429688 L 413.625 618.839844 Z M 170.195312 407.304688 "/>
</clipPath>
<clipPath id="clip9">
  <path d="M 170.195312 407.304688 L 396.492188 146.890625 L 639.921875 358.429688 L 413.625 618.839844 Z M 170.195312 407.304688 "/>
</clipPath>
<clipPath id="clip10">
  <path d="M 409 367 L 441 367 L 441 374 L 409 374 Z M 409 367 "/>
</clipPath>
<clipPath id="clip11">
  <path d="M 170.195312 407.304688 L 396.492188 146.890625 L 639.921875 358.429688 L 413.625 618.839844 Z M 170.195312 407.304688 "/>
</clipPath>
<clipPath id="clip12">
  <path d="M 170.195312 407.304688 L 396.492188 146.890625 L 639.921875 358.429688 L 413.625 618.839844 Z M 170.195312 407.304688 "/>
</clipPath>
<clipPath id="clip13">
  <path d="M 408 371 L 412 371 L 412 375 L 408 375 Z M 408 371 "/>
</clipPath>
<clipPath id="clip14">
  <path d="M 170.195312 407.304688 L 396.492188 146.890625 L 639.921875 358.429688 L 413.625 618.839844 Z M 170.195312 407.304688 "/>
</clipPath>
<clipPath id="clip15">
  <path d="M 170.195312 407.304688 L 396.492188 146.890625 L 639.921875 358.429688 L 413.625 618.839844 Z M 170.195312 407.304688 "/>
</clipPath>
<clipPath id="clip16">
  <path d="M 336 371 L 411 371 L 411 397 L 336 397 Z M 336 371 "/>
</clipPath>
<clipPath id="clip17">
  <path d="M 170.195312 407.304688 L 396.492188 146.890625 L 639.921875 358.429688 L 413.625 618.839844 Z M 170.195312 407.304688 "/>
</clipPath>
<clipPath id="clip18">
  <path d="M 170.195312 407.304688 L 396.492188 146.890625 L 639.921875 358.429688 L 413.625 618.839844 Z M 170.195312 407.304688 "/>
</clipPath>
<clipPath id="clip19">
  <path d="M 408 371 L 412 371 L 412 374 L 408 374 Z M 408 371 "/>
</clipPath>
<clipPath id="clip20">
  <path d="M 170.195312 407.304688 L 396.492188 146.890625 L 639.921875 358.429688 L 413.625 618.839844 Z M 170.195312 407.304688 "/>
</clipPath>
<clipPath id="clip21">
  <path d="M 170.195312 407.304688 L 396.492188 146.890625 L 639.921875 358.429688 L 413.625 618.839844 Z M 170.195312 407.304688 "/>
</clipPath>
<clipPath id="clip22">
  <path d="M 336 369 L 411 369 L 411 396 L 336 396 Z M 336 369 "/>
</clipPath>
<clipPath id="clip23">
  <path d="M 170.195312 407.304688 L 396.492188 146.890625 L 639.921875 358.429688 L 413.625 618.839844 Z M 170.195312 407.304688 "/>
</clipPath>
<clipPath id="clip24">
  <path d="M 170.195312 407.304688 L 396.492188 146.890625 L 639.921875 358.429688 L 413.625 618.839844 Z M 170.195312 407.304688 "/>
</clipPath>
<clipPath id="clip25">
  <path d="M 478 313 L 516 313 L 516 371 L 478 371 Z M 478 313 "/>
</clipPath>
<clipPath id="clip26">
  <path d="M 170.195312 407.304688 L 396.492188 146.890625 L 639.921875 358.429688 L 413.625 618.839844 Z M 170.195312 407.304688 "/>
</clipPath>
<clipPath id="clip27">
  <path d="M 170.195312 407.304688 L 396.492188 146.890625 L 639.921875 358.429688 L 413.625 618.839844 Z M 170.195312 407.304688 "/>
</clipPath>
<clipPath id="clip28">
  <path d="M 400 290 L 478 290 L 478 368 L 400 368 Z M 400 290 "/>
</clipPath>
<clipPath id="clip29">
  <path d="M 170.195312 407.304688 L 396.492188 146.890625 L 639.921875 358.429688 L 413.625 618.839844 Z M 170.195312 407.304688 "/>
</clipPath>
<clipPath id="clip30">
  <path d="M 170.195312 407.304688 L 396.492188 146.890625 L 639.921875 358.429688 L 413.625 618.839844 Z M 170.195312 407.304688 "/>
</clipPath>
<clipPath id="clip31">
  <path d="M 475 364 L 502 364 L 502 388 L 475 388 Z M 475 364 "/>
</clipPath>
<clipPath id="clip32">
  <path d="M 170.195312 407.304688 L 396.492188 146.890625 L 639.921875 358.429688 L 413.625 618.839844 Z M 170.195312 407.304688 "/>
</clipPath>
<clipPath id="clip33">
  <path d="M 170.195312 407.304688 L 396.492188 146.890625 L 639.921875 358.429688 L 413.625 618.839844 Z M 170.195312 407.304688 "/>
</clipPath>
<clipPath id="clip34">
  <path d="M 398 290 L 478 290 L 478 366 L 398 366 Z M 398 290 "/>
</clipPath>
<clipPath id="clip35">
  <path d="M 170.195312 407.304688 L 396.492188 146.890625 L 639.921875 358.429688 L 413.625 618.839844 Z M 170.195312 407.304688 "/>
</clipPath>
<clipPath id="clip36">
  <path d="M 170.195312 407.304688 L 396.492188 146.890625 L 639.921875 358.429688 L 413.625 618.839844 Z M 170.195312 407.304688 "/>
</clipPath>
<clipPath id="clip37">
  <path d="M 380 345 L 563 345 L 563 392 L 380 392 Z M 380 345 "/>
</clipPath>
<clipPath id="clip38">
  <path d="M 170.195312 407.304688 L 396.492188 146.890625 L 639.921875 358.429688 L 413.625 618.839844 Z M 170.195312 407.304688 "/>
</clipPath>
<clipPath id="clip39">
  <path d="M 170.195312 407.304688 L 396.492188 146.890625 L 639.921875 358.429688 L 413.625 618.839844 Z M 170.195312 407.304688 "/>
</clipPath>
<clipPath id="clip40">
  <path d="M 276 299 L 383 299 L 383 348 L 276 348 Z M 276 299 "/>
</clipPath>
<clipPath id="clip41">
  <path d="M 170.195312 407.304688 L 396.492188 146.890625 L 639.921875 358.429688 L 413.625 618.839844 Z M 170.195312 407.304688 "/>
</clipPath>
<clipPath id="clip42">
  <path d="M 170.195312 407.304688 L 396.492188 146.890625 L 639.921875 358.429688 L 413.625 618.839844 Z M 170.195312 407.304688 "/>
</clipPath>
<clipPath id="clip43">
  <path d="M 208 355 L 249 355 L 249 365 L 208 365 Z M 208 355 "/>
</clipPath>
<clipPath id="clip44">
  <path d="M 170.195312 407.304688 L 396.492188 146.890625 L 639.921875 358.429688 L 413.625 618.839844 Z M 170.195312 407.304688 "/>
</clipPath>
<clipPath id="clip45">
  <path d="M 170.195312 407.304688 L 396.492188 146.890625 L 639.921875 358.429688 L 413.625 618.839844 Z M 170.195312 407.304688 "/>
</clipPath>
<clipPath id="clip46">
  <path d="M 237 334 L 260 334 L 260 376 L 237 376 Z M 237 334 "/>
</clipPath>
<clipPath id="clip47">
  <path d="M 170.195312 407.304688 L 396.492188 146.890625 L 639.921875 358.429688 L 413.625 618.839844 Z M 170.195312 407.304688 "/>
</clipPath>
<clipPath id="clip48">
  <path d="M 170.195312 407.304688 L 396.492188 146.890625 L 639.921875 358.429688 L 413.625 618.839844 Z M 170.195312 407.304688 "/>
</clipPath>
<clipPath id="clip49">
  <path d="M 192 375 L 248 375 L 248 393 L 192 393 Z M 192 375 "/>
</clipPath>
<clipPath id="clip50">
  <path d="M 170.195312 407.304688 L 396.492188 146.890625 L 639.921875 358.429688 L 413.625 618.839844 Z M 170.195312 407.304688 "/>
</clipPath>
<clipPath id="clip51">
  <path d="M 170.195312 407.304688 L 396.492188 146.890625 L 639.921875 358.429688 L 413.625 618.839844 Z M 170.195312 407.304688 "/>
</clipPath>
<clipPath id="clip52">
  <path d="M 245 372 L 322 372 L 322 403 L 245 403 Z M 245 372 "/>
</clipPath>
<clipPath id="clip53">
  <path d="M 170.195312 407.304688 L 396.492188 146.890625 L 639.921875 358.429688 L 413.625 618.839844 Z M 170.195312 407.304688 "/>
</clipPath>
<clipPath id="clip54">
  <path d="M 170.195312 407.304688 L 396.492188 146.890625 L 639.921875 358.429688 L 413.625 618.839844 Z M 170.195312 407.304688 "/>
</clipPath>
<clipPath id="clip55">
  <path d="M 195 387 L 327 387 L 327 412 L 195 412 Z M 195 387 "/>
</clipPath>
<clipPath id="clip56">
  <path d="M 170.195312 407.304688 L 396.492188 146.890625 L 639.921875 358.429688 L 413.625 618.839844 Z M 170.195312 407.304688 "/>
</clipPath>
<clipPath id="clip57">
  <path d="M 170.195312 407.304688 L 396.492188 146.890625 L 639.921875 358.429688 L 413.625 618.839844 Z M 170.195312 407.304688 "/>
</clipPath>
<clipPath id="clip58">
  <path d="M 237 333 L 323 333 L 323 414 L 237 414 Z M 237 333 "/>
</clipPath>
<clipPath id="clip59">
  <path d="M 170.195312 407.304688 L 396.492188 146.890625 L 639.921875 358.429688 L 413.625 618.839844 Z M 170.195312 407.304688 "/>
</clipPath>
<clipPath id="clip60">
  <path d="M 170.195312 407.304688 L 396.492188 146.890625 L 639.921875 358.429688 L 413.625 618.839844 Z M 170.195312 407.304688 "/>
</clipPath>
<clipPath id="clip61">
  <path d="M 560 357 L 640 357 L 640 391 L 560 391 Z M 560 357 "/>
</clipPath>
<clipPath id="clip62">
  <path d="M 170.195312 407.304688 L 396.492188 146.890625 L 639.921875 358.429688 L 413.625 618.839844 Z M 170.195312 407.304688 "/>
</clipPath>
<clipPath id="clip63">
  <path d="M 170.195312 407.304688 L 396.492188 146.890625 L 639.921875 358.429688 L 413.625 618.839844 Z M 170.195312 407.304688 "/>
</clipPath>
<clipPath id="clip64">
  <path d="M 559.089844 390.09375 L 609.675781 331.878906 L 640.332031 358.519531 L 589.746094 416.734375 Z M 559.089844 390.09375 "/>
</clipPath>
<clipPath id="clip65">
  <path d="M 559.089844 390.09375 L 609.398438 332.195312 L 639.777344 358.59375 L 589.46875 416.488281 Z M 559.089844 390.09375 "/>
</clipPath>
<clipPath id="clip66">
  <path d="M 441 388 L 563 388 L 563 412 L 441 412 Z M 441 388 "/>
</clipPath>
<clipPath id="clip67">
  <path d="M 170.195312 407.304688 L 396.492188 146.890625 L 639.921875 358.429688 L 413.625 618.839844 Z M 170.195312 407.304688 "/>
</clipPath>
<clipPath id="clip68">
  <path d="M 170.195312 407.304688 L 396.492188 146.890625 L 639.921875 358.429688 L 413.625 618.839844 Z M 170.195312 407.304688 "/>
</clipPath>
<clipPath id="clip69">
  <path d="M 327 409 L 395 409 L 395 414 L 327 414 Z M 327 409 "/>
</clipPath>
<clipPath id="clip70">
  <path d="M 170.195312 407.304688 L 396.492188 146.890625 L 639.921875 358.429688 L 413.625 618.839844 Z M 170.195312 407.304688 "/>
</clipPath>
<clipPath id="clip71">
  <path d="M 170.195312 407.304688 L 396.492188 146.890625 L 639.921875 358.429688 L 413.625 618.839844 Z M 170.195312 407.304688 "/>
</clipPath>
<clipPath id="clip72">
  <path d="M 320 409 L 331 409 L 331 412 L 320 412 Z M 320 409 "/>
</clipPath>
<clipPath id="clip73">
  <path d="M 170.195312 407.304688 L 396.492188 146.890625 L 639.921875 358.429688 L 413.625 618.839844 Z M 170.195312 407.304688 "/>
</clipPath>
<clipPath id="clip74">
  <path d="M 170.195312 407.304688 L 396.492188 146.890625 L 639.921875 358.429688 L 413.625 618.839844 Z M 170.195312 407.304688 "/>
</clipPath>
<clipPath id="clip75">
  <path d="M 218 447 L 235 447 L 235 456 L 218 456 Z M 218 447 "/>
</clipPath>
<clipPath id="clip76">
  <path d="M 170.195312 407.304688 L 396.492188 146.890625 L 639.921875 358.429688 L 413.625 618.839844 Z M 170.195312 407.304688 "/>
</clipPath>
<clipPath id="clip77">
  <path d="M 170.195312 407.304688 L 396.492188 146.890625 L 639.921875 358.429688 L 413.625 618.839844 Z M 170.195312 407.304688 "/>
</clipPath>
<clipPath id="clip78">
  <path d="M 192 390 L 246 390 L 246 423 L 192 423 Z M 192 390 "/>
</clipPath>
<clipPath id="clip79">
  <path d="M 170.195312 407.304688 L 396.492188 146.890625 L 639.921875 358.429688 L 413.625 618.839844 Z M 170.195312 407.304688 "/>
</clipPath>
<clipPath id="clip80">
  <path d="M 170.195312 407.304688 L 396.492188 146.890625 L 639.921875 358.429688 L 413.625 618.839844 Z M 170.195312 407.304688 "/>
</clipPath>
<clipPath id="clip81">
  <path d="M 327 409 L 331 409 L 331 412 L 327 412 Z M 327 409 "/>
</clipPath>
<clipPath id="clip82">
  <path d="M 170.195312 407.304688 L 396.492188 146.890625 L 639.921875 358.429688 L 413.625 618.839844 Z M 170.195312 407.304688 "/>
</clipPath>
<clipPath id="clip83">
  <path d="M 170.195312 407.304688 L 396.492188 146.890625 L 639.921875 358.429688 L 413.625 618.839844 Z M 170.195312 407.304688 "/>
</clipPath>
<clipPath id="clip84">
  <path d="M 314 414 L 321 414 L 321 420 L 314 420 Z M 314 414 "/>
</clipPath>
<clipPath id="clip85">
  <path d="M 170.195312 407.304688 L 396.492188 146.890625 L 639.921875 358.429688 L 413.625 618.839844 Z M 170.195312 407.304688 "/>
</clipPath>
<clipPath id="clip86">
  <path d="M 170.195312 407.304688 L 396.492188 146.890625 L 639.921875 358.429688 L 413.625 618.839844 Z M 170.195312 407.304688 "/>
</clipPath>
<clipPath id="clip87">
  <path d="M 243 417 L 317 417 L 317 430 L 243 430 Z M 243 417 "/>
</clipPath>
<clipPath id="clip88">
  <path d="M 170.195312 407.304688 L 396.492188 146.890625 L 639.921875 358.429688 L 413.625 618.839844 Z M 170.195312 407.304688 "/>
</clipPath>
<clipPath id="clip89">
  <path d="M 170.195312 407.304688 L 396.492188 146.890625 L 639.921875 358.429688 L 413.625 618.839844 Z M 170.195312 407.304688 "/>
</clipPath>
<clipPath id="clip90">
  <path d="M 218 425 L 259 425 L 259 450 L 218 450 Z M 218 425 "/>
</clipPath>
<clipPath id="clip91">
  <path d="M 170.195312 407.304688 L 396.492188 146.890625 L 639.921875 358.429688 L 413.625 618.839844 Z M 170.195312 407.304688 "/>
</clipPath>
<clipPath id="clip92">
  <path d="M 170.195312 407.304688 L 396.492188 146.890625 L 639.921875 358.429688 L 413.625 618.839844 Z M 170.195312 407.304688 "/>
</clipPath>
<clipPath id="clip93">
  <path d="M 211 425 L 235 425 L 235 440 L 211 440 Z M 211 425 "/>
</clipPath>
<clipPath id="clip94">
  <path d="M 170.195312 407.304688 L 396.492188 146.890625 L 639.921875 358.429688 L 413.625 618.839844 Z M 170.195312 407.304688 "/>
</clipPath>
<clipPath id="clip95">
  <path d="M 170.195312 407.304688 L 396.492188 146.890625 L 639.921875 358.429688 L 413.625 618.839844 Z M 170.195312 407.304688 "/>
</clipPath>
<clipPath id="clip96">
  <path d="M 211 415 L 228 415 L 228 428 L 211 428 Z M 211 415 "/>
</clipPath>
<clipPath id="clip97">
  <path d="M 170.195312 407.304688 L 396.492188 146.890625 L 639.921875 358.429688 L 413.625 618.839844 Z M 170.195312 407.304688 "/>
</clipPath>
<clipPath id="clip98">
  <path d="M 170.195312 407.304688 L 396.492188 146.890625 L 639.921875 358.429688 L 413.625 618.839844 Z M 170.195312 407.304688 "/>
</clipPath>
<clipPath id="clip99">
  <path d="M 312 419 L 318 419 L 318 424 L 312 424 Z M 312 419 "/>
</clipPath>
<clipPath id="clip100">
  <path d="M 170.195312 407.304688 L 396.492188 146.890625 L 639.921875 358.429688 L 413.625 618.839844 Z M 170.195312 407.304688 "/>
</clipPath>
<clipPath id="clip101">
  <path d="M 170.195312 407.304688 L 396.492188 146.890625 L 639.921875 358.429688 L 413.625 618.839844 Z M 170.195312 407.304688 "/>
</clipPath>
<clipPath id="clip102">
  <path d="M 232 421 L 315 421 L 315 456 L 232 456 Z M 232 421 "/>
</clipPath>
<clipPath id="clip103">
  <path d="M 170.195312 407.304688 L 396.492188 146.890625 L 639.921875 358.429688 L 413.625 618.839844 Z M 170.195312 407.304688 "/>
</clipPath>
<clipPath id="clip104">
  <path d="M 170.195312 407.304688 L 396.492188 146.890625 L 639.921875 358.429688 L 413.625 618.839844 Z M 170.195312 407.304688 "/>
</clipPath>
<clipPath id="clip105">
  <path d="M 238 337 L 317 337 L 317 388 L 238 388 Z M 238 337 "/>
</clipPath>
<clipPath id="clip106">
  <path d="M 170.195312 407.304688 L 396.492188 146.890625 L 639.921875 358.429688 L 413.625 618.839844 Z M 170.195312 407.304688 "/>
</clipPath>
<clipPath id="clip107">
  <path d="M 170.195312 407.304688 L 396.492188 146.890625 L 639.921875 358.429688 L 413.625 618.839844 Z M 170.195312 407.304688 "/>
</clipPath>
<clipPath id="clip108">
  <path d="M 349 377 L 473 377 L 473 472 L 349 472 Z M 349 377 "/>
</clipPath>
<clipPath id="clip109">
  <path d="M 170.195312 407.304688 L 396.492188 146.890625 L 639.921875 358.429688 L 413.625 618.839844 Z M 170.195312 407.304688 "/>
</clipPath>
<clipPath id="clip110">
  <path d="M 170.195312 407.304688 L 396.492188 146.890625 L 639.921875 358.429688 L 413.625 618.839844 Z M 170.195312 407.304688 "/>
</clipPath>
<clipPath id="clip111">
  <path d="M 349 383 L 466 383 L 466 472 L 349 472 Z M 349 383 "/>
</clipPath>
<clipPath id="clip112">
  <path d="M 170.195312 407.304688 L 396.492188 146.890625 L 639.921875 358.429688 L 413.625 618.839844 Z M 170.195312 407.304688 "/>
</clipPath>
<clipPath id="clip113">
  <path d="M 170.195312 407.304688 L 396.492188 146.890625 L 639.921875 358.429688 L 413.625 618.839844 Z M 170.195312 407.304688 "/>
</clipPath>
<clipPath id="clip114">
  <path d="M 511 366 L 532 366 L 532 392 L 511 392 Z M 511 366 "/>
</clipPath>
<clipPath id="clip115">
  <path d="M 170.195312 407.304688 L 396.492188 146.890625 L 639.921875 358.429688 L 413.625 618.839844 Z M 170.195312 407.304688 "/>
</clipPath>
<clipPath id="clip116">
  <path d="M 170.195312 407.304688 L 396.492188 146.890625 L 639.921875 358.429688 L 413.625 618.839844 Z M 170.195312 407.304688 "/>
</clipPath>
<clipPath id="clip117">
  <path d="M 380 345 L 383 345 L 383 348 L 380 348 Z M 380 345 "/>
</clipPath>
<clipPath id="clip118">
  <path d="M 170.195312 407.304688 L 396.492188 146.890625 L 639.921875 358.429688 L 413.625 618.839844 Z M 170.195312 407.304688 "/>
</clipPath>
<clipPath id="clip119">
  <path d="M 170.195312 407.304688 L 396.492188 146.890625 L 639.921875 358.429688 L 413.625 618.839844 Z M 170.195312 407.304688 "/>
</clipPath>
<clipPath id="clip120">
  <path d="M 409 350 L 421 350 L 421 363 L 409 363 Z M 409 350 "/>
</clipPath>
<clipPath id="clip121">
  <path d="M 170.195312 407.304688 L 396.492188 146.890625 L 639.921875 358.429688 L 413.625 618.839844 Z M 170.195312 407.304688 "/>
</clipPath>
<clipPath id="clip122">
  <path d="M 170.195312 407.304688 L 396.492188 146.890625 L 639.921875 358.429688 L 413.625 618.839844 Z M 170.195312 407.304688 "/>
</clipPath>
<clipPath id="clip123">
  <path d="M 398 290 L 478 290 L 478 368 L 398 368 Z M 398 290 "/>
</clipPath>
<clipPath id="clip124">
  <path d="M 170.195312 407.304688 L 396.492188 146.890625 L 639.921875 358.429688 L 413.625 618.839844 Z M 170.195312 407.304688 "/>
</clipPath>
<clipPath id="clip125">
  <path d="M 170.195312 407.304688 L 396.492188 146.890625 L 639.921875 358.429688 L 413.625 618.839844 Z M 170.195312 407.304688 "/>
</clipPath>
<clipPath id="clip126">
  <path d="M 478 313 L 516 313 L 516 369 L 478 369 Z M 478 313 "/>
</clipPath>
<clipPath id="clip127">
  <path d="M 170.195312 407.304688 L 396.492188 146.890625 L 639.921875 358.429688 L 413.625 618.839844 Z M 170.195312 407.304688 "/>
</clipPath>
<clipPath id="clip128">
  <path d="M 170.195312 407.304688 L 396.492188 146.890625 L 639.921875 358.429688 L 413.625 618.839844 Z M 170.195312 407.304688 "/>
</clipPath>
<clipPath id="clip129">
  <path d="M 274 297 L 374 297 L 374 345 L 274 345 Z M 274 297 "/>
</clipPath>
<clipPath id="clip130">
  <path d="M 170.195312 407.304688 L 396.492188 146.890625 L 639.921875 358.429688 L 413.625 618.839844 Z M 170.195312 407.304688 "/>
</clipPath>
<clipPath id="clip131">
  <path d="M 170.195312 407.304688 L 396.492188 146.890625 L 639.921875 358.429688 L 413.625 618.839844 Z M 170.195312 407.304688 "/>
</clipPath>
<clipPath id="clip132">
  <path d="M 338 312 L 376 312 L 376 345 L 338 345 Z M 338 312 "/>
</clipPath>
<clipPath id="clip133">
  <path d="M 170.195312 407.304688 L 396.492188 146.890625 L 639.921875 358.429688 L 413.625 618.839844 Z M 170.195312 407.304688 "/>
</clipPath>
<clipPath id="clip134">
  <path d="M 170.195312 407.304688 L 396.492188 146.890625 L 639.921875 358.429688 L 413.625 618.839844 Z M 170.195312 407.304688 "/>
</clipPath>
<clipPath id="clip135">
  <path d="M 274 297 L 341 297 L 341 315 L 274 315 Z M 274 297 "/>
</clipPath>
<clipPath id="clip136">
  <path d="M 170.195312 407.304688 L 396.492188 146.890625 L 639.921875 358.429688 L 413.625 618.839844 Z M 170.195312 407.304688 "/>
</clipPath>
<clipPath id="clip137">
  <path d="M 170.195312 407.304688 L 396.492188 146.890625 L 639.921875 358.429688 L 413.625 618.839844 Z M 170.195312 407.304688 "/>
</clipPath>
<clipPath id="clip138">
  <path d="M 224 408 L 324 408 L 324 460 L 224 460 Z M 224 408 "/>
</clipPath>
<clipPath id="clip139">
  <path d="M 170.195312 407.304688 L 396.492188 146.890625 L 639.921875 358.429688 L 413.625 618.839844 Z M 170.195312 407.304688 "/>
</clipPath>
<clipPath id="clip140">
  <path d="M 170.195312 407.304688 L 396.492188 146.890625 L 639.921875 358.429688 L 413.625 618.839844 Z M 170.195312 407.304688 "/>
</clipPath>
<clipPath id="clip141">
  <path d="M 208 362 L 231 362 L 231 379 L 208 379 Z M 208 362 "/>
</clipPath>
<clipPath id="clip142">
  <path d="M 170.195312 407.304688 L 396.492188 146.890625 L 639.921875 358.429688 L 413.625 618.839844 Z M 170.195312 407.304688 "/>
</clipPath>
<clipPath id="clip143">
  <path d="M 170.195312 407.304688 L 396.492188 146.890625 L 639.921875 358.429688 L 413.625 618.839844 Z M 170.195312 407.304688 "/>
</clipPath>
<clipPath id="clip144">
  <path d="M 210 359 L 251 359 L 251 364 L 210 364 Z M 210 359 "/>
</clipPath>
<clipPath id="clip145">
  <path d="M 170.195312 407.304688 L 396.492188 146.890625 L 639.921875 358.429688 L 413.625 618.839844 Z M 170.195312 407.304688 "/>
</clipPath>
<clipPath id="clip146">
  <path d="M 170.195312 407.304688 L 396.492188 146.890625 L 639.921875 358.429688 L 413.625 618.839844 Z M 170.195312 407.304688 "/>
</clipPath>
</defs>
<g id="surface1">
<rect x="0" y="0" width="810" height="809.999993" style="fill:rgb(100%,100%,100%);fill-opacity:1;stroke:none;"/>
<rect x="0" y="0" width="810" height="809.999993" style="fill:rgb(100%,100%,100%);fill-opacity:1;stroke:none;"/>
<rect x="0" y="0" width="810" height="809.999993" style="fill:rgb(100%,100%,100%);fill-opacity:1;stroke:none;"/>
<g clip-path="url(#clip1)" clip-rule="nonzero">
<g clip-path="url(#clip2)" clip-rule="nonzero">
<g clip-path="url(#clip3)" clip-rule="nonzero">
<path style=" stroke:none;fill-rule:nonzero;fill:rgb(39.219666%,5.488586%,13.729858%);fill-opacity:1;" d="M 411.3125 351.824219 C 411.046875 352.132812 410.609375 352.265625 410.195312 352.121094 L 409.121094 351.761719 C 407.117188 351.089844 405.046875 350.394531 403.105469 349.335938 C 398.277344 346.683594 393.441406 343.042969 388.730469 338.515625 C 385.304688 335.226562 382.890625 331.203125 380.558594 327.328125 C 379.378906 325.359375 378.160156 323.328125 376.832031 321.433594 C 375.371094 319.351562 373.757812 317.246094 372.050781 315.171875 C 371.6875 314.726562 371.753906 314.074219 372.195312 313.714844 C 372.632812 313.359375 373.28125 313.421875 373.648438 313.859375 C 375.386719 315.972656 377.03125 318.121094 378.523438 320.246094 C 379.894531 322.203125 381.132812 324.265625 382.324219 326.261719 C 384.695312 330.199219 386.929688 333.921875 390.160156 337.027344 C 394.738281 341.425781 399.429688 344.957031 404.101562 347.519531 C 405.882812 348.492188 407.777344 349.125 409.78125 349.800781 L 410.863281 350.167969 C 411.410156 350.347656 411.699219 350.9375 411.511719 351.476562 C 411.464844 351.609375 411.398438 351.726562 411.3125 351.824219 "/>
</g>
</g>
</g>
<g clip-path="url(#clip4)" clip-rule="nonzero">
<g clip-path="url(#clip5)" clip-rule="nonzero">
<g clip-path="url(#clip6)" clip-rule="nonzero">
<path style=" stroke:none;fill-rule:nonzero;fill:rgb(39.219666%,5.488586%,13.729858%);fill-opacity:1;" d="M 411.636719 351.941406 C 411.363281 352.261719 410.902344 352.390625 410.488281 352.230469 L 410.480469 352.222656 C 410.40625 352.195312 410.324219 352.160156 410.246094 352.136719 C 409.703125 351.976562 409.386719 351.40625 409.550781 350.859375 C 409.707031 350.3125 410.28125 350 410.828125 350.15625 C 410.960938 350.195312 411.09375 350.25 411.230469 350.300781 C 411.761719 350.507812 412.027344 351.105469 411.820312 351.636719 C 411.777344 351.753906 411.714844 351.855469 411.636719 351.941406 "/>
</g>
</g>
</g>
<g clip-path="url(#clip7)" clip-rule="nonzero">
<g clip-path="url(#clip8)" clip-rule="nonzero">
<g clip-path="url(#clip9)" clip-rule="nonzero">
<path style=" stroke:none;fill-rule:nonzero;fill:rgb(39.219666%,5.488586%,13.729858%);fill-opacity:1;" d="M 411.636719 351.941406 C 411.460938 352.144531 411.199219 352.28125 410.910156 352.296875 C 410.335938 352.316406 409.855469 351.882812 409.828125 351.308594 C 409.605469 346.390625 406.214844 340.570312 403.277344 336.046875 C 400.871094 332.34375 397.417969 328.71875 393.550781 325.851562 C 391.042969 323.992188 388.070312 322.578125 385.199219 321.210938 C 383.4375 320.375 381.617188 319.507812 379.910156 318.542969 C 377.96875 317.449219 375.605469 316.601562 373.324219 315.785156 L 372.5 315.488281 C 371.960938 315.292969 371.683594 314.703125 371.878906 314.164062 C 372.070312 313.628906 372.667969 313.351562 373.203125 313.542969 L 374.023438 313.835938 C 376.378906 314.683594 378.828125 315.558594 380.925781 316.746094 C 382.566406 317.667969 384.359375 318.523438 386.082031 319.34375 C 389.050781 320.757812 392.113281 322.214844 394.777344 324.191406 C 398.84375 327.203125 402.472656 331.015625 405.011719 334.925781 C 408.085938 339.667969 411.648438 345.800781 411.894531 351.21875 C 411.902344 351.488281 411.804688 351.75 411.636719 351.941406 "/>
</g>
</g>
</g>
<g clip-path="url(#clip10)" clip-rule="nonzero">
<g clip-path="url(#clip11)" clip-rule="nonzero">
<g clip-path="url(#clip12)" clip-rule="nonzero">
<path style=" stroke:none;fill-rule:nonzero;fill:rgb(39.219666%,5.488586%,13.729858%);fill-opacity:1;" d="M 440.578125 369.28125 C 440.382812 369.503906 440.089844 369.644531 439.765625 369.636719 C 430.511719 369.375 420.714844 371.515625 410.652344 373.929688 C 410.101562 374.0625 409.539062 373.71875 409.414062 373.164062 C 409.28125 372.609375 409.621094 372.054688 410.175781 371.917969 C 420.371094 369.476562 430.3125 367.304688 439.824219 367.566406 C 440.394531 367.582031 440.84375 368.0625 440.828125 368.632812 C 440.824219 368.882812 440.730469 369.105469 440.578125 369.28125 "/>
</g>
</g>
</g>
<g clip-path="url(#clip13)" clip-rule="nonzero">
<g clip-path="url(#clip14)" clip-rule="nonzero">
<g clip-path="url(#clip15)" clip-rule="nonzero">
<path style=" stroke:none;fill-rule:nonzero;fill:rgb(39.219666%,5.488586%,13.729858%);fill-opacity:1;" d="M 411.191406 373.59375 C 411.054688 373.75 410.875 373.867188 410.664062 373.917969 L 409.351562 374.242188 C 408.796875 374.378906 408.234375 374.035156 408.105469 373.484375 C 407.964844 372.933594 408.304688 372.371094 408.855469 372.230469 L 410.160156 371.914062 C 410.714844 371.785156 411.273438 372.113281 411.414062 372.667969 C 411.496094 373.011719 411.402344 373.351562 411.191406 373.59375 "/>
</g>
</g>
</g>
<g clip-path="url(#clip16)" clip-rule="nonzero">
<g clip-path="url(#clip17)" clip-rule="nonzero">
<g clip-path="url(#clip18)" clip-rule="nonzero">
<path style=" stroke:none;fill-rule:nonzero;fill:rgb(39.219666%,5.488586%,13.729858%);fill-opacity:1;" d="M 410.617188 373.386719 C 410.566406 373.441406 410.496094 373.5 410.425781 373.550781 C 410.195312 373.714844 409.960938 373.886719 409.730469 374.058594 C 408.601562 374.894531 407.484375 375.730469 406.367188 376.5625 C 395.570312 384.625 384.40625 392.957031 370.613281 395.742188 C 363.214844 397.246094 355.53125 396.589844 348.097656 395.960938 C 344.6875 395.671875 341.164062 395.375 337.742188 395.292969 C 337.164062 395.285156 336.714844 394.808594 336.726562 394.234375 C 336.746094 393.667969 337.222656 393.214844 337.785156 393.230469 C 341.273438 393.316406 344.828125 393.613281 348.269531 393.902344 C 355.558594 394.519531 363.097656 395.15625 370.203125 393.726562 C 383.542969 391.023438 394.515625 382.832031 405.125 374.910156 C 406.25 374.074219 407.371094 373.238281 408.492188 372.40625 C 408.734375 372.226562 408.984375 372.042969 409.234375 371.867188 C 409.699219 371.53125 410.347656 371.648438 410.675781 372.109375 C 410.953125 372.503906 410.921875 373.03125 410.617188 373.386719 "/>
</g>
</g>
</g>
<g clip-path="url(#clip19)" clip-rule="nonzero">
<g clip-path="url(#clip20)" clip-rule="nonzero">
<g clip-path="url(#clip21)" clip-rule="nonzero">
<path style=" stroke:none;fill-rule:nonzero;fill:rgb(39.219666%,5.488586%,13.729858%);fill-opacity:1;" d="M 411.191406 373.59375 C 410.878906 373.953125 410.382812 374.050781 409.976562 373.859375 L 409.464844 373.664062 C 408.933594 373.457031 408.671875 372.855469 408.871094 372.328125 C 409.078125 371.796875 409.679688 371.535156 410.210938 371.742188 L 410.785156 371.953125 C 410.890625 372 411 372.0625 411.089844 372.136719 C 411.519531 372.511719 411.5625 373.167969 411.191406 373.59375 "/>
</g>
</g>
</g>
<g clip-path="url(#clip22)" clip-rule="nonzero">
<g clip-path="url(#clip23)" clip-rule="nonzero">
<g clip-path="url(#clip24)" clip-rule="nonzero">
<path style=" stroke:none;fill-rule:nonzero;fill:rgb(39.219666%,5.488586%,13.729858%);fill-opacity:1;" d="M 410.617188 373.386719 C 410.339844 373.703125 409.886719 373.828125 409.480469 373.675781 C 397.207031 369.167969 380.105469 372.632812 367.914062 376.335938 C 361.503906 378.285156 355.972656 381.53125 349.640625 385.808594 C 347.199219 387.453125 344.492188 389.808594 341.878906 392.097656 C 340.671875 393.136719 339.535156 394.132812 338.421875 395.054688 C 337.984375 395.421875 337.332031 395.363281 336.96875 394.921875 C 336.601562 394.484375 336.664062 393.835938 337.101562 393.46875 C 338.195312 392.554688 339.320312 391.574219 340.519531 390.535156 C 343.179688 388.214844 345.941406 385.8125 348.484375 384.09375 C 354.972656 379.714844 360.65625 376.386719 367.316406 374.355469 C 379.804688 370.566406 397.382812 367.035156 410.1875 371.738281 C 410.722656 371.9375 411 372.523438 410.804688 373.066406 C 410.757812 373.179688 410.695312 373.292969 410.617188 373.386719 "/>
</g>
</g>
</g>
<g clip-path="url(#clip25)" clip-rule="nonzero">
<g clip-path="url(#clip26)" clip-rule="nonzero">
<g clip-path="url(#clip27)" clip-rule="nonzero">
<path style=" stroke:none;fill-rule:nonzero;fill:rgb(39.219666%,5.488586%,13.729858%);fill-opacity:1;" d="M 514.832031 370.5625 C 514.535156 370.90625 514.03125 371.023438 513.597656 370.8125 C 513.289062 370.664062 512.980469 370.503906 512.675781 370.347656 L 512.140625 370.074219 C 503.777344 365.726562 495.246094 360.222656 489.359375 349.402344 C 486.089844 343.386719 484.398438 336.589844 482.765625 330.019531 C 481.519531 325 480.230469 319.804688 478.253906 315.121094 C 478.03125 314.601562 478.277344 313.992188 478.800781 313.773438 C 479.332031 313.550781 479.933594 313.800781 480.15625 314.320312 C 482.195312 319.152344 483.503906 324.417969 484.773438 329.515625 C 486.375 335.964844 488.03125 342.628906 491.175781 348.40625 C 496.796875 358.75 505.027344 364.046875 513.085938 368.230469 L 513.621094 368.507812 C 513.914062 368.660156 514.214844 368.8125 514.507812 368.957031 C 515.023438 369.214844 515.234375 369.828125 514.984375 370.339844 C 514.941406 370.417969 514.890625 370.496094 514.832031 370.5625 "/>
</g>
</g>
</g>
<g clip-path="url(#clip28)" clip-rule="nonzero">
<g clip-path="url(#clip29)" clip-rule="nonzero">
<g clip-path="url(#clip30)" clip-rule="nonzero">
<path style=" stroke:none;fill-rule:nonzero;fill:rgb(39.219666%,5.488586%,13.729858%);fill-opacity:1;" d="M 477.589844 366.664062 C 477.222656 367.089844 476.582031 367.144531 476.148438 366.777344 C 475.351562 366.101562 474.550781 365.453125 473.746094 364.789062 C 471.261719 362.730469 468.765625 360.6875 466.28125 358.65625 C 442.421875 339.238281 420.851562 317.503906 400.328125 292.195312 C 399.96875 291.757812 400.039062 291.105469 400.476562 290.738281 C 400.921875 290.386719 401.574219 290.453125 401.933594 290.890625 C 422.363281 316.089844 443.839844 337.734375 467.582031 357.0625 C 470.074219 359.089844 472.570312 361.140625 475.058594 363.195312 C 475.867188 363.859375 476.675781 364.515625 477.480469 365.195312 C 477.914062 365.566406 477.96875 366.214844 477.601562 366.652344 L 477.589844 366.664062 "/>
</g>
</g>
</g>
<g clip-path="url(#clip31)" clip-rule="nonzero">
<g clip-path="url(#clip32)" clip-rule="nonzero">
<g clip-path="url(#clip33)" clip-rule="nonzero">
<path style=" stroke:none;fill-rule:nonzero;fill:rgb(39.219666%,5.488586%,13.729858%);fill-opacity:1;" d="M 501.34375 386.738281 C 500.972656 387.164062 500.324219 387.210938 499.890625 386.84375 C 491.691406 379.78125 483.707031 373.035156 476.160156 366.789062 C 475.71875 366.421875 475.664062 365.773438 476.03125 365.332031 C 476.394531 364.902344 477.039062 364.832031 477.480469 365.195312 C 485.039062 371.453125 493.03125 378.210938 501.238281 385.277344 C 501.671875 385.644531 501.71875 386.296875 501.347656 386.734375 L 501.34375 386.738281 "/>
</g>
</g>
</g>
<g clip-path="url(#clip34)" clip-rule="nonzero">
<g clip-path="url(#clip35)" clip-rule="nonzero">
<g clip-path="url(#clip36)" clip-rule="nonzero">
<path style=" stroke:none;fill-rule:nonzero;fill:rgb(39.219666%,5.488586%,13.729858%);fill-opacity:1;" d="M 476.929688 365.546875 C 476.617188 365.90625 476.097656 366.011719 475.664062 365.78125 C 475.097656 365.480469 474.527344 365.203125 473.949219 364.921875 C 468.007812 362.011719 461.9375 359.730469 455.523438 357.320312 C 451.449219 355.785156 447.226562 354.199219 442.933594 352.402344 C 433.984375 348.664062 427.046875 342.628906 420.429688 332.808594 C 411.679688 319.859375 404.011719 305.578125 398.226562 291.503906 C 398.011719 290.976562 398.261719 290.375 398.789062 290.15625 C 399.3125 289.9375 399.917969 290.1875 400.136719 290.714844 C 405.871094 304.664062 413.472656 318.816406 422.140625 331.648438 C 428.519531 341.113281 435.179688 346.921875 443.734375 350.496094 C 447.992188 352.28125 452.191406 353.859375 456.246094 355.382812 C 462.710938 357.820312 468.820312 360.109375 474.855469 363.0625 C 475.453125 363.351562 476.042969 363.648438 476.632812 363.957031 C 477.136719 364.226562 477.324219 364.851562 477.0625 365.351562 C 477.023438 365.429688 476.976562 365.492188 476.929688 365.546875 "/>
</g>
</g>
</g>
<g clip-path="url(#clip37)" clip-rule="nonzero">
<g clip-path="url(#clip38)" clip-rule="nonzero">
<g clip-path="url(#clip39)" clip-rule="nonzero">
<path style=" stroke:none;fill-rule:nonzero;fill:rgb(39.219666%,5.488586%,13.729858%);fill-opacity:1;" d="M 561.847656 390.328125 C 561.679688 390.519531 561.449219 390.648438 561.175781 390.671875 C 559.449219 390.851562 557.675781 391.007812 555.75 391.132812 C 547.632812 391.6875 539.136719 391.683594 530.511719 391.113281 C 520.902344 390.480469 510.757812 389.117188 500.363281 387.070312 C 492.609375 385.550781 484.414062 383.59375 475.992188 381.253906 C 474.425781 380.824219 472.855469 380.382812 471.289062 379.929688 C 461.722656 377.15625 451.308594 373.765625 439.449219 369.582031 C 436.332031 368.476562 432.996094 367.28125 429.253906 365.917969 C 425.847656 364.683594 422.335938 363.394531 418.820312 362.078125 C 406.140625 357.355469 393.398438 352.433594 380.945312 347.429688 C 380.414062 347.214844 380.15625 346.617188 380.371094 346.089844 C 380.582031 345.5625 381.183594 345.300781 381.714844 345.519531 C 394.148438 350.511719 406.878906 355.433594 419.542969 360.144531 C 423.050781 361.449219 426.558594 362.746094 429.960938 363.980469 C 433.699219 365.339844 437.023438 366.53125 440.144531 367.628906 C 451.964844 371.804688 462.335938 375.183594 471.863281 377.949219 C 473.421875 378.402344 474.972656 378.839844 476.546875 379.265625 C 484.914062 381.589844 493.058594 383.53125 500.761719 385.046875 C 511.074219 387.074219 521.128906 388.421875 530.644531 389.046875 C 539.183594 389.617188 547.582031 389.625 555.609375 389.078125 C 557.511719 388.949219 559.261719 388.800781 560.957031 388.625 C 561.53125 388.5625 562.035156 388.976562 562.089844 389.542969 C 562.125 389.839844 562.027344 390.121094 561.847656 390.328125 "/>
</g>
</g>
</g>
<g clip-path="url(#clip40)" clip-rule="nonzero">
<g clip-path="url(#clip41)" clip-rule="nonzero">
<g clip-path="url(#clip42)" clip-rule="nonzero">
<path style=" stroke:none;fill-rule:nonzero;fill:rgb(39.219666%,5.488586%,13.729858%);fill-opacity:1;" d="M 382.09375 347.152344 C 381.8125 347.472656 381.355469 347.601562 380.933594 347.4375 C 378.488281 346.453125 376.050781 345.464844 373.613281 344.472656 L 372.1875 343.898438 C 367.726562 342.074219 364.046875 340.554688 360.59375 339.113281 C 332.527344 327.414062 304.46875 314.773438 277.195312 301.542969 C 276.679688 301.292969 276.46875 300.675781 276.714844 300.160156 C 276.964844 299.648438 277.582031 299.433594 278.097656 299.683594 C 305.335938 312.898438 333.359375 325.527344 361.382812 337.207031 C 364.828125 338.644531 368.511719 340.15625 372.96875 341.976562 L 374.394531 342.558594 C 376.816406 343.550781 379.261719 344.535156 381.699219 345.511719 C 382.230469 345.726562 382.488281 346.324219 382.269531 346.859375 C 382.230469 346.96875 382.167969 347.058594 382.089844 347.148438 "/>
</g>
</g>
</g>
<g clip-path="url(#clip43)" clip-rule="nonzero">
<g clip-path="url(#clip44)" clip-rule="nonzero">
<g clip-path="url(#clip45)" clip-rule="nonzero">
<path style=" stroke:none;fill-rule:nonzero;fill:rgb(39.219666%,5.488586%,13.729858%);fill-opacity:1;" d="M 248.609375 359.980469 C 248.332031 360.296875 247.882812 360.425781 247.464844 360.273438 C 239.289062 357.21875 231.972656 356.371094 225.707031 357.742188 L 224.640625 357.972656 C 220.65625 358.835938 216.535156 359.734375 213.183594 361.898438 C 212.832031 362.125 212.480469 362.382812 212.109375 362.6875 C 211.777344 362.953125 211.480469 363.203125 211.1875 363.464844 C 211.0625 363.578125 210.925781 363.699219 210.785156 363.820312 L 210.457031 364.113281 C 210.03125 364.5 209.378906 364.46875 208.996094 364.042969 C 208.613281 363.621094 208.648438 362.964844 209.070312 362.585938 L 209.414062 362.277344 C 209.546875 362.164062 209.675781 362.042969 209.808594 361.925781 C 210.140625 361.632812 210.464844 361.355469 210.808594 361.082031 C 211.226562 360.738281 211.644531 360.429688 212.066406 360.160156 C 215.730469 357.792969 220.039062 356.859375 224.199219 355.957031 L 225.265625 355.726562 C 231.921875 354.265625 239.640625 355.140625 248.191406 358.339844 C 248.726562 358.539062 248.996094 359.132812 248.796875 359.667969 C 248.75 359.785156 248.6875 359.894531 248.609375 359.980469 "/>
</g>
</g>
</g>
<g clip-path="url(#clip46)" clip-rule="nonzero">
<g clip-path="url(#clip47)" clip-rule="nonzero">
<g clip-path="url(#clip48)" clip-rule="nonzero">
<path style=" stroke:none;fill-rule:nonzero;fill:rgb(39.219666%,5.488586%,13.729858%);fill-opacity:1;" d="M 259.675781 374.789062 L 259.660156 374.8125 C 259.273438 375.230469 258.621094 375.257812 258.199219 374.875 C 254.644531 371.613281 251.179688 367.332031 248.695312 363.128906 C 248.371094 362.585938 248.078125 362.054688 247.804688 361.542969 C 247.492188 360.953125 247.183594 360.359375 246.898438 359.753906 C 244.195312 354.238281 242.230469 348.300781 240.324219 342.558594 C 239.875 341.191406 239.421875 339.820312 238.960938 338.460938 C 238.621094 337.445312 238.277344 336.453125 237.917969 335.457031 C 237.726562 334.914062 238.003906 334.324219 238.539062 334.136719 C 239.074219 333.941406 239.667969 334.214844 239.859375 334.753906 C 240.226562 335.765625 240.574219 336.773438 240.917969 337.796875 C 241.382812 339.160156 241.832031 340.535156 242.289062 341.910156 C 244.167969 347.585938 246.109375 353.457031 248.757812 358.851562 C 249.035156 359.429688 249.324219 360 249.625 360.570312 C 249.886719 361.054688 250.160156 361.558594 250.472656 362.074219 C 252.855469 366.117188 256.179688 370.226562 259.589844 373.355469 C 260.011719 373.730469 260.042969 374.371094 259.675781 374.789062 "/>
</g>
</g>
</g>
<g clip-path="url(#clip49)" clip-rule="nonzero">
<g clip-path="url(#clip50)" clip-rule="nonzero">
<g clip-path="url(#clip51)" clip-rule="nonzero">
<path style=" stroke:none;fill-rule:nonzero;fill:rgb(39.219666%,5.488586%,13.729858%);fill-opacity:1;" d="M 246.824219 378.410156 C 246.59375 378.675781 246.234375 378.816406 245.859375 378.75 C 242.203125 378.089844 238.972656 377.871094 235.683594 378.070312 C 233.636719 378.195312 231.519531 378.472656 229.210938 378.90625 C 227.871094 379.164062 226.558594 379.453125 225.3125 379.773438 C 225.269531 379.78125 225.230469 379.789062 225.1875 379.796875 C 221.847656 380.621094 218.519531 381.644531 215.304688 382.636719 C 213.976562 383.042969 212.589844 383.429688 211.253906 383.796875 C 206.546875 385.101562 201.679688 386.453125 197.828125 389.207031 L 197.152344 389.6875 C 196.332031 390.265625 195.25 391.03125 194.132812 391.871094 C 193.671875 392.214844 193.027344 392.125 192.683594 391.667969 C 192.34375 391.210938 192.4375 390.5625 192.890625 390.222656 C 194.03125 389.363281 195.132812 388.582031 195.964844 387.996094 L 196.636719 387.519531 C 200.777344 384.5625 205.820312 383.160156 210.699219 381.804688 C 212.027344 381.441406 213.394531 381.058594 214.695312 380.660156 C 217.976562 379.652344 221.367188 378.609375 224.804688 377.761719 C 224.839844 377.753906 224.871094 377.746094 224.910156 377.742188 C 226.164062 377.425781 227.484375 377.132812 228.828125 376.878906 C 231.21875 376.425781 233.421875 376.140625 235.558594 376.007812 C 239.019531 375.796875 242.410156 376.023438 246.230469 376.714844 C 246.789062 376.820312 247.160156 377.359375 247.058594 377.917969 C 247.023438 378.109375 246.941406 378.273438 246.824219 378.410156 "/>
</g>
</g>
</g>
<g clip-path="url(#clip52)" clip-rule="nonzero">
<g clip-path="url(#clip53)" clip-rule="nonzero">
<g clip-path="url(#clip54)" clip-rule="nonzero">
<path style=" stroke:none;fill-rule:nonzero;fill:rgb(39.219666%,5.488586%,13.729858%);fill-opacity:1;" d="M 321.339844 401.710938 C 320.984375 402.121094 320.363281 402.183594 319.929688 401.84375 C 314.261719 397.410156 307.5 392.238281 300.375 387.460938 C 284.945312 377.128906 271.433594 373.09375 259.0625 375.132812 C 258.886719 375.152344 258.785156 375.171875 258.671875 375.195312 C 255.457031 375.757812 252.804688 376.371094 250.542969 377.082031 C 248.96875 377.574219 247.609375 378.105469 246.519531 378.65625 C 246.007812 378.910156 245.390625 378.703125 245.132812 378.195312 C 244.878906 377.683594 245.082031 377.066406 245.589844 376.808594 C 246.78125 376.210938 248.242188 375.636719 249.929688 375.105469 C 252.277344 374.371094 255.011719 373.738281 258.304688 373.15625 C 258.449219 373.132812 258.609375 373.105469 258.78125 373.089844 C 271.636719 370.96875 285.640625 375.101562 301.519531 385.746094 C 308.703125 390.554688 315.5 395.761719 321.203125 400.21875 C 321.644531 400.570312 321.730469 401.21875 321.375 401.667969 L 321.339844 401.710938 "/>
</g>
</g>
</g>
<g clip-path="url(#clip55)" clip-rule="nonzero">
<g clip-path="url(#clip56)" clip-rule="nonzero">
<g clip-path="url(#clip57)" clip-rule="nonzero">
<path style=" stroke:none;fill-rule:nonzero;fill:rgb(39.219666%,5.488586%,13.729858%);fill-opacity:1;" d="M 326.027344 410.964844 C 325.734375 411.304688 325.234375 411.417969 324.804688 411.21875 C 323.542969 410.621094 322.265625 410.046875 321.011719 409.507812 C 300.515625 400.671875 278.628906 397.792969 255.464844 394.734375 C 253.515625 394.476562 251.558594 394.21875 249.59375 393.957031 C 245.621094 393.425781 241.542969 392.738281 237.601562 392.066406 C 229.136719 390.636719 220.386719 389.15625 211.890625 389.082031 C 206.667969 389.03125 201.480469 389.433594 196.648438 389.871094 C 196.082031 389.921875 195.578125 389.503906 195.527344 388.9375 C 195.476562 388.367188 195.894531 387.867188 196.460938 387.8125 C 201.347656 387.371094 206.597656 386.96875 211.90625 387.015625 C 220.570312 387.09375 229.40625 388.585938 237.945312 390.03125 C 241.871094 390.695312 245.925781 391.378906 249.867188 391.910156 C 251.832031 392.171875 253.785156 392.429688 255.738281 392.6875 C 279.050781 395.765625 301.074219 398.667969 321.820312 407.609375 C 323.097656 408.15625 324.402344 408.742188 325.691406 409.347656 C 326.207031 409.597656 326.429688 410.210938 326.183594 410.726562 C 326.144531 410.8125 326.089844 410.890625 326.027344 410.964844 "/>
</g>
</g>
</g>
<g clip-path="url(#clip58)" clip-rule="nonzero">
<g clip-path="url(#clip59)" clip-rule="nonzero">
<g clip-path="url(#clip60)" clip-rule="nonzero">
<path style=" stroke:none;fill-rule:nonzero;fill:rgb(39.219666%,5.488586%,13.729858%);fill-opacity:1;" d="M 321.832031 413.621094 C 321.597656 413.890625 321.234375 414.035156 320.859375 413.964844 C 320.296875 413.855469 319.929688 413.3125 320.035156 412.753906 C 320.195312 411.917969 320.296875 411.019531 320.355469 410.011719 C 320.371094 409.542969 320.382812 409.054688 320.378906 408.566406 C 320.367188 406.347656 320.085938 403.886719 319.554688 401.234375 C 318.691406 396.898438 317.160156 392.003906 314.988281 386.695312 C 313.878906 383.96875 312.648438 381.222656 311.328125 378.53125 C 308.894531 373.578125 305.648438 369.21875 300.484375 363.953125 C 293.484375 356.816406 284.527344 350.0625 275.265625 344.929688 C 268.707031 341.3125 258.964844 336.46875 250.0625 336.222656 C 249.441406 336.203125 248.777344 336.179688 248.078125 336.15625 C 245.402344 336.066406 242.078125 335.945312 238.953125 336.136719 C 238.382812 336.171875 237.890625 335.734375 237.859375 335.167969 C 237.824219 334.601562 238.257812 334.109375 238.828125 334.074219 C 242.050781 333.875 245.433594 333.996094 248.148438 334.09375 C 248.84375 334.113281 249.503906 334.140625 250.117188 334.152344 C 259.472656 334.417969 269.519531 339.398438 276.261719 343.125 C 285.835938 348.425781 294.722656 355.125 301.953125 362.503906 C 307.292969 367.9375 310.644531 372.464844 313.175781 377.621094 C 314.523438 380.351562 315.78125 383.148438 316.902344 385.910156 C 319.121094 391.34375 320.691406 396.367188 321.574219 400.828125 C 322.140625 403.601562 322.429688 406.195312 322.449219 408.546875 C 322.449219 409.078125 322.4375 409.597656 322.414062 410.105469 C 322.355469 411.222656 322.246094 412.210938 322.066406 413.140625 C 322.027344 413.324219 321.945312 413.492188 321.832031 413.621094 "/>
</g>
</g>
</g>
<g clip-path="url(#clip61)" clip-rule="nonzero">
<g clip-path="url(#clip62)" clip-rule="nonzero">
<g clip-path="url(#clip63)" clip-rule="nonzero">
<g clip-path="url(#clip64)" clip-rule="nonzero">
<g clip-path="url(#clip65)" clip-rule="nonzero">
<path style=" stroke:none;fill-rule:nonzero;fill:rgb(39.219666%,5.488586%,13.729858%);fill-opacity:1;" d="M 639.101562 359.375 C 639.019531 359.46875 638.917969 359.550781 638.800781 359.613281 C 614.871094 372.070312 588.824219 382.507812 561.390625 390.632812 C 560.839844 390.792969 560.269531 390.476562 560.101562 389.933594 C 559.949219 389.386719 560.253906 388.8125 560.804688 388.652344 C 588.117188 380.5625 614.039062 370.171875 637.839844 357.777344 C 638.351562 357.519531 638.972656 357.714844 639.238281 358.21875 C 639.4375 358.609375 639.371094 359.0625 639.101562 359.375 "/>
</g>
</g>
</g>
</g>
</g>
<g clip-path="url(#clip66)" clip-rule="nonzero">
<g clip-path="url(#clip67)" clip-rule="nonzero">
<g clip-path="url(#clip68)" clip-rule="nonzero">
<path style=" stroke:none;fill-rule:nonzero;fill:rgb(39.219666%,5.488586%,13.729858%);fill-opacity:1;" d="M 561.847656 390.328125 C 561.722656 390.472656 561.558594 390.585938 561.363281 390.644531 C 524.894531 401.449219 484.878906 408.507812 442.417969 411.621094 C 441.84375 411.664062 441.351562 411.234375 441.304688 410.664062 C 441.269531 410.097656 441.699219 409.601562 442.261719 409.5625 C 484.582031 406.457031 524.457031 399.425781 560.773438 388.65625 C 561.324219 388.496094 561.898438 388.8125 562.058594 389.351562 C 562.160156 389.707031 562.070312 390.074219 561.847656 390.328125 "/>
</g>
</g>
</g>
<g clip-path="url(#clip69)" clip-rule="nonzero">
<g clip-path="url(#clip70)" clip-rule="nonzero">
<g clip-path="url(#clip71)" clip-rule="nonzero">
<path style=" stroke:none;fill-rule:nonzero;fill:rgb(39.219666%,5.488586%,13.729858%);fill-opacity:1;" d="M 394.539062 413.148438 C 394.351562 413.367188 394.078125 413.503906 393.765625 413.503906 C 385.984375 413.550781 378.121094 413.476562 370.394531 413.292969 C 359.261719 413.023438 347.308594 412.535156 332.773438 411.734375 C 331.46875 411.671875 330.210938 411.609375 328.957031 411.519531 C 328.386719 411.484375 327.953125 410.996094 327.992188 410.425781 C 328.03125 409.859375 328.515625 409.425781 329.085938 409.460938 C 330.335938 409.546875 331.585938 409.609375 332.84375 409.671875 C 347.402344 410.464844 359.332031 410.960938 370.445312 411.230469 C 378.152344 411.414062 385.992188 411.484375 393.75 411.433594 C 394.324219 411.4375 394.785156 411.890625 394.796875 412.46875 C 394.792969 412.730469 394.699219 412.964844 394.539062 413.148438 "/>
</g>
</g>
</g>
<g clip-path="url(#clip72)" clip-rule="nonzero">
<g clip-path="url(#clip73)" clip-rule="nonzero">
<g clip-path="url(#clip74)" clip-rule="nonzero">
<path style=" stroke:none;fill-rule:nonzero;fill:rgb(39.219666%,5.488586%,13.729858%);fill-opacity:1;" d="M 329.796875 411.175781 C 329.59375 411.40625 329.289062 411.546875 328.96875 411.53125 C 327.699219 411.46875 326.4375 411.394531 325.1875 411.3125 C 324.265625 411.273438 323.335938 411.21875 322.40625 411.15625 C 322.054688 411.140625 321.679688 411.121094 321.3125 411.089844 C 320.746094 411.054688 320.3125 410.5625 320.351562 409.992188 C 320.390625 409.421875 320.882812 408.992188 321.453125 409.03125 C 321.808594 409.058594 322.167969 409.078125 322.523438 409.097656 C 323.457031 409.160156 324.371094 409.207031 325.296875 409.253906 C 326.5625 409.332031 327.8125 409.40625 329.070312 409.46875 C 329.640625 409.496094 330.078125 409.988281 330.046875 410.550781 C 330.039062 410.792969 329.941406 411.007812 329.796875 411.175781 "/>
</g>
</g>
</g>
<g clip-path="url(#clip75)" clip-rule="nonzero">
<g clip-path="url(#clip76)" clip-rule="nonzero">
<g clip-path="url(#clip77)" clip-rule="nonzero">
<path style=" stroke:none;fill-rule:nonzero;fill:rgb(39.219666%,5.488586%,13.729858%);fill-opacity:1;" d="M 234.417969 454.9375 C 234.136719 455.261719 233.664062 455.382812 233.25 455.210938 C 231.816406 454.625 230.390625 454.027344 228.964844 453.425781 C 225.753906 452.078125 222.441406 450.6875 219.148438 449.460938 C 218.609375 449.261719 218.339844 448.667969 218.539062 448.132812 C 218.738281 447.601562 219.332031 447.328125 219.867188 447.523438 C 223.203125 448.765625 226.542969 450.167969 229.765625 451.523438 C 231.183594 452.117188 232.609375 452.714844 234.03125 453.304688 C 234.558594 453.515625 234.808594 454.121094 234.59375 454.648438 C 234.550781 454.753906 234.492188 454.851562 234.417969 454.9375 "/>
</g>
</g>
</g>
<g clip-path="url(#clip78)" clip-rule="nonzero">
<g clip-path="url(#clip79)" clip-rule="nonzero">
<g clip-path="url(#clip80)" clip-rule="nonzero">
<path style=" stroke:none;fill-rule:nonzero;fill:rgb(39.219666%,5.488586%,13.729858%);fill-opacity:1;" d="M 244.847656 422.40625 C 244.675781 422.605469 244.421875 422.742188 244.132812 422.761719 C 238.179688 423.128906 232.519531 421.285156 226.320312 416.953125 C 222.1875 414.074219 218.238281 410.378906 214.421875 406.8125 C 207.851562 400.664062 201.058594 394.308594 193.222656 392.039062 C 192.671875 391.878906 192.359375 391.308594 192.519531 390.757812 C 192.675781 390.210938 193.246094 389.894531 193.796875 390.054688 C 202.109375 392.460938 209.085938 398.988281 215.835938 405.300781 C 219.597656 408.820312 223.488281 412.460938 227.503906 415.261719 C 233.296875 419.308594 238.542969 421.035156 244.007812 420.699219 C 244.578125 420.660156 245.066406 421.097656 245.101562 421.667969 C 245.121094 421.949219 245.019531 422.210938 244.847656 422.40625 "/>
</g>
</g>
</g>
<g clip-path="url(#clip81)" clip-rule="nonzero">
<g clip-path="url(#clip82)" clip-rule="nonzero">
<g clip-path="url(#clip83)" clip-rule="nonzero">
<path style=" stroke:none;fill-rule:nonzero;fill:rgb(39.219666%,5.488586%,13.729858%);fill-opacity:1;" d="M 329.800781 411.167969 C 329.425781 411.601562 328.769531 411.652344 328.339844 411.277344 C 327.90625 410.902344 327.863281 410.25 328.238281 409.820312 L 328.242188 409.8125 C 328.617188 409.382812 329.265625 409.335938 329.699219 409.710938 C 330.128906 410.085938 330.175781 410.738281 329.800781 411.167969 "/>
</g>
</g>
</g>
<g clip-path="url(#clip84)" clip-rule="nonzero">
<g clip-path="url(#clip85)" clip-rule="nonzero">
<g clip-path="url(#clip86)" clip-rule="nonzero">
<path style=" stroke:none;fill-rule:nonzero;fill:rgb(39.219666%,5.488586%,13.729858%);fill-opacity:1;" d="M 318.9375 415.039062 Z M 320.042969 416.675781 C 320 416.726562 319.949219 416.773438 319.898438 416.8125 C 319.792969 416.894531 319.679688 416.960938 319.554688 417.007812 C 318.207031 417.6875 316.832031 418.347656 315.480469 418.96875 C 314.960938 419.210938 314.347656 418.980469 314.109375 418.460938 C 313.875 417.9375 314.097656 417.328125 314.621094 417.089844 C 315.972656 416.46875 317.34375 415.816406 318.691406 415.125 C 318.714844 415.121094 318.738281 415.101562 318.761719 415.097656 C 319.203125 414.851562 319.769531 414.957031 320.078125 415.367188 C 320.390625 415.761719 320.359375 416.3125 320.042969 416.675781 "/>
</g>
</g>
</g>
<g clip-path="url(#clip87)" clip-rule="nonzero">
<g clip-path="url(#clip88)" clip-rule="nonzero">
<g clip-path="url(#clip89)" clip-rule="nonzero">
<path style=" stroke:none;fill-rule:nonzero;fill:rgb(39.219666%,5.488586%,13.729858%);fill-opacity:1;" d="M 315.820312 418.714844 C 315.730469 418.820312 315.613281 418.910156 315.476562 418.972656 C 312.960938 420.125 310.46875 421.179688 307.839844 422.199219 C 300.667969 424.972656 289.917969 428.738281 279.359375 429.40625 C 271.144531 429.9375 264.03125 429.316406 256.96875 427.460938 C 252.863281 426.386719 248.644531 424.871094 243.699219 422.6875 C 243.339844 422.546875 243.074219 422.210938 243.046875 421.800781 C 243.007812 421.234375 243.429688 420.738281 244 420.699219 L 244.007812 420.699219 C 244.175781 420.6875 244.34375 420.714844 244.5 420.785156 C 249.355469 422.929688 253.480469 424.414062 257.496094 425.464844 C 264.332031 427.257812 271.242188 427.859375 279.226562 427.34375 C 289.503906 426.691406 300.050781 422.992188 307.09375 420.273438 C 309.679688 419.273438 312.140625 418.234375 314.617188 417.097656 C 315.132812 416.859375 315.75 417.085938 315.980469 417.605469 C 316.152344 417.984375 316.078125 418.417969 315.820312 418.714844 "/>
</g>
</g>
</g>
<g clip-path="url(#clip90)" clip-rule="nonzero">
<g clip-path="url(#clip91)" clip-rule="nonzero">
<g clip-path="url(#clip92)" clip-rule="nonzero">
<path style=" stroke:none;fill-rule:nonzero;fill:rgb(39.219666%,5.488586%,13.729858%);fill-opacity:1;" d="M 258.011719 427.144531 C 257.863281 427.316406 257.648438 427.4375 257.402344 427.480469 C 249.125 428.882812 241.484375 432.53125 235.886719 437.746094 C 235.453125 438.15625 234.988281 438.578125 234.519531 439.015625 L 234.113281 439.386719 C 228.765625 444.203125 224.132812 447.488281 219.941406 449.429688 C 219.421875 449.667969 218.808594 449.445312 218.566406 448.925781 C 218.328125 448.410156 218.554688 447.796875 219.070312 447.554688 C 223.074219 445.699219 227.539062 442.527344 232.722656 437.855469 L 233.121094 437.492188 C 233.589844 437.0625 234.042969 436.644531 234.476562 436.238281 C 240.367188 430.746094 248.382812 426.910156 257.0625 425.445312 C 257.621094 425.347656 258.15625 425.730469 258.25 426.292969 C 258.304688 426.609375 258.210938 426.917969 258.011719 427.144531 "/>
</g>
</g>
</g>
<g clip-path="url(#clip93)" clip-rule="nonzero">
<g clip-path="url(#clip94)" clip-rule="nonzero">
<g clip-path="url(#clip95)" clip-rule="nonzero">
<path style=" stroke:none;fill-rule:nonzero;fill:rgb(39.219666%,5.488586%,13.729858%);fill-opacity:1;" d="M 234.195312 439.304688 C 233.898438 439.644531 233.40625 439.761719 232.976562 439.5625 C 230.320312 438.324219 227.886719 437.019531 226.277344 436.152344 L 225.5 435.742188 C 221.03125 433.371094 216.789062 430.605469 212.683594 427.933594 L 211.71875 427.304688 C 211.242188 426.996094 211.105469 426.355469 211.417969 425.878906 C 211.722656 425.398438 212.367188 425.265625 212.847656 425.574219 L 213.8125 426.203125 C 217.878906 428.851562 222.082031 431.589844 226.472656 433.914062 L 227.253906 434.332031 C 228.839844 435.1875 231.242188 436.476562 233.847656 437.6875 C 234.367188 437.929688 234.589844 438.542969 234.351562 439.0625 C 234.308594 439.152344 234.257812 439.234375 234.195312 439.304688 "/>
</g>
</g>
</g>
<g clip-path="url(#clip96)" clip-rule="nonzero">
<g clip-path="url(#clip97)" clip-rule="nonzero">
<g clip-path="url(#clip98)" clip-rule="nonzero">
<path style=" stroke:none;fill-rule:nonzero;fill:rgb(39.219666%,5.488586%,13.729858%);fill-opacity:1;" d="M 227.691406 416.789062 C 227.605469 416.890625 227.496094 416.972656 227.367188 417.035156 C 221.960938 419.691406 217.246094 423.5 212.957031 427.222656 C 212.527344 427.59375 211.875 427.550781 211.503906 427.117188 C 211.128906 426.6875 211.179688 426.035156 211.605469 425.660156 C 216 421.847656 220.839844 417.9375 226.460938 415.179688 C 226.96875 414.929688 227.589844 415.140625 227.839844 415.65625 C 228.027344 416.039062 227.957031 416.484375 227.691406 416.789062 "/>
</g>
</g>
</g>
<g clip-path="url(#clip99)" clip-rule="nonzero">
<g clip-path="url(#clip100)" clip-rule="nonzero">
<g clip-path="url(#clip101)" clip-rule="nonzero">
<path style=" stroke:none;fill-rule:nonzero;fill:rgb(39.219666%,5.488586%,13.729858%);fill-opacity:1;" d="M 316.78125 421.347656 C 316.730469 421.402344 316.675781 421.457031 316.605469 421.503906 C 315.800781 422.082031 315.015625 422.671875 314.246094 423.277344 C 313.789062 423.621094 313.140625 423.539062 312.796875 423.085938 C 312.449219 422.636719 312.53125 421.984375 312.976562 421.636719 C 313.769531 421.03125 314.582031 420.421875 315.394531 419.832031 C 315.855469 419.492188 316.5 419.597656 316.835938 420.0625 C 317.121094 420.457031 317.085938 420.992188 316.78125 421.347656 "/>
</g>
</g>
</g>
<g clip-path="url(#clip102)" clip-rule="nonzero">
<g clip-path="url(#clip103)" clip-rule="nonzero">
<g clip-path="url(#clip104)" clip-rule="nonzero">
<path style=" stroke:none;fill-rule:nonzero;fill:rgb(39.219666%,5.488586%,13.729858%);fill-opacity:1;" d="M 234.316406 453.476562 L 234.320312 453.472656 Z M 314.386719 423.132812 C 314.34375 423.183594 314.296875 423.234375 314.242188 423.277344 C 312.988281 424.242188 311.757812 425.226562 310.535156 426.203125 C 305.574219 430.167969 300.449219 434.269531 293.996094 436.859375 C 291.910156 437.695312 289.742188 438.605469 287.648438 439.484375 C 281.679688 441.996094 275.5 444.59375 269.414062 446.234375 C 266.554688 447.003906 263.691406 447.816406 260.660156 448.679688 C 251.96875 451.144531 242.980469 453.691406 233.925781 455.25 C 233.914062 455.253906 233.902344 455.257812 233.882812 455.257812 C 233.5625 455.332031 233.21875 455.257812 232.964844 455.035156 C 232.53125 454.660156 232.488281 454.007812 232.863281 453.578125 L 232.867188 453.574219 C 233.039062 453.375 233.28125 453.242188 233.558594 453.21875 L 233.558594 453.214844 C 242.511719 451.679688 251.449219 449.140625 260.097656 446.691406 C 263.136719 445.828125 266.007812 445.015625 268.878906 444.238281 C 274.832031 442.632812 280.941406 440.066406 286.847656 437.582031 C 288.949219 436.695312 291.125 435.785156 293.226562 434.941406 C 299.398438 432.46875 304.175781 428.640625 309.246094 424.589844 C 310.476562 423.601562 311.722656 422.613281 312.976562 421.640625 C 313.433594 421.289062 314.082031 421.378906 314.425781 421.832031 C 314.730469 422.226562 314.703125 422.769531 314.386719 423.132812 "/>
</g>
</g>
</g>
<g clip-path="url(#clip105)" clip-rule="nonzero">
<g clip-path="url(#clip106)" clip-rule="nonzero">
<g clip-path="url(#clip107)" clip-rule="nonzero">
<path style=" stroke:none;fill-rule:nonzero;fill:rgb(39.219666%,5.488586%,13.729858%);fill-opacity:1;" d="M 316.730469 386.976562 C 316.699219 387.011719 316.667969 387.039062 316.640625 387.070312 C 316.210938 387.449219 315.554688 387.414062 315.175781 386.992188 C 309.070312 380.164062 301.261719 374.015625 294.371094 368.59375 C 292.792969 367.351562 291.25 366.136719 289.757812 364.941406 C 275.699219 353.65625 261.019531 345.734375 246.113281 341.394531 C 244.476562 340.917969 242.65625 340.238281 240.722656 339.519531 L 239.578125 339.097656 C 239.042969 338.898438 238.769531 338.304688 238.96875 337.765625 C 239.171875 337.230469 239.765625 336.960938 240.296875 337.160156 L 241.445312 337.582031 C 243.339844 338.289062 245.128906 338.957031 246.695312 339.40625 C 261.859375 343.828125 276.785156 351.871094 291.050781 363.328125 C 292.535156 364.519531 294.078125 365.734375 295.648438 366.96875 C 302.605469 372.449219 310.492188 378.652344 316.714844 385.613281 C 317.066406 386 317.066406 386.59375 316.730469 386.976562 "/>
</g>
</g>
</g>
<g clip-path="url(#clip108)" clip-rule="nonzero">
<g clip-path="url(#clip109)" clip-rule="nonzero">
<g clip-path="url(#clip110)" clip-rule="nonzero">
<path style=" stroke:none;fill-rule:nonzero;fill:rgb(39.219666%,5.488586%,13.729858%);fill-opacity:1;" d="M 472.355469 379.617188 C 472.296875 379.683594 472.226562 379.742188 472.148438 379.792969 C 469.84375 381.351562 467.566406 383.238281 465.175781 385.578125 C 461.269531 389.414062 457.71875 393.8125 454.289062 398.074219 C 452.363281 400.460938 450.550781 402.714844 448.683594 404.863281 L 446.824219 407.003906 C 445.585938 408.425781 444.351562 409.855469 443.113281 411.269531 C 438.777344 416.25 434.03125 421.578125 428.769531 426.746094 C 416.902344 438.390625 404.976562 448.171875 394.277344 455.011719 C 386.464844 460.007812 377.328125 462.859375 368.492188 465.617188 C 366.210938 466.328125 363.847656 467.066406 361.578125 467.820312 L 359.886719 468.382812 C 357.234375 469.261719 354.214844 470.261719 351.199219 471.371094 C 350.664062 471.5625 350.070312 471.292969 349.871094 470.753906 C 349.671875 470.21875 349.949219 469.628906 350.484375 469.429688 C 353.53125 468.308594 356.558594 467.308594 359.234375 466.421875 L 360.929688 465.859375 C 363.222656 465.097656 365.585938 464.363281 367.878906 463.644531 C 376.585938 460.929688 385.585938 458.121094 393.164062 453.269531 C 403.746094 446.507812 415.558594 436.820312 427.320312 425.269531 C 432.542969 420.152344 437.246094 414.863281 441.5625 409.910156 C 442.800781 408.496094 444.027344 407.074219 445.265625 405.648438 L 447.125 403.507812 C 448.964844 401.390625 450.769531 399.148438 452.679688 396.777344 C 456.148438 392.472656 459.734375 388.019531 463.730469 384.101562 C 466.207031 381.675781 468.585938 379.703125 470.996094 378.082031 C 471.46875 377.761719 472.117188 377.886719 472.425781 378.359375 C 472.699219 378.757812 472.652344 379.273438 472.355469 379.617188 "/>
</g>
</g>
</g>
<g clip-path="url(#clip111)" clip-rule="nonzero">
<g clip-path="url(#clip112)" clip-rule="nonzero">
<g clip-path="url(#clip113)" clip-rule="nonzero">
<path style=" stroke:none;fill-rule:nonzero;fill:rgb(39.219666%,5.488586%,13.729858%);fill-opacity:1;" d="M 465.238281 385.519531 C 465.113281 385.660156 464.945312 385.769531 464.753906 385.832031 C 460.703125 387.054688 456.574219 388.246094 452.585938 389.40625 C 438.808594 393.386719 424.566406 397.507812 411.296875 403.535156 C 405.433594 406.195312 399.734375 409.480469 394.355469 413.308594 C 384.476562 420.351562 375.707031 429.101562 368.28125 439.324219 C 364.398438 444.675781 361.4375 451.09375 358.566406 457.304688 C 356.460938 461.867188 354.285156 466.589844 351.730469 470.921875 C 351.449219 471.414062 350.808594 471.578125 350.316406 471.289062 C 349.824219 470.996094 349.664062 470.363281 349.949219 469.875 C 352.453125 465.628906 354.613281 460.953125 356.695312 456.433594 C 359.605469 450.140625 362.613281 443.625 366.605469 438.117188 C 374.164062 427.707031 383.097656 418.792969 393.160156 411.628906 C 398.644531 407.722656 404.460938 404.363281 410.441406 401.652344 C 423.851562 395.570312 438.164062 391.421875 452.011719 387.417969 C 455.996094 386.265625 460.125 385.074219 464.160156 383.851562 C 464.703125 383.6875 465.28125 384 465.445312 384.542969 C 465.550781 384.898438 465.460938 385.261719 465.238281 385.519531 "/>
</g>
</g>
</g>
<g clip-path="url(#clip114)" clip-rule="nonzero">
<g clip-path="url(#clip115)" clip-rule="nonzero">
<g clip-path="url(#clip116)" clip-rule="nonzero">
<path style=" stroke:none;fill-rule:nonzero;fill:rgb(39.219666%,5.488586%,13.729858%);fill-opacity:1;" d="M 531.355469 390.761719 C 531 391.171875 530.378906 391.234375 529.949219 390.898438 C 526.164062 387.980469 522.773438 383.550781 520.046875 379.992188 C 519.535156 379.332031 519.058594 378.695312 518.597656 378.113281 C 516.8125 375.832031 515.046875 373.320312 513.183594 370.445312 C 512.730469 369.75 512.285156 369.042969 511.84375 368.339844 C 511.542969 367.851562 511.691406 367.210938 512.167969 366.914062 C 512.652344 366.605469 513.289062 366.757812 513.589844 367.238281 C 514.03125 367.929688 514.464844 368.628906 514.917969 369.3125 C 516.746094 372.152344 518.480469 374.605469 520.226562 376.835938 C 520.683594 377.425781 521.175781 378.0625 521.691406 378.738281 C 524.34375 382.203125 527.644531 386.511719 531.207031 389.261719 C 531.65625 389.617188 531.746094 390.257812 531.398438 390.714844 L 531.355469 390.761719 "/>
</g>
</g>
</g>
<g clip-path="url(#clip117)" clip-rule="nonzero">
<g clip-path="url(#clip118)" clip-rule="nonzero">
<g clip-path="url(#clip119)" clip-rule="nonzero">
<path style=" stroke:none;fill-rule:nonzero;fill:rgb(39.219666%,5.488586%,13.729858%);fill-opacity:1;" d="M 381.992188 345.695312 L 381.996094 345.6875 Z M 382.109375 347.15625 C 381.738281 347.582031 381.066406 347.628906 380.636719 347.253906 C 380.210938 346.882812 380.160156 346.226562 380.535156 345.796875 C 380.71875 345.582031 380.976562 345.46875 381.230469 345.445312 C 381.5 345.421875 381.78125 345.503906 382.007812 345.699219 C 382.433594 346.066406 382.484375 346.722656 382.109375 347.15625 "/>
</g>
</g>
</g>
<g clip-path="url(#clip120)" clip-rule="nonzero">
<g clip-path="url(#clip121)" clip-rule="nonzero">
<g clip-path="url(#clip122)" clip-rule="nonzero">
<path style=" stroke:none;fill-rule:nonzero;fill:rgb(39.219666%,5.488586%,13.729858%);fill-opacity:1;" d="M 419.960938 361.785156 L 419.890625 361.859375 C 419.476562 362.246094 418.824219 362.230469 418.429688 361.824219 C 415.746094 358.988281 413.015625 355.847656 410.070312 352.214844 L 409.894531 351.996094 C 409.542969 351.554688 409.609375 350.910156 410.050781 350.546875 C 410.5 350.1875 411.148438 350.257812 411.507812 350.707031 L 411.671875 350.914062 C 414.585938 354.503906 417.285156 357.609375 419.929688 360.398438 C 420.296875 360.789062 420.304688 361.386719 419.960938 361.785156 "/>
</g>
</g>
</g>
<g clip-path="url(#clip123)" clip-rule="nonzero">
<g clip-path="url(#clip124)" clip-rule="nonzero">
<g clip-path="url(#clip125)" clip-rule="nonzero">
<path style=" stroke:none;fill-rule:nonzero;fill:rgb(39.219666%,5.488586%,13.729858%);fill-opacity:1;" d="M 477.597656 366.667969 C 477.222656 367.097656 476.570312 367.144531 476.144531 366.773438 C 476.0625 366.703125 475.988281 366.621094 475.933594 366.527344 L 475.1875 365.273438 C 457.253906 335.242188 436.929688 301.195312 400.886719 292.546875 C 400.863281 292.542969 400.832031 292.535156 400.8125 292.527344 L 400.28125 292.402344 C 399.933594 292.320312 399.589844 292.246094 399.230469 292.175781 L 398.96875 292.121094 C 398.410156 292.007812 398.054688 291.453125 398.171875 290.898438 C 398.289062 290.34375 398.839844 289.980469 399.394531 290.097656 L 399.65625 290.152344 C 400.027344 290.230469 400.394531 290.3125 400.746094 290.390625 L 401.351562 290.53125 C 401.382812 290.539062 401.410156 290.546875 401.445312 290.558594 C 438.285156 299.4375 458.828125 333.847656 476.957031 364.214844 L 477.6875 365.429688 C 477.925781 365.816406 477.902344 366.3125 477.597656 366.667969 "/>
</g>
</g>
</g>
<g clip-path="url(#clip126)" clip-rule="nonzero">
<g clip-path="url(#clip127)" clip-rule="nonzero">
<g clip-path="url(#clip128)" clip-rule="nonzero">
<path style=" stroke:none;fill-rule:nonzero;fill:rgb(39.219666%,5.488586%,13.729858%);fill-opacity:1;" d="M 513.496094 368.460938 C 513.277344 368.710938 512.945312 368.851562 512.597656 368.8125 C 512.027344 368.746094 511.625 368.230469 511.6875 367.664062 C 511.882812 366.066406 512.246094 364.472656 512.671875 362.636719 C 512.847656 361.871094 513.035156 361.054688 513.222656 360.167969 C 514.261719 355.34375 513.058594 347.859375 512.480469 344.261719 C 510.703125 333.175781 499.703125 323.828125 478.835938 315.683594 C 478.300781 315.472656 478.042969 314.875 478.25 314.34375 C 478.457031 313.8125 479.058594 313.546875 479.585938 313.75 C 493.371094 319.136719 511.988281 328.117188 514.523438 343.9375 C 515.476562 349.894531 516.226562 356.03125 515.238281 360.609375 C 515.046875 361.5 514.863281 362.324219 514.683594 363.097656 C 514.273438 364.878906 513.917969 366.421875 513.738281 367.90625 C 513.714844 368.125 513.625 368.3125 513.496094 368.460938 "/>
</g>
</g>
</g>
<g clip-path="url(#clip129)" clip-rule="nonzero">
<g clip-path="url(#clip130)" clip-rule="nonzero">
<g clip-path="url(#clip131)" clip-rule="nonzero">
<path style=" stroke:none;fill-rule:nonzero;fill:rgb(39.219666%,5.488586%,13.729858%);fill-opacity:1;" d="M 373.359375 343.621094 C 373.1875 343.816406 372.933594 343.953125 372.652344 343.972656 C 371.519531 344.046875 370.339844 344.207031 369.199219 344.367188 C 367.894531 344.546875 366.546875 344.734375 365.285156 344.789062 C 362.003906 344.910156 358.324219 344.695312 354.039062 344.128906 C 348.585938 343.394531 342.714844 341.996094 336.085938 339.839844 C 319.726562 334.535156 305.347656 326.910156 293.335938 317.183594 C 288.058594 312.90625 283.292969 307.964844 278.6875 303.1875 L 276.800781 301.21875 C 276.023438 300.425781 275.253906 299.628906 274.476562 298.835938 C 274.078125 298.425781 274.078125 297.777344 274.492188 297.371094 C 274.902344 296.976562 275.554688 296.980469 275.953125 297.390625 C 276.738281 298.179688 277.507812 298.988281 278.28125 299.789062 L 280.179688 301.746094 C 284.738281 306.484375 289.457031 311.386719 294.636719 315.578125 C 306.445312 325.148438 320.609375 332.648438 336.726562 337.875 C 343.234375 339.992188 348.984375 341.359375 354.316406 342.078125 C 358.476562 342.628906 362.042969 342.84375 365.203125 342.71875 C 366.359375 342.671875 367.605469 342.496094 368.914062 342.320312 C 370.09375 342.160156 371.308594 341.992188 372.511719 341.90625 C 373.082031 341.875 373.570312 342.296875 373.609375 342.871094 C 373.628906 343.152344 373.535156 343.417969 373.359375 343.621094 "/>
</g>
</g>
</g>
<g clip-path="url(#clip132)" clip-rule="nonzero">
<g clip-path="url(#clip133)" clip-rule="nonzero">
<g clip-path="url(#clip134)" clip-rule="nonzero">
<path style=" stroke:none;fill-rule:nonzero;fill:rgb(39.219666%,5.488586%,13.729858%);fill-opacity:1;" d="M 374.785156 344.195312 C 374.769531 344.214844 374.746094 344.242188 374.722656 344.257812 C 374.316406 344.652344 373.660156 344.648438 373.265625 344.242188 L 372.675781 343.628906 C 370.085938 340.921875 367.398438 338.230469 364.8125 335.625 C 362.621094 333.441406 360.359375 331.164062 358.15625 328.894531 C 354.085938 324.691406 349.097656 319.945312 342.957031 316.570312 C 341.550781 315.796875 340.144531 315.066406 338.773438 314.40625 C 338.257812 314.160156 338.042969 313.542969 338.289062 313.027344 C 338.539062 312.515625 339.15625 312.300781 339.671875 312.546875 C 341.074219 313.222656 342.515625 313.96875 343.953125 314.761719 C 350.332031 318.261719 355.460938 323.148438 359.640625 327.457031 C 361.835938 329.71875 364.09375 331.980469 366.269531 334.167969 C 368.875 336.777344 371.5625 339.476562 374.15625 342.1875 L 374.742188 342.796875 C 375.121094 343.179688 375.132812 343.792969 374.785156 344.195312 "/>
</g>
</g>
</g>
<g clip-path="url(#clip135)" clip-rule="nonzero">
<g clip-path="url(#clip136)" clip-rule="nonzero">
<g clip-path="url(#clip137)" clip-rule="nonzero">
<path style=" stroke:none;fill-rule:nonzero;fill:rgb(39.219666%,5.488586%,13.729858%);fill-opacity:1;" d="M 339.976562 314.144531 C 339.679688 314.488281 339.179688 314.601562 338.75 314.394531 C 331.515625 310.890625 324.191406 308.5 316.691406 306.164062 C 307.6875 303.347656 299.144531 302.40625 290.09375 301.40625 C 289.046875 301.289062 287.988281 301.167969 286.914062 301.050781 C 282.21875 300.519531 278.429688 299.90625 274.984375 299.121094 C 274.429688 298.992188 274.082031 298.4375 274.207031 297.878906 C 274.335938 297.324219 274.890625 296.976562 275.445312 297.105469 C 278.8125 297.875 282.527344 298.476562 287.144531 298.996094 C 288.21875 299.117188 289.273438 299.238281 290.324219 299.351562 C 299.46875 300.367188 308.113281 301.316406 317.308594 304.191406 C 324.882812 306.550781 332.289062 308.972656 339.648438 312.539062 C 340.164062 312.785156 340.375 313.40625 340.132812 313.914062 C 340.085938 314.003906 340.035156 314.078125 339.976562 314.144531 "/>
</g>
</g>
</g>
<g clip-path="url(#clip138)" clip-rule="nonzero">
<g clip-path="url(#clip139)" clip-rule="nonzero">
<g clip-path="url(#clip140)" clip-rule="nonzero">
<path style=" stroke:none;fill-rule:nonzero;fill:rgb(39.219666%,5.488586%,13.729858%);fill-opacity:1;" d="M 314.332031 424.339844 C 314.113281 424.59375 313.886719 424.84375 313.660156 425.105469 C 308.039062 431.414062 301.417969 436.722656 295.027344 441.867188 C 287.246094 448.121094 266.878906 462.261719 245.898438 458.414062 C 241.796875 457.664062 237.765625 456.859375 233.570312 455.285156 L 233.339844 455.191406 C 231.867188 454.628906 230.40625 453.949219 228.992188 453.289062 C 227.582031 452.632812 226.128906 451.957031 224.671875 451.40625 C 224.144531 451.207031 223.871094 450.605469 224.074219 450.078125 C 224.277344 449.542969 224.871094 449.273438 225.402344 449.472656 C 226.925781 450.050781 228.417969 450.746094 229.863281 451.414062 C 231.246094 452.058594 232.675781 452.722656 234.105469 453.273438 L 234.332031 453.363281 C 238.335938 454.867188 242.261719 455.648438 246.269531 456.382812 C 266.414062 460.078125 286.171875 446.335938 293.726562 440.253906 C 300.0625 435.167969 306.613281 429.90625 312.121094 423.726562 C 313.21875 422.496094 314.25 421.253906 315.179688 420.039062 C 316.285156 418.609375 317.316406 417.152344 318.234375 415.695312 C 318.246094 415.679688 318.253906 415.660156 318.273438 415.636719 C 318.300781 415.605469 318.332031 415.5625 318.351562 415.515625 C 318.367188 415.492188 318.378906 415.464844 318.398438 415.445312 C 319.015625 414.46875 319.605469 413.464844 320.140625 412.460938 C 320.648438 411.519531 321.105469 410.617188 321.535156 409.691406 L 321.65625 409.425781 C 321.898438 408.90625 322.503906 408.667969 323.023438 408.902344 C 323.542969 409.132812 323.777344 409.746094 323.542969 410.265625 L 323.417969 410.546875 C 322.957031 411.527344 322.488281 412.46875 321.960938 413.441406 C 321.402344 414.472656 320.796875 415.515625 320.15625 416.527344 C 320.09375 416.628906 320.027344 416.734375 319.960938 416.832031 C 319.007812 418.328125 317.957031 419.832031 316.816406 421.304688 C 316.050781 422.300781 315.21875 423.320312 314.332031 424.339844 "/>
</g>
</g>
</g>
<g clip-path="url(#clip141)" clip-rule="nonzero">
<g clip-path="url(#clip142)" clip-rule="nonzero">
<g clip-path="url(#clip143)" clip-rule="nonzero">
<path style=" stroke:none;fill-rule:nonzero;fill:rgb(39.219666%,5.488586%,13.729858%);fill-opacity:1;" d="M 229.800781 378.570312 C 229.503906 378.914062 229 379.027344 228.574219 378.824219 C 224.554688 376.886719 221.351562 375.007812 218.492188 372.910156 C 217.339844 372.054688 216.289062 371.203125 215.265625 370.304688 C 213.800781 369.011719 212.453125 367.605469 211.144531 366.246094 L 210.582031 365.664062 C 210.070312 365.132812 209.554688 364.605469 209.03125 364.082031 C 208.628906 363.679688 208.628906 363.023438 209.03125 362.621094 C 209.4375 362.21875 210.089844 362.21875 210.492188 362.621094 C 211.023438 363.152344 211.546875 363.691406 212.066406 364.230469 L 212.621094 364.804688 C 213.910156 366.144531 215.234375 367.519531 216.632812 368.753906 C 217.609375 369.613281 218.621094 370.429688 219.71875 371.246094 C 222.507812 373.292969 225.515625 375.054688 229.46875 376.960938 C 229.984375 377.210938 230.199219 377.824219 229.953125 378.339844 C 229.910156 378.425781 229.859375 378.503906 229.800781 378.570312 "/>
</g>
</g>
</g>
<g clip-path="url(#clip144)" clip-rule="nonzero">
<g clip-path="url(#clip145)" clip-rule="nonzero">
<g clip-path="url(#clip146)" clip-rule="nonzero">
<path style=" stroke:none;fill-rule:nonzero;fill:rgb(39.219666%,5.488586%,13.729858%);fill-opacity:1;" d="M 250.363281 363.285156 C 250.136719 363.542969 249.773438 363.6875 249.40625 363.621094 C 234.941406 361.101562 222.371094 361.019531 212.039062 363.386719 C 211.597656 363.480469 211.179688 363.582031 210.765625 363.6875 L 210.253906 361.683594 L 210.503906 362.6875 L 210.269531 361.679688 C 210.710938 361.570312 211.152344 361.464844 211.601562 361.371094 C 222.179688 358.945312 235.027344 359.015625 249.761719 361.585938 C 250.324219 361.683594 250.699219 362.21875 250.601562 362.78125 C 250.570312 362.972656 250.484375 363.144531 250.363281 363.285156 "/>
</g>
</g>
</g>
</g>
</svg>
