<?xml version="1.0" encoding="UTF-8"?>
<svg xmlns="http://www.w3.org/2000/svg" xmlns:xlink="http://www.w3.org/1999/xlink" width="810pt" height="809.999993pt" viewBox="0 0 810 809.999993" version="1.2">
<defs>
<clipPath id="clip1">
  <path d="M 435 348 L 474 348 L 474 389 L 435 389 Z M 435 348 "/>
</clipPath>
<clipPath id="clip2">
  <path d="M 375.039062 148.742188 L 640.738281 368.804688 L 435.03125 617.175781 L 169.328125 397.113281 Z M 375.039062 148.742188 "/>
</clipPath>
<clipPath id="clip3">
  <path d="M 375.039062 148.742188 L 640.738281 368.804688 L 435.03125 617.175781 L 169.328125 397.113281 Z M 375.039062 148.742188 "/>
</clipPath>
<clipPath id="clip4">
  <path d="M 435 386 L 438 386 L 438 390 L 435 390 Z M 435 386 "/>
</clipPath>
<clipPath id="clip5">
  <path d="M 375.039062 148.742188 L 640.738281 368.804688 L 435.03125 617.175781 L 169.328125 397.113281 Z M 375.039062 148.742188 "/>
</clipPath>
<clipPath id="clip6">
  <path d="M 375.039062 148.742188 L 640.738281 368.804688 L 435.03125 617.175781 L 169.328125 397.113281 Z M 375.039062 148.742188 "/>
</clipPath>
<clipPath id="clip7">
  <path d="M 435 348 L 474 348 L 474 390 L 435 390 Z M 435 348 "/>
</clipPath>
<clipPath id="clip8">
  <path d="M 375.039062 148.742188 L 640.738281 368.804688 L 435.03125 617.175781 L 169.328125 397.113281 Z M 375.039062 148.742188 "/>
</clipPath>
<clipPath id="clip9">
  <path d="M 375.039062 148.742188 L 640.738281 368.804688 L 435.03125 617.175781 L 169.328125 397.113281 Z M 375.039062 148.742188 "/>
</clipPath>
<clipPath id="clip10">
  <path d="M 414 387 L 422 387 L 422 419 L 414 419 Z M 414 387 "/>
</clipPath>
<clipPath id="clip11">
  <path d="M 375.039062 148.742188 L 640.738281 368.804688 L 435.03125 617.175781 L 169.328125 397.113281 Z M 375.039062 148.742188 "/>
</clipPath>
<clipPath id="clip12">
  <path d="M 375.039062 148.742188 L 640.738281 368.804688 L 435.03125 617.175781 L 169.328125 397.113281 Z M 375.039062 148.742188 "/>
</clipPath>
<clipPath id="clip13">
  <path d="M 413 385 L 417 385 L 417 390 L 413 390 Z M 413 385 "/>
</clipPath>
<clipPath id="clip14">
  <path d="M 375.039062 148.742188 L 640.738281 368.804688 L 435.03125 617.175781 L 169.328125 397.113281 Z M 375.039062 148.742188 "/>
</clipPath>
<clipPath id="clip15">
  <path d="M 375.039062 148.742188 L 640.738281 368.804688 L 435.03125 617.175781 L 169.328125 397.113281 Z M 375.039062 148.742188 "/>
</clipPath>
<clipPath id="clip16">
  <path d="M 390 314 L 417 314 L 417 389 L 390 389 Z M 390 314 "/>
</clipPath>
<clipPath id="clip17">
  <path d="M 375.039062 148.742188 L 640.738281 368.804688 L 435.03125 617.175781 L 169.328125 397.113281 Z M 375.039062 148.742188 "/>
</clipPath>
<clipPath id="clip18">
  <path d="M 375.039062 148.742188 L 640.738281 368.804688 L 435.03125 617.175781 L 169.328125 397.113281 Z M 375.039062 148.742188 "/>
</clipPath>
<clipPath id="clip19">
  <path d="M 414 386 L 417 386 L 417 390 L 414 390 Z M 414 386 "/>
</clipPath>
<clipPath id="clip20">
  <path d="M 375.039062 148.742188 L 640.738281 368.804688 L 435.03125 617.175781 L 169.328125 397.113281 Z M 375.039062 148.742188 "/>
</clipPath>
<clipPath id="clip21">
  <path d="M 375.039062 148.742188 L 640.738281 368.804688 L 435.03125 617.175781 L 169.328125 397.113281 Z M 375.039062 148.742188 "/>
</clipPath>
<clipPath id="clip22">
  <path d="M 391 314 L 419 314 L 419 389 L 391 389 Z M 391 314 "/>
</clipPath>
<clipPath id="clip23">
  <path d="M 375.039062 148.742188 L 640.738281 368.804688 L 435.03125 617.175781 L 169.328125 397.113281 Z M 375.039062 148.742188 "/>
</clipPath>
<clipPath id="clip24">
  <path d="M 375.039062 148.742188 L 640.738281 368.804688 L 435.03125 617.175781 L 169.328125 397.113281 Z M 375.039062 148.742188 "/>
</clipPath>
<clipPath id="clip25">
  <path d="M 419 454 L 476 454 L 476 493 L 419 493 Z M 419 454 "/>
</clipPath>
<clipPath id="clip26">
  <path d="M 375.039062 148.742188 L 640.738281 368.804688 L 435.03125 617.175781 L 169.328125 397.113281 Z M 375.039062 148.742188 "/>
</clipPath>
<clipPath id="clip27">
  <path d="M 375.039062 148.742188 L 640.738281 368.804688 L 435.03125 617.175781 L 169.328125 397.113281 Z M 375.039062 148.742188 "/>
</clipPath>
<clipPath id="clip28">
  <path d="M 422 375 L 498 375 L 498 456 L 422 456 Z M 422 375 "/>
</clipPath>
<clipPath id="clip29">
  <path d="M 375.039062 148.742188 L 640.738281 368.804688 L 435.03125 617.175781 L 169.328125 397.113281 Z M 375.039062 148.742188 "/>
</clipPath>
<clipPath id="clip30">
  <path d="M 375.039062 148.742188 L 640.738281 368.804688 L 435.03125 617.175781 L 169.328125 397.113281 Z M 375.039062 148.742188 "/>
</clipPath>
<clipPath id="clip31">
  <path d="M 403 453 L 425 453 L 425 480 L 403 480 Z M 403 453 "/>
</clipPath>
<clipPath id="clip32">
  <path d="M 375.039062 148.742188 L 640.738281 368.804688 L 435.03125 617.175781 L 169.328125 397.113281 Z M 375.039062 148.742188 "/>
</clipPath>
<clipPath id="clip33">
  <path d="M 375.039062 148.742188 L 640.738281 368.804688 L 435.03125 617.175781 L 169.328125 397.113281 Z M 375.039062 148.742188 "/>
</clipPath>
<clipPath id="clip34">
  <path d="M 423 373 L 498 373 L 498 455 L 423 455 Z M 423 373 "/>
</clipPath>
<clipPath id="clip35">
  <path d="M 375.039062 148.742188 L 640.738281 368.804688 L 435.03125 617.175781 L 169.328125 397.113281 Z M 375.039062 148.742188 "/>
</clipPath>
<clipPath id="clip36">
  <path d="M 375.039062 148.742188 L 640.738281 368.804688 L 435.03125 617.175781 L 169.328125 397.113281 Z M 375.039062 148.742188 "/>
</clipPath>
<clipPath id="clip37">
  <path d="M 399 357 L 442 357 L 442 541 L 399 541 Z M 399 357 "/>
</clipPath>
<clipPath id="clip38">
  <path d="M 375.039062 148.742188 L 640.738281 368.804688 L 435.03125 617.175781 L 169.328125 397.113281 Z M 375.039062 148.742188 "/>
</clipPath>
<clipPath id="clip39">
  <path d="M 375.039062 148.742188 L 640.738281 368.804688 L 435.03125 617.175781 L 169.328125 397.113281 Z M 375.039062 148.742188 "/>
</clipPath>
<clipPath id="clip40">
  <path d="M 439 252 L 486 252 L 486 360 L 439 360 Z M 439 252 "/>
</clipPath>
<clipPath id="clip41">
  <path d="M 375.039062 148.742188 L 640.738281 368.804688 L 435.03125 617.175781 L 169.328125 397.113281 Z M 375.039062 148.742188 "/>
</clipPath>
<clipPath id="clip42">
  <path d="M 375.039062 148.742188 L 640.738281 368.804688 L 435.03125 617.175781 L 169.328125 397.113281 Z M 375.039062 148.742188 "/>
</clipPath>
<clipPath id="clip43">
  <path d="M 418 186 L 429 186 L 429 227 L 418 227 Z M 418 186 "/>
</clipPath>
<clipPath id="clip44">
  <path d="M 375.039062 148.742188 L 640.738281 368.804688 L 435.03125 617.175781 L 169.328125 397.113281 Z M 375.039062 148.742188 "/>
</clipPath>
<clipPath id="clip45">
  <path d="M 375.039062 148.742188 L 640.738281 368.804688 L 435.03125 617.175781 L 169.328125 397.113281 Z M 375.039062 148.742188 "/>
</clipPath>
<clipPath id="clip46">
  <path d="M 409 214 L 450 214 L 450 238 L 409 238 Z M 409 214 "/>
</clipPath>
<clipPath id="clip47">
  <path d="M 375.039062 148.742188 L 640.738281 368.804688 L 435.03125 617.175781 L 169.328125 397.113281 Z M 375.039062 148.742188 "/>
</clipPath>
<clipPath id="clip48">
  <path d="M 375.039062 148.742188 L 640.738281 368.804688 L 435.03125 617.175781 L 169.328125 397.113281 Z M 375.039062 148.742188 "/>
</clipPath>
<clipPath id="clip49">
  <path d="M 390 170 L 409 170 L 409 225 L 390 225 Z M 390 170 "/>
</clipPath>
<clipPath id="clip50">
  <path d="M 375.039062 148.742188 L 640.738281 368.804688 L 435.03125 617.175781 L 169.328125 397.113281 Z M 375.039062 148.742188 "/>
</clipPath>
<clipPath id="clip51">
  <path d="M 375.039062 148.742188 L 640.738281 368.804688 L 435.03125 617.175781 L 169.328125 397.113281 Z M 375.039062 148.742188 "/>
</clipPath>
<clipPath id="clip52">
  <path d="M 383 222 L 413 222 L 413 300 L 383 300 Z M 383 222 "/>
</clipPath>
<clipPath id="clip53">
  <path d="M 375.039062 148.742188 L 640.738281 368.804688 L 435.03125 617.175781 L 169.328125 397.113281 Z M 375.039062 148.742188 "/>
</clipPath>
<clipPath id="clip54">
  <path d="M 375.039062 148.742188 L 640.738281 368.804688 L 435.03125 617.175781 L 169.328125 397.113281 Z M 375.039062 148.742188 "/>
</clipPath>
<clipPath id="clip55">
  <path d="M 374 173 L 397 173 L 397 305 L 374 305 Z M 374 173 "/>
</clipPath>
<clipPath id="clip56">
  <path d="M 375.039062 148.742188 L 640.738281 368.804688 L 435.03125 617.175781 L 169.328125 397.113281 Z M 375.039062 148.742188 "/>
</clipPath>
<clipPath id="clip57">
  <path d="M 375.039062 148.742188 L 640.738281 368.804688 L 435.03125 617.175781 L 169.328125 397.113281 Z M 375.039062 148.742188 "/>
</clipPath>
<clipPath id="clip58">
  <path d="M 371 214 L 451 214 L 451 301 L 371 301 Z M 371 214 "/>
</clipPath>
<clipPath id="clip59">
  <path d="M 375.039062 148.742188 L 640.738281 368.804688 L 435.03125 617.175781 L 169.328125 397.113281 Z M 375.039062 148.742188 "/>
</clipPath>
<clipPath id="clip60">
  <path d="M 375.039062 148.742188 L 640.738281 368.804688 L 435.03125 617.175781 L 169.328125 397.113281 Z M 375.039062 148.742188 "/>
</clipPath>
<clipPath id="clip61">
  <path d="M 400 538 L 436 538 L 436 617 L 400 617 Z M 400 538 "/>
</clipPath>
<clipPath id="clip62">
  <path d="M 375.039062 148.742188 L 640.738281 368.804688 L 435.03125 617.175781 L 169.328125 397.113281 Z M 375.039062 148.742188 "/>
</clipPath>
<clipPath id="clip63">
  <path d="M 375.039062 148.742188 L 640.738281 368.804688 L 435.03125 617.175781 L 169.328125 397.113281 Z M 375.039062 148.742188 "/>
</clipPath>
<clipPath id="clip64">
  <path d="M 401.460938 537.117188 L 460.855469 586.308594 L 434.945312 617.589844 L 375.550781 568.398438 Z M 401.460938 537.117188 "/>
</clipPath>
<clipPath id="clip65">
  <path d="M 401.460938 537.117188 L 460.53125 586.042969 L 434.859375 617.035156 L 375.789062 568.113281 Z M 401.460938 537.117188 "/>
</clipPath>
<clipPath id="clip66">
  <path d="M 377 419 L 403 419 L 403 541 L 377 541 Z M 377 419 "/>
</clipPath>
<clipPath id="clip67">
  <path d="M 375.039062 148.742188 L 640.738281 368.804688 L 435.03125 617.175781 L 169.328125 397.113281 Z M 375.039062 148.742188 "/>
</clipPath>
<clipPath id="clip68">
  <path d="M 375.039062 148.742188 L 640.738281 368.804688 L 435.03125 617.175781 L 169.328125 397.113281 Z M 375.039062 148.742188 "/>
</clipPath>
<clipPath id="clip69">
  <path d="M 373 306 L 377 306 L 377 374 L 373 374 Z M 373 306 "/>
</clipPath>
<clipPath id="clip70">
  <path d="M 375.039062 148.742188 L 640.738281 368.804688 L 435.03125 617.175781 L 169.328125 397.113281 Z M 375.039062 148.742188 "/>
</clipPath>
<clipPath id="clip71">
  <path d="M 375.039062 148.742188 L 640.738281 368.804688 L 435.03125 617.175781 L 169.328125 397.113281 Z M 375.039062 148.742188 "/>
</clipPath>
<clipPath id="clip72">
  <path d="M 374 298 L 377 298 L 377 309 L 374 309 Z M 374 298 "/>
</clipPath>
<clipPath id="clip73">
  <path d="M 375.039062 148.742188 L 640.738281 368.804688 L 435.03125 617.175781 L 169.328125 397.113281 Z M 375.039062 148.742188 "/>
</clipPath>
<clipPath id="clip74">
  <path d="M 375.039062 148.742188 L 640.738281 368.804688 L 435.03125 617.175781 L 169.328125 397.113281 Z M 375.039062 148.742188 "/>
</clipPath>
<clipPath id="clip75">
  <path d="M 328 197 L 337 197 L 337 215 L 328 215 Z M 328 197 "/>
</clipPath>
<clipPath id="clip76">
  <path d="M 375.039062 148.742188 L 640.738281 368.804688 L 435.03125 617.175781 L 169.328125 397.113281 Z M 375.039062 148.742188 "/>
</clipPath>
<clipPath id="clip77">
  <path d="M 375.039062 148.742188 L 640.738281 368.804688 L 435.03125 617.175781 L 169.328125 397.113281 Z M 375.039062 148.742188 "/>
</clipPath>
<clipPath id="clip78">
  <path d="M 361 170 L 393 170 L 393 224 L 361 224 Z M 361 170 "/>
</clipPath>
<clipPath id="clip79">
  <path d="M 375.039062 148.742188 L 640.738281 368.804688 L 435.03125 617.175781 L 169.328125 397.113281 Z M 375.039062 148.742188 "/>
</clipPath>
<clipPath id="clip80">
  <path d="M 375.039062 148.742188 L 640.738281 368.804688 L 435.03125 617.175781 L 169.328125 397.113281 Z M 375.039062 148.742188 "/>
</clipPath>
<clipPath id="clip81">
  <path d="M 374 306 L 377 306 L 377 309 L 374 309 Z M 374 306 "/>
</clipPath>
<clipPath id="clip82">
  <path d="M 375.039062 148.742188 L 640.738281 368.804688 L 435.03125 617.175781 L 169.328125 397.113281 Z M 375.039062 148.742188 "/>
</clipPath>
<clipPath id="clip83">
  <path d="M 375.039062 148.742188 L 640.738281 368.804688 L 435.03125 617.175781 L 169.328125 397.113281 Z M 375.039062 148.742188 "/>
</clipPath>
<clipPath id="clip84">
  <path d="M 366 292 L 371 292 L 371 300 L 366 300 Z M 366 292 "/>
</clipPath>
<clipPath id="clip85">
  <path d="M 375.039062 148.742188 L 640.738281 368.804688 L 435.03125 617.175781 L 169.328125 397.113281 Z M 375.039062 148.742188 "/>
</clipPath>
<clipPath id="clip86">
  <path d="M 375.039062 148.742188 L 640.738281 368.804688 L 435.03125 617.175781 L 169.328125 397.113281 Z M 375.039062 148.742188 "/>
</clipPath>
<clipPath id="clip87">
  <path d="M 355 221 L 369 221 L 369 295 L 355 295 Z M 355 221 "/>
</clipPath>
<clipPath id="clip88">
  <path d="M 375.039062 148.742188 L 640.738281 368.804688 L 435.03125 617.175781 L 169.328125 397.113281 Z M 375.039062 148.742188 "/>
</clipPath>
<clipPath id="clip89">
  <path d="M 375.039062 148.742188 L 640.738281 368.804688 L 435.03125 617.175781 L 169.328125 397.113281 Z M 375.039062 148.742188 "/>
</clipPath>
<clipPath id="clip90">
  <path d="M 333 197 L 359 197 L 359 238 L 333 238 Z M 333 197 "/>
</clipPath>
<clipPath id="clip91">
  <path d="M 375.039062 148.742188 L 640.738281 368.804688 L 435.03125 617.175781 L 169.328125 397.113281 Z M 375.039062 148.742188 "/>
</clipPath>
<clipPath id="clip92">
  <path d="M 375.039062 148.742188 L 640.738281 368.804688 L 435.03125 617.175781 L 169.328125 397.113281 Z M 375.039062 148.742188 "/>
</clipPath>
<clipPath id="clip93">
  <path d="M 344 190 L 358 190 L 358 214 L 344 214 Z M 344 190 "/>
</clipPath>
<clipPath id="clip94">
  <path d="M 375.039062 148.742188 L 640.738281 368.804688 L 435.03125 617.175781 L 169.328125 397.113281 Z M 375.039062 148.742188 "/>
</clipPath>
<clipPath id="clip95">
  <path d="M 375.039062 148.742188 L 640.738281 368.804688 L 435.03125 617.175781 L 169.328125 397.113281 Z M 375.039062 148.742188 "/>
</clipPath>
<clipPath id="clip96">
  <path d="M 355 190 L 369 190 L 369 207 L 355 207 Z M 355 190 "/>
</clipPath>
<clipPath id="clip97">
  <path d="M 375.039062 148.742188 L 640.738281 368.804688 L 435.03125 617.175781 L 169.328125 397.113281 Z M 375.039062 148.742188 "/>
</clipPath>
<clipPath id="clip98">
  <path d="M 375.039062 148.742188 L 640.738281 368.804688 L 435.03125 617.175781 L 169.328125 397.113281 Z M 375.039062 148.742188 "/>
</clipPath>
<clipPath id="clip99">
  <path d="M 362 291 L 367 291 L 367 296 L 362 296 Z M 362 291 "/>
</clipPath>
<clipPath id="clip100">
  <path d="M 375.039062 148.742188 L 640.738281 368.804688 L 435.03125 617.175781 L 169.328125 397.113281 Z M 375.039062 148.742188 "/>
</clipPath>
<clipPath id="clip101">
  <path d="M 375.039062 148.742188 L 640.738281 368.804688 L 435.03125 617.175781 L 169.328125 397.113281 Z M 375.039062 148.742188 "/>
</clipPath>
<clipPath id="clip102">
  <path d="M 328 212 L 365 212 L 365 294 L 328 294 Z M 328 212 "/>
</clipPath>
<clipPath id="clip103">
  <path d="M 375.039062 148.742188 L 640.738281 368.804688 L 435.03125 617.175781 L 169.328125 397.113281 Z M 375.039062 148.742188 "/>
</clipPath>
<clipPath id="clip104">
  <path d="M 375.039062 148.742188 L 640.738281 368.804688 L 435.03125 617.175781 L 169.328125 397.113281 Z M 375.039062 148.742188 "/>
</clipPath>
<clipPath id="clip105">
  <path d="M 398 215 L 447 215 L 447 295 L 398 295 Z M 398 215 "/>
</clipPath>
<clipPath id="clip106">
  <path d="M 375.039062 148.742188 L 640.738281 368.804688 L 435.03125 617.175781 L 169.328125 397.113281 Z M 375.039062 148.742188 "/>
</clipPath>
<clipPath id="clip107">
  <path d="M 375.039062 148.742188 L 640.738281 368.804688 L 435.03125 617.175781 L 169.328125 397.113281 Z M 375.039062 148.742188 "/>
</clipPath>
<clipPath id="clip108">
  <path d="M 315 329 L 412 329 L 412 451 L 315 451 Z M 315 329 "/>
</clipPath>
<clipPath id="clip109">
  <path d="M 375.039062 148.742188 L 640.738281 368.804688 L 435.03125 617.175781 L 169.328125 397.113281 Z M 375.039062 148.742188 "/>
</clipPath>
<clipPath id="clip110">
  <path d="M 375.039062 148.742188 L 640.738281 368.804688 L 435.03125 617.175781 L 169.328125 397.113281 Z M 375.039062 148.742188 "/>
</clipPath>
<clipPath id="clip111">
  <path d="M 315 329 L 406 329 L 406 444 L 315 444 Z M 315 329 "/>
</clipPath>
<clipPath id="clip112">
  <path d="M 375.039062 148.742188 L 640.738281 368.804688 L 435.03125 617.175781 L 169.328125 397.113281 Z M 375.039062 148.742188 "/>
</clipPath>
<clipPath id="clip113">
  <path d="M 375.039062 148.742188 L 640.738281 368.804688 L 435.03125 617.175781 L 169.328125 397.113281 Z M 375.039062 148.742188 "/>
</clipPath>
<clipPath id="clip114">
  <path d="M 399 489 L 424 489 L 424 510 L 399 510 Z M 399 489 "/>
</clipPath>
<clipPath id="clip115">
  <path d="M 375.039062 148.742188 L 640.738281 368.804688 L 435.03125 617.175781 L 169.328125 397.113281 Z M 375.039062 148.742188 "/>
</clipPath>
<clipPath id="clip116">
  <path d="M 375.039062 148.742188 L 640.738281 368.804688 L 435.03125 617.175781 L 169.328125 397.113281 Z M 375.039062 148.742188 "/>
</clipPath>
<clipPath id="clip117">
  <path d="M 439 357 L 442 357 L 442 360 L 439 360 Z M 439 357 "/>
</clipPath>
<clipPath id="clip118">
  <path d="M 375.039062 148.742188 L 640.738281 368.804688 L 435.03125 617.175781 L 169.328125 397.113281 Z M 375.039062 148.742188 "/>
</clipPath>
<clipPath id="clip119">
  <path d="M 375.039062 148.742188 L 640.738281 368.804688 L 435.03125 617.175781 L 169.328125 397.113281 Z M 375.039062 148.742188 "/>
</clipPath>
<clipPath id="clip120">
  <path d="M 426 386 L 438 386 L 438 398 L 426 398 Z M 426 386 "/>
</clipPath>
<clipPath id="clip121">
  <path d="M 375.039062 148.742188 L 640.738281 368.804688 L 435.03125 617.175781 L 169.328125 397.113281 Z M 375.039062 148.742188 "/>
</clipPath>
<clipPath id="clip122">
  <path d="M 375.039062 148.742188 L 640.738281 368.804688 L 435.03125 617.175781 L 169.328125 397.113281 Z M 375.039062 148.742188 "/>
</clipPath>
<clipPath id="clip123">
  <path d="M 422 373 L 498 373 L 498 456 L 422 456 Z M 422 373 "/>
</clipPath>
<clipPath id="clip124">
  <path d="M 375.039062 148.742188 L 640.738281 368.804688 L 435.03125 617.175781 L 169.328125 397.113281 Z M 375.039062 148.742188 "/>
</clipPath>
<clipPath id="clip125">
  <path d="M 375.039062 148.742188 L 640.738281 368.804688 L 435.03125 617.175781 L 169.328125 397.113281 Z M 375.039062 148.742188 "/>
</clipPath>
<clipPath id="clip126">
  <path d="M 421 454 L 476 454 L 476 493 L 421 493 Z M 421 454 "/>
</clipPath>
<clipPath id="clip127">
  <path d="M 375.039062 148.742188 L 640.738281 368.804688 L 435.03125 617.175781 L 169.328125 397.113281 Z M 375.039062 148.742188 "/>
</clipPath>
<clipPath id="clip128">
  <path d="M 375.039062 148.742188 L 640.738281 368.804688 L 435.03125 617.175781 L 169.328125 397.113281 Z M 375.039062 148.742188 "/>
</clipPath>
<clipPath id="clip129">
  <path d="M 442 250 L 488 250 L 488 351 L 442 351 Z M 442 250 "/>
</clipPath>
<clipPath id="clip130">
  <path d="M 375.039062 148.742188 L 640.738281 368.804688 L 435.03125 617.175781 L 169.328125 397.113281 Z M 375.039062 148.742188 "/>
</clipPath>
<clipPath id="clip131">
  <path d="M 375.039062 148.742188 L 640.738281 368.804688 L 435.03125 617.175781 L 169.328125 397.113281 Z M 375.039062 148.742188 "/>
</clipPath>
<clipPath id="clip132">
  <path d="M 442 314 L 474 314 L 474 353 L 442 353 Z M 442 314 "/>
</clipPath>
<clipPath id="clip133">
  <path d="M 375.039062 148.742188 L 640.738281 368.804688 L 435.03125 617.175781 L 169.328125 397.113281 Z M 375.039062 148.742188 "/>
</clipPath>
<clipPath id="clip134">
  <path d="M 375.039062 148.742188 L 640.738281 368.804688 L 435.03125 617.175781 L 169.328125 397.113281 Z M 375.039062 148.742188 "/>
</clipPath>
<clipPath id="clip135">
  <path d="M 471 250 L 488 250 L 488 317 L 471 317 Z M 471 250 "/>
</clipPath>
<clipPath id="clip136">
  <path d="M 375.039062 148.742188 L 640.738281 368.804688 L 435.03125 617.175781 L 169.328125 397.113281 Z M 375.039062 148.742188 "/>
</clipPath>
<clipPath id="clip137">
  <path d="M 375.039062 148.742188 L 640.738281 368.804688 L 435.03125 617.175781 L 169.328125 397.113281 Z M 375.039062 148.742188 "/>
</clipPath>
<clipPath id="clip138">
  <path d="M 325 203 L 378 203 L 378 303 L 325 303 Z M 325 203 "/>
</clipPath>
<clipPath id="clip139">
  <path d="M 375.039062 148.742188 L 640.738281 368.804688 L 435.03125 617.175781 L 169.328125 397.113281 Z M 375.039062 148.742188 "/>
</clipPath>
<clipPath id="clip140">
  <path d="M 375.039062 148.742188 L 640.738281 368.804688 L 435.03125 617.175781 L 169.328125 397.113281 Z M 375.039062 148.742188 "/>
</clipPath>
<clipPath id="clip141">
  <path d="M 404 186 L 421 186 L 421 208 L 404 208 Z M 404 186 "/>
</clipPath>
<clipPath id="clip142">
  <path d="M 375.039062 148.742188 L 640.738281 368.804688 L 435.03125 617.175781 L 169.328125 397.113281 Z M 375.039062 148.742188 "/>
</clipPath>
<clipPath id="clip143">
  <path d="M 375.039062 148.742188 L 640.738281 368.804688 L 435.03125 617.175781 L 169.328125 397.113281 Z M 375.039062 148.742188 "/>
</clipPath>
<clipPath id="clip144">
  <path d="M 419 187 L 425 187 L 425 229 L 419 229 Z M 419 187 "/>
</clipPath>
<clipPath id="clip145">
  <path d="M 375.039062 148.742188 L 640.738281 368.804688 L 435.03125 617.175781 L 169.328125 397.113281 Z M 375.039062 148.742188 "/>
</clipPath>
<clipPath id="clip146">
  <path d="M 375.039062 148.742188 L 640.738281 368.804688 L 435.03125 617.175781 L 169.328125 397.113281 Z M 375.039062 148.742188 "/>
</clipPath>
</defs>
<g id="surface1">
<rect x="0" y="0" width="810" height="809.999993" style="fill:rgb(100%,100%,100%);fill-opacity:1;stroke:none;"/>
<rect x="0" y="0" width="810" height="809.999993" style="fill:rgb(100%,100%,100%);fill-opacity:1;stroke:none;"/>
<rect x="0" y="0" width="810" height="809.999993" style="fill:rgb(100%,100%,100%);fill-opacity:1;stroke:none;"/>
<g clip-path="url(#clip1)" clip-rule="nonzero">
<g clip-path="url(#clip2)" clip-rule="nonzero">
<g clip-path="url(#clip3)" clip-rule="nonzero">
<path style=" stroke:none;fill-rule:nonzero;fill:rgb(39.219666%,5.488586%,13.729858%);fill-opacity:1;" d="M 436.214844 388.476562 C 435.902344 388.214844 435.757812 387.785156 435.890625 387.367188 L 436.222656 386.285156 C 436.851562 384.265625 437.496094 382.179688 438.507812 380.210938 C 441.046875 375.324219 444.570312 370.402344 448.984375 365.585938 C 452.191406 362.082031 456.15625 359.574219 459.976562 357.152344 C 461.914062 355.921875 463.917969 354.660156 465.78125 353.285156 C 467.828125 351.773438 469.890625 350.113281 471.925781 348.355469 C 472.363281 347.984375 473.015625 348.035156 473.386719 348.464844 C 473.753906 348.894531 473.707031 349.542969 473.277344 349.921875 C 471.207031 351.710938 469.097656 353.40625 467.007812 354.945312 C 465.082031 356.363281 463.050781 357.648438 461.085938 358.890625 C 457.203125 361.351562 453.535156 363.675781 450.503906 366.976562 C 446.21875 371.660156 442.796875 376.433594 440.347656 381.164062 C 439.417969 382.964844 438.828125 384.875 438.203125 386.894531 L 437.859375 387.988281 C 437.691406 388.535156 437.109375 388.839844 436.566406 388.667969 C 436.433594 388.621094 436.316406 388.558594 436.214844 388.476562 "/>
</g>
</g>
</g>
<g clip-path="url(#clip4)" clip-rule="nonzero">
<g clip-path="url(#clip5)" clip-rule="nonzero">
<g clip-path="url(#clip6)" clip-rule="nonzero">
<path style=" stroke:none;fill-rule:nonzero;fill:rgb(39.219666%,5.488586%,13.729858%);fill-opacity:1;" d="M 436.105469 388.804688 C 435.78125 388.535156 435.640625 388.078125 435.792969 387.660156 L 435.796875 387.652344 C 435.824219 387.578125 435.855469 387.496094 435.875 387.417969 C 436.023438 386.871094 436.585938 386.539062 437.136719 386.691406 C 437.6875 386.835938 438.015625 387.402344 437.871094 387.953125 C 437.835938 388.082031 437.785156 388.21875 437.734375 388.355469 C 437.539062 388.894531 436.949219 389.171875 436.414062 388.980469 C 436.296875 388.9375 436.195312 388.878906 436.105469 388.804688 "/>
</g>
</g>
</g>
<g clip-path="url(#clip7)" clip-rule="nonzero">
<g clip-path="url(#clip8)" clip-rule="nonzero">
<g clip-path="url(#clip9)" clip-rule="nonzero">
<path style=" stroke:none;fill-rule:nonzero;fill:rgb(39.219666%,5.488586%,13.729858%);fill-opacity:1;" d="M 436.105469 388.804688 C 435.898438 388.632812 435.753906 388.371094 435.734375 388.085938 C 435.699219 387.511719 436.121094 387.023438 436.695312 386.976562 C 441.605469 386.640625 447.34375 383.113281 451.796875 380.070312 C 455.445312 377.574219 458.984375 374.035156 461.757812 370.101562 C 463.558594 367.550781 464.902344 364.546875 466.199219 361.640625 C 466.996094 359.859375 467.820312 358.023438 468.742188 356.292969 C 469.789062 354.328125 470.582031 351.945312 471.34375 349.644531 L 471.625 348.8125 C 471.800781 348.269531 472.386719 347.976562 472.929688 348.160156 C 473.472656 348.339844 473.761719 348.929688 473.582031 349.46875 L 473.308594 350.296875 C 472.519531 352.671875 471.699219 355.140625 470.566406 357.265625 C 469.679688 358.929688 468.867188 360.742188 468.085938 362.480469 C 466.746094 365.484375 465.359375 368.582031 463.449219 371.289062 C 460.53125 375.425781 456.808594 379.144531 452.957031 381.773438 C 448.289062 384.960938 442.242188 388.667969 436.835938 389.042969 C 436.5625 389.058594 436.300781 388.964844 436.105469 388.804688 "/>
</g>
</g>
</g>
<g clip-path="url(#clip10)" clip-rule="nonzero">
<g clip-path="url(#clip11)" clip-rule="nonzero">
<g clip-path="url(#clip12)" clip-rule="nonzero">
<path style=" stroke:none;fill-rule:nonzero;fill:rgb(39.219666%,5.488586%,13.729858%);fill-opacity:1;" d="M 419.457031 418.144531 C 419.226562 417.957031 419.082031 417.667969 419.082031 417.34375 C 419.125 408.082031 416.753906 398.339844 414.101562 388.339844 C 413.957031 387.792969 414.28125 387.222656 414.835938 387.082031 C 415.386719 386.9375 415.949219 387.261719 416.097656 387.816406 C 418.785156 397.949219 421.191406 407.835938 421.152344 417.351562 C 421.152344 417.921875 420.679688 418.382812 420.109375 418.382812 C 419.859375 418.378906 419.636719 418.292969 419.457031 418.144531 "/>
</g>
</g>
</g>
<g clip-path="url(#clip13)" clip-rule="nonzero">
<g clip-path="url(#clip14)" clip-rule="nonzero">
<g clip-path="url(#clip15)" clip-rule="nonzero">
<path style=" stroke:none;fill-rule:nonzero;fill:rgb(39.219666%,5.488586%,13.729858%);fill-opacity:1;" d="M 414.449219 388.871094 C 414.289062 388.738281 414.167969 388.558594 414.109375 388.347656 L 413.757812 387.046875 C 413.609375 386.492188 413.9375 385.925781 414.484375 385.78125 C 415.03125 385.625 415.601562 385.953125 415.753906 386.503906 L 416.101562 387.800781 C 416.246094 388.347656 415.929688 388.917969 415.382812 389.070312 C 415.039062 389.160156 414.695312 389.074219 414.449219 388.871094 "/>
</g>
</g>
</g>
<g clip-path="url(#clip16)" clip-rule="nonzero">
<g clip-path="url(#clip17)" clip-rule="nonzero">
<g clip-path="url(#clip18)" clip-rule="nonzero">
<path style=" stroke:none;fill-rule:nonzero;fill:rgb(39.219666%,5.488586%,13.729858%);fill-opacity:1;" d="M 414.644531 388.289062 C 414.585938 388.242188 414.523438 388.171875 414.472656 388.105469 C 414.304688 387.875 414.128906 387.648438 413.949219 387.421875 C 413.085938 386.3125 412.226562 385.214844 411.363281 384.117188 C 403.050781 373.515625 394.457031 362.550781 391.347656 348.828125 C 389.664062 341.464844 390.140625 333.769531 390.59375 326.324219 C 390.800781 322.910156 391.015625 319.378906 391.015625 315.957031 C 391.011719 315.378906 391.476562 314.914062 392.046875 314.914062 C 392.617188 314.921875 393.082031 315.386719 393.078125 315.949219 C 393.074219 319.4375 392.863281 323 392.652344 326.445312 C 392.210938 333.75 391.753906 341.300781 393.351562 348.371094 C 396.371094 361.640625 404.816406 372.417969 412.992188 382.835938 C 413.851562 383.941406 414.714844 385.039062 415.570312 386.144531 C 415.757812 386.378906 415.949219 386.625 416.128906 386.875 C 416.472656 387.328125 416.375 387.980469 415.921875 388.320312 C 415.53125 388.605469 415.003906 388.585938 414.644531 388.289062 "/>
</g>
</g>
</g>
<g clip-path="url(#clip19)" clip-rule="nonzero">
<g clip-path="url(#clip20)" clip-rule="nonzero">
<g clip-path="url(#clip21)" clip-rule="nonzero">
<path style=" stroke:none;fill-rule:nonzero;fill:rgb(39.219666%,5.488586%,13.729858%);fill-opacity:1;" d="M 414.449219 388.871094 C 414.082031 388.566406 413.972656 388.074219 414.152344 387.660156 L 414.339844 387.144531 C 414.535156 386.605469 415.128906 386.332031 415.660156 386.519531 C 416.195312 386.714844 416.472656 387.308594 416.277344 387.847656 L 416.078125 388.421875 C 416.035156 388.53125 415.976562 388.644531 415.902344 388.734375 C 415.539062 389.171875 414.882812 389.230469 414.449219 388.871094 "/>
</g>
</g>
</g>
<g clip-path="url(#clip22)" clip-rule="nonzero">
<g clip-path="url(#clip23)" clip-rule="nonzero">
<g clip-path="url(#clip24)" clip-rule="nonzero">
<path style=" stroke:none;fill-rule:nonzero;fill:rgb(39.219666%,5.488586%,13.729858%);fill-opacity:1;" d="M 414.644531 388.289062 C 414.320312 388.019531 414.183594 387.570312 414.324219 387.160156 C 418.539062 374.785156 414.671875 357.769531 410.683594 345.667969 C 408.582031 339.308594 405.203125 333.855469 400.78125 327.625 C 399.078125 325.222656 396.65625 322.574219 394.308594 320.011719 C 393.238281 318.832031 392.21875 317.71875 391.269531 316.628906 C 390.894531 316.203125 390.933594 315.546875 391.367188 315.175781 C 391.796875 314.796875 392.449219 314.84375 392.824219 315.273438 C 393.761719 316.34375 394.769531 317.445312 395.839844 318.617188 C 398.222656 321.226562 400.6875 323.929688 402.464844 326.429688 C 407 332.8125 410.460938 338.414062 412.644531 345.023438 C 416.730469 357.417969 420.679688 374.910156 416.28125 387.824219 C 416.09375 388.363281 415.511719 388.652344 414.96875 388.46875 C 414.851562 388.425781 414.738281 388.367188 414.644531 388.289062 "/>
</g>
</g>
</g>
<g clip-path="url(#clip25)" clip-rule="nonzero">
<g clip-path="url(#clip26)" clip-rule="nonzero">
<g clip-path="url(#clip27)" clip-rule="nonzero">
<path style=" stroke:none;fill-rule:nonzero;fill:rgb(39.219666%,5.488586%,13.729858%);fill-opacity:1;" d="M 419.933594 492.410156 C 419.582031 492.121094 419.453125 491.621094 419.65625 491.179688 C 419.796875 490.867188 419.949219 490.554688 420.097656 490.25 L 420.359375 489.707031 C 424.507812 481.242188 429.808594 472.585938 440.484375 466.445312 C 446.421875 463.03125 453.175781 461.179688 459.707031 459.394531 C 464.695312 458.027344 469.855469 456.617188 474.492188 454.527344 C 475.007812 454.292969 475.621094 454.527344 475.855469 455.042969 C 476.089844 455.566406 475.855469 456.175781 475.339844 456.410156 C 470.558594 458.566406 465.324219 459.996094 460.257812 461.386719 C 453.851562 463.140625 447.222656 464.957031 441.523438 468.234375 C 431.316406 474.101562 426.214844 482.453125 422.222656 490.605469 L 421.960938 491.148438 C 421.8125 491.445312 421.671875 491.75 421.53125 492.046875 C 421.289062 492.566406 420.679688 492.796875 420.164062 492.554688 C 420.082031 492.515625 420.003906 492.46875 419.933594 492.410156 "/>
</g>
</g>
</g>
<g clip-path="url(#clip28)" clip-rule="nonzero">
<g clip-path="url(#clip29)" clip-rule="nonzero">
<g clip-path="url(#clip30)" clip-rule="nonzero">
<path style=" stroke:none;fill-rule:nonzero;fill:rgb(39.219666%,5.488586%,13.729858%);fill-opacity:1;" d="M 422.949219 455.085938 C 422.515625 454.726562 422.445312 454.089844 422.800781 453.648438 C 423.457031 452.835938 424.089844 452.015625 424.730469 451.199219 C 426.734375 448.664062 428.714844 446.121094 430.6875 443.589844 C 449.53125 419.277344 470.753906 397.199219 495.566406 376.078125 C 495.996094 375.710938 496.648438 375.765625 497.027344 376.195312 C 497.390625 376.632812 497.339844 377.285156 496.910156 377.65625 C 472.203125 398.675781 451.070312 420.660156 432.3125 444.855469 C 430.34375 447.390625 428.355469 449.933594 426.359375 452.472656 C 425.710938 453.296875 425.074219 454.121094 424.414062 454.941406 C 424.054688 455.382812 423.40625 455.457031 422.960938 455.097656 L 422.949219 455.085938 "/>
</g>
</g>
</g>
<g clip-path="url(#clip31)" clip-rule="nonzero">
<g clip-path="url(#clip32)" clip-rule="nonzero">
<g clip-path="url(#clip33)" clip-rule="nonzero">
<path style=" stroke:none;fill-rule:nonzero;fill:rgb(39.219666%,5.488586%,13.729858%);fill-opacity:1;" d="M 403.445312 479.308594 C 403.007812 478.949219 402.949219 478.296875 403.304688 477.859375 C 410.167969 469.492188 416.722656 461.351562 422.792969 453.660156 C 423.144531 453.210938 423.792969 453.140625 424.242188 453.492188 C 424.683594 453.847656 424.765625 454.492188 424.414062 454.941406 C 418.335938 462.644531 411.773438 470.796875 404.902344 479.167969 C 404.542969 479.609375 403.894531 479.671875 403.449219 479.3125 L 403.445312 479.308594 "/>
</g>
</g>
</g>
<g clip-path="url(#clip34)" clip-rule="nonzero">
<g clip-path="url(#clip35)" clip-rule="nonzero">
<g clip-path="url(#clip36)" clip-rule="nonzero">
<path style=" stroke:none;fill-rule:nonzero;fill:rgb(39.219666%,5.488586%,13.729858%);fill-opacity:1;" d="M 424.050781 454.398438 C 423.683594 454.09375 423.566406 453.578125 423.785156 453.140625 C 424.074219 452.566406 424.335938 451.988281 424.605469 451.40625 C 427.375 445.394531 429.511719 439.273438 431.769531 432.804688 C 433.207031 428.691406 434.691406 424.4375 436.386719 420.101562 C 439.910156 411.066406 445.78125 403.988281 455.441406 397.140625 C 468.179688 388.085938 482.277344 380.078125 496.210938 373.964844 C 496.730469 373.734375 497.339844 373.972656 497.570312 374.492188 C 497.800781 375.015625 497.5625 375.621094 497.042969 375.851562 C 483.230469 381.917969 469.265625 389.851562 456.640625 398.820312 C 447.328125 405.421875 441.679688 412.21875 438.3125 420.855469 C 436.628906 425.152344 435.148438 429.390625 433.71875 433.480469 C 431.4375 440.003906 429.292969 446.164062 426.484375 452.265625 C 426.210938 452.871094 425.929688 453.46875 425.632812 454.0625 C 425.378906 454.574219 424.753906 454.777344 424.246094 454.523438 C 424.171875 454.488281 424.109375 454.445312 424.050781 454.398438 "/>
</g>
</g>
</g>
<g clip-path="url(#clip37)" clip-rule="nonzero">
<g clip-path="url(#clip38)" clip-rule="nonzero">
<g clip-path="url(#clip39)" clip-rule="nonzero">
<path style=" stroke:none;fill-rule:nonzero;fill:rgb(39.219666%,5.488586%,13.729858%);fill-opacity:1;" d="M 401.289062 539.878906 C 401.09375 539.71875 400.960938 539.492188 400.929688 539.214844 C 400.707031 537.496094 400.511719 535.722656 400.339844 533.804688 C 399.59375 525.703125 399.394531 517.207031 399.761719 508.574219 C 400.167969 498.949219 401.289062 488.777344 403.089844 478.335938 C 404.425781 470.546875 406.1875 462.308594 408.324219 453.832031 C 408.71875 452.257812 409.121094 450.679688 409.535156 449.097656 C 412.082031 439.472656 415.230469 428.980469 419.128906 417.027344 C 420.160156 413.882812 421.277344 410.515625 422.550781 406.746094 C 423.703125 403.3125 424.910156 399.769531 426.140625 396.222656 C 430.5625 383.4375 435.183594 370.582031 439.886719 358.015625 C 440.089844 357.476562 440.683594 357.207031 441.214844 357.40625 C 441.746094 357.605469 442.023438 358.199219 441.820312 358.738281 C 437.121094 371.285156 432.5 384.128906 428.09375 396.898438 C 426.871094 400.4375 425.660156 403.972656 424.503906 407.40625 C 423.234375 411.175781 422.121094 414.523438 421.097656 417.671875 C 417.203125 429.589844 414.074219 440.039062 411.53125 449.625 C 411.117188 451.195312 410.71875 452.757812 410.328125 454.339844 C 408.199219 462.757812 406.453125 470.949219 405.121094 478.6875 C 403.339844 489.042969 402.226562 499.128906 401.828125 508.65625 C 401.464844 517.203125 401.652344 525.601562 402.390625 533.617188 C 402.566406 535.511719 402.753906 537.257812 402.972656 538.949219 C 403.046875 539.519531 402.644531 540.035156 402.078125 540.105469 C 401.785156 540.148438 401.5 540.054688 401.289062 539.878906 "/>
</g>
</g>
</g>
<g clip-path="url(#clip40)" clip-rule="nonzero">
<g clip-path="url(#clip41)" clip-rule="nonzero">
<g clip-path="url(#clip42)" clip-rule="nonzero">
<path style=" stroke:none;fill-rule:nonzero;fill:rgb(39.219666%,5.488586%,13.729858%);fill-opacity:1;" d="M 440.195312 359.152344 C 439.867188 358.882812 439.726562 358.425781 439.882812 358 C 440.808594 355.53125 441.734375 353.074219 442.671875 350.613281 L 443.210938 349.171875 C 444.929688 344.671875 446.359375 340.957031 447.71875 337.46875 C 458.75 309.132812 470.726562 280.785156 483.304688 253.203125 C 483.539062 252.679688 484.15625 252.457031 484.675781 252.691406 C 485.195312 252.929688 485.421875 253.539062 485.1875 254.0625 C 472.621094 281.605469 460.660156 309.917969 449.644531 338.210938 C 448.289062 341.691406 446.863281 345.410156 445.152344 349.910156 L 444.601562 351.347656 C 443.667969 353.792969 442.742188 356.261719 441.824219 358.71875 C 441.621094 359.257812 441.03125 359.527344 440.492188 359.324219 C 440.378906 359.285156 440.285156 359.226562 440.195312 359.152344 "/>
</g>
</g>
</g>
<g clip-path="url(#clip43)" clip-rule="nonzero">
<g clip-path="url(#clip44)" clip-rule="nonzero">
<g clip-path="url(#clip45)" clip-rule="nonzero">
<path style=" stroke:none;fill-rule:nonzero;fill:rgb(39.219666%,5.488586%,13.729858%);fill-opacity:1;" d="M 424.203125 226.011719 C 423.882812 225.742188 423.742188 225.296875 423.882812 224.875 C 426.746094 216.628906 427.421875 209.292969 425.902344 203.0625 L 425.644531 202.003906 C 424.6875 198.039062 423.691406 193.941406 421.449219 190.640625 C 421.214844 190.292969 420.949219 189.949219 420.636719 189.585938 C 420.363281 189.257812 420.105469 188.96875 419.835938 188.679688 C 419.722656 188.558594 419.59375 188.425781 419.46875 188.289062 L 419.167969 187.964844 C 418.773438 187.550781 418.792969 186.898438 419.203125 186.503906 C 419.617188 186.113281 420.273438 186.132812 420.664062 186.542969 L 420.980469 186.878906 C 421.097656 187.007812 421.21875 187.136719 421.339844 187.265625 C 421.644531 187.59375 421.925781 187.910156 422.207031 188.246094 C 422.5625 188.65625 422.878906 189.066406 423.160156 189.484375 C 425.613281 193.089844 426.652344 197.375 427.648438 201.511719 L 427.90625 202.574219 C 429.523438 209.191406 428.832031 216.929688 425.835938 225.550781 C 425.648438 226.09375 425.0625 226.378906 424.523438 226.1875 C 424.40625 226.148438 424.296875 226.085938 424.203125 226.011719 "/>
</g>
</g>
</g>
<g clip-path="url(#clip46)" clip-rule="nonzero">
<g clip-path="url(#clip47)" clip-rule="nonzero">
<g clip-path="url(#clip48)" clip-rule="nonzero">
<path style=" stroke:none;fill-rule:nonzero;fill:rgb(39.219666%,5.488586%,13.729858%);fill-opacity:1;" d="M 409.664062 237.425781 L 409.640625 237.410156 C 409.210938 237.03125 409.167969 236.382812 409.542969 235.953125 C 412.722656 232.320312 416.914062 228.753906 421.058594 226.171875 C 421.597656 225.832031 422.117188 225.527344 422.625 225.242188 C 423.207031 224.914062 423.792969 224.59375 424.390625 224.296875 C 429.84375 221.460938 435.734375 219.355469 441.429688 217.316406 C 442.785156 216.832031 444.144531 216.347656 445.492188 215.855469 C 446.496094 215.492188 447.480469 215.125 448.46875 214.742188 C 449.007812 214.535156 449.601562 214.800781 449.804688 215.332031 C 450.011719 215.859375 449.753906 216.464844 449.21875 216.667969 C 448.214844 217.054688 447.21875 217.429688 446.199219 217.792969 C 444.847656 218.292969 443.484375 218.773438 442.121094 219.265625 C 436.492188 221.277344 430.667969 223.355469 425.339844 226.132812 C 424.765625 226.421875 424.203125 226.726562 423.640625 227.039062 C 423.160156 227.3125 422.664062 227.597656 422.15625 227.921875 C 418.171875 230.402344 414.140625 233.820312 411.09375 237.304688 C 410.730469 237.734375 410.09375 237.78125 409.664062 237.425781 "/>
</g>
</g>
</g>
<g clip-path="url(#clip49)" clip-rule="nonzero">
<g clip-path="url(#clip50)" clip-rule="nonzero">
<g clip-path="url(#clip51)" clip-rule="nonzero">
<path style=" stroke:none;fill-rule:nonzero;fill:rgb(39.219666%,5.488586%,13.729858%);fill-opacity:1;" d="M 405.742188 224.664062 C 405.46875 224.4375 405.320312 224.082031 405.378906 223.707031 C 405.949219 220.035156 406.09375 216.800781 405.816406 213.515625 C 405.640625 211.472656 405.316406 209.363281 404.824219 207.066406 C 404.539062 205.734375 404.21875 204.429688 403.867188 203.1875 C 403.855469 203.148438 403.847656 203.105469 403.839844 203.066406 C 402.9375 199.746094 401.835938 196.441406 400.769531 193.25 C 400.328125 191.933594 399.910156 190.558594 399.511719 189.230469 C 398.09375 184.554688 396.628906 179.722656 393.785156 175.9375 L 393.289062 175.273438 C 392.691406 174.46875 391.898438 173.402344 391.035156 172.304688 C 390.679688 171.851562 390.753906 171.207031 391.203125 170.851562 C 391.652344 170.5 392.300781 170.578125 392.652344 171.023438 C 393.539062 172.144531 394.34375 173.226562 394.949219 174.046875 L 395.441406 174.707031 C 398.496094 178.773438 400.019531 183.785156 401.488281 188.628906 C 401.886719 189.945312 402.296875 191.304688 402.726562 192.597656 C 403.816406 195.851562 404.9375 199.21875 405.863281 202.632812 C 405.875 202.667969 405.882812 202.703125 405.886719 202.738281 C 406.234375 203.988281 406.558594 205.296875 406.84375 206.636719 C 407.355469 209.015625 407.691406 211.210938 407.875 213.34375 C 408.167969 216.796875 408.019531 220.195312 407.417969 224.027344 C 407.328125 224.589844 406.796875 224.972656 406.234375 224.886719 C 406.046875 224.855469 405.878906 224.777344 405.742188 224.664062 "/>
</g>
</g>
</g>
<g clip-path="url(#clip52)" clip-rule="nonzero">
<g clip-path="url(#clip53)" clip-rule="nonzero">
<g clip-path="url(#clip54)" clip-rule="nonzero">
<path style=" stroke:none;fill-rule:nonzero;fill:rgb(39.219666%,5.488586%,13.729858%);fill-opacity:1;" d="M 384.210938 299.710938 C 383.792969 299.363281 383.714844 298.742188 384.046875 298.300781 C 388.34375 292.53125 393.355469 285.648438 397.960938 278.414062 C 407.925781 262.746094 411.636719 249.140625 409.304688 236.820312 C 409.28125 236.644531 409.257812 236.542969 409.234375 236.429688 C 408.59375 233.230469 407.917969 230.59375 407.15625 228.351562 C 406.628906 226.789062 406.0625 225.441406 405.488281 224.363281 C 405.21875 223.855469 405.410156 223.234375 405.914062 222.964844 C 406.417969 222.699219 407.039062 222.886719 407.3125 223.390625 C 407.9375 224.570312 408.546875 226.015625 409.117188 227.691406 C 409.90625 230.019531 410.605469 232.738281 411.261719 236.011719 C 411.292969 236.160156 411.324219 236.320312 411.339844 236.492188 C 413.765625 249.292969 409.964844 263.390625 399.703125 279.519531 C 395.0625 286.8125 390.023438 293.730469 385.695312 299.535156 C 385.359375 299.988281 384.710938 300.085938 384.253906 299.746094 L 384.210938 299.710938 "/>
</g>
</g>
</g>
<g clip-path="url(#clip55)" clip-rule="nonzero">
<g clip-path="url(#clip56)" clip-rule="nonzero">
<g clip-path="url(#clip57)" clip-rule="nonzero">
<path style=" stroke:none;fill-rule:nonzero;fill:rgb(39.219666%,5.488586%,13.729858%);fill-opacity:1;" d="M 375.070312 304.617188 C 374.726562 304.332031 374.601562 303.832031 374.789062 303.398438 C 375.355469 302.125 375.898438 300.832031 376.410156 299.566406 C 384.753906 278.867188 387.117188 256.917969 389.625 233.6875 C 389.835938 231.730469 390.046875 229.769531 390.265625 227.800781 C 390.699219 223.8125 391.292969 219.722656 391.867188 215.769531 C 393.097656 207.269531 394.371094 198.488281 394.246094 189.992188 C 394.167969 184.769531 393.644531 179.589844 393.089844 174.773438 C 393.027344 174.207031 393.433594 173.695312 394 173.628906 C 394.566406 173.566406 395.078125 173.972656 395.144531 174.539062 C 395.703125 179.410156 396.230469 184.648438 396.308594 189.960938 C 396.433594 198.621094 395.152344 207.488281 393.910156 216.0625 C 393.339844 220 392.75 224.074219 392.316406 228.023438 C 392.097656 229.992188 391.890625 231.957031 391.679688 233.910156 C 389.152344 257.289062 386.773438 279.375 378.324219 300.332031 C 377.808594 301.621094 377.253906 302.9375 376.675781 304.238281 C 376.441406 304.761719 375.835938 305 375.3125 304.765625 C 375.226562 304.726562 375.144531 304.675781 375.070312 304.617188 "/>
</g>
</g>
</g>
<g clip-path="url(#clip58)" clip-rule="nonzero">
<g clip-path="url(#clip59)" clip-rule="nonzero">
<g clip-path="url(#clip60)" clip-rule="nonzero">
<path style=" stroke:none;fill-rule:nonzero;fill:rgb(39.219666%,5.488586%,13.729858%);fill-opacity:1;" d="M 372.316406 300.484375 C 372.039062 300.253906 371.886719 299.898438 371.949219 299.519531 C 372.042969 298.953125 372.578125 298.574219 373.140625 298.664062 C 373.980469 298.804688 374.878906 298.886719 375.890625 298.921875 C 376.359375 298.925781 376.847656 298.929688 377.335938 298.910156 C 379.554688 298.847656 382.007812 298.507812 384.644531 297.914062 C 388.960938 296.945312 393.816406 295.300781 399.074219 293.003906 C 401.769531 291.832031 404.488281 290.535156 407.144531 289.152344 C 412.039062 286.597656 416.320312 283.253906 421.460938 277.964844 C 428.433594 270.800781 434.972656 261.683594 439.882812 252.300781 C 443.34375 245.660156 447.957031 235.808594 447.992188 226.898438 C 447.996094 226.28125 448.003906 225.613281 448.011719 224.914062 C 448.039062 222.234375 448.082031 218.914062 447.816406 215.789062 C 447.765625 215.222656 448.191406 214.722656 448.757812 214.675781 C 449.324219 214.628906 449.824219 215.050781 449.871094 215.617188 C 450.148438 218.835938 450.109375 222.21875 450.074219 224.9375 C 450.070312 225.632812 450.0625 226.292969 450.0625 226.90625 C 450.019531 236.265625 445.277344 246.425781 441.710938 253.257812 C 436.640625 262.953125 430.152344 271.996094 422.945312 279.398438 C 417.640625 284.867188 413.195312 288.324219 408.101562 290.980469 C 405.402344 292.390625 402.636719 293.710938 399.902344 294.898438 C 394.523438 297.246094 389.539062 298.933594 385.097656 299.925781 C 382.339844 300.554688 379.753906 300.90625 377.402344 300.980469 C 376.871094 300.996094 376.351562 300.996094 375.84375 300.984375 C 374.726562 300.953125 373.734375 300.863281 372.800781 300.707031 C 372.617188 300.671875 372.445312 300.59375 372.316406 300.484375 "/>
</g>
</g>
</g>
<g clip-path="url(#clip61)" clip-rule="nonzero">
<g clip-path="url(#clip62)" clip-rule="nonzero">
<g clip-path="url(#clip63)" clip-rule="nonzero">
<g clip-path="url(#clip64)" clip-rule="nonzero">
<g clip-path="url(#clip65)" clip-rule="nonzero">
<path style=" stroke:none;fill-rule:nonzero;fill:rgb(39.219666%,5.488586%,13.729858%);fill-opacity:1;" d="M 434.066406 616.378906 C 433.96875 616.296875 433.882812 616.199219 433.816406 616.082031 C 420.796875 592.453125 409.746094 566.664062 400.972656 539.429688 C 400.800781 538.886719 401.101562 538.304688 401.640625 538.125 C 402.183594 537.957031 402.765625 538.25 402.9375 538.796875 C 411.675781 565.914062 422.675781 591.578125 435.628906 615.082031 C 435.902344 615.585938 435.722656 616.210938 435.222656 616.488281 C 434.839844 616.695312 434.382812 616.640625 434.066406 616.378906 "/>
</g>
</g>
</g>
</g>
</g>
<g clip-path="url(#clip66)" clip-rule="nonzero">
<g clip-path="url(#clip67)" clip-rule="nonzero">
<g clip-path="url(#clip68)" clip-rule="nonzero">
<path style=" stroke:none;fill-rule:nonzero;fill:rgb(39.219666%,5.488586%,13.729858%);fill-opacity:1;" d="M 401.289062 539.878906 C 401.140625 539.757812 401.023438 539.597656 400.960938 539.402344 C 389.296875 503.203125 381.289062 463.363281 377.171875 420.988281 C 377.117188 420.414062 377.535156 419.914062 378.101562 419.855469 C 378.667969 419.804688 379.171875 420.222656 379.226562 420.785156 C 383.335938 463.019531 391.308594 502.714844 402.933594 538.769531 C 403.109375 539.3125 402.804688 539.894531 402.269531 540.066406 C 401.917969 540.179688 401.550781 540.097656 401.289062 539.878906 "/>
</g>
</g>
</g>
<g clip-path="url(#clip69)" clip-rule="nonzero">
<g clip-path="url(#clip70)" clip-rule="nonzero">
<g clip-path="url(#clip71)" clip-rule="nonzero">
<path style=" stroke:none;fill-rule:nonzero;fill:rgb(39.219666%,5.488586%,13.729858%);fill-opacity:1;" d="M 374.511719 373.160156 C 374.289062 372.976562 374.144531 372.707031 374.136719 372.394531 C 373.90625 364.617188 373.792969 356.753906 373.796875 349.023438 C 373.800781 337.886719 374.003906 325.929688 374.460938 311.378906 C 374.492188 310.074219 374.527344 308.8125 374.582031 307.554688 C 374.609375 306.988281 375.085938 306.542969 375.65625 306.566406 C 376.222656 306.589844 376.667969 307.066406 376.644531 307.636719 C 376.589844 308.890625 376.558594 310.140625 376.523438 311.398438 C 376.078125 325.972656 375.863281 337.910156 375.859375 349.023438 C 375.855469 356.738281 375.972656 364.574219 376.207031 372.332031 C 376.21875 372.902344 375.773438 373.375 375.199219 373.398438 C 374.933594 373.40625 374.695312 373.3125 374.511719 373.160156 "/>
</g>
</g>
</g>
<g clip-path="url(#clip72)" clip-rule="nonzero">
<g clip-path="url(#clip73)" clip-rule="nonzero">
<g clip-path="url(#clip74)" clip-rule="nonzero">
<path style=" stroke:none;fill-rule:nonzero;fill:rgb(39.219666%,5.488586%,13.729858%);fill-opacity:1;" d="M 374.949219 308.386719 C 374.710938 308.191406 374.566406 307.890625 374.574219 307.566406 C 374.605469 306.296875 374.648438 305.035156 374.703125 303.785156 C 374.71875 302.859375 374.753906 301.933594 374.792969 301 C 374.800781 300.644531 374.8125 300.273438 374.832031 299.90625 C 374.855469 299.335938 375.339844 298.894531 375.90625 298.917969 C 376.476562 298.945312 376.917969 299.425781 376.894531 299.996094 C 376.875 300.355469 376.863281 300.710938 376.855469 301.070312 C 376.8125 302.003906 376.789062 302.917969 376.761719 303.847656 C 376.714844 305.113281 376.671875 306.363281 376.640625 307.621094 C 376.625 308.191406 376.144531 308.640625 375.578125 308.621094 C 375.339844 308.621094 375.121094 308.527344 374.949219 308.386719 "/>
</g>
</g>
</g>
<g clip-path="url(#clip75)" clip-rule="nonzero">
<g clip-path="url(#clip76)" clip-rule="nonzero">
<g clip-path="url(#clip77)" clip-rule="nonzero">
<path style=" stroke:none;fill-rule:nonzero;fill:rgb(39.219666%,5.488586%,13.729858%);fill-opacity:1;" d="M 328.941406 214.074219 C 328.609375 213.800781 328.476562 213.332031 328.636719 212.910156 C 329.191406 211.464844 329.753906 210.027344 330.324219 208.585938 C 331.589844 205.347656 332.90625 202 334.050781 198.675781 C 334.238281 198.136719 334.828125 197.851562 335.363281 198.035156 C 335.902344 198.222656 336.191406 198.8125 336.007812 199.347656 C 334.84375 202.714844 333.519531 206.085938 332.242188 209.34375 C 331.679688 210.773438 331.117188 212.210938 330.566406 213.648438 C 330.363281 214.179688 329.765625 214.445312 329.230469 214.242188 C 329.125 214.199219 329.027344 214.144531 328.941406 214.074219 "/>
</g>
</g>
</g>
<g clip-path="url(#clip78)" clip-rule="nonzero">
<g clip-path="url(#clip79)" clip-rule="nonzero">
<g clip-path="url(#clip80)" clip-rule="nonzero">
<path style=" stroke:none;fill-rule:nonzero;fill:rgb(39.219666%,5.488586%,13.729858%);fill-opacity:1;" d="M 361.707031 223.730469 C 361.503906 223.5625 361.363281 223.3125 361.335938 223.023438 C 360.828125 217.078125 362.539062 211.375 366.71875 205.078125 C 369.503906 200.875 373.101562 196.84375 376.578125 192.945312 C 382.570312 186.230469 388.761719 179.289062 390.84375 171.398438 C 390.988281 170.847656 391.554688 170.519531 392.109375 170.664062 C 392.65625 170.808594 392.988281 171.375 392.84375 171.925781 C 390.632812 180.292969 384.273438 187.425781 378.121094 194.320312 C 374.691406 198.164062 371.144531 202.140625 368.4375 206.222656 C 364.53125 212.109375 362.929688 217.394531 363.398438 222.847656 C 363.445312 223.417969 363.023438 223.917969 362.453125 223.964844 C 362.175781 223.992188 361.910156 223.898438 361.707031 223.730469 "/>
</g>
</g>
</g>
<g clip-path="url(#clip81)" clip-rule="nonzero">
<g clip-path="url(#clip82)" clip-rule="nonzero">
<g clip-path="url(#clip83)" clip-rule="nonzero">
<path style=" stroke:none;fill-rule:nonzero;fill:rgb(39.219666%,5.488586%,13.729858%);fill-opacity:1;" d="M 374.957031 308.390625 C 374.515625 308.027344 374.449219 307.375 374.8125 306.933594 C 375.179688 306.492188 375.828125 306.433594 376.269531 306.796875 L 376.273438 306.800781 C 376.714844 307.164062 376.773438 307.816406 376.410156 308.253906 C 376.046875 308.695312 375.394531 308.757812 374.957031 308.390625 "/>
</g>
</g>
</g>
<g clip-path="url(#clip84)" clip-rule="nonzero">
<g clip-path="url(#clip85)" clip-rule="nonzero">
<g clip-path="url(#clip86)" clip-rule="nonzero">
<path style=" stroke:none;fill-rule:nonzero;fill:rgb(39.219666%,5.488586%,13.729858%);fill-opacity:1;" d="M 370.828125 297.625 Z M 369.21875 298.769531 C 369.167969 298.726562 369.117188 298.675781 369.078125 298.625 C 368.996094 298.519531 368.925781 298.410156 368.875 298.289062 C 368.164062 296.957031 367.472656 295.597656 366.820312 294.261719 C 366.566406 293.746094 366.78125 293.128906 367.296875 292.875 C 367.8125 292.632812 368.425781 292.839844 368.675781 293.359375 C 369.328125 294.695312 370.015625 296.050781 370.738281 297.378906 C 370.742188 297.402344 370.761719 297.425781 370.765625 297.449219 C 371.023438 297.886719 370.929688 298.453125 370.53125 298.773438 C 370.140625 299.09375 369.589844 299.078125 369.21875 298.769531 "/>
</g>
</g>
</g>
<g clip-path="url(#clip87)" clip-rule="nonzero">
<g clip-path="url(#clip88)" clip-rule="nonzero">
<g clip-path="url(#clip89)" clip-rule="nonzero">
<path style=" stroke:none;fill-rule:nonzero;fill:rgb(39.219666%,5.488586%,13.729858%);fill-opacity:1;" d="M 367.082031 294.59375 C 366.976562 294.503906 366.878906 294.390625 366.8125 294.257812 C 365.601562 291.769531 364.488281 289.300781 363.410156 286.699219 C 360.46875 279.597656 356.445312 268.9375 355.527344 258.394531 C 354.804688 250.199219 355.253906 243.074219 356.941406 235.96875 C 357.917969 231.835938 359.335938 227.582031 361.398438 222.585938 C 361.53125 222.226562 361.863281 221.949219 362.269531 221.914062 C 362.835938 221.863281 363.34375 222.273438 363.394531 222.839844 L 363.394531 222.851562 C 363.414062 223.019531 363.386719 223.183594 363.324219 223.34375 C 361.292969 228.246094 359.90625 232.410156 358.953125 236.445312 C 357.320312 243.324219 356.878906 250.246094 357.585938 258.214844 C 358.480469 268.476562 362.429688 278.933594 365.316406 285.910156 C 366.378906 288.46875 367.472656 290.902344 368.671875 293.355469 C 368.917969 293.863281 368.707031 294.484375 368.195312 294.730469 C 367.820312 294.910156 367.382812 294.84375 367.082031 294.59375 "/>
</g>
</g>
</g>
<g clip-path="url(#clip90)" clip-rule="nonzero">
<g clip-path="url(#clip91)" clip-rule="nonzero">
<g clip-path="url(#clip92)" clip-rule="nonzero">
<path style=" stroke:none;fill-rule:nonzero;fill:rgb(39.219666%,5.488586%,13.729858%);fill-opacity:1;" d="M 357.285156 237.003906 C 357.105469 236.855469 356.980469 236.644531 356.933594 236.402344 C 355.335938 228.15625 351.507812 220.605469 346.160156 215.132812 C 345.738281 214.710938 345.308594 214.257812 344.859375 213.796875 L 344.480469 213.398438 C 339.539062 208.167969 336.144531 203.613281 334.101562 199.46875 C 333.851562 198.957031 334.058594 198.339844 334.574219 198.085938 C 335.082031 197.832031 335.703125 198.046875 335.953125 198.554688 C 337.90625 202.511719 341.183594 206.902344 345.976562 211.972656 L 346.347656 212.363281 C 346.789062 212.824219 347.21875 213.265625 347.632812 213.691406 C 353.265625 219.449219 357.289062 227.371094 358.957031 236.011719 C 359.070312 236.570312 358.703125 237.113281 358.140625 237.222656 C 357.824219 237.28125 357.515625 237.195312 357.285156 237.003906 "/>
</g>
</g>
</g>
<g clip-path="url(#clip93)" clip-rule="nonzero">
<g clip-path="url(#clip94)" clip-rule="nonzero">
<g clip-path="url(#clip95)" clip-rule="nonzero">
<path style=" stroke:none;fill-rule:nonzero;fill:rgb(39.219666%,5.488586%,13.729858%);fill-opacity:1;" d="M 344.5625 213.480469 C 344.21875 213.191406 344.085938 212.699219 344.277344 212.269531 C 345.453125 209.582031 346.699219 207.117188 347.523438 205.488281 L 347.917969 204.703125 C 350.179688 200.179688 352.847656 195.871094 355.421875 191.707031 L 356.023438 190.726562 C 356.324219 190.242188 356.960938 190.089844 357.445312 190.390625 C 357.929688 190.683594 358.082031 191.324219 357.785156 191.8125 L 357.179688 192.792969 C 354.625 196.917969 351.988281 201.1875 349.765625 205.632812 L 349.367188 206.421875 C 348.554688 208.03125 347.320312 210.460938 346.171875 213.09375 C 345.941406 213.621094 345.332031 213.855469 344.808594 213.628906 C 344.71875 213.589844 344.636719 213.539062 344.5625 213.480469 "/>
</g>
</g>
</g>
<g clip-path="url(#clip96)" clip-rule="nonzero">
<g clip-path="url(#clip97)" clip-rule="nonzero">
<g clip-path="url(#clip98)" clip-rule="nonzero">
<path style=" stroke:none;fill-rule:nonzero;fill:rgb(39.219666%,5.488586%,13.729858%);fill-opacity:1;" d="M 366.917969 206.445312 C 366.816406 206.359375 366.730469 206.253906 366.664062 206.125 C 363.882812 200.785156 359.960938 196.160156 356.140625 191.960938 C 355.757812 191.542969 355.785156 190.886719 356.207031 190.503906 C 356.632812 190.121094 357.285156 190.15625 357.667969 190.574219 C 361.582031 194.875 365.605469 199.621094 368.496094 205.175781 C 368.757812 205.679688 368.5625 206.304688 368.054688 206.566406 C 367.675781 206.761719 367.230469 206.703125 366.917969 206.445312 "/>
</g>
</g>
</g>
<g clip-path="url(#clip99)" clip-rule="nonzero">
<g clip-path="url(#clip100)" clip-rule="nonzero">
<g clip-path="url(#clip101)" clip-rule="nonzero">
<path style=" stroke:none;fill-rule:nonzero;fill:rgb(39.219666%,5.488586%,13.729858%);fill-opacity:1;" d="M 364.472656 295.617188 C 364.414062 295.566406 364.359375 295.511719 364.308594 295.445312 C 363.710938 294.65625 363.105469 293.886719 362.484375 293.128906 C 362.128906 292.679688 362.195312 292.03125 362.640625 291.675781 C 363.082031 291.316406 363.730469 291.382812 364.089844 291.824219 C 364.71875 292.601562 365.34375 293.398438 365.953125 294.195312 C 366.304688 294.648438 366.210938 295.296875 365.757812 295.640625 C 365.367188 295.9375 364.832031 295.914062 364.472656 295.617188 "/>
</g>
</g>
</g>
<g clip-path="url(#clip102)" clip-rule="nonzero">
<g clip-path="url(#clip103)" clip-rule="nonzero">
<g clip-path="url(#clip104)" clip-rule="nonzero">
<path style=" stroke:none;fill-rule:nonzero;fill:rgb(39.219666%,5.488586%,13.729858%);fill-opacity:1;" d="M 330.394531 213.9375 L 330.402344 213.941406 Z M 362.628906 293.269531 C 362.578125 293.222656 362.523438 293.179688 362.480469 293.125 C 361.488281 291.894531 360.476562 290.6875 359.46875 289.488281 C 355.386719 284.621094 351.164062 279.597656 348.425781 273.207031 C 347.539062 271.140625 346.578125 268.996094 345.648438 266.921875 C 342.996094 261.011719 340.253906 254.902344 338.46875 248.855469 C 337.628906 246.011719 336.753906 243.167969 335.820312 240.160156 C 333.148438 231.53125 330.390625 222.601562 328.617188 213.589844 C 328.613281 213.578125 328.605469 213.5625 328.605469 213.546875 C 328.523438 213.226562 328.59375 212.882812 328.808594 212.621094 C 329.171875 212.183594 329.820312 212.121094 330.261719 212.484375 L 330.269531 212.492188 C 330.46875 212.65625 330.609375 212.898438 330.636719 213.171875 L 330.640625 213.175781 C 332.390625 222.085938 335.140625 230.960938 337.792969 239.550781 C 338.726562 242.566406 339.609375 245.417969 340.453125 248.269531 C 342.195312 254.183594 344.910156 260.230469 347.53125 266.078125 C 348.46875 268.15625 349.429688 270.3125 350.324219 272.394531 C 352.941406 278.503906 356.878906 283.1875 361.050781 288.160156 C 362.070312 289.371094 363.089844 290.589844 364.089844 291.820312 C 364.449219 292.269531 364.378906 292.917969 363.933594 293.273438 C 363.546875 293.585938 363.003906 293.574219 362.628906 293.269531 "/>
</g>
</g>
</g>
<g clip-path="url(#clip105)" clip-rule="nonzero">
<g clip-path="url(#clip106)" clip-rule="nonzero">
<g clip-path="url(#clip107)" clip-rule="nonzero">
<path style=" stroke:none;fill-rule:nonzero;fill:rgb(39.219666%,5.488586%,13.729858%);fill-opacity:1;" d="M 398.832031 294.753906 C 398.792969 294.722656 398.765625 294.691406 398.734375 294.664062 C 398.347656 294.246094 398.363281 293.589844 398.777344 293.199219 C 405.460938 286.933594 411.421875 278.980469 416.679688 271.964844 C 417.882812 270.355469 419.0625 268.785156 420.222656 267.261719 C 431.167969 252.945312 438.742188 238.078125 442.730469 223.078125 C 443.164062 221.429688 443.800781 219.589844 444.476562 217.640625 L 444.867188 216.488281 C 445.054688 215.949219 445.644531 215.660156 446.183594 215.847656 C 446.726562 216.039062 447.011719 216.621094 446.824219 217.160156 L 446.429688 218.320312 C 445.765625 220.230469 445.140625 222.03125 444.730469 223.609375 C 440.667969 238.875 432.980469 253.988281 421.867188 268.519531 C 420.710938 270.035156 419.53125 271.605469 418.335938 273.203125 C 413.019531 280.289062 407.003906 288.320312 400.195312 294.703125 C 399.816406 295.066406 399.222656 295.078125 398.832031 294.753906 "/>
</g>
</g>
</g>
<g clip-path="url(#clip108)" clip-rule="nonzero">
<g clip-path="url(#clip109)" clip-rule="nonzero">
<g clip-path="url(#clip110)" clip-rule="nonzero">
<path style=" stroke:none;fill-rule:nonzero;fill:rgb(39.219666%,5.488586%,13.729858%);fill-opacity:1;" d="M 409.875 450.15625 C 409.808594 450.101562 409.746094 450.03125 409.695312 449.953125 C 408.082031 447.691406 406.144531 445.457031 403.746094 443.125 C 399.820312 439.308594 395.339844 435.863281 390.996094 432.535156 C 388.566406 430.667969 386.269531 428.90625 384.078125 427.09375 L 381.894531 425.28125 C 380.441406 424.078125 378.984375 422.882812 377.539062 421.675781 C 372.457031 417.460938 367.019531 412.839844 361.726562 407.703125 C 349.804688 396.113281 339.746094 384.421875 332.652344 373.890625 C 327.472656 366.195312 324.40625 357.128906 321.441406 348.363281 C 320.675781 346.101562 319.882812 343.753906 319.074219 341.503906 L 318.46875 339.824219 C 317.527344 337.195312 316.460938 334.199219 315.277344 331.210938 C 315.070312 330.679688 315.328125 330.078125 315.863281 329.867188 C 316.394531 329.65625 316.992188 329.917969 317.203125 330.453125 C 318.394531 333.46875 319.464844 336.472656 320.414062 339.128906 L 321.015625 340.808594 C 321.832031 343.082031 322.625 345.429688 323.398438 347.703125 C 326.316406 356.34375 329.339844 365.273438 334.367188 372.738281 C 341.378906 383.15625 351.34375 394.734375 363.171875 406.21875 C 368.40625 411.316406 373.808594 415.894531 378.863281 420.089844 C 380.304688 421.296875 381.757812 422.488281 383.210938 423.691406 L 385.394531 425.503906 C 387.554688 427.289062 389.839844 429.039062 392.253906 430.898438 C 396.640625 434.261719 401.175781 437.742188 405.1875 441.644531 C 407.675781 444.0625 409.703125 446.394531 411.378906 448.765625 C 411.710938 449.226562 411.601562 449.878906 411.136719 450.199219 C 410.742188 450.480469 410.226562 450.449219 409.875 450.15625 "/>
</g>
</g>
</g>
<g clip-path="url(#clip111)" clip-rule="nonzero">
<g clip-path="url(#clip112)" clip-rule="nonzero">
<g clip-path="url(#clip113)" clip-rule="nonzero">
<path style=" stroke:none;fill-rule:nonzero;fill:rgb(39.219666%,5.488586%,13.729858%);fill-opacity:1;" d="M 403.804688 443.183594 C 403.664062 443.0625 403.550781 442.898438 403.484375 442.707031 C 402.164062 438.6875 400.875 434.585938 399.621094 430.625 C 395.3125 416.949219 390.859375 402.808594 384.519531 389.683594 C 381.71875 383.886719 378.300781 378.265625 374.347656 372.980469 C 367.070312 363.273438 358.113281 354.710938 347.71875 347.527344 C 342.28125 343.773438 335.789062 340.964844 329.515625 338.246094 C 324.902344 336.246094 320.128906 334.179688 315.738281 331.734375 C 315.238281 331.460938 315.0625 330.824219 315.335938 330.328125 C 315.617188 329.828125 316.246094 329.652344 316.742188 329.925781 C 321.046875 332.332031 325.773438 334.375 330.339844 336.351562 C 336.703125 339.109375 343.289062 341.964844 348.886719 345.824219 C 359.472656 353.132812 368.597656 361.851562 375.996094 371.746094 C 380.035156 377.136719 383.527344 382.871094 386.382812 388.785156 C 392.777344 402.046875 397.265625 416.257812 401.59375 430.007812 C 402.839844 433.960938 404.132812 438.0625 405.445312 442.066406 C 405.625 442.605469 405.328125 443.191406 404.789062 443.367188 C 404.4375 443.480469 404.070312 443.402344 403.804688 443.183594 "/>
</g>
</g>
</g>
<g clip-path="url(#clip114)" clip-rule="nonzero">
<g clip-path="url(#clip115)" clip-rule="nonzero">
<g clip-path="url(#clip116)" clip-rule="nonzero">
<path style=" stroke:none;fill-rule:nonzero;fill:rgb(39.219666%,5.488586%,13.729858%);fill-opacity:1;" d="M 400.132812 509.40625 C 399.714844 509.0625 399.636719 508.441406 399.964844 508.003906 C 402.789062 504.152344 407.140625 500.65625 410.628906 497.847656 C 411.28125 497.320312 411.902344 496.828125 412.476562 496.351562 C 414.714844 494.515625 417.183594 492.6875 420.011719 490.761719 C 420.699219 490.289062 421.390625 489.828125 422.085938 489.367188 C 422.566406 489.058594 423.210938 489.1875 423.519531 489.660156 C 423.835938 490.136719 423.703125 490.777344 423.226562 491.089844 C 422.546875 491.542969 421.859375 491.996094 421.1875 492.464844 C 418.390625 494.359375 415.976562 496.152344 413.789062 497.949219 C 413.214844 498.421875 412.585938 498.929688 411.921875 499.460938 C 408.523438 502.195312 404.292969 505.59375 401.628906 509.222656 C 401.285156 509.679688 400.644531 509.785156 400.183594 509.449219 L 400.132812 509.40625 "/>
</g>
</g>
</g>
<g clip-path="url(#clip117)" clip-rule="nonzero">
<g clip-path="url(#clip118)" clip-rule="nonzero">
<g clip-path="url(#clip119)" clip-rule="nonzero">
<path style=" stroke:none;fill-rule:nonzero;fill:rgb(39.219666%,5.488586%,13.729858%);fill-opacity:1;" d="M 441.648438 359.015625 L 441.65625 359.019531 Z M 440.191406 359.167969 C 439.757812 358.808594 439.695312 358.140625 440.058594 357.699219 C 440.417969 357.265625 441.074219 357.199219 441.511719 357.5625 C 441.730469 357.742188 441.851562 357.996094 441.878906 358.253906 C 441.910156 358.519531 441.835938 358.804688 441.644531 359.03125 C 441.285156 359.46875 440.632812 359.53125 440.191406 359.167969 "/>
</g>
</g>
</g>
<g clip-path="url(#clip120)" clip-rule="nonzero">
<g clip-path="url(#clip121)" clip-rule="nonzero">
<g clip-path="url(#clip122)" clip-rule="nonzero">
<path style=" stroke:none;fill-rule:nonzero;fill:rgb(39.219666%,5.488586%,13.729858%);fill-opacity:1;" d="M 426.464844 397.355469 L 426.382812 397.289062 C 425.988281 396.882812 425.992188 396.230469 426.386719 395.828125 C 429.15625 393.078125 432.234375 390.273438 435.796875 387.242188 L 436.007812 387.0625 C 436.445312 386.699219 437.089844 386.75 437.460938 387.183594 C 437.832031 387.625 437.777344 388.273438 437.335938 388.644531 L 437.132812 388.8125 C 433.613281 391.808594 430.574219 394.582031 427.847656 397.292969 C 427.464844 397.667969 426.867188 397.6875 426.464844 397.355469 "/>
</g>
</g>
</g>
<g clip-path="url(#clip123)" clip-rule="nonzero">
<g clip-path="url(#clip124)" clip-rule="nonzero">
<g clip-path="url(#clip125)" clip-rule="nonzero">
<path style=" stroke:none;fill-rule:nonzero;fill:rgb(39.219666%,5.488586%,13.729858%);fill-opacity:1;" d="M 422.945312 455.09375 C 422.507812 454.726562 422.445312 454.078125 422.804688 453.644531 C 422.875 453.558594 422.957031 453.484375 423.046875 453.425781 L 424.28125 452.648438 C 453.882812 434.007812 487.433594 412.886719 495.230469 376.648438 C 495.230469 376.625 495.238281 376.59375 495.246094 376.574219 L 495.359375 376.039062 C 495.433594 375.691406 495.496094 375.34375 495.5625 374.984375 L 495.609375 374.71875 C 495.710938 374.160156 496.257812 373.789062 496.8125 373.894531 C 497.371094 373.996094 497.746094 374.539062 497.640625 375.097656 L 497.59375 375.359375 C 497.523438 375.734375 497.453125 376.101562 497.382812 376.457031 L 497.253906 377.066406 C 497.246094 377.09375 497.238281 377.125 497.230469 377.160156 C 489.226562 414.199219 455.3125 435.550781 425.382812 454.394531 L 424.183594 455.152344 C 423.808594 455.402344 423.308594 455.390625 422.945312 455.09375 "/>
</g>
</g>
</g>
<g clip-path="url(#clip126)" clip-rule="nonzero">
<g clip-path="url(#clip127)" clip-rule="nonzero">
<g clip-path="url(#clip128)" clip-rule="nonzero">
<path style=" stroke:none;fill-rule:nonzero;fill:rgb(39.219666%,5.488586%,13.729858%);fill-opacity:1;" d="M 422.003906 491.023438 C 421.75 490.8125 421.601562 490.484375 421.632812 490.132812 C 421.683594 489.5625 422.1875 489.148438 422.757812 489.199219 C 424.359375 489.355469 425.960938 489.679688 427.804688 490.0625 C 428.578125 490.222656 429.394531 490.386719 430.289062 490.554688 C 435.136719 491.476562 442.589844 490.097656 446.171875 489.433594 C 457.210938 487.398438 466.300781 476.175781 473.945312 455.125 C 474.144531 454.582031 474.734375 454.3125 475.273438 454.503906 C 475.808594 454.699219 476.085938 455.292969 475.894531 455.824219 C 470.835938 469.738281 462.300781 488.5625 446.542969 491.46875 C 440.613281 492.5625 434.496094 493.460938 429.894531 492.582031 C 429 492.410156 428.171875 492.246094 427.394531 492.082031 C 425.605469 491.71875 424.054688 491.398438 422.5625 491.253906 C 422.347656 491.234375 422.15625 491.152344 422.003906 491.023438 "/>
</g>
</g>
</g>
<g clip-path="url(#clip129)" clip-rule="nonzero">
<g clip-path="url(#clip130)" clip-rule="nonzero">
<g clip-path="url(#clip131)" clip-rule="nonzero">
<path style=" stroke:none;fill-rule:nonzero;fill:rgb(39.219666%,5.488586%,13.729858%);fill-opacity:1;" d="M 443.515625 350.339844 C 443.316406 350.171875 443.175781 349.921875 443.148438 349.640625 C 443.046875 348.507812 442.859375 347.335938 442.671875 346.199219 C 442.460938 344.898438 442.242188 343.554688 442.160156 342.292969 C 441.957031 339.019531 442.085938 335.332031 442.550781 331.035156 C 443.15625 325.566406 444.417969 319.664062 446.414062 312.988281 C 451.328125 296.507812 458.613281 281.949219 468.050781 269.710938 C 472.199219 264.332031 477.027344 259.453125 481.695312 254.734375 L 483.617188 252.800781 C 484.394531 252.007812 485.171875 251.21875 485.949219 250.421875 C 486.347656 250.015625 486.996094 250 487.410156 250.40625 C 487.816406 250.800781 487.828125 251.457031 487.425781 251.863281 C 486.65625 252.667969 485.867188 253.457031 485.085938 254.25 L 483.171875 256.191406 C 478.542969 260.863281 473.753906 265.695312 469.6875 270.972656 C 460.398438 283.007812 453.238281 297.34375 448.390625 313.578125 C 446.429688 320.132812 445.199219 325.917969 444.609375 331.261719 C 444.15625 335.4375 444.027344 339.003906 444.226562 342.164062 C 444.300781 343.316406 444.503906 344.558594 444.710938 345.863281 C 444.898438 347.039062 445.097656 348.25 445.210938 349.449219 C 445.257812 350.019531 444.84375 350.515625 444.273438 350.570312 C 443.992188 350.597656 443.722656 350.507812 443.515625 350.339844 "/>
</g>
</g>
</g>
<g clip-path="url(#clip132)" clip-rule="nonzero">
<g clip-path="url(#clip133)" clip-rule="nonzero">
<g clip-path="url(#clip134)" clip-rule="nonzero">
<path style=" stroke:none;fill-rule:nonzero;fill:rgb(39.219666%,5.488586%,13.729858%);fill-opacity:1;" d="M 442.976562 351.777344 C 442.957031 351.761719 442.929688 351.738281 442.914062 351.714844 C 442.507812 351.316406 442.496094 350.664062 442.894531 350.261719 L 443.492188 349.65625 C 446.136719 347.003906 448.765625 344.253906 451.308594 341.601562 C 453.4375 339.363281 455.660156 337.046875 457.878906 334.789062 C 461.984375 330.621094 466.609375 325.519531 469.839844 319.300781 C 470.582031 317.878906 471.277344 316.453125 471.90625 315.070312 C 472.140625 314.550781 472.75 314.320312 473.269531 314.554688 C 473.789062 314.792969 474.015625 315.402344 473.785156 315.921875 C 473.144531 317.34375 472.429688 318.800781 471.671875 320.253906 C 468.320312 326.714844 463.558594 331.960938 459.351562 336.242188 C 457.140625 338.488281 454.933594 340.796875 452.800781 343.027344 C 450.253906 345.691406 447.617188 348.441406 444.96875 351.101562 L 444.375 351.699219 C 444 352.085938 443.386719 352.117188 442.976562 351.777344 "/>
</g>
</g>
</g>
<g clip-path="url(#clip135)" clip-rule="nonzero">
<g clip-path="url(#clip136)" clip-rule="nonzero">
<g clip-path="url(#clip137)" clip-rule="nonzero">
<path style=" stroke:none;fill-rule:nonzero;fill:rgb(39.219666%,5.488586%,13.729858%);fill-opacity:1;" d="M 472.191406 316.265625 C 471.84375 315.976562 471.714844 315.480469 471.917969 315.046875 C 475.246094 307.730469 477.460938 300.351562 479.621094 292.800781 C 482.222656 283.730469 482.960938 275.164062 483.75 266.097656 C 483.839844 265.046875 483.933594 263.984375 484.027344 262.910156 C 484.449219 258.203125 484.96875 254.398438 485.675781 250.933594 C 485.789062 250.378906 486.335938 250.019531 486.894531 250.132812 C 487.453125 250.246094 487.816406 250.792969 487.699219 251.351562 C 487.007812 254.734375 486.496094 258.460938 486.085938 263.089844 C 485.992188 264.164062 485.894531 265.222656 485.808594 266.277344 C 485.007812 275.445312 484.261719 284.109375 481.609375 293.371094 C 479.429688 301 477.183594 308.457031 473.792969 315.902344 C 473.558594 316.421875 472.941406 316.648438 472.425781 316.414062 C 472.335938 316.371094 472.261719 316.324219 472.191406 316.265625 "/>
</g>
</g>
</g>
<g clip-path="url(#clip138)" clip-rule="nonzero">
<g clip-path="url(#clip139)" clip-rule="nonzero">
<g clip-path="url(#clip140)" clip-rule="nonzero">
<path style=" stroke:none;fill-rule:nonzero;fill:rgb(39.219666%,5.488586%,13.729858%);fill-opacity:1;" d="M 361.421875 293.242188 C 361.164062 293.027344 360.90625 292.804688 360.640625 292.585938 C 354.203125 287.117188 348.734375 280.625 343.441406 274.355469 C 337.003906 266.722656 322.386719 246.699219 325.734375 225.632812 C 326.386719 221.515625 327.097656 217.464844 328.574219 213.234375 L 328.660156 213 C 329.1875 211.515625 329.832031 210.039062 330.457031 208.609375 C 331.082031 207.183594 331.722656 205.714844 332.238281 204.246094 C 332.425781 203.714844 333.019531 203.425781 333.554688 203.617188 C 334.089844 203.808594 334.375 204.394531 334.191406 204.933594 C 333.648438 206.46875 332.988281 207.976562 332.351562 209.4375 C 331.742188 210.832031 331.109375 212.277344 330.597656 213.71875 L 330.507812 213.953125 C 329.101562 217.988281 328.414062 221.929688 327.777344 225.953125 C 324.558594 246.183594 338.765625 265.609375 345.023438 273.019531 C 350.257812 279.230469 355.671875 285.65625 361.980469 291.011719 C 363.242188 292.082031 364.503906 293.085938 365.742188 293.984375 C 367.199219 295.058594 368.679688 296.050781 370.15625 296.933594 C 370.171875 296.949219 370.191406 296.957031 370.214844 296.972656 C 370.246094 297 370.292969 297.03125 370.339844 297.050781 C 370.363281 297.0625 370.390625 297.074219 370.410156 297.09375 C 371.402344 297.6875 372.417969 298.253906 373.433594 298.765625 C 374.390625 299.253906 375.300781 299.683594 376.238281 300.09375 L 376.503906 300.207031 C 377.027344 300.4375 377.28125 301.039062 377.0625 301.5625 C 376.84375 302.089844 376.234375 302.335938 375.710938 302.117188 L 375.425781 301.996094 C 374.433594 301.5625 373.484375 301.113281 372.496094 300.609375 C 371.453125 300.074219 370.398438 299.496094 369.371094 298.878906 C 369.269531 298.816406 369.160156 298.753906 369.058594 298.691406 C 367.542969 297.773438 366.011719 296.757812 364.515625 295.652344 C 363.5 294.910156 362.460938 294.101562 361.421875 293.242188 "/>
</g>
</g>
</g>
<g clip-path="url(#clip141)" clip-rule="nonzero">
<g clip-path="url(#clip142)" clip-rule="nonzero">
<g clip-path="url(#clip143)" clip-rule="nonzero">
<path style=" stroke:none;fill-rule:nonzero;fill:rgb(39.219666%,5.488586%,13.729858%);fill-opacity:1;" d="M 405.175781 207.648438 C 404.824219 207.359375 404.699219 206.859375 404.894531 206.425781 C 406.734375 202.363281 408.535156 199.117188 410.566406 196.210938 C 411.394531 195.035156 412.21875 193.964844 413.097656 192.917969 C 414.355469 191.425781 415.726562 190.042969 417.054688 188.707031 L 417.621094 188.128906 C 418.140625 187.605469 418.65625 187.078125 419.167969 186.542969 C 419.5625 186.128906 420.214844 186.113281 420.628906 186.507812 C 421.042969 186.902344 421.058594 187.554688 420.664062 187.96875 C 420.144531 188.511719 419.621094 189.042969 419.09375 189.578125 L 418.53125 190.148438 C 417.222656 191.46875 415.878906 192.824219 414.675781 194.25 C 413.839844 195.246094 413.050781 196.277344 412.257812 197.398438 C 410.277344 200.230469 408.585938 203.28125 406.777344 207.277344 C 406.539062 207.796875 405.929688 208.027344 405.410156 207.792969 C 405.324219 207.753906 405.242188 207.707031 405.175781 207.648438 "/>
</g>
</g>
</g>
<g clip-path="url(#clip144)" clip-rule="nonzero">
<g clip-path="url(#clip145)" clip-rule="nonzero">
<g clip-path="url(#clip146)" clip-rule="nonzero">
<path style=" stroke:none;fill-rule:nonzero;fill:rgb(39.219666%,5.488586%,13.729858%);fill-opacity:1;" d="M 420.945312 227.84375 C 420.679688 227.621094 420.527344 227.265625 420.585938 226.894531 C 422.757812 212.371094 422.546875 199.804688 419.933594 189.53125 C 419.832031 189.09375 419.71875 188.679688 419.605469 188.265625 L 421.59375 187.707031 L 420.597656 187.980469 L 421.597656 187.722656 C 421.71875 188.160156 421.835938 188.601562 421.9375 189.046875 C 424.613281 199.566406 424.847656 212.410156 422.628906 227.203125 C 422.542969 227.765625 422.019531 228.15625 421.453125 228.070312 C 421.261719 228.042969 421.085938 227.960938 420.945312 227.84375 "/>
</g>
</g>
</g>
</g>
</svg>
