<?xml version="1.0" encoding="UTF-8"?>
<svg xmlns="http://www.w3.org/2000/svg" xmlns:xlink="http://www.w3.org/1999/xlink" width="375pt" height="374.999991pt" viewBox="0 0 375 374.999991" version="1.2">
<defs>
<clipPath id="clip1">
  <path d="M 44.660156 115.363281 L 330.410156 115.363281 L 330.410156 231.613281 L 44.660156 231.613281 Z M 44.660156 115.363281 "/>
</clipPath>
</defs>
<g id="surface1">
<rect x="0" y="0" width="375" height="374.999991" style="fill:rgb(100%,100%,100%);fill-opacity:1;stroke:none;"/>
<rect x="0" y="0" width="375" height="374.999991" style="fill:rgb(100%,100%,100%);fill-opacity:1;stroke:none;"/>
<rect x="0" y="0" width="375" height="374.999991" style="fill:rgb(100%,100%,100%);fill-opacity:1;stroke:none;"/>
<path style=" stroke:none;fill-rule:nonzero;fill:rgb(73.329163%,66.668701%,0%);fill-opacity:1;" d="M 235.457031 203.847656 C 235.425781 203.855469 235.441406 203.859375 235.457031 203.847656 Z M 235.457031 203.847656 "/>
<g clip-path="url(#clip1)" clip-rule="nonzero">
<path style=" stroke:none;fill-rule:nonzero;fill:rgb(73.329163%,66.668701%,0%);fill-opacity:1;" d="M 265.804688 116.007812 C 269.058594 119.570312 271.640625 123.636719 273.886719 127.925781 C 274.125 128.382812 274.40625 128.816406 274.675781 129.246094 C 276.957031 132.816406 278.699219 136.632812 279.90625 140.691406 C 280.40625 142.355469 281.023438 143.988281 281.59375 145.636719 C 282.914062 149.476562 285.167969 152.789062 287.503906 156.058594 C 287.773438 156.433594 288.3125 156.6875 288.113281 157.460938 C 287.152344 157.363281 286.414062 156.839844 285.828125 156.179688 C 284.132812 154.253906 282.410156 152.363281 281.460938 149.882812 C 280.429688 147.191406 278.941406 144.710938 277.242188 142.382812 C 274.933594 139.191406 272.347656 136.390625 268.582031 134.753906 C 265.5625 133.4375 262.550781 132.132812 259.414062 131.128906 C 258.84375 130.949219 258.199219 130.925781 257.589844 130.9375 C 257.125 130.949219 256.914062 131.3125 256.964844 131.84375 C 257.195312 131.972656 257.445312 132.171875 257.726562 132.246094 C 261.121094 133.121094 264.398438 134.316406 267.5625 135.832031 C 269.972656 136.996094 272.144531 138.457031 273.933594 140.5625 C 277.371094 144.613281 279.664062 149.257812 281.632812 154.011719 L 280.96875 155.296875 C 281.671875 156.066406 282.351562 156.832031 283.054688 157.570312 C 283.691406 158.242188 284.371094 158.875 285.007812 159.546875 C 285.214844 159.765625 285.300781 160.050781 284.9375 160.253906 C 284.246094 159.644531 283.511719 159.074219 282.871094 158.417969 C 281.507812 157.03125 280.195312 155.621094 279.15625 153.933594 C 278.171875 152.324219 277.527344 150.617188 276.992188 148.859375 C 276.011719 145.660156 274.269531 142.90625 272.191406 140.328125 C 272.011719 140.078125 271.796875 139.859375 271.542969 139.679688 C 271.257812 139.5 270.972656 139.632812 270.742188 139.925781 C 272.488281 142.234375 273.796875 144.765625 274.671875 147.523438 C 275.664062 150.675781 277.0625 153.640625 278.859375 156.417969 C 279.03125 156.675781 279.109375 156.957031 278.761719 157.164062 C 277.3125 156.191406 275.824219 155.265625 274.761719 153.824219 C 273.96875 152.75 273.152344 151.695312 272.34375 150.632812 C 269.140625 146.441406 265.460938 142.746094 261.03125 139.839844 C 260.675781 139.632812 260.304688 139.457031 259.921875 139.3125 L 259.683594 139.402344 C 259.628906 139.574219 259.523438 139.839844 259.601562 139.929688 C 259.878906 140.226562 260.183594 140.503906 260.507812 140.753906 C 262.859375 142.738281 265.261719 144.640625 267.304688 146.988281 C 269.402344 149.398438 271.285156 151.960938 273.253906 154.460938 C 273.394531 154.648438 273.335938 154.800781 273.011719 154.949219 C 272.707031 154.746094 272.347656 154.542969 272.03125 154.292969 C 268.222656 151.296875 264.738281 147.953125 261.429688 144.433594 C 260.582031 143.527344 259.808594 142.574219 259.007812 141.632812 C 257.414062 139.75 255.898438 137.800781 254.222656 135.996094 C 252.042969 133.652344 249.492188 131.726562 246.832031 129.964844 C 246.40625 129.679688 245.925781 129.566406 245.535156 130.085938 C 245.652344 130.269531 245.726562 130.484375 245.875 130.605469 C 247.835938 132.257812 249.832031 133.871094 251.773438 135.550781 C 252.625 136.285156 253.472656 137.066406 254.152344 137.957031 C 257.082031 141.785156 260.015625 145.613281 263.703125 148.785156 C 264.078125 149.109375 264.382812 149.511719 264.296875 150.0625 C 263.621094 150.144531 263.179688 149.683594 262.703125 149.339844 C 261.035156 148.140625 259.417969 146.859375 257.703125 145.730469 C 256.320312 144.832031 255.042969 143.800781 253.875 142.636719 C 250.914062 139.65625 247.929688 136.6875 245.085938 133.597656 C 241.648438 129.855469 237.984375 126.449219 233.246094 124.394531 C 232.953125 124.265625 232.664062 124.1875 232.386719 124.484375 C 232.628906 125.378906 233.488281 125.589844 234.152344 125.992188 C 236.894531 127.652344 239.371094 129.613281 241.53125 132.011719 C 244.140625 134.914062 246.929688 137.65625 249.605469 140.5 C 252.078125 143.125 254.566406 145.722656 257.757812 147.511719 C 258.019531 147.660156 258.242188 147.898438 258.484375 148.085938 C 261.96875 150.804688 265.445312 153.53125 268.921875 156.257812 C 269.015625 156.328125 268.972656 156.566406 269.003906 156.800781 C 268.671875 156.785156 268.328125 156.867188 268.09375 156.738281 C 265.484375 155.300781 262.765625 154.011719 260.320312 152.328125 C 256.277344 149.546875 252.042969 146.984375 248.585938 143.421875 C 248.292969 143.132812 247.976562 142.875 247.632812 142.648438 C 245.742188 141.335938 244.308594 139.613281 242.992188 137.75 C 240.683594 134.464844 238.085938 131.417969 235.070312 128.753906 C 233.851562 127.671875 232.597656 126.574219 230.996094 126.039062 C 230.792969 126.007812 230.621094 126.066406 230.476562 126.210938 L 230.535156 126.707031 C 231.261719 127.429688 232.160156 127.9375 232.945312 128.601562 C 235.800781 131.015625 238.035156 133.945312 240.355469 136.816406 C 241.84375 138.65625 243.121094 140.714844 244.84375 142.296875 C 248.394531 145.558594 251.875 148.941406 256.109375 151.378906 C 256.757812 151.753906 257.300781 152.300781 257.890625 152.765625 C 254.679688 151.34375 251.542969 149.878906 248.738281 147.824219 C 245.0625 145.121094 242.183594 141.636719 239.320312 138.15625 C 236.382812 134.589844 233.367188 131.113281 229.914062 128.035156 C 228.230469 126.53125 226.542969 125.023438 224.597656 123.832031 C 224.210938 123.59375 223.859375 123.535156 223.5625 123.960938 C 223.710938 124.636719 224.324219 124.886719 224.785156 125.28125 C 227.359375 127.488281 229.929688 129.710938 232.210938 132.226562 C 233.867188 134.050781 235.472656 135.929688 236.988281 137.871094 C 239.144531 140.628906 241.519531 143.1875 243.960938 145.691406 C 245.550781 147.3125 247.316406 148.722656 249.25 149.917969 C 251.78125 151.488281 254.410156 152.910156 256.980469 154.417969 C 258.003906 155.023438 259.167969 155.464844 259.871094 156.53125 C 259.421875 156.878906 259.03125 156.738281 258.644531 156.59375 C 256.699219 155.886719 255.003906 154.695312 253.164062 153.800781 C 247.832031 151.214844 243.152344 147.757812 238.851562 143.738281 C 238.253906 143.175781 237.609375 142.652344 237.070312 142.042969 C 234.683594 139.347656 232.242188 136.699219 229.984375 133.902344 C 227.578125 130.917969 224.734375 128.410156 221.851562 125.925781 C 220.996094 125.191406 220.050781 124.5625 219.140625 123.894531 C 218.757812 123.613281 218.117188 123.628906 218.03125 123.910156 C 217.882812 124.371094 218.160156 124.65625 218.480469 124.917969 C 218.640625 125.046875 218.796875 125.175781 218.953125 125.316406 C 219.964844 126.1875 220.992188 127.042969 221.988281 127.933594 C 225.679688 131.226562 229 134.867188 232.066406 138.742188 C 233.019531 139.945312 233.988281 141.140625 234.988281 142.308594 C 236.328125 143.871094 237.925781 145.167969 239.46875 146.519531 C 239.703125 146.726562 240.238281 146.890625 239.910156 147.414062 C 239.046875 147.535156 238.613281 146.855469 238.082031 146.441406 C 235.75 144.605469 233.6875 142.425781 231.195312 140.765625 C 230.777344 140.484375 230.4375 140.070312 230.078125 139.703125 C 228.132812 137.714844 226.1875 135.734375 224.269531 133.730469 C 223.695312 133.144531 223.164062 132.519531 222.683594 131.855469 C 219.917969 127.9375 216.316406 124.894531 212.429688 122.15625 C 211.855469 121.75 211.164062 121.507812 210.503906 121.238281 C 210.386719 121.1875 210.085938 121.347656 210.019531 121.484375 C 209.964844 121.683594 210.007812 121.859375 210.148438 122.011719 C 210.773438 122.539062 211.421875 123.042969 212.09375 123.523438 C 214.867188 125.515625 217.382812 127.800781 219.519531 130.453125 C 221.785156 133.257812 224.246094 135.867188 226.8125 138.394531 C 227.691406 139.253906 228.410156 140.285156 229.339844 141.082031 C 233.394531 144.554688 237.390625 148.089844 241.898438 151.007812 C 243.539062 152.070312 245.140625 153.183594 246.890625 154.054688 C 248.074219 154.640625 249.238281 155.269531 250.496094 155.925781 C 249.648438 156.390625 248.976562 156.222656 248.292969 155.910156 C 246.605469 155.144531 244.917969 154.398438 243.234375 153.632812 C 242.671875 153.375 242.082031 153.152344 241.582031 152.800781 C 237.785156 150.167969 234.058594 147.4375 230.617188 144.355469 C 227.621094 141.675781 224.800781 138.820312 222.164062 135.789062 C 219.382812 132.613281 216.355469 129.695312 213.078125 127.035156 C 210.449219 124.886719 207.59375 123.054688 204.640625 121.378906 C 204.195312 121.125 203.722656 120.894531 203.121094 121.347656 C 203.496094 122.242188 204.351562 122.605469 205.09375 123.066406 C 211.105469 126.785156 216.1875 131.582031 220.902344 136.777344 C 224.011719 140.207031 227.160156 143.597656 230.734375 146.558594 C 233.585938 148.917969 236.324219 151.425781 239.523438 153.332031 C 241.019531 154.222656 242.546875 155.058594 244.089844 155.933594 C 243.90625 156.027344 243.742188 156.191406 243.605469 156.171875 C 242.996094 156.097656 242.332031 156.101562 241.800781 155.84375 C 238.652344 154.3125 235.597656 152.589844 232.90625 150.34375 C 229.363281 147.386719 225.933594 144.296875 222.433594 141.289062 C 221.265625 140.285156 219.921875 139.460938 218.851562 138.367188 C 216.480469 135.941406 213.847656 133.777344 211.726562 131.105469 C 211.46875 130.785156 211.183594 130.496094 210.867188 130.234375 C 207.855469 127.742188 204.84375 125.257812 201.828125 122.773438 C 200.46875 121.648438 198.933594 120.816406 197.359375 120.054688 C 196.90625 119.832031 196.394531 119.675781 195.769531 120.152344 C 197.742188 121.476562 199.636719 122.820312 201.34375 124.402344 C 202.320312 125.308594 203.351562 126.160156 204.394531 126.992188 C 206.910156 128.96875 209.195312 131.171875 211.445312 133.441406 C 214.339844 136.359375 217.179688 139.34375 220.4375 141.875 C 221.410156 142.628906 222.398438 143.367188 223.339844 144.164062 C 225.769531 146.21875 228.222656 148.253906 230.578125 150.390625 C 231.753906 151.457031 233.140625 152.339844 233.929688 153.792969 C 233.53125 153.859375 233.179688 153.753906 232.808594 153.578125 C 230.457031 152.476562 228.519531 150.765625 226.394531 149.328125 C 222.988281 147.019531 219.792969 144.414062 216.515625 141.941406 C 213.671875 139.792969 211.128906 137.1875 208.785156 134.441406 C 207.386719 132.804688 205.972656 131.144531 204.359375 129.730469 C 201.816406 127.492188 199.101562 125.445312 196.457031 123.320312 C 196.21875 123.128906 195.976562 122.933594 195.722656 122.757812 C 195.554688 122.640625 195.367188 122.550781 195.191406 122.449219 C 194.960938 122.320312 194.375 122.484375 194.398438 122.675781 C 194.417969 122.867188 194.425781 123.121094 194.546875 123.230469 C 196.304688 124.808594 198.007812 126.464844 199.863281 127.910156 C 203.109375 130.472656 206.007812 133.378906 208.550781 136.632812 C 209.058594 137.28125 209.664062 137.839844 210.238281 138.425781 C 212.5625 140.769531 215.246094 142.691406 217.828125 144.726562 C 222.105469 148.101562 226.28125 151.605469 230.960938 154.441406 C 231.082031 154.511719 231.117188 154.722656 231.25 154.980469 C 230.886719 154.980469 230.566406 155.0625 230.3125 154.96875 C 227.234375 153.78125 224.335938 152.25 221.625 150.375 C 218.089844 147.914062 214.632812 145.328125 211.378906 142.460938 C 209.445312 140.757812 207.605469 138.96875 205.84375 137.121094 C 202.730469 133.847656 199.8125 130.386719 196.800781 127.015625 C 195.074219 125.085938 193.167969 123.375 190.863281 122.144531 C 190.585938 122 190.304688 121.914062 190.085938 122.257812 L 190.054688 122.542969 C 191.445312 123.890625 192.808594 125.269531 194.257812 126.550781 C 195.40625 127.582031 196.476562 128.683594 197.476562 129.855469 C 200.558594 133.4375 203.679688 136.984375 206.839844 140.503906 C 207.585938 141.339844 208.5 142.023438 209.355469 142.765625 C 209.898438 143.234375 210.503906 143.640625 211.019531 144.136719 C 214.304688 147.285156 218.136719 149.710938 221.832031 152.320312 C 223.089844 153.203125 224.492188 153.878906 225.8125 154.679688 C 226.027344 154.808594 226.257812 155.042969 226.125 155.378906 C 225.726562 155.601562 225.332031 155.589844 224.945312 155.34375 C 221.28125 153.273438 217.621094 151.199219 213.960938 149.117188 L 213.703125 148.941406 C 210.921875 147.160156 208.429688 145 205.832031 142.976562 C 202.902344 140.691406 200.339844 138.050781 198.03125 135.140625 C 196.054688 132.648438 194.402344 129.898438 192.027344 127.714844 C 190.4375 126.253906 188.980469 124.652344 187.449219 123.125 C 186.574219 122.253906 185.679688 121.394531 184.542969 120.855469 C 184.039062 120.617188 183.8125 120.882812 183.765625 121.4375 C 184.832031 122.496094 185.957031 123.546875 187.007812 124.667969 C 189.183594 126.996094 191.382812 129.324219 193.449219 131.742188 C 194.914062 133.460938 196.160156 135.367188 197.546875 137.148438 C 199.5 139.6875 201.742188 141.945312 204.269531 143.914062 C 208.996094 147.535156 213.808594 151.070312 219.117188 153.84375 C 219.53125 154.0625 220.039062 154.257812 220.082031 154.851562 L 219.824219 155.03125 C 219.417969 154.988281 218.96875 155.015625 218.625 154.835938 C 214.707031 152.800781 210.742188 150.835938 207.21875 148.132812 C 206.324219 147.445312 205.535156 146.628906 204.636719 145.945312 C 202.085938 144.007812 199.765625 141.832031 197.675781 139.414062 C 195.667969 137.070312 193.765625 134.625 191.589844 132.449219 C 188.972656 129.835938 186.4375 127.15625 183.894531 124.476562 C 182.484375 122.988281 180.902344 121.660156 179.375 120.285156 C 179.066406 120.011719 178.664062 119.898438 178.371094 120.386719 C 178.476562 121.164062 179.128906 121.558594 179.613281 122.066406 C 183.070312 125.730469 186.6875 129.265625 189.933594 133.105469 C 192.453125 136.078125 195.277344 138.796875 197.597656 141.941406 C 198.140625 142.675781 198.878906 143.28125 199.582031 143.882812 C 203.886719 147.554688 208.207031 151.207031 213.234375 153.90625 C 213.550781 154.074219 213.929688 154.273438 213.742188 154.769531 C 212.039062 154.625 212.015625 154.660156 211.148438 154.0625 C 209.203125 152.726562 207.257812 151.386719 205.355469 149.984375 C 202.550781 147.914062 199.621094 145.957031 197.035156 143.632812 C 192.449219 139.519531 188.03125 135.207031 184.160156 130.378906 C 183.136719 129.101562 181.941406 127.953125 180.964844 126.640625 C 178.839844 123.78125 176.082031 121.667969 173.117188 119.785156 C 172.910156 119.65625 172.632812 119.347656 172.339844 119.734375 C 172.265625 120.324219 172.679688 120.640625 173.09375 120.925781 C 175.484375 122.578125 177.5 124.625 179.28125 126.894531 C 182.394531 130.863281 185.636719 134.71875 189.136719 138.351562 C 190.847656 140.125 192.59375 141.882812 194.453125 143.496094 C 198.964844 147.414062 203.707031 151.03125 208.671875 154.351562 C 209.054688 154.609375 209.582031 154.808594 209.515625 155.546875 C 209.117188 155.546875 208.679688 155.648438 208.324219 155.523438 C 207.34375 155.210938 206.390625 154.816406 205.472656 154.351562 C 201.929688 152.453125 198.5625 150.320312 195.660156 147.484375 C 192.644531 144.539062 189.496094 141.734375 186.882812 138.410156 C 184.273438 135.085938 181.542969 131.894531 178.503906 128.957031 C 175.390625 125.949219 172.257812 122.980469 168.476562 120.808594 C 167.5 120.246094 166.488281 119.738281 165.46875 119.257812 C 165.28125 119.152344 165.082031 119.121094 164.871094 119.164062 C 164.660156 119.207031 164.488281 119.3125 164.351562 119.480469 C 164.496094 119.617188 164.613281 119.796875 164.785156 119.898438 C 168.625 122.136719 172.042969 124.871094 175.242188 127.96875 C 179.023438 131.628906 182.605469 135.429688 185.765625 139.617188 C 188.074219 142.683594 190.988281 145.152344 193.640625 147.878906 C 195.875 150.171875 198.4375 152.058594 201.144531 153.769531 C 201.902344 154.253906 202.628906 154.785156 203.394531 155.3125 C 202.921875 155.730469 202.53125 155.632812 202.160156 155.417969 C 201.273438 154.902344 200.433594 154.285156 199.503906 153.867188 C 197.875 153.128906 196.542969 152.050781 195.273438 150.8125 C 193.511719 149.097656 191.65625 147.476562 189.851562 145.792969 C 189.179688 145.167969 188.523438 144.511719 187.894531 143.835938 C 186.152344 141.953125 184.515625 139.964844 182.683594 138.175781 C 179.59375 135.160156 176.613281 132.042969 173.707031 128.851562 C 172.539062 127.574219 171.144531 126.460938 169.714844 125.472656 C 167.097656 123.660156 164.328125 122.074219 161.917969 119.96875 C 161.382812 119.503906 160.722656 119.164062 160.09375 118.816406 C 159.957031 118.738281 159.816406 118.722656 159.671875 118.773438 C 159.523438 118.820312 159.417969 118.917969 159.355469 119.058594 C 159.453125 119.234375 159.503906 119.472656 159.652344 119.585938 C 162.015625 121.402344 164.261719 123.363281 166.730469 125.058594 C 168.675781 126.394531 170.472656 127.957031 172.207031 129.554688 C 174.621094 131.78125 176.699219 134.339844 179.039062 136.65625 C 182.832031 140.40625 186.222656 144.558594 190.191406 148.15625 C 192.996094 150.699219 195.515625 153.5625 199.042969 155.34375 C 198.199219 155.863281 197.519531 155.804688 196.851562 155.410156 C 196.320312 155.09375 195.828125 154.71875 195.285156 154.445312 C 192.972656 153.28125 190.941406 151.75 188.929688 150.121094 C 186.828125 148.425781 185.234375 146.269531 183.222656 144.515625 C 182.222656 143.644531 181.292969 142.683594 180.371094 141.71875 C 178.246094 139.488281 176.136719 137.242188 174.003906 135.019531 C 169.136719 129.953125 163.703125 125.613281 157.816406 121.808594 C 157.128906 121.363281 156.414062 120.953125 155.691406 120.566406 C 155.429688 120.425781 155.097656 120.394531 154.855469 120.710938 C 154.960938 121.53125 155.71875 121.757812 156.265625 122.148438 C 159.367188 124.355469 162.535156 126.480469 165.363281 129.03125 C 169.894531 133.089844 174.171875 137.394531 178.335938 141.816406 C 179.324219 142.867188 180.296875 143.929688 181.316406 144.9375 C 183.59375 147.167969 185.902344 149.371094 188.191406 151.59375 C 188.394531 151.792969 188.519531 152.078125 188.683594 152.332031 C 187.90625 152.847656 187.234375 152.597656 186.691406 152.074219 C 185.804688 151.21875 185.070312 150.191406 183.96875 149.574219 C 180.597656 147.667969 178.027344 144.835938 175.445312 142.050781 C 173.144531 139.5625 171.035156 136.90625 168.558594 134.574219 C 165.429688 131.621094 162.578125 128.394531 158.953125 125.949219 C 156.546875 124.332031 153.988281 123.066406 151.429688 121.761719 C 151.15625 121.621094 150.835938 121.683594 150.570312 121.976562 C 150.765625 122.183594 150.929688 122.457031 151.171875 122.597656 C 156.117188 125.40625 160.601562 128.824219 164.617188 132.851562 C 167.945312 136.214844 171.277344 139.558594 174.433594 143.070312 C 175.398438 144.144531 176.265625 145.289062 177.503906 146.078125 C 177.84375 146.296875 178.113281 146.628906 178.398438 146.925781 C 178.683594 147.222656 179.003906 147.503906 179.210938 147.851562 C 179.363281 148.097656 180.015625 148.199219 179.585938 148.707031 C 177.925781 148.25 176.535156 147.496094 175.472656 146.121094 C 174.980469 145.488281 174.238281 145.035156 173.5625 144.570312 C 169.808594 141.96875 166.691406 138.6875 163.859375 135.171875 C 162.171875 133.097656 160.261719 131.257812 158.121094 129.648438 C 154.695312 127.042969 151.214844 124.515625 147.734375 121.976562 C 146.976562 121.445312 146.191406 120.960938 145.371094 120.527344 C 145.128906 120.398438 144.800781 120.5 144.628906 120.914062 C 145.484375 121.589844 146.367188 122.277344 147.238281 122.976562 C 150.285156 125.414062 153.226562 128 156.398438 130.253906 C 159.121094 132.195312 161.386719 134.554688 163.503906 137.058594 C 165.105469 138.953125 166.722656 140.792969 168.632812 142.378906 C 168.84375 142.558594 169.082031 142.824219 168.75 143.132812 C 168.570312 143.15625 168.339844 143.261719 168.210938 143.183594 C 167.5 142.777344 166.792969 142.355469 166.117188 141.890625 C 164.078125 140.488281 162.308594 138.757812 160.429688 137.160156 C 158.554688 135.554688 156.8125 133.8125 155.207031 131.941406 C 154.46875 131.085938 153.617188 130.359375 152.726562 129.648438 C 150.554688 127.917969 148.230469 126.390625 146.066406 124.664062 C 143.800781 122.851562 141.261719 121.515625 138.8125 120.015625 C 138.484375 119.816406 138.042969 119.816406 137.660156 120.328125 C 139.125 121.4375 140.785156 122.253906 142.257812 123.335938 C 143.730469 124.414062 145.226562 125.550781 146.695312 126.683594 C 148.242188 127.878906 149.824219 129.035156 151.289062 130.328125 C 152.6875 131.542969 154 132.847656 155.214844 134.246094 C 156.359375 135.578125 157.949219 136.523438 159.003906 138.46875 C 156.648438 137.625 154.535156 136.375 152.664062 134.71875 C 150.492188 132.828125 148.28125 131 145.925781 129.34375 C 145.011719 128.695312 144.109375 128.027344 143.339844 127.171875 C 142.441406 126.15625 141.375 125.363281 140.144531 124.785156 C 139.855469 124.65625 139.570312 124.8125 139.339844 125.164062 C 144.425781 130.050781 149.910156 134.476562 155.523438 138.742188 C 155.335938 138.761719 155.003906 138.902344 154.777344 138.8125 C 151.332031 137.425781 147.972656 135.882812 145.089844 133.476562 C 143.035156 131.769531 141.019531 130.003906 138.871094 128.417969 C 136.226562 126.460938 133.441406 124.707031 130.289062 123.625 C 129.894531 123.496094 129.488281 123.433594 129.144531 123.78125 L 129.1875 124.039062 C 129.496094 124.289062 129.792969 124.578125 130.148438 124.746094 C 133.875 126.53125 137.277344 128.800781 140.359375 131.550781 C 141.667969 132.707031 142.964844 133.890625 144.363281 134.929688 C 148.613281 138.078125 153.390625 140.222656 158.324219 142.058594 C 162.757812 143.710938 167.242188 145.21875 171.585938 147.066406 C 177.929688 149.765625 184.167969 152.71875 190.445312 155.5625 C 190.707031 155.675781 191.027344 155.703125 191.046875 156.023438 C 190.9375 156.417969 190.671875 156.605469 190.351562 156.566406 C 188.207031 156.308594 186.144531 155.722656 184.082031 155.082031 C 180.949219 154.105469 177.746094 153.316406 174.828125 151.773438 C 173.640625 151.164062 172.417969 150.644531 171.152344 150.222656 C 166.277344 148.523438 161.710938 146.148438 157 144.082031 C 155.210938 143.296875 153.523438 142.230469 151.683594 141.613281 C 148.621094 140.578125 145.898438 138.976562 143.28125 137.160156 C 138.726562 134 134.441406 130.460938 129.691406 127.546875 C 127.652344 126.300781 125.523438 125.324219 123.367188 124.363281 C 123.003906 124.199219 122.589844 124.183594 122.101562 124.671875 C 123.023438 125.175781 123.875 125.707031 124.785156 126.160156 C 125.796875 126.667969 126.820312 127.179688 127.746094 127.824219 C 131.964844 130.753906 136.175781 133.703125 140.1875 136.910156 C 142.605469 138.847656 145.21875 140.480469 148.023438 141.808594 C 151.277344 143.335938 154.554688 144.839844 157.863281 146.246094 C 162.585938 148.261719 167.160156 150.65625 172.125 152.066406 C 172.621094 152.226562 173.085938 152.445312 173.519531 152.726562 C 175.929688 154.160156 178.589844 154.957031 181.238281 155.792969 C 181.816406 155.980469 182.441406 156.089844 182.859375 156.644531 C 181.929688 157.050781 181.0625 156.734375 180.175781 156.496094 C 175.703125 155.304688 171.375 153.699219 167.089844 151.96875 C 166.242188 151.625 165.46875 151.03125 164.597656 150.828125 C 162.570312 150.359375 160.761719 149.367188 158.847656 148.632812 C 154.628906 147.011719 150.417969 145.351562 146.398438 143.308594 C 142.085938 141.121094 138.117188 138.351562 134.242188 135.472656 C 131.03125 133.085938 128.046875 130.421875 124.625 128.28125 C 122.605469 127.015625 120.480469 126.015625 118.382812 124.933594 C 118.039062 124.753906 117.605469 124.761719 117.316406 125.140625 C 117.425781 125.3125 117.5 125.566406 117.65625 125.636719 C 120.65625 127.023438 123.195312 129.128906 125.941406 130.90625 C 127.058594 131.625 128.046875 132.539062 129.089844 133.363281 C 132.621094 136.167969 136.132812 139.015625 139.980469 141.382812 C 143.308594 143.433594 146.785156 145.179688 150.367188 146.785156 C 153.921875 148.378906 157.597656 149.65625 161.152344 151.246094 C 164.054688 152.539062 167.125 153.464844 170.101562 154.597656 C 172.019531 155.328125 173.90625 156.144531 175.808594 156.925781 L 175.992188 157.183594 C 175.839844 157.273438 175.6875 157.445312 175.539062 157.4375 C 175.027344 157.4375 174.5 157.457031 174.011719 157.324219 C 169.558594 156.078125 165.195312 154.601562 161.011719 152.582031 C 158.238281 151.246094 155.359375 150.125 152.46875 149.066406 C 151.019531 148.539062 149.550781 148.085938 148.152344 147.421875 C 146.296875 146.546875 144.429688 145.683594 142.527344 144.914062 C 139.742188 143.792969 137.210938 142.265625 134.835938 140.445312 C 132.148438 138.382812 129.488281 136.292969 126.796875 134.238281 C 123.527344 131.742188 120.226562 129.28125 116.570312 127.355469 C 116.121094 127.132812 115.65625 126.949219 115.171875 126.8125 C 115.042969 126.773438 114.742188 126.929688 114.683594 127.070312 C 114.644531 127.277344 114.703125 127.453125 114.859375 127.597656 C 116.0625 128.382812 117.351562 129.046875 118.488281 129.914062 C 122.582031 133.015625 126.6875 136.121094 130.664062 139.367188 C 134.753906 142.710938 139.195312 145.457031 144.078125 147.402344 C 147.125 148.609375 149.996094 150.292969 153.253906 150.964844 C 153.550781 151.023438 153.820312 151.203125 154.105469 151.328125 C 158.078125 153.015625 162.046875 154.710938 166.019531 156.402344 C 166.929688 156.789062 167.929688 157.03125 168.640625 157.875 C 167.539062 158.21875 166.539062 158.082031 165.53125 157.804688 C 160.871094 156.519531 156.269531 155.078125 151.828125 153.15625 C 149.277344 152.058594 146.683594 151.066406 144.140625 149.957031 C 140.929688 148.542969 137.929688 146.738281 134.898438 144.988281 C 133.019531 143.902344 131.1875 142.789062 129.601562 141.296875 C 129.15625 140.878906 128.617188 140.558594 128.128906 140.179688 C 125.207031 137.90625 122.210938 135.726562 119.394531 133.328125 C 117.5 131.714844 115.453125 130.355469 113.316406 129.140625 C 110.894531 127.742188 108.324219 126.71875 105.605469 126.066406 C 105.148438 125.957031 104.621094 125.777344 104.265625 126.324219 C 104.625 126.90625 105.273438 126.972656 105.828125 127.199219 C 108.199219 128.191406 110.5625 129.160156 112.777344 130.519531 C 116.042969 132.519531 118.898438 135.03125 121.914062 137.339844 C 124.363281 139.210938 126.785156 141.109375 129.1875 143.039062 C 131.84375 145.167969 134.867188 146.710938 137.746094 148.492188 C 139.0625 149.296875 140.429688 150.007812 141.847656 150.621094 C 147.957031 153.320312 154.082031 155.972656 160.484375 157.933594 C 160.769531 158.023438 161.320312 158.003906 161.164062 158.65625 C 160.578125 158.914062 159.976562 158.859375 159.371094 158.679688 C 157.597656 158.15625 155.828125 157.617188 154.046875 157.109375 C 150.773438 156.179688 147.695312 154.75 144.527344 153.523438 C 143.375 153.078125 142.179688 152.710938 141.109375 152.125 C 137.683594 150.25 134.136719 148.589844 130.945312 146.316406 C 127.933594 144.171875 124.792969 142.175781 121.996094 139.78125 C 119.246094 137.4375 116.414062 135.246094 113.367188 133.316406 C 110.847656 131.714844 108.269531 130.226562 105.46875 129.164062 C 105.078125 129.015625 104.6875 128.976562 104.394531 129.367188 C 104.53125 129.511719 104.683594 129.644531 104.84375 129.765625 C 107.957031 131.769531 111.066406 133.769531 114.179688 135.761719 C 115.269531 136.460938 116.527344 136.980469 116.988281 138.351562 C 116.46875 138.4375 116.03125 138.265625 115.601562 137.984375 C 114.65625 137.359375 113.710938 136.738281 112.746094 136.144531 C 109.9375 134.425781 107.070312 132.832031 103.9375 131.75 C 100.039062 130.402344 95.976562 129.691406 92.007812 128.628906 C 90.832031 128.316406 89.582031 128.359375 88.277344 128.605469 C 89.140625 129.542969 89.144531 129.527344 89.746094 129.652344 C 93.753906 130.5 97.742188 131.304688 101.359375 133.46875 C 103.921875 135.003906 106.417969 136.574219 108.84375 138.324219 C 113.78125 141.875 118.117188 146.109375 122.753906 149.992188 C 125.203125 152.042969 127.667969 154.023438 130.320312 155.800781 C 132.628906 157.34375 134.988281 158.800781 137.410156 160.148438 C 137.75 160.339844 138.34375 160.40625 138.328125 161.03125 C 137.6875 161.21875 137.070312 161.164062 136.476562 160.863281 C 133.582031 159.535156 130.589844 158.40625 128.058594 156.382812 C 125.816406 154.582031 123.476562 152.90625 121.191406 151.164062 C 120.867188 150.910156 120.570312 150.628906 120.292969 150.324219 C 116.695312 146.363281 112.613281 142.9375 108.4375 139.605469 C 105.097656 136.925781 101.324219 135.160156 97.121094 134.308594 C 96.816406 134.246094 96.527344 134.1875 96.285156 134.457031 C 96.492188 135.335938 97.292969 135.414062 97.953125 135.621094 C 100.636719 136.445312 103.058594 137.742188 105.34375 139.367188 C 109.371094 142.230469 113.140625 145.398438 116.65625 148.871094 C 118.933594 151.121094 121.398438 153.109375 123.902344 155.078125 C 125.597656 156.414062 127.320312 157.71875 129.003906 159.070312 C 129.230469 159.253906 129.789062 159.261719 129.621094 159.796875 C 128.917969 160.019531 128.351562 159.699219 127.824219 159.417969 C 125.742188 158.296875 123.625 157.21875 121.640625 155.949219 C 119.824219 154.785156 118.03125 153.539062 116.464844 152.078125 C 111.039062 147.027344 105.328125 142.335938 99.148438 138.242188 C 97.953125 137.429688 96.6875 136.761719 95.34375 136.230469 C 93.042969 135.355469 90.675781 134.65625 88.453125 133.574219 C 87.988281 133.347656 87.457031 133.296875 87.011719 133.703125 C 87.050781 134.15625 87.324219 134.445312 87.714844 134.605469 C 88.65625 135.015625 89.601562 135.410156 90.550781 135.792969 C 93.40625 136.949219 96.296875 138.019531 98.804688 139.871094 C 101.855469 142.132812 105.136719 144.066406 107.878906 146.761719 C 109.851562 148.695312 112.183594 150.253906 114.296875 152.058594 C 118.933594 156.007812 123.828125 159.542969 129.59375 161.707031 C 129.851562 161.800781 130.058594 162.023438 130.5 162.34375 C 129.035156 162.632812 127.804688 162.566406 126.648438 162.128906 C 122.410156 160.519531 118.1875 158.835938 114.601562 155.992188 C 111.382812 153.4375 108.238281 150.78125 105.210938 148.007812 C 103.621094 146.550781 102.007812 145.125 100.335938 143.765625 C 98.398438 142.210938 96.296875 140.921875 94.035156 139.898438 C 92.269531 139.085938 90.527344 138.234375 88.742188 137.460938 C 87.425781 136.890625 86.066406 136.40625 84.710938 135.925781 C 84.453125 135.835938 84.132812 135.957031 83.96875 136.34375 C 84.175781 136.523438 84.367188 136.777344 84.625 136.902344 C 87.292969 138.21875 89.953125 139.558594 92.65625 140.804688 C 96.351562 142.507812 99.558594 144.894531 102.480469 147.660156 C 106.363281 151.34375 110.507812 154.707031 114.699219 158.023438 C 114.929688 158.203125 115.148438 158.378906 115.140625 158.695312 C 114.75 158.636719 114.3125 158.671875 114.011719 158.480469 C 111.832031 157.121094 109.625 155.804688 107.65625 154.136719 C 104.523438 151.484375 101.378906 148.84375 98.191406 146.261719 C 97.140625 145.421875 96.015625 144.695312 94.820312 144.082031 C 91.066406 142.164062 87.222656 140.453125 83.195312 139.167969 C 83.050781 139.125 82.839844 139.265625 82.679688 139.316406 C 82.449219 139.667969 82.640625 139.921875 82.914062 140.042969 C 84.972656 140.972656 87.0625 141.832031 89.101562 142.808594 C 92.535156 144.472656 95.925781 146.203125 98.824219 148.738281 C 100.132812 149.886719 101.535156 150.9375 102.878906 152.046875 C 103.75 152.769531 104.605469 153.511719 105.441406 154.269531 C 105.652344 154.460938 105.832031 154.746094 105.394531 154.960938 C 104.386719 154.695312 103.585938 154.050781 102.746094 153.457031 C 99.46875 151.144531 96.179688 148.855469 92.714844 146.820312 C 91.289062 145.988281 89.863281 145.179688 88.335938 144.546875 C 84.894531 143.125 81.304688 142.261719 77.648438 141.675781 C 76.738281 141.53125 75.804688 141.578125 74.882812 141.617188 C 74.597656 141.628906 74.410156 141.957031 74.480469 142.425781 C 76.660156 143.246094 79.082031 143.050781 81.351562 143.65625 C 83.585938 144.253906 85.890625 144.648438 88.183594 146.347656 C 83.960938 146.496094 80.3125 144.84375 76.5625 145.402344 C 76.390625 145.84375 76.527344 146.140625 76.796875 146.265625 C 77.550781 146.617188 78.34375 146.816406 79.175781 146.855469 C 82.261719 147.015625 85.285156 147.582031 88.316406 148.148438 C 92.21875 148.875 95.894531 150.007812 98.773438 152.921875 C 98.636719 153.074219 98.46875 153.167969 98.265625 153.199219 C 98.066406 153.234375 97.875 153.195312 97.699219 153.09375 C 95.980469 152.136719 94.21875 151.328125 92.21875 151.171875 C 92.027344 151.15625 91.847656 150.996094 91.660156 150.910156 C 88.972656 149.804688 86.109375 149.378906 83.285156 148.894531 C 80.152344 148.359375 76.96875 148.050781 73.796875 147.792969 C 71.773438 147.628906 69.722656 147.523438 67.714844 147.851562 C 67.625 148.683594 68.136719 148.871094 68.636719 148.882812 C 70.898438 148.945312 73.144531 149.230469 75.390625 149.335938 C 78.183594 149.464844 80.9375 149.867188 83.65625 150.339844 C 89.855469 151.417969 95.824219 153.3125 101.453125 156.191406 C 102.730469 156.847656 104.101562 157.324219 105.429688 157.878906 C 106.566406 158.355469 107.710938 158.816406 108.84375 159.300781 C 109.082031 159.402344 109.425781 159.464844 109.21875 159.863281 L 108.941406 160.003906 C 107.972656 160.140625 107.148438 159.613281 106.246094 159.429688 C 100.980469 158.390625 95.925781 156.714844 91.082031 154.398438 C 87.734375 152.800781 84.332031 151.375 80.628906 150.890625 C 78.195312 150.574219 75.800781 149.820312 73.300781 150.09375 C 73.03125 150.121094 72.707031 150.09375 72.660156 150.492188 L 72.765625 150.777344 C 73.023438 150.9375 73.296875 151.167969 73.578125 151.183594 C 76.964844 151.457031 80.246094 152.230469 83.53125 153.058594 C 85.324219 153.515625 87.066406 154.117188 88.757812 154.867188 C 91.203125 155.941406 93.578125 157.195312 96.085938 158.09375 C 98.886719 159.085938 101.78125 159.84375 104.667969 160.570312 C 107.828125 161.363281 111.023438 162 114.296875 162.726562 C 113.75 163.207031 113.210938 163.066406 112.710938 163.085938 C 108.652344 163.257812 104.753906 162.179688 100.832031 161.40625 C 97.597656 160.746094 94.488281 159.714844 91.503906 158.300781 C 90.019531 157.605469 88.414062 157.164062 86.84375 156.667969 C 83.621094 155.660156 80.515625 154.257812 77.070312 154.023438 C 75.332031 153.902344 73.617188 153.476562 71.882812 153.289062 C 69.503906 153.027344 67.125 153.046875 64.75 153.347656 C 66.046875 154.027344 67.058594 154.300781 68.042969 154.300781 C 70.027344 154.308594 71.921875 154.792969 73.84375 155.128906 C 75.464844 155.410156 77.058594 155.800781 78.71875 155.886719 C 79.730469 155.941406 80.757812 156.21875 81.71875 156.558594 C 85.59375 157.914062 89.457031 159.324219 93.3125 160.738281 C 94.566406 161.199219 95.804688 161.675781 97.113281 162 C 98.371094 162.316406 99.730469 162.519531 100.859375 163.511719 C 100.488281 163.617188 100.214844 163.761719 99.9375 163.769531 C 97.539062 163.839844 95.257812 163.136719 93 162.5 C 90.535156 161.808594 88.140625 160.839844 85.714844 159.988281 C 82.789062 158.960938 79.738281 158.511719 76.675781 158.160156 C 72.558594 157.691406 68.441406 158.082031 64.324219 158.203125 C 62.488281 158.261719 60.65625 158.550781 58.828125 158.773438 C 58.53125 158.808594 58.335938 159.074219 58.574219 159.5625 C 62.1875 159.480469 65.863281 159.398438 69.539062 159.3125 C 73.050781 159.21875 76.523438 159.519531 79.964844 160.21875 C 82.28125 160.699219 84.523438 161.359375 86.78125 162.070312 C 90.671875 163.300781 94.429688 165.046875 98.652344 165.175781 C 99.734375 165.210938 100.855469 165.625 101.992188 165.621094 C 103.195312 165.621094 104.355469 166.222656 105.605469 165.785156 C 105.875 165.691406 106.363281 165.992188 106.003906 166.621094 C 102.867188 166.382812 99.691406 166.210938 96.539062 165.882812 C 94.394531 165.660156 92.257812 165.28125 90.148438 164.847656 C 86.628906 164.132812 83.070312 163.511719 79.632812 162.496094 C 77.007812 161.722656 74.359375 161.753906 71.722656 161.570312 C 69.058594 161.386719 66.371094 161.632812 63.691406 161.648438 C 61.945312 161.65625 60.214844 161.648438 58.46875 161.3125 C 56.535156 160.945312 54.566406 161.222656 52.734375 162.050781 C 52.589844 162.117188 52.464844 162.390625 52.476562 162.570312 C 52.476562 162.6875 52.707031 162.859375 52.863281 162.902344 C 53.070312 162.933594 53.269531 162.921875 53.464844 162.859375 C 55.5 162.355469 57.535156 162.335938 59.574219 162.800781 C 60.179688 162.925781 60.792969 162.988281 61.410156 162.996094 C 64.808594 163.074219 68.203125 163.261719 71.605469 163.058594 C 73.777344 162.929688 75.929688 163.238281 78.042969 163.746094 C 80.933594 164.441406 83.820312 165.167969 86.707031 165.890625 C 87.003906 165.984375 87.308594 166.042969 87.617188 166.070312 C 89.992188 166.113281 92.230469 166.992188 94.59375 167.148438 C 95.371094 167.199219 96.210938 167.226562 97.089844 167.835938 C 94.035156 168.234375 91.171875 167.992188 88.332031 167.613281 C 83.746094 167.003906 79.21875 166.09375 74.574219 165.800781 C 69.859375 165.484375 65.144531 165.460938 60.425781 165.734375 C 56.339844 165.996094 52.296875 166.871094 48.234375 167.484375 C 47.773438 167.554688 47.5625 167.871094 47.535156 168.417969 C 48.53125 168.878906 49.527344 168.441406 50.515625 168.335938 C 53.480469 168.011719 56.433594 167.589844 59.40625 167.34375 C 61.546875 167.164062 63.707031 167.207031 65.863281 167.140625 C 67.289062 167.097656 68.707031 166.960938 70.125 166.996094 C 72.070312 167.050781 74.023438 167.230469 75.96875 167.355469 C 76.691406 167.402344 77.417969 167.394531 78.128906 167.496094 C 80.976562 167.902344 83.820312 168.339844 86.664062 168.769531 C 87.273438 168.859375 87.882812 168.96875 88.273438 169.589844 C 87.039062 169.777344 85.828125 169.976562 84.613281 170.140625 C 84.308594 170.195312 84.011719 170.167969 83.71875 170.066406 C 82.535156 169.546875 81.285156 169.695312 80.058594 169.695312 C 78.203125 169.695312 76.347656 169.835938 74.496094 169.800781 C 69.242188 169.695312 64.007812 169.78125 58.769531 170.285156 C 54.359375 170.710938 50.050781 171.609375 45.738281 172.527344 C 45.375 172.605469 45.042969 172.925781 44.75 173.191406 C 44.65625 173.28125 44.710938 173.5625 44.75 173.746094 L 44.945312 173.960938 C 45.128906 174.027344 45.320312 174.054688 45.519531 174.035156 C 48.53125 173.378906 51.546875 172.765625 54.585938 172.222656 C 57.625 171.683594 60.722656 171.601562 63.777344 171.316406 C 67.519531 170.972656 71.316406 171.234375 75.78125 171.234375 C 71.886719 172.527344 68.660156 173.402344 65.179688 173.046875 C 63.773438 172.902344 62.328125 173.046875 60.90625 173.199219 C 58.558594 173.46875 56.207031 173.765625 53.886719 174.21875 C 51.566406 174.671875 49.296875 175.328125 47.003906 175.898438 C 46.59375 176 46.246094 176.203125 46.039062 176.585938 L 45.976562 176.875 C 46.097656 177.023438 46.246094 177.191406 46.414062 177.238281 C 46.621094 177.28125 46.820312 177.261719 47.015625 177.183594 C 50.230469 175.941406 53.628906 175.695312 57 175.34375 C 57.289062 175.316406 57.589844 175.414062 57.867188 175.453125 C 58.050781 176.003906 57.75 176.304688 57.394531 176.445312 C 56.15625 176.945312 54.90625 177.414062 53.636719 177.847656 C 51.597656 178.539062 49.554688 179.246094 47.660156 180.296875 C 47.402344 180.4375 47.109375 180.589844 47.300781 181.136719 C 48.164062 181.28125 48.984375 180.929688 49.820312 180.601562 C 54.125 178.90625 58.582031 177.652344 62.984375 176.246094 C 63.574219 176.058594 64.179688 175.902344 64.875 176.285156 C 64.527344 176.507812 64.167969 176.710938 63.796875 176.894531 C 59.835938 178.605469 55.84375 180.238281 51.707031 181.480469 C 50.824219 181.746094 49.914062 181.929688 49.164062 182.496094 C 49.066406 182.570312 49.101562 182.851562 49.125 183.03125 L 49.359375 183.214844 C 49.757812 183.214844 50.167969 183.242188 50.550781 183.15625 C 53.976562 182.386719 57.230469 181.085938 60.476562 179.785156 C 63.238281 178.679688 65.957031 177.457031 68.703125 176.300781 C 69.164062 176.105469 69.640625 175.84375 70.164062 176.210938 C 70.050781 176.339844 69.964844 176.539062 69.824219 176.597656 C 67.4375 177.527344 65.375 179.144531 62.910156 179.929688 C 62.332031 180.117188 61.792969 180.449219 61.273438 180.773438 C 58.722656 182.382812 55.96875 183.488281 53.011719 184.089844 C 52.105469 184.269531 51.21875 184.5625 50.492188 185.183594 L 50.410156 185.460938 C 50.484375 185.621094 50.578125 185.816406 50.71875 185.886719 C 50.910156 185.980469 51.109375 186.003906 51.316406 185.964844 C 54.027344 185.359375 56.71875 184.65625 59.234375 183.453125 C 62.105469 182.082031 64.941406 180.617188 67.792969 179.199219 C 69.171875 178.515625 70.546875 177.828125 71.941406 177.164062 C 76.03125 175.21875 80.5 174.230469 84.550781 172.175781 C 85.527344 171.679688 86.605469 171.605469 88.128906 171.953125 C 87.296875 172.367188 86.84375 172.589844 86.398438 172.8125 C 83.824219 174.105469 81.238281 175.378906 78.679688 176.707031 C 75.570312 178.320312 72.5625 180.121094 69.394531 181.589844 C 65.480469 183.402344 61.519531 185.148438 57.242188 186 C 56.730469 186.101562 56.242188 186.300781 55.945312 186.757812 C 55.855469 186.890625 55.886719 187.125 55.914062 187.308594 L 56.160156 187.464844 C 56.5625 187.476562 56.976562 187.515625 57.363281 187.4375 C 61.734375 186.574219 65.792969 184.804688 69.847656 183.0625 C 72.296875 182.007812 74.625 180.660156 76.980469 179.386719 C 82.050781 176.644531 87.203125 174.082031 92.5625 171.933594 C 92.941406 171.78125 93.421875 171.429688 93.75 171.984375 C 90.421875 174.097656 87.152344 176.222656 83.828125 178.269531 C 81.824219 179.507812 79.808594 180.726562 77.554688 181.542969 C 75.820312 182.167969 74.167969 183.023438 72.449219 183.710938 C 67.683594 185.621094 62.992188 187.730469 57.984375 188.988281 C 57.195312 189.203125 56.421875 189.460938 55.660156 189.765625 C 55.511719 189.820312 55.417969 190.054688 55.328125 190.21875 C 55.214844 190.421875 55.621094 190.777344 55.933594 190.738281 C 58.484375 190.375 60.992188 189.800781 63.382812 188.875 C 67.601562 187.25 71.792969 185.546875 75.972656 183.820312 C 80.148438 182.09375 84.183594 180.0625 88 177.605469 C 90.59375 175.933594 93.300781 174.4375 95.984375 172.914062 C 97.679688 171.949219 99.429688 171.070312 101.160156 170.167969 C 101.410156 170.039062 101.707031 169.972656 101.917969 170.324219 C 101.433594 171.171875 100.445312 171.375 99.730469 171.933594 C 95.261719 175.417969 90.421875 178.339844 85.480469 181.105469 C 84.761719 181.507812 84.027344 181.871094 83.269531 182.195312 C 79.785156 183.707031 76.4375 185.539062 72.765625 186.644531 C 71.988281 186.878906 71.273438 187.335938 70.523438 187.675781 C 69.964844 187.9375 69.398438 188.179688 68.820312 188.390625 C 66.117188 189.375 63.410156 190.339844 60.710938 191.332031 C 60.34375 191.464844 60.015625 191.707031 59.683594 191.925781 L 59.640625 192.21875 L 59.859375 192.421875 C 61.679688 192.199219 63.449219 191.769531 65.164062 191.125 C 67.855469 190.140625 70.492188 189.003906 73.191406 188.042969 C 75.421875 187.25 77.667969 186.515625 79.792969 185.453125 C 81.539062 184.578125 83.339844 183.8125 85.089844 182.945312 C 89.050781 180.972656 92.917969 178.804688 96.496094 176.207031 C 100.417969 173.355469 104.582031 170.914062 108.992188 168.890625 C 109.292969 168.753906 109.5625 168.675781 109.890625 168.996094 C 109.59375 169.253906 109.339844 169.59375 109 169.753906 C 107.496094 170.464844 106.195312 171.472656 104.847656 172.417969 C 101.398438 174.847656 97.910156 177.21875 94.492188 179.6875 C 88.511719 184.007812 81.808594 186.890625 74.941406 189.429688 C 71.179688 190.835938 67.34375 191.996094 63.429688 192.90625 C 62.890625 193.03125 62.183594 193.164062 62.078125 193.941406 C 62.011719 194.417969 62.863281 194.609375 63.933594 194.351562 C 69.925781 192.882812 75.765625 190.957031 81.457031 188.574219 C 89.488281 185.234375 96.730469 180.542969 103.695312 175.394531 C 105.261719 174.230469 106.878906 173.140625 108.484375 172.03125 C 108.757812 171.84375 109.121094 171.480469 109.441406 172.28125 C 105.507812 175.335938 101.671875 178.605469 97.519531 181.449219 C 93.285156 184.351562 88.917969 187.066406 84.121094 189.023438 C 80.402344 190.539062 76.757812 192.191406 72.71875 192.742188 C 71.625 192.894531 70.578125 193.417969 69.511719 193.777344 C 69.265625 193.863281 68.953125 193.921875 69.121094 194.476562 C 70.191406 194.304688 71.285156 194.113281 72.382812 193.964844 C 73.5 193.8125 74.652344 193.808594 75.742188 193.542969 C 77.039062 193.226562 78.390625 193.253906 79.648438 192.695312 C 82.746094 191.316406 85.945312 190.148438 88.996094 188.671875 C 93.179688 186.652344 96.992188 183.96875 100.699219 181.21875 C 106.144531 177.175781 111.308594 172.753906 116.765625 168.714844 C 118.164062 167.652344 119.699219 166.832031 121.363281 166.257812 C 121.625 166.171875 121.945312 166.246094 122.550781 166.246094 C 121.640625 166.890625 121 167.363281 120.34375 167.808594 C 116.855469 170.191406 113.527344 172.792969 110.480469 175.699219 C 107.332031 178.703125 103.851562 181.25 100.238281 183.609375 C 97.140625 185.628906 93.894531 187.425781 90.710938 189.316406 C 90.445312 189.472656 90.167969 189.609375 89.878906 189.722656 C 85 191.632812 80.453125 194.3125 75.453125 195.957031 C 74.578125 196.246094 73.753906 196.699219 72.945312 197.144531 C 72.570312 197.351562 72.402344 197.738281 72.882812 198.085938 C 75.503906 197.527344 78.019531 196.675781 80.441406 195.53125 C 81.644531 194.957031 82.839844 194.347656 84.085938 193.882812 C 89.605469 191.8125 94.730469 189.027344 99.59375 185.722656 C 100.015625 185.433594 100.484375 185.210938 100.929688 184.949219 C 104.386719 182.902344 107.628906 180.554688 110.65625 177.90625 C 113.289062 175.621094 115.9375 173.351562 118.609375 171.09375 C 118.953125 170.804688 119.332031 170.304688 120.035156 170.738281 C 119.855469 171.339844 119.316406 171.644531 118.902344 172.023438 C 116.84375 173.886719 114.679688 175.644531 112.71875 177.605469 C 109.71875 180.613281 106.34375 183.105469 102.746094 185.328125 C 101.4375 186.132812 100.261719 187.136719 98.808594 187.726562 C 97.761719 188.15625 96.75 188.660156 95.78125 189.242188 C 92.242188 191.332031 88.828125 193.640625 85.078125 195.375 L 84.835938 195.558594 C 84.640625 195.753906 84.34375 195.914062 84.640625 196.363281 C 84.867188 196.363281 85.195312 196.457031 85.4375 196.347656 C 88.550781 194.992188 91.71875 193.726562 94.546875 191.839844 C 96.167969 190.738281 97.875 189.792969 99.671875 189.007812 C 103.304688 187.457031 106.441406 185.117188 109.4375 182.640625 C 113.402344 179.363281 117.171875 175.859375 121.027344 172.457031 C 121.566406 171.984375 122.085938 171.476562 122.671875 171.066406 C 124.773438 169.589844 126.9375 168.1875 129.007812 166.667969 C 130.097656 165.867188 131.273438 165.269531 132.492188 164.722656 C 132.828125 164.570312 133.140625 164.246094 133.519531 164.667969 C 130.339844 167.285156 127.15625 169.886719 124 172.523438 C 122.027344 174.171875 120.054688 175.828125 118.164062 177.566406 C 113.390625 181.980469 108.378906 186.058594 102.757812 189.363281 C 101.960938 189.832031 101.210938 190.382812 100.425781 190.882812 C 94.425781 194.671875 88.371094 198.363281 81.609375 200.710938 C 81.335938 200.804688 81.113281 201.152344 81.3125 201.449219 C 81.46875 201.671875 81.867188 201.964844 82.027344 201.90625 C 83.167969 201.445312 84.410156 201.363281 85.542969 200.820312 C 88.417969 199.4375 91.230469 197.964844 94.035156 196.464844 C 98.664062 193.980469 103.101562 191.183594 107.449219 188.261719 C 113 184.523438 118.035156 180.113281 123.050781 175.691406 C 126.210938 172.902344 129.449219 170.195312 132.710938 167.527344 C 134.625 165.953125 136.785156 164.75 139.050781 163.742188 C 139.1875 163.683594 139.417969 163.832031 139.804688 163.9375 C 138.898438 164.703125 138.023438 165.359375 137.242188 166.101562 C 131.808594 171.273438 126.175781 176.222656 120.34375 180.949219 C 117.074219 183.605469 113.988281 186.472656 110.523438 188.902344 C 106.304688 191.859375 102.039062 194.714844 97.355469 196.90625 C 95.121094 197.949219 92.921875 199.082031 90.71875 200.199219 C 89.996094 200.570312 89.164062 200.800781 88.679688 201.527344 C 88.566406 201.703125 88.539062 201.890625 88.59375 202.09375 C 88.65625 202.242188 88.886719 202.335938 89.058594 202.421875 L 89.363281 202.398438 C 94.480469 200.226562 99.4375 197.730469 104.226562 194.914062 C 107.492188 192.980469 110.582031 190.746094 113.734375 188.617188 C 114.496094 188.101562 115.257812 187.542969 115.878906 186.875 C 117.148438 185.511719 118.570312 184.335938 120.148438 183.34375 C 120.746094 182.945312 121.316406 182.503906 121.851562 182.019531 C 127.777344 176.929688 133.765625 171.90625 139.421875 166.511719 C 140.914062 165.070312 142.59375 163.894531 144.457031 162.980469 C 145.007812 162.710938 145.582031 162.492188 146.175781 162.320312 C 146.644531 162.191406 147.105469 161.820312 147.640625 162.132812 C 147.597656 162.597656 147.210938 162.746094 146.90625 162.972656 C 143.203125 165.738281 139.628906 168.664062 136.003906 171.523438 C 132.125 174.589844 128.410156 177.839844 124.710938 181.09375 C 121.386719 184.019531 117.910156 186.753906 114.632812 189.726562 C 113.558594 190.695312 112.351562 191.464844 111.097656 192.1875 C 108.957031 193.421875 106.851562 194.714844 104.757812 196.023438 C 101.964844 197.765625 99.117188 199.402344 96.101562 200.746094 C 95.644531 200.96875 95.230469 201.253906 94.851562 201.589844 C 94.742188 201.683594 94.710938 201.996094 94.785156 202.140625 C 94.894531 202.328125 95.054688 202.433594 95.269531 202.457031 C 96.433594 202.394531 97.441406 201.851562 98.429688 201.3125 C 100.679688 200.078125 102.945312 198.867188 105.140625 197.542969 C 108.476562 195.527344 111.859375 193.554688 115.042969 191.308594 C 117.71875 189.421875 120.171875 187.207031 122.660156 185.0625 C 126.78125 181.511719 130.808594 177.84375 135.070312 174.464844 C 138.613281 171.652344 141.972656 168.617188 145.671875 165.988281 C 147.261719 164.859375 148.882812 163.773438 150.5 162.683594 C 150.796875 162.480469 151.203125 162.304688 151.511719 163.019531 C 148.878906 164.570312 146.558594 166.59375 144.21875 168.582031 C 142.1875 170.3125 140.148438 172.039062 138.152344 173.816406 C 136.078125 175.664062 134.09375 177.59375 132.117188 179.550781 C 130.144531 181.503906 128.042969 183.320312 125.9375 185.109375 C 122.894531 187.691406 120.273438 190.800781 116.703125 192.742188 C 116.257812 192.984375 115.894531 193.375 115.488281 193.6875 C 112.070312 196.351562 108.394531 198.589844 104.457031 200.40625 C 103.742188 200.734375 102.9375 200.976562 102.460938 201.667969 C 102.675781 202.300781 103.09375 202.484375 103.667969 202.289062 C 106.8125 201.222656 109.554688 199.390625 112.371094 197.714844 C 113.597656 196.988281 114.699219 196.042969 115.855469 195.199219 C 117.261719 194.179688 118.570312 193.035156 120.175781 192.28125 C 120.984375 191.898438 121.652344 191.179688 122.324219 190.550781 C 125.398438 187.675781 128.714844 185.070312 131.652344 182.046875 C 132.019531 181.683594 132.433594 181.378906 132.886719 181.128906 C 133.117188 181 133.425781 181.011719 133.703125 180.972656 C 133.726562 181.410156 133.417969 181.675781 133.148438 181.949219 C 131.046875 184.0625 128.929688 186.164062 126.832031 188.285156 C 121.425781 193.75 115.347656 198.246094 108.160156 201.144531 C 107.308594 201.507812 106.480469 201.917969 105.675781 202.375 C 105.425781 202.511719 105.140625 202.757812 105.296875 203.117188 C 105.425781 203.414062 105.660156 203.570312 106.007812 203.402344 L 106.296875 203.300781 C 109.511719 202.457031 112.414062 200.882812 115.289062 199.289062 C 116.804688 198.453125 118.371094 197.695312 119.769531 196.601562 C 123.089844 194 126.234375 191.203125 129.199219 188.207031 C 132.527344 184.863281 135.933594 181.589844 139.507812 178.488281 C 142.621094 175.785156 145.746094 173.105469 149.042969 170.667969 C 153.507812 167.371094 158.230469 164.414062 162.867188 161.355469 C 163.628906 160.851562 164.503906 160.503906 165.363281 160.175781 C 165.8125 160.007812 166.347656 159.964844 166.804688 160.289062 C 166.625 160.847656 166.121094 161.035156 165.671875 161.269531 C 161.101562 163.652344 156.878906 166.589844 152.691406 169.558594 C 149.589844 171.757812 146.640625 174.164062 143.640625 176.5 C 143.074219 176.941406 142.59375 177.484375 142.082031 177.992188 C 138.355469 181.660156 135.03125 185.730469 130.953125 189.058594 C 129.046875 190.613281 127.355469 192.445312 125.410156 193.949219 C 122.15625 196.46875 118.746094 198.773438 115.089844 200.699219 C 114.738281 200.90625 114.4375 201.167969 114.183594 201.484375 C 114.085938 201.59375 114.101562 201.894531 114.183594 202.039062 C 114.265625 202.183594 114.535156 202.398438 114.65625 202.359375 C 115.433594 202.121094 116.226562 201.898438 116.941406 201.53125 C 120.800781 199.558594 124.148438 196.804688 127.726562 194.402344 C 128.070312 194.167969 128.367188 193.882812 128.605469 193.542969 C 129.136719 192.753906 129.949219 192.289062 130.628906 191.667969 C 133.210938 189.3125 135.847656 187.003906 138.265625 184.488281 C 141.117188 181.523438 143.960938 178.5625 147.171875 175.980469 C 149.414062 174.179688 151.601562 172.292969 153.960938 170.652344 C 157.25 168.363281 160.632812 166.203125 164.050781 164.113281 C 166.496094 162.613281 169.058594 161.304688 171.585938 159.941406 C 172.207031 159.605469 172.871094 159.222656 173.601562 159.664062 C 173.496094 160.113281 173.140625 160.308594 172.777344 160.519531 C 168.0625 163.261719 163.511719 166.246094 159.238281 169.636719 C 156.496094 171.804688 153.816406 174.054688 151.09375 176.25 C 150.132812 177.027344 149.109375 177.71875 148.144531 178.484375 C 145.421875 180.660156 142.636719 182.777344 140.003906 185.066406 C 137.835938 186.953125 135.878906 189.074219 133.78125 191.058594 C 131.242188 193.453125 128.699219 195.832031 125.664062 197.652344 C 124.003906 198.648438 122.5625 200.019531 121.042969 201.242188 L 121.015625 201.75 C 121.121094 201.878906 121.40625 201.996094 121.542969 201.945312 C 122.214844 201.703125 122.925781 201.492188 123.507812 201.101562 C 127.777344 198.238281 132.03125 195.359375 135.613281 191.609375 C 139.808594 187.21875 144.28125 183.136719 149.339844 179.710938 C 150.691406 178.777344 151.96875 177.742188 153.167969 176.613281 C 154.378906 175.5 155.65625 174.464844 157 173.511719 C 157.832031 172.910156 158.628906 172.257812 159.417969 171.597656 C 162.816406 168.757812 166.375 166.148438 170.203125 163.90625 C 172.496094 162.578125 174.753906 161.15625 177.011719 159.734375 C 177.441406 159.441406 177.917969 159.289062 178.4375 159.273438 C 179.464844 159.253906 180.480469 158.46875 181.5625 159.160156 C 181.398438 159.367188 181.304688 159.605469 181.144531 159.679688 C 178.3125 160.949219 175.800781 162.761719 173.265625 164.496094 C 168.34375 167.859375 163.511719 171.351562 158.640625 174.785156 C 157.550781 175.5625 156.417969 176.273438 155.371094 177.101562 C 152.714844 179.203125 150.179688 181.460938 147.4375 183.449219 C 144.597656 185.511719 142.03125 187.863281 139.417969 190.171875 C 136.417969 192.828125 133.4375 195.507812 130.011719 197.636719 C 129.320312 198.078125 128.664062 198.578125 128.050781 199.125 C 127.84375 199.304688 127.789062 199.660156 127.6875 199.941406 L 127.738281 200.226562 C 127.890625 200.339844 128.089844 200.507812 128.242188 200.484375 C 128.546875 200.425781 128.824219 200.3125 129.082031 200.144531 C 132.222656 198.179688 135.230469 196.027344 137.980469 193.546875 C 141.414062 190.453125 144.828125 187.339844 148.519531 184.539062 C 150.324219 183.175781 152.105469 181.78125 153.863281 180.355469 C 156.492188 178.21875 159.164062 176.136719 161.96875 174.230469 C 165.625 171.746094 169.292969 169.269531 172.902344 166.71875 C 174.496094 165.589844 176.132812 164.542969 177.777344 163.492188 C 179.671875 162.285156 181.914062 161.605469 183.480469 159.878906 C 184.890625 159.375 186.183594 158.328125 188.039062 158.929688 C 187.574219 159.261719 187.261719 159.503906 186.933594 159.710938 C 184.496094 161.238281 181.960938 162.628906 179.625 164.304688 C 174.527344 167.953125 169.222656 171.300781 164.191406 175.054688 C 161.804688 176.835938 159.367188 178.546875 157.070312 180.449219 C 155.808594 181.5 154.488281 182.480469 153.160156 183.445312 C 151.746094 184.472656 150.328125 185.480469 149.035156 186.667969 C 147.824219 187.773438 146.570312 188.867188 145.195312 189.757812 C 143.535156 190.828125 142.082031 192.09375 140.6875 193.472656 C 139.664062 194.480469 138.632812 195.542969 137.425781 196.289062 C 135.074219 197.757812 132.996094 199.640625 130.449219 200.816406 C 129.980469 201.03125 129.769531 201.582031 130.28125 202.089844 C 131.359375 202.136719 132.226562 201.632812 133.097656 201.082031 C 136.066406 199.222656 138.953125 197.246094 141.539062 194.882812 C 142.402344 194.089844 143.140625 193.421875 144.433594 193.652344 C 144.871094 193.734375 145.394531 193.347656 145.875 193.171875 C 149.152344 191.976562 152.425781 190.777344 155.703125 189.582031 C 156.859375 189.15625 158.035156 188.796875 159.179688 188.316406 C 161.828125 187.199219 164.472656 186.058594 167.089844 184.867188 C 171.675781 182.785156 176.230469 180.648438 180.476562 177.902344 C 182.71875 176.453125 184.933594 174.964844 187.148438 173.484375 C 190.492188 171.25 193.601562 168.726562 196.777344 166.292969 C 199.632812 164.105469 202.542969 162.003906 205.683594 160.234375 C 207.023438 159.476562 208.441406 158.863281 209.6875 157.917969 C 210.648438 157.1875 211.097656 157.269531 212.636719 157.933594 C 212.386719 158.140625 212.179688 158.371094 211.925781 158.519531 C 209.140625 160.097656 206.574219 161.960938 204.09375 163.984375 C 200.835938 166.652344 197.6875 169.464844 194.171875 171.816406 C 191.953125 173.296875 189.699219 174.726562 187.445312 176.152344 C 184.578125 177.960938 181.660156 179.683594 178.660156 181.242188 C 172.003906 184.710938 165.164062 187.785156 158.050781 190.238281 C 154.457031 191.480469 150.929688 192.90625 147.238281 193.851562 C 146.550781 194.027344 145.902344 194.355469 145.257812 194.660156 C 145.128906 194.726562 145.003906 195.011719 145.03125 195.179688 C 145.082031 195.503906 145.351562 195.730469 145.679688 195.640625 C 148.15625 194.96875 150.640625 194.324219 153.089844 193.558594 C 155.148438 192.914062 157.15625 192.113281 159.191406 191.398438 C 160.351562 190.988281 161.550781 190.679688 162.683594 190.207031 C 165.8125 188.894531 168.917969 187.53125 172.023438 186.171875 C 178.542969 183.320312 184.714844 179.808594 190.722656 176.027344 C 194.289062 173.785156 197.796875 171.441406 201.035156 168.714844 C 203.628906 166.53125 206.273438 164.402344 208.972656 162.335938 C 210.320312 161.300781 211.636719 160.105469 213.480469 159.988281 C 213.453125 160.167969 213.457031 160.378906 213.347656 160.46875 C 211.625 161.933594 209.894531 163.390625 208.132812 164.816406 C 204.859375 167.464844 201.519531 170.035156 198.296875 172.738281 C 193.046875 177.132812 187.121094 180.476562 181.046875 183.480469 C 175.625 186.164062 169.992188 188.441406 164.257812 190.441406 C 162.027344 191.214844 159.804688 192.050781 157.644531 193.011719 C 153.234375 194.972656 148.71875 196.671875 144.191406 198.351562 C 142.554688 198.957031 140.90625 199.546875 139.273438 200.171875 C 139.121094 200.21875 138.996094 200.304688 138.898438 200.429688 C 138.804688 200.558594 138.753906 200.699219 138.753906 200.859375 C 138.753906 201.160156 139.273438 201.507812 139.683594 201.386719 C 140.675781 201.125 141.679688 200.886719 142.636719 200.523438 C 147.535156 198.664062 152.429688 196.785156 157.3125 194.882812 C 159.421875 194.0625 161.480469 193.113281 163.597656 192.328125 C 169.386719 190.1875 175.175781 188.050781 180.757812 185.402344 C 181.03125 185.273438 181.339844 185.207031 181.632812 185.445312 C 181.621094 185.929688 181.148438 186.003906 180.855469 186.140625 C 178.726562 187.164062 176.574219 188.144531 174.429688 189.117188 C 172.183594 190.132812 169.949219 191.1875 167.660156 192.117188 C 164.050781 193.582031 160.648438 195.566406 156.8125 196.472656 C 156.605469 196.519531 156.429688 196.621094 156.292969 196.78125 C 156.179688 196.949219 156.140625 197.132812 156.175781 197.332031 C 156.21875 197.507812 156.371094 197.75 156.519531 197.789062 C 156.8125 197.851562 157.105469 197.851562 157.394531 197.789062 C 160.160156 197.273438 162.628906 195.9375 165.160156 194.832031 C 172.132812 191.796875 179.035156 188.585938 185.964844 185.445312 C 186.253906 185.316406 186.550781 185.316406 187.046875 185.800781 C 184.476562 187.035156 182.164062 188.539062 179.628906 189.640625 C 177.363281 190.625 175.113281 191.625 173.003906 192.917969 C 172.875 193 172.824219 193.257812 172.78125 193.441406 C 172.738281 193.628906 173.28125 193.9375 173.492188 193.847656 C 174.433594 193.460938 175.378906 193.089844 176.300781 192.664062 C 179.097656 191.371094 181.914062 190.109375 184.667969 188.726562 C 187.332031 187.390625 189.921875 185.902344 192.558594 184.503906 C 194.285156 183.59375 195.957031 182.628906 197.511719 181.417969 C 200.347656 179.207031 203.304688 177.148438 206.214844 175.027344 C 206.457031 174.851562 206.730469 174.695312 207.160156 175.101562 C 204.824219 177.5 202.375 179.765625 199.636719 181.695312 C 196.785156 183.710938 193.882812 185.675781 190.785156 187.320312 C 188.15625 188.71875 185.546875 190.167969 182.894531 191.515625 C 180.429688 192.777344 178.058594 194.234375 175.417969 195.152344 C 174.460938 195.480469 173.59375 196.085938 172.714844 196.617188 C 172.480469 196.757812 172.320312 197.101562 172.5625 197.378906 C 172.679688 197.507812 172.964844 197.648438 173.105469 197.597656 C 174.542969 197.050781 176 196.539062 177.382812 195.875 C 181.183594 194.046875 184.984375 192.210938 188.722656 190.257812 C 191.726562 188.6875 194.621094 186.921875 197.460938 185.058594 C 200.222656 183.246094 202.890625 181.355469 205.339844 179.132812 C 206.476562 178.097656 207.675781 177.125 208.785156 176.058594 C 209.449219 175.417969 210.117188 174.75 210.886719 174.257812 C 214.007812 172.253906 216.722656 169.707031 219.894531 167.761719 C 223.21875 165.722656 226.367188 163.386719 229.644531 161.261719 C 231.109375 160.3125 232.683594 159.53125 234.230469 158.71875 C 234.6875 158.480469 235.171875 158.332031 235.683594 158.277344 C 236.195312 158.21875 236.691406 158.371094 236.753906 159.1875 C 234.5625 160 232.664062 161.425781 230.601562 162.578125 C 226.921875 164.632812 223.367188 166.882812 219.941406 169.328125 C 217.769531 170.882812 215.683594 172.550781 213.53125 174.117188 C 210.859375 176.054688 208.414062 178.242188 205.859375 180.300781 C 200 185.015625 193.949219 189.414062 187.15625 192.707031 C 186.140625 193.199219 185.0625 193.550781 184.011719 193.96875 C 183.328125 194.238281 182.691406 194.578125 182.34375 195.261719 C 182.277344 195.453125 182.296875 195.632812 182.402344 195.800781 C 182.503906 195.949219 182.761719 196.136719 182.894531 196.101562 C 185.1875 195.484375 187.339844 194.492188 189.4375 193.421875 C 196.625 189.75 203.066406 184.964844 209.289062 179.882812 C 213.75 176.238281 218.246094 172.636719 223.078125 169.488281 C 223.335938 169.316406 223.617188 169.207031 223.855469 169.53125 C 221.65625 171.992188 219.070312 174.027344 216.609375 176.195312 C 213.238281 179.160156 210.605469 182.683594 208.539062 186.617188 C 207.535156 188.53125 206.40625 190.347656 205.238281 192.160156 C 204.203125 193.78125 202.980469 195.339844 202.460938 197.144531 C 202.671875 197.570312 203 197.746094 203.25 197.574219 C 203.675781 197.292969 204.035156 196.941406 204.328125 196.519531 C 205.121094 195.320312 205.851562 194.082031 206.601562 192.855469 C 207.566406 191.273438 208.644531 189.75 209.464844 188.097656 C 211.464844 184.097656 214.179688 180.640625 217.332031 177.523438 C 219.523438 175.355469 221.878906 173.355469 224.183594 171.3125 C 224.527344 171.007812 224.847656 170.523438 225.480469 170.699219 C 225.410156 170.859375 225.378906 171.035156 225.277344 171.144531 C 224.792969 171.675781 224.300781 172.203125 223.796875 172.710938 C 219.59375 176.957031 215.441406 181.242188 212.398438 186.441406 C 211.101562 188.660156 209.714844 190.839844 208.609375 193.148438 C 207.066406 196.386719 205.652344 199.699219 204.363281 203.050781 C 202.621094 207.578125 200.289062 211.789062 197.957031 216.007812 C 196.183594 219.214844 193.546875 221.667969 190.863281 224.085938 C 188.085938 226.582031 185.167969 228.820312 181.519531 229.925781 C 181.050781 230.066406 180.648438 230.441406 180.257812 230.757812 C 180.167969 230.832031 180.226562 231.121094 180.257812 231.296875 L 180.484375 231.492188 C 180.78125 231.527344 181.105469 231.609375 181.371094 231.523438 C 184.027344 230.671875 186.550781 229.5625 188.847656 227.933594 C 191.214844 226.25 193.289062 224.265625 195.355469 222.257812 C 197.140625 220.519531 198.636719 218.5625 199.839844 216.382812 C 201.679688 213.0625 203.503906 209.722656 204.957031 206.203125 C 205.734375 204.308594 206.589844 202.441406 207.382812 200.550781 C 208.019531 199.039062 208.574219 197.488281 209.242188 195.992188 C 210.039062 194.210938 210.738281 192.351562 211.796875 190.734375 C 214.832031 186.109375 217.652344 181.328125 221.652344 177.394531 C 224.515625 174.585938 227.253906 171.648438 230.339844 169.0625 C 230.570312 168.871094 230.804688 168.640625 231.199219 169.007812 C 230.515625 169.734375 229.855469 170.492188 229.136719 171.191406 C 225.902344 174.359375 222.957031 177.777344 220.304688 181.449219 C 217.289062 185.578125 215.285156 190.148438 214.289062 195.160156 C 213.773438 197.703125 212.789062 200.054688 211.910156 202.457031 C 211.542969 203.429688 210.988281 204.285156 210.25 205.019531 C 209.683594 205.597656 209.25 206.3125 208.773438 206.980469 C 208.59375 207.230469 208.757812 207.746094 209.003906 207.769531 C 209.195312 207.785156 209.449219 207.835938 209.574219 207.738281 C 211.421875 206.355469 212.730469 204.566406 213.613281 202.4375 C 214.789062 199.550781 215.703125 196.582031 216.359375 193.535156 C 218.769531 193.003906 220.222656 191.335938 221.535156 189.4375 C 223.230469 186.992188 225.050781 184.625 226.785156 182.203125 C 228.578125 179.695312 230.257812 177.105469 232.117188 174.652344 C 235.292969 170.464844 238.847656 166.625 242.78125 163.136719 C 244.492188 161.613281 246.300781 160.339844 248.394531 159.382812 C 249.679688 158.800781 250.882812 158.71875 252.21875 158.980469 C 252.144531 159.183594 252.136719 159.328125 252.070312 159.367188 C 251.628906 159.617188 251.199219 159.921875 250.722656 160.050781 C 249.316406 160.417969 247.996094 160.984375 246.761719 161.746094 C 241.734375 164.914062 237.453125 168.882812 234.363281 173.960938 C 232.332031 177.304688 230.011719 180.449219 227.929688 183.75 C 226.71875 185.667969 225.429688 187.515625 223.871094 189.171875 C 223.515625 189.550781 223.238281 190 223.699219 190.566406 C 224.722656 190.523438 225.277344 189.777344 225.847656 189.074219 C 228.761719 185.476562 231.320312 181.625 233.910156 177.800781 C 234.660156 176.695312 235.25 175.472656 236.054688 174.417969 C 237.671875 172.296875 239.058594 169.972656 241.113281 168.21875 C 242.753906 166.816406 244.503906 165.542969 246.171875 164.164062 C 247.871094 162.753906 249.875 161.984375 251.941406 161.335938 C 252.199219 161.253906 252.519531 161.382812 252.957031 161.429688 C 252.65625 161.625 252.347656 161.804688 252.027344 161.96875 C 248.410156 163.546875 245.242188 165.773438 242.363281 168.460938 C 240.695312 170.011719 239.351562 171.824219 238.066406 173.667969 C 235.308594 177.628906 232.574219 181.605469 229.859375 185.597656 C 229.566406 186.027344 229.46875 186.542969 229.921875 187.101562 C 230.90625 186.351562 231.699219 185.40625 232.421875 184.4375 C 234.566406 181.554688 236.699219 178.65625 238.726562 175.6875 C 240.285156 173.390625 242.027344 171.242188 243.960938 169.246094 C 245.542969 167.609375 247.34375 166.253906 249.363281 165.191406 C 249.714844 165.003906 250.101562 164.816406 250.617188 165.390625 C 250.078125 165.84375 249.484375 166.265625 248.992188 166.785156 C 246.578125 169.304688 243.953125 171.628906 241.859375 174.445312 C 240.828125 175.851562 239.726562 177.199219 238.550781 178.488281 C 237.710938 179.402344 236.890625 180.328125 236.320312 181.425781 C 234.792969 184.375 232.460938 186.734375 230.550781 189.40625 C 230.246094 189.824219 229.898438 190.199219 229.503906 190.539062 C 227.347656 192.421875 225.523438 194.714844 222.851562 195.96875 L 222.667969 196.210938 C 222.628906 196.386719 222.554688 196.625 222.632812 196.742188 C 222.734375 196.886719 223.007812 197.039062 223.152344 197 C 224.671875 196.578125 225.992188 195.820312 227.117188 194.71875 C 231.085938 190.832031 234.9375 186.851562 237.921875 182.109375 C 239.011719 180.378906 240.324219 178.777344 241.621094 177.1875 C 243.109375 175.363281 244.789062 173.695312 246.210938 171.824219 C 247.898438 169.59375 250.039062 167.839844 252.046875 165.953125 C 252.285156 165.730469 252.695312 165.6875 253.046875 165.585938 C 253.011719 165.742188 252.945312 165.882812 252.851562 166.007812 C 250.410156 168.511719 247.960938 170.992188 245.757812 173.71875 C 244.523438 175.246094 243.46875 176.875 242.304688 178.433594 C 239.09375 182.710938 236.226562 187.207031 233.710938 191.921875 C 232.214844 194.738281 230.625 197.511719 228.628906 199.988281 C 225.398438 204 221.832031 207.6875 217.074219 209.984375 C 215.3125 210.832031 213.582031 211.738281 211.851562 212.648438 C 211.414062 212.878906 210.867188 213.035156 210.699219 213.578125 C 210.660156 213.707031 210.804688 214.023438 210.925781 214.0625 C 211.195312 214.144531 211.542969 214.210938 211.785156 214.105469 C 215.191406 212.640625 218.546875 211.074219 221.613281 208.964844 C 226.003906 205.953125 229.5625 202.101562 232.328125 197.601562 C 236.308594 191.125 240.003906 184.472656 244.550781 178.355469 C 248.550781 172.96875 252.851562 167.867188 258.398438 163.972656 C 259.023438 163.535156 259.597656 162.808594 260.535156 163.050781 C 260.480469 163.230469 260.472656 163.460938 260.351562 163.554688 C 257.925781 165.472656 255.734375 167.625 253.585938 169.851562 C 250.046875 173.511719 247.179688 177.582031 245.070312 182.210938 C 243.707031 185.203125 242.164062 188.101562 240.089844 190.691406 C 239.394531 191.5625 238.8125 192.519531 238.207031 193.402344 C 238.488281 193.757812 238.726562 194.046875 239.035156 193.867188 C 239.488281 193.625 239.882812 193.308594 240.21875 192.925781 C 242.339844 190.277344 244.300781 187.527344 245.75 184.429688 C 246.746094 182.296875 247.566406 180.066406 248.964844 178.136719 C 249.996094 176.726562 251.050781 175.335938 252.042969 173.902344 C 253.203125 172.183594 254.621094 170.71875 256.300781 169.503906 C 256.496094 169.363281 256.636719 169.40625 256.820312 169.824219 C 255.671875 171.039062 254.835938 172.558594 254.097656 174.128906 C 253.269531 175.890625 252.453125 177.65625 251.648438 179.429688 C 250.589844 181.785156 249.253906 183.972656 247.640625 185.992188 C 246.484375 187.429688 245.253906 188.808594 244.0625 190.21875 C 243.757812 190.582031 243.746094 190.9375 244.214844 191.296875 C 246.589844 189.640625 248.445312 187.457031 250.167969 185.144531 C 252.015625 182.652344 253.300781 179.863281 254.539062 177.039062 C 255.996094 173.714844 257.796875 170.617188 260.707031 168.308594 C 260.941406 168.125 261.214844 167.910156 261.570312 168.421875 C 259.660156 171.828125 257.898438 175.394531 256.253906 179.019531 C 253.992188 184.007812 251.183594 188.648438 247.371094 192.625 C 244.953125 195.140625 242.578125 197.707031 239.703125 199.738281 C 238.199219 200.796875 236.757812 201.945312 235.308594 203.078125 C 235.230469 203.136719 235.273438 203.480469 235.371094 203.597656 C 235.5 203.75 235.457031 203.8125 235.425781 203.832031 C 235.476562 203.820312 235.53125 203.8125 235.585938 203.808594 C 235.984375 203.769531 236.421875 203.746094 236.761719 203.566406 C 238.402344 202.695312 239.765625 201.433594 241.265625 200.363281 C 244.222656 198.257812 246.714844 195.652344 249.144531 193.007812 C 250.617188 191.425781 251.941406 189.726562 253.113281 187.910156 C 254.757812 185.3125 256.308594 182.667969 257.78125 179.863281 C 257.917969 180.1875 258.070312 180.371094 258.058594 180.542969 C 258.039062 181.054688 257.960938 181.554688 257.824219 182.046875 C 257.359375 183.511719 256.757812 184.9375 256.363281 186.421875 C 256.066406 187.515625 255.625 188.550781 255.039062 189.523438 C 252.65625 193.546875 249.546875 196.9375 245.925781 199.871094 C 245.207031 200.453125 244.480469 201.023438 243.769531 201.617188 C 243.558594 201.792969 243.316406 202.003906 243.484375 202.34375 C 243.890625 202.699219 244.273438 202.464844 244.589844 202.230469 C 246.332031 200.957031 248.089844 199.703125 249.777344 198.359375 C 252.707031 196.03125 254.796875 192.964844 256.867188 189.910156 C 257.496094 188.980469 257.871094 187.90625 258.164062 186.796875 C 258.722656 184.613281 259.339844 182.449219 260.011719 180.296875 C 260.46875 178.832031 261.007812 177.386719 261.601562 175.96875 C 262.226562 174.460938 263.1875 173.421875 264.613281 172.449219 C 264.96875 172.660156 264.894531 172.992188 264.792969 173.269531 C 263.632812 176.464844 263.011719 179.777344 262.429688 183.117188 C 262.011719 185.53125 261.652344 187.96875 260.875 190.320312 C 259.332031 194.976562 258.402344 199.871094 255.429688 203.964844 C 255.335938 204.09375 255.546875 204.539062 255.730469 204.726562 C 255.976562 204.976562 256.347656 204.875 256.542969 204.625 C 257.933594 202.839844 259.207031 200.972656 259.914062 198.796875 C 260.648438 196.558594 261.40625 194.324219 262.074219 192.0625 C 263.054688 188.734375 263.96875 185.398438 264.351562 181.914062 C 264.691406 178.953125 265.410156 176.085938 266.503906 173.3125 C 267.15625 171.597656 268.136719 170.097656 269.453125 168.8125 C 269.753906 169.234375 269.582031 169.484375 269.410156 169.742188 C 268.628906 170.941406 267.859375 172.140625 267.28125 173.472656 C 266.199219 175.96875 265.808594 178.605469 265.652344 181.257812 C 265.328125 186.605469 264.402344 191.847656 263.050781 197.011719 C 262.191406 200.277344 261.34375 203.59375 259.765625 206.59375 C 256.914062 212.019531 253.066406 216.664062 247.984375 220.199219 C 245.878906 221.664062 243.730469 223.085938 241.421875 224.238281 C 240.980469 224.457031 240.617188 224.851562 240.234375 225.179688 L 240.234375 225.464844 C 240.335938 225.628906 240.453125 225.851562 240.609375 225.898438 C 241.125 226.039062 241.632812 225.890625 242.085938 225.640625 C 243.160156 225.035156 244.238281 224.4375 245.285156 223.792969 C 247.5625 222.394531 249.855469 221.011719 251.835938 219.191406 C 252.8125 218.289062 253.671875 217.257812 254.652344 216.359375 C 256.945312 214.253906 258.542969 211.609375 260.300781 209.109375 C 261.957031 206.75 262.808594 203.953125 263.675781 201.21875 C 265.738281 194.734375 266.945312 188.097656 267.292969 181.300781 C 267.578125 175.761719 270.144531 171.332031 273.433594 167.15625 C 273.589844 166.960938 273.902344 166.71875 274.148438 167.148438 C 274.125 167.335938 274.160156 167.558594 274.078125 167.722656 C 271.765625 172.386719 270.445312 177.277344 270.390625 182.523438 C 270.347656 186.363281 269.34375 190.027344 267.601562 193.460938 C 267.277344 194.101562 267 194.761719 266.773438 195.441406 C 266.644531 195.816406 266.632812 196.242188 266.902344 196.617188 C 267.039062 196.804688 267.238281 196.9375 267.421875 196.777344 C 267.71875 196.503906 267.96875 196.195312 268.179688 195.851562 C 271.042969 191.148438 271.765625 185.855469 272.234375 180.535156 C 272.441406 178.167969 272.59375 175.839844 273.542969 173.632812 C 273.722656 173.261719 273.867188 172.878906 273.980469 172.484375 C 274.546875 170.03125 275.925781 167.976562 277.253906 165.917969 C 278.082031 164.636719 279.070312 163.453125 280.167969 162.636719 C 281.140625 162.40625 281.78125 162.851562 282.472656 163.015625 C 283.105469 163.164062 283.867188 162.949219 284.390625 163.460938 C 284.324219 163.675781 284.320312 163.792969 284.261719 163.863281 C 284.003906 164.179688 283.71875 164.472656 283.410156 164.742188 C 280.515625 167.03125 278.582031 170.074219 276.925781 173.277344 C 275.9375 175.183594 275.238281 177.238281 274.433594 179.238281 C 274.402344 179.3125 274.640625 179.496094 274.753906 179.625 L 275.042969 179.539062 C 275.875 178.128906 276.828125 176.769531 277.488281 175.277344 C 278.664062 172.609375 280.347656 170.308594 282.117188 168.035156 C 283.203125 166.640625 284.527344 165.519531 286.082031 164.671875 C 286.472656 164.457031 286.898438 164.15625 287.316406 164.628906 C 283.671875 167.8125 280.804688 171.503906 279.207031 176.070312 C 278.5 178.101562 277.890625 180.167969 277.304688 182.238281 C 276.988281 183.425781 276.761719 184.632812 276.625 185.851562 C 276.332031 188.179688 276.132812 190.539062 275.347656 192.789062 C 274.808594 194.332031 274.140625 195.828125 273.898438 197.480469 C 273.769531 198.359375 273.265625 199.171875 272.714844 199.949219 C 271.933594 201.046875 270.980469 201.964844 270.109375 202.96875 C 270.046875 203.039062 270.199219 203.324219 270.289062 203.484375 L 270.546875 203.617188 C 271.113281 203.664062 271.539062 203.320312 271.90625 202.992188 C 273.863281 201.242188 275.277344 199.132812 275.953125 196.578125 C 276.164062 195.785156 276.308594 194.976562 276.554688 194.195312 C 277.226562 192.035156 277.765625 189.855469 277.957031 187.589844 C 278.066406 186.265625 278.203125 184.910156 278.613281 183.65625 C 279.15625 181.976562 279.332031 180.15625 280.339844 178.636719 L 280.351562 178.769531 C 280.390625 179.058594 280.308594 179.402344 280.65625 179.570312 C 280.792969 179.644531 280.941406 179.667969 281.09375 179.632812 C 281.246094 179.601562 281.375 179.523438 281.46875 179.402344 C 283.230469 177.371094 284.722656 175.160156 285.957031 172.773438 C 287.125 170.582031 288.574219 168.59375 290.300781 166.808594 C 291.179688 165.878906 292.195312 165.289062 293.785156 165.644531 C 292.121094 167.183594 290.730469 168.679688 289.574219 170.355469 C 288 172.632812 286.5625 175.011719 284.9375 177.25 C 282.800781 180.199219 281.386719 183.476562 280.199219 186.871094 C 279.835938 187.917969 279.476562 189.007812 279.957031 190.121094 C 280.480469 190.121094 280.832031 189.925781 280.992188 189.515625 C 281.1875 189.042969 281.335938 188.554688 281.484375 188.0625 C 282.386719 185.121094 283.300781 182.183594 285.035156 179.585938 C 286.632812 177.195312 288.183594 174.765625 289.875 172.441406 C 291.570312 170.117188 293.296875 167.820312 295.742188 166.082031 C 296.519531 166.144531 297.339844 166.179688 298.152344 166.285156 C 303.363281 166.960938 308.480469 168.152344 313.515625 169.566406 C 318.464844 170.957031 323.5 172.003906 328.414062 173.511719 C 328.714844 173.585938 329.019531 173.628906 329.328125 173.640625 C 329.992188 173.703125 330.398438 173.113281 330.273438 172.421875 C 330.054688 171.183594 329.367188 170.375 328.1875 169.996094 C 327.605469 169.8125 326.929688 169.824219 326.410156 169.542969 C 323.546875 168.003906 320.367188 167.523438 317.261719 166.859375 C 311.535156 165.636719 305.761719 164.628906 300.015625 163.472656 C 296.621094 162.792969 296.601562 162.753906 295.285156 159.542969 C 294.039062 156.503906 293.015625 153.421875 292.558594 150.125 C 292.21875 147.667969 292.308594 145.210938 292.066406 142.765625 C 291.851562 140.625 291.867188 138.421875 291.339844 136.359375 C 289.992188 131.085938 287.570312 126.371094 283.195312 122.878906 C 282.972656 122.699219 282.707031 122.527344 282.398438 122.730469 C 282.214844 123 282.09375 123.304688 282.316406 123.578125 C 282.824219 124.21875 283.367188 124.832031 283.941406 125.414062 C 287.242188 128.625 289.050781 132.667969 289.84375 137.054688 C 290.550781 140.972656 290.746094 144.996094 290.625 149.015625 C 290.132812 147.800781 289.675781 146.609375 289.566406 145.28125 C 289.4375 143.652344 289.261719 142 288.878906 140.410156 C 288.476562 138.730469 288.042969 136.972656 287.207031 135.476562 C 285.210938 131.882812 283.085938 128.339844 279.773438 125.722656 C 279.050781 125.148438 278.414062 124.464844 277.71875 123.855469 C 277.460938 123.617188 277.148438 123.632812 276.925781 123.9375 C 276.832031 124.0625 276.789062 124.203125 276.804688 124.363281 C 276.820312 124.519531 276.886719 124.652344 277.003906 124.757812 C 277.863281 125.640625 278.707031 126.550781 279.632812 127.367188 C 282.808594 130.15625 284.621094 133.851562 286.492188 137.507812 C 286.761719 138.070312 286.949219 138.652344 287.058594 139.265625 C 287.664062 142.28125 288.148438 145.3125 288.472656 148.371094 C 288.5 148.652344 288.351562 148.949219 288.289062 149.234375 C 287.769531 149.140625 287.617188 148.75 287.460938 148.390625 C 286.5625 146.3125 285.757812 144.1875 285.453125 141.941406 C 284.992188 138.519531 283.5625 135.460938 282.097656 132.402344 C 281.984375 132.164062 281.664062 132.015625 281.417969 131.8125 C 281.328125 132.058594 281.167969 132.269531 281.214844 132.410156 C 281.539062 133.382812 281.648438 134.394531 282.007812 135.371094 C 282.753906 137.386719 283.554688 139.445312 283.824219 141.554688 C 284.269531 144.988281 285.414062 148.109375 287.035156 151.109375 C 287.421875 151.832031 287.792969 152.570312 288.144531 153.308594 C 288.277344 153.566406 288.328125 153.871094 287.863281 154.175781 C 287.046875 152.882812 286.191406 151.609375 285.414062 150.292969 C 283.832031 147.621094 282.90625 144.679688 281.996094 141.734375 C 280.933594 138.300781 279.714844 134.925781 277.925781 131.777344 C 276.40625 129.105469 275.007812 126.34375 273.328125 123.78125 C 271.417969 120.863281 269.347656 118.027344 266.714844 115.683594 C 266.363281 115.371094 266.027344 115.441406 265.792969 116.007812 Z M 264.386719 150.144531 C 264.652344 150.183594 264.957031 150.179688 265.121094 150.328125 C 266.007812 151.113281 266.847656 151.953125 268.03125 153.097656 C 266.140625 152.222656 265.855469 151.988281 264.375 150.144531 Z M 234.03125 153.808594 C 235.300781 153.710938 235.933594 154.746094 236.863281 155.257812 C 235.070312 155.035156 235.046875 155.035156 234.035156 153.808594 Z M 119.675781 161.585938 C 118.300781 161.140625 117.027344 160.5 115.855469 159.660156 C 115.558594 159.453125 115.207031 159.207031 115.207031 158.765625 C 117.351562 159.152344 119.078125 160.433594 120.980469 161.429688 C 120.550781 162.011719 120.082031 161.710938 119.675781 161.585938 Z M 75.984375 173.800781 C 75.15625 174.4375 74.167969 174.6875 73.222656 175.03125 C 72.46875 175.304688 71.917969 175.261719 71.976562 174.941406 C 72.085938 174.332031 72.570312 174.199219 73.082031 174.09375 C 74.035156 173.894531 74.9375 173.21875 75.984375 173.800781 Z M 122.8125 169.078125 C 122.703125 169.160156 122.457031 169.066406 122.269531 169.050781 C 123.238281 167.585938 123.492188 167.40625 126.542969 166.148438 C 125.269531 167.714844 123.921875 168.242188 122.8125 169.078125 Z M 105.519531 164.164062 C 104.613281 164.164062 103.710938 164.175781 102.808594 164.15625 C 102.511719 164.148438 102.21875 164.050781 101.886719 163.988281 L 102.125 163.789062 C 103.234375 163.78125 104.339844 163.78125 105.445312 163.78125 Z M 123.128906 143.246094 C 122.117188 143.179688 121.605469 142.371094 120.609375 141.53125 C 122.0625 142.015625 122.097656 142.023438 123.128906 143.25 Z M 120.085938 140.695312 C 118.066406 139.933594 117.984375 139.875 117.089844 138.390625 C 118.519531 138.46875 119.101562 139.617188 120.085938 140.699219 Z M 160.355469 161.078125 C 159.835938 161.441406 159.429688 161.746094 159.003906 162.027344 C 155.597656 164.308594 152.164062 166.542969 148.789062 168.867188 C 144.984375 171.496094 141.527344 174.558594 138.074219 177.617188 C 136.71875 178.816406 135.394531 180.058594 133.761719 180.898438 C 133.695312 180.355469 134.011719 179.972656 134.367188 179.636719 C 136.371094 177.742188 138.332031 175.796875 140.421875 173.996094 C 144.539062 170.453125 148.660156 166.90625 153.121094 163.800781 C 154.789062 162.636719 156.492188 161.464844 158.519531 160.933594 C 159.023438 160.800781 159.511719 160.648438 160.355469 161.078125 Z M 146.066406 159.582031 C 145.964844 159.859375 145.945312 160.140625 145.824219 160.191406 C 144.859375 160.617188 143.855469 160.667969 142.824219 160.433594 C 139.984375 159.792969 137.394531 158.558594 134.9375 157.058594 C 133.183594 155.992188 131.507812 154.796875 129.800781 153.660156 C 126.882812 151.71875 124.351562 149.304688 121.679688 147.0625 C 119.722656 145.410156 117.894531 143.605469 115.96875 141.914062 C 114.351562 140.492188 112.761719 139.03125 110.910156 137.898438 C 110.484375 137.640625 110.117188 137.273438 109.734375 136.964844 C 110.003906 136.566406 110.296875 136.558594 110.558594 136.726562 C 114.671875 139.425781 118.707031 142.21875 122.503906 145.378906 C 126.066406 148.332031 129.78125 151.078125 133.65625 153.617188 C 137.496094 156.144531 141.589844 158.296875 146.066406 159.582031 Z M 154.476562 159.109375 C 153.882812 159.449219 153.246094 159.28125 152.660156 159.191406 C 150.636719 158.867188 148.605469 158.550781 146.621094 158.058594 C 145.238281 157.714844 143.898438 157.152344 142.582031 156.578125 C 137.179688 154.21875 132.296875 151.023438 127.71875 147.335938 C 127.078125 146.820312 126.398438 146.355469 125.761719 145.84375 C 124.839844 145.105469 123.753906 144.527344 123.308594 143.335938 C 123.691406 143.324219 124.035156 143.429688 124.347656 143.652344 C 127.132812 145.570312 129.929688 147.472656 132.734375 149.367188 C 135.636719 151.316406 138.828125 152.742188 141.902344 154.394531 C 146.089844 155.457031 149.832031 157.738281 154.015625 158.8125 C 154.1875 158.855469 154.320312 159.007812 154.476562 159.109375 Z M 153.109375 185.53125 C 154.652344 184.351562 156.023438 183.066406 158.035156 182.574219 C 160.753906 181.914062 163.03125 180.238281 165.429688 178.867188 C 168.726562 176.980469 171.851562 174.824219 174.980469 172.683594 C 179.304688 169.730469 183.800781 167.058594 188.320312 164.4375 C 190.351562 163.257812 192.539062 162.339844 194.664062 161.316406 C 194.941406 161.1875 195.25 161.167969 195.59375 161.574219 C 194.203125 162.597656 192.84375 163.65625 191.425781 164.632812 C 187.875 167.078125 184.308594 169.5 180.722656 171.898438 C 178.59375 173.324219 176.339844 174.578125 174.261719 176.074219 C 169.636719 179.414062 164.371094 181.457031 159.179688 183.648438 C 157.570312 184.328125 155.96875 185.027344 154.359375 185.699219 C 153.976562 185.851562 153.570312 185.953125 153.101562 185.53125 Z M 202.222656 160.234375 C 201.976562 160.941406 201.246094 161.15625 200.679688 161.542969 C 196.9375 164.089844 193.4375 166.957031 189.816406 169.664062 C 186.457031 172.183594 183.113281 174.753906 179.367188 176.761719 C 176.558594 178.257812 173.933594 180.09375 171.015625 181.40625 C 169.609375 182.035156 168.1875 182.632812 166.804688 183.308594 C 160.515625 186.386719 153.929688 188.722656 147.367188 191.117188 C 147.070312 191.226562 146.796875 191.375 146.441406 191.03125 C 147.464844 189.828125 148.449219 188.574219 150.339844 188.816406 C 152.261719 188.101562 154.230469 187.476562 156.09375 186.640625 C 159.183594 185.257812 162.296875 183.945312 165.398438 182.597656 C 168.59375 181.210938 171.882812 179.933594 174.558594 177.582031 C 174.960938 177.253906 175.390625 176.972656 175.855469 176.738281 C 179.820312 174.539062 183.46875 171.859375 187.246094 169.367188 C 189.90625 167.617188 192.476562 165.734375 195.132812 163.976562 C 197.183594 162.621094 199.300781 161.359375 201.40625 160.082031 C 201.640625 159.941406 202.003906 159.835938 202.222656 160.234375 Z M 197.339844 158.214844 C 194.597656 159.582031 192.109375 160.800781 189.640625 162.058594 C 187.910156 162.941406 186.074219 163.65625 184.632812 165.046875 C 184.28125 165.386719 183.726562 165.511719 183.265625 165.742188 C 179.117188 167.820312 175.421875 170.621094 171.554688 173.144531 C 169.238281 174.660156 166.9375 176.214844 164.523438 177.582031 C 164.265625 177.726562 164.015625 177.9375 163.582031 177.566406 C 164.203125 176.976562 164.777344 176.328125 165.453125 175.8125 C 166.347656 175.117188 167.285156 174.492188 168.269531 173.9375 C 169.988281 172.992188 171.558594 171.847656 173.128906 170.679688 C 175.441406 168.96875 177.828125 167.355469 180.230469 165.765625 C 182.796875 164.066406 185.390625 162.402344 188.011719 160.796875 C 189.316406 160 190.871094 159.648438 192.03125 158.546875 C 192.289062 158.289062 192.78125 158.214844 193.175781 158.167969 C 194.570312 158.007812 195.964844 158.023438 197.351562 158.214844 Z M 226.226562 157.625 C 226.421875 158.257812 225.96875 158.386719 225.699219 158.574219 C 223.492188 160.050781 221.230469 161.445312 219.074219 162.996094 C 217.015625 164.480469 215.089844 166.144531 213.058594 167.671875 C 212.28125 168.257812 211.625 169.09375 210.546875 169.183594 C 210.578125 168.667969 210.894531 168.328125 211.273438 168.007812 C 213.527344 166.097656 215.71875 164.105469 218.21875 162.5 C 220.015625 161.34375 221.734375 160.074219 223.519531 158.90625 C 224.351562 158.363281 225.191406 157.769531 226.230469 157.625 Z M 216.277344 158.050781 C 215.324219 159.519531 215.300781 159.535156 213.601562 159.902344 C 214.003906 158.679688 215.207031 158.65625 216.285156 158.050781 Z M 199.289062 175.398438 C 197.605469 176.5625 196.019531 177.855469 194.347656 179.042969 C 191.648438 180.953125 188.589844 182.164062 185.773438 183.828125 C 185.457031 184.015625 184.996094 184.136719 184.578125 183.761719 C 185.164062 182.855469 186.179688 182.566406 187.042969 182.070312 C 188.988281 180.945312 191 179.910156 192.933594 178.753906 C 194.34375 177.914062 195.742188 177.027344 197.023438 176.015625 C 201.84375 172.199219 206.609375 168.3125 211.402344 164.46875 C 212.519531 163.574219 213.667969 162.722656 214.820312 161.871094 C 214.960938 161.769531 215.210938 161.816406 215.410156 161.796875 C 215.96875 160.304688 217.46875 160.097656 218.867188 159.0625 C 217.808594 160.804688 217.066406 161.363281 215.441406 161.832031 C 215.007812 163.085938 213.832031 163.660156 212.894531 164.367188 C 211.578125 165.359375 210.410156 166.503906 209.132812 167.523438 C 205.851562 170.144531 202.75 173.003906 199.289062 175.398438 Z M 210.40625 169.292969 C 209.859375 170.199219 209.226562 170.976562 208.046875 171.011719 C 208.554688 170.039062 209.292969 169.414062 210.40625 169.292969 Z M 205.375 173.539062 C 206.445312 171.726562 206.476562 171.695312 207.917969 171.125 C 207.59375 172.523438 206.242188 172.765625 205.375 173.539062 Z M 211.480469 171.53125 C 211.308594 171.390625 211.203125 171.433594 211.164062 171.464844 C 211.191406 171.425781 211.214844 171.382812 211.234375 171.335938 C 211.503906 170.753906 212.355469 170.28125 213.28125 170.210938 C 212.660156 170.640625 212.347656 171.480469 211.480469 171.53125 Z M 230.699219 158.441406 C 230.496094 158.660156 230.308594 158.925781 230.058594 159.078125 C 224.769531 162.179688 219.867188 165.859375 214.367188 168.828125 C 216.660156 166.992188 218.851562 165.015625 221.265625 163.367188 C 223.957031 161.53125 226.851562 159.984375 229.667969 158.335938 C 229.898438 158.199219 230.222656 158.226562 230.460938 158.183594 C 230.578125 158.3125 230.707031 158.433594 230.695312 158.441406 Z M 238.066406 165.179688 C 237.554688 165.777344 237.15625 166.316406 236.683594 166.792969 C 233.492188 170.023438 230.976562 173.792969 228.332031 177.457031 C 225.140625 181.871094 221.972656 186.300781 218.769531 190.714844 C 218.476562 191.113281 218.039062 191.410156 217.675781 191.746094 C 217.074219 191.3125 217.15625 190.765625 217.355469 190.339844 C 218.390625 188.109375 219.332031 185.832031 220.675781 183.75 C 222.351562 181.15625 224.117188 178.628906 226.207031 176.359375 C 229.476562 172.800781 232.679688 169.167969 236.386719 166.039062 C 236.8125 165.675781 237.125 165.046875 238.058594 165.179688 Z M 288.964844 165.800781 C 288.445312 166.679688 287.78125 167.40625 287.1875 168.167969 C 285.851562 169.855469 284.714844 171.667969 283.773438 173.601562 C 283.109375 174.976562 282.285156 176.273438 281.5 177.589844 C 281.257812 177.992188 280.980469 178.425781 280.421875 178.4375 C 280.355469 177.289062 280.96875 176.328125 281.375 175.332031 C 282.777344 171.882812 284.988281 168.964844 287.558594 166.308594 C 287.84375 165.988281 288.140625 165.441406 288.957031 165.800781 Z M 253.25 165.425781 C 253.734375 164.285156 254.789062 163.761719 256.039062 162.859375 C 254.804688 164.753906 254.78125 164.804688 253.25 165.425781 Z M 263.597656 160.785156 C 262.457031 162.441406 262.445312 162.46875 260.625 163.011719 C 261.054688 161.8125 262.351562 161.867188 263.597656 160.785156 Z M 261.691406 164.988281 C 260.816406 166.300781 260.757812 166.328125 259.054688 167.117188 C 260.367188 165.503906 260.417969 165.4375 261.6875 164.988281 Z M 271.640625 162.734375 C 270.734375 163.96875 269.265625 164.53125 268.25 165.589844 C 267.265625 166.613281 266.195312 167.5625 265.230469 168.605469 C 264.191406 169.722656 263.5 171.128906 262.210938 172.066406 C 261.609375 171.632812 262.117188 171.222656 262.292969 170.875 C 262.941406 169.613281 263.539062 168.304688 264.355469 167.152344 C 266.050781 164.753906 268.292969 163.066406 271.246094 162.472656 C 271.3125 162.449219 271.402344 162.578125 271.636719 162.734375 Z M 268.347656 160.914062 C 268.21875 161.160156 268.167969 161.511719 267.96875 161.625 C 266.125 162.722656 264.257812 163.785156 262.382812 164.835938 C 262.261719 164.902344 262.082031 164.871094 261.914062 164.855469 C 263.007812 163.390625 264.546875 162.414062 265.976562 161.335938 C 266.609375 160.859375 267.402344 160.484375 268.347656 160.914062 Z M 268.347656 160.914062 "/>
</g>
</g>
</svg>
