<?xml version="1.0" encoding="UTF-8"?>
<svg xmlns="http://www.w3.org/2000/svg" xmlns:xlink="http://www.w3.org/1999/xlink" width="375pt" height="374.999991pt" viewBox="0 0 375 374.999991" version="1.2">
<defs>
<clipPath id="clip1">
  <path d="M 129.234375 30.507812 L 245.484375 30.507812 L 245.484375 316.257812 L 129.234375 316.257812 Z M 129.234375 30.507812 "/>
</clipPath>
</defs>
<g id="surface1">
<rect x="0" y="0" width="375" height="374.999991" style="fill:rgb(100%,100%,100%);fill-opacity:1;stroke:none;"/>
<rect x="0" y="0" width="375" height="374.999991" style="fill:rgb(100%,100%,100%);fill-opacity:1;stroke:none;"/>
<rect x="0" y="0" width="375" height="374.999991" style="fill:rgb(100%,100%,100%);fill-opacity:1;stroke:none;"/>
<path style=" stroke:none;fill-rule:nonzero;fill:rgb(73.329163%,66.668701%,0%);fill-opacity:1;" d="M 157 221.304688 C 156.992188 221.273438 156.988281 221.289062 157 221.304688 Z M 157 221.304688 "/>
<g clip-path="url(#clip1)" clip-rule="nonzero">
<path style=" stroke:none;fill-rule:nonzero;fill:rgb(73.329163%,66.668701%,0%);fill-opacity:1;" d="M 244.839844 251.652344 C 241.277344 254.90625 237.210938 257.488281 232.921875 259.734375 C 232.464844 259.972656 232.03125 260.253906 231.601562 260.523438 C 228.03125 262.804688 224.214844 264.546875 220.15625 265.753906 C 218.492188 266.253906 216.859375 266.871094 215.210938 267.441406 C 211.371094 268.757812 208.058594 271.015625 204.789062 273.351562 C 204.414062 273.621094 204.160156 274.160156 203.386719 273.960938 C 203.480469 273 204.007812 272.257812 204.667969 271.675781 C 206.59375 269.980469 208.480469 268.257812 210.964844 267.308594 C 213.65625 266.277344 216.136719 264.789062 218.464844 263.089844 C 221.65625 260.777344 224.457031 258.191406 226.09375 254.429688 C 227.40625 251.410156 228.714844 248.398438 229.714844 245.261719 C 229.898438 244.691406 229.921875 244.046875 229.90625 243.4375 C 229.898438 242.972656 229.535156 242.761719 229.003906 242.8125 C 228.875 243.042969 228.675781 243.292969 228.601562 243.574219 C 227.726562 246.96875 226.53125 250.246094 225.015625 253.40625 C 223.851562 255.820312 222.390625 257.992188 220.285156 259.78125 C 216.234375 263.21875 211.589844 265.511719 206.835938 267.480469 L 205.550781 266.816406 C 204.78125 267.519531 204.015625 268.199219 203.277344 268.902344 C 202.605469 269.539062 201.972656 270.21875 201.300781 270.855469 C 201.082031 271.0625 200.796875 271.148438 200.59375 270.785156 C 201.203125 270.09375 201.773438 269.359375 202.429688 268.71875 C 203.816406 267.355469 205.222656 266.042969 206.914062 265.003906 C 208.523438 264.019531 210.226562 263.375 211.988281 262.839844 C 215.1875 261.859375 217.9375 260.113281 220.519531 258.039062 C 220.769531 257.859375 220.988281 257.644531 221.167969 257.390625 C 221.347656 257.105469 221.214844 256.820312 220.921875 256.589844 C 218.613281 258.335938 216.082031 259.644531 213.324219 260.519531 C 210.171875 261.511719 207.207031 262.910156 204.429688 264.707031 C 204.171875 264.878906 203.890625 264.957031 203.683594 264.609375 C 204.65625 263.160156 205.582031 261.671875 207.023438 260.609375 C 208.097656 259.816406 209.152344 259 210.210938 258.1875 C 214.40625 254.988281 218.101562 251.308594 221.007812 246.878906 C 221.214844 246.523438 221.390625 246.152344 221.535156 245.769531 L 221.445312 245.53125 C 221.273438 245.476562 221.007812 245.371094 220.917969 245.445312 C 220.617188 245.726562 220.34375 246.03125 220.09375 246.355469 C 218.109375 248.707031 216.203125 251.109375 213.859375 253.152344 C 211.449219 255.25 208.886719 257.132812 206.382812 259.101562 C 206.199219 259.242188 206.046875 259.183594 205.898438 258.855469 C 206.101562 258.550781 206.304688 258.195312 206.554688 257.875 C 209.550781 254.070312 212.894531 250.585938 216.414062 247.277344 C 217.320312 246.429688 218.273438 245.65625 219.214844 244.855469 C 221.097656 243.261719 223.046875 241.746094 224.851562 240.070312 C 227.191406 237.890625 229.117188 235.339844 230.882812 232.679688 C 231.167969 232.253906 231.28125 231.773438 230.761719 231.382812 C 230.578125 231.5 230.363281 231.574219 230.242188 231.722656 C 228.589844 233.683594 226.976562 235.679688 225.296875 237.621094 C 224.5625 238.472656 223.78125 239.320312 222.890625 239.996094 C 219.0625 242.929688 215.234375 245.863281 212.0625 249.550781 C 211.738281 249.925781 211.335938 250.226562 210.785156 250.144531 C 210.703125 249.46875 211.164062 249.027344 211.507812 248.550781 C 212.707031 246.882812 213.988281 245.265625 215.117188 243.550781 C 216.015625 242.167969 217.046875 240.890625 218.210938 239.722656 C 221.191406 236.761719 224.160156 233.777344 227.25 230.933594 C 230.992188 227.496094 234.398438 223.832031 236.453125 219.09375 C 236.582031 218.800781 236.660156 218.511719 236.363281 218.234375 C 235.46875 218.476562 235.257812 219.335938 234.855469 220 C 233.191406 222.742188 231.234375 225.21875 228.835938 227.378906 C 225.933594 229.988281 223.191406 232.777344 220.347656 235.453125 C 217.722656 237.925781 215.125 240.414062 213.335938 243.605469 C 213.1875 243.867188 212.949219 244.089844 212.761719 244.332031 C 210.042969 247.816406 207.316406 251.292969 204.589844 254.769531 C 204.519531 254.863281 204.28125 254.820312 204.042969 254.851562 C 204.0625 254.519531 203.980469 254.175781 204.109375 253.941406 C 205.546875 251.332031 206.835938 248.613281 208.519531 246.167969 C 211.300781 242.125 213.863281 237.890625 217.425781 234.433594 C 217.714844 234.140625 217.972656 233.824219 218.199219 233.480469 C 219.511719 231.589844 221.230469 230.15625 223.097656 228.839844 C 226.382812 226.53125 229.429688 223.933594 232.09375 220.917969 C 233.175781 219.699219 234.273438 218.445312 234.808594 216.84375 C 234.839844 216.640625 234.78125 216.46875 234.636719 216.324219 L 234.140625 216.382812 C 233.417969 217.109375 232.910156 218.007812 232.246094 218.792969 C 229.832031 221.648438 226.902344 223.882812 224.03125 226.203125 C 222.191406 227.691406 220.132812 228.96875 218.550781 230.691406 C 215.289062 234.242188 211.90625 237.722656 209.46875 241.957031 C 209.09375 242.605469 208.546875 243.148438 208.082031 243.738281 C 209.503906 240.527344 210.96875 237.390625 213.023438 234.585938 C 215.726562 230.910156 219.210938 228.03125 222.691406 225.167969 C 226.257812 222.230469 229.734375 219.214844 232.8125 215.761719 C 234.316406 214.078125 235.824219 212.390625 237.015625 210.445312 C 237.253906 210.058594 237.3125 209.707031 236.886719 209.410156 C 236.210938 209.558594 235.960938 210.171875 235.566406 210.632812 C 233.355469 213.207031 231.136719 215.777344 228.621094 218.058594 C 226.796875 219.714844 224.917969 221.320312 222.976562 222.835938 C 220.21875 224.992188 217.660156 227.367188 215.15625 229.808594 C 213.535156 231.398438 212.125 233.164062 210.929688 235.097656 C 209.359375 237.628906 207.9375 240.257812 206.429688 242.828125 C 205.824219 243.851562 205.382812 245.015625 204.316406 245.714844 C 203.96875 245.269531 204.109375 244.878906 204.25 244.492188 C 204.960938 242.546875 206.152344 240.851562 207.046875 239.011719 C 209.632812 233.679688 213.089844 229 217.109375 224.699219 C 217.671875 224.101562 218.195312 223.457031 218.804688 222.917969 C 221.5 220.53125 224.148438 218.089844 226.945312 215.832031 C 229.929688 213.425781 232.4375 210.578125 234.921875 207.699219 C 235.65625 206.84375 236.285156 205.898438 236.953125 204.988281 C 237.230469 204.605469 237.21875 203.964844 236.9375 203.878906 C 236.476562 203.730469 236.191406 204.007812 235.929688 204.328125 C 235.800781 204.488281 235.667969 204.644531 235.53125 204.800781 C 234.660156 205.8125 233.804688 206.839844 232.914062 207.835938 C 229.621094 211.527344 225.980469 214.847656 222.105469 217.914062 C 220.902344 218.867188 219.707031 219.835938 218.539062 220.835938 C 216.972656 222.175781 215.679688 223.773438 214.328125 225.316406 C 214.121094 225.550781 213.957031 226.085938 213.433594 225.757812 C 213.3125 224.894531 213.992188 224.460938 214.40625 223.929688 C 216.242188 221.597656 218.421875 219.535156 220.082031 217.042969 C 220.363281 216.625 220.777344 216.285156 221.144531 215.925781 C 223.128906 213.980469 225.113281 212.035156 227.117188 210.117188 C 227.703125 209.542969 228.328125 209.011719 228.992188 208.53125 C 232.910156 205.765625 235.953125 202.164062 238.691406 198.277344 C 239.097656 197.703125 239.339844 197.011719 239.609375 196.351562 C 239.660156 196.234375 239.5 195.933594 239.363281 195.863281 C 239.164062 195.8125 238.988281 195.855469 238.835938 195.996094 C 238.308594 196.621094 237.800781 197.269531 237.324219 197.941406 C 235.332031 200.714844 233.046875 203.230469 230.394531 205.367188 C 227.589844 207.632812 224.980469 210.09375 222.453125 212.660156 C 221.59375 213.539062 220.5625 214.257812 219.765625 215.1875 C 216.292969 219.238281 212.757812 223.238281 209.839844 227.746094 C 208.777344 229.386719 207.664062 230.988281 206.792969 232.738281 C 206.207031 233.921875 205.574219 235.085938 204.921875 236.34375 C 204.453125 235.496094 204.625 234.824219 204.9375 234.140625 C 205.703125 232.453125 206.449219 230.765625 207.214844 229.082031 C 207.472656 228.519531 207.695312 227.929688 208.046875 227.429688 C 210.679688 223.632812 213.410156 219.90625 216.492188 216.464844 C 219.171875 213.46875 222.027344 210.648438 225.058594 208.007812 C 228.234375 205.230469 231.152344 202.203125 233.8125 198.925781 C 235.960938 196.296875 237.792969 193.441406 239.46875 190.488281 C 239.71875 190.042969 239.953125 189.570312 239.5 188.96875 C 238.605469 189.34375 238.242188 190.199219 237.78125 190.941406 C 234.0625 196.953125 229.265625 202.035156 224.070312 206.746094 C 220.636719 209.859375 217.25 213.007812 214.289062 216.582031 C 211.929688 219.433594 209.421875 222.171875 207.515625 225.371094 C 206.625 226.867188 205.789062 228.394531 204.914062 229.9375 C 204.816406 229.75 204.65625 229.589844 204.675781 229.449219 C 204.75 228.84375 204.746094 228.179688 205.003906 227.648438 C 206.535156 224.5 208.257812 221.445312 210.503906 218.753906 C 213.460938 215.210938 216.550781 211.78125 219.558594 208.28125 C 220.5625 207.113281 221.386719 205.769531 222.480469 204.699219 C 224.90625 202.328125 227.070312 199.691406 229.742188 197.574219 C 230.0625 197.316406 230.351562 197.03125 230.613281 196.714844 C 233.101562 193.703125 235.589844 190.691406 238.074219 187.675781 C 239.199219 186.316406 240.03125 184.78125 240.792969 183.207031 C 241.015625 182.753906 241.171875 182.242188 240.691406 181.617188 C 239.371094 183.589844 238.027344 185.484375 236.441406 187.191406 C 235.539062 188.167969 234.6875 189.195312 233.855469 190.242188 C 231.878906 192.757812 229.675781 195.042969 227.40625 197.292969 C 224.484375 200.1875 221.503906 203.027344 218.972656 206.285156 C 218.21875 207.257812 217.480469 208.246094 216.683594 209.1875 C 214.628906 211.617188 212.59375 214.070312 210.457031 216.425781 C 209.390625 217.597656 208.503906 218.988281 207.054688 219.777344 C 206.988281 219.378906 207.09375 219.027344 207.269531 218.65625 C 208.371094 216.304688 210.082031 214.367188 211.519531 212.242188 C 213.828125 208.835938 216.433594 205.640625 218.902344 202.363281 C 221.054688 199.519531 223.660156 196.976562 226.40625 194.628906 C 228.042969 193.234375 229.699219 191.820312 231.117188 190.207031 C 233.355469 187.664062 235.402344 184.949219 237.527344 182.304688 C 237.71875 182.066406 237.914062 181.824219 238.089844 181.570312 C 238.207031 181.402344 238.296875 181.214844 238.398438 181.039062 C 238.527344 180.808594 238.363281 180.21875 238.171875 180.242188 C 237.980469 180.265625 237.726562 180.273438 237.617188 180.394531 C 236.039062 182.152344 234.382812 183.855469 232.9375 185.710938 C 230.375 188.957031 227.46875 191.855469 224.214844 194.398438 C 223.566406 194.90625 223.007812 195.511719 222.421875 196.085938 C 220.078125 198.410156 218.15625 201.09375 216.121094 203.675781 C 212.746094 207.953125 209.242188 212.128906 206.40625 216.808594 C 206.335938 216.929688 206.125 216.964844 205.867188 217.097656 C 205.867188 216.734375 205.78125 216.414062 205.878906 216.160156 C 207.066406 213.082031 208.597656 210.183594 210.472656 207.472656 C 212.929688 203.9375 215.519531 200.480469 218.386719 197.226562 C 220.089844 195.292969 221.878906 193.453125 223.726562 191.691406 C 227 188.578125 230.460938 185.660156 233.832031 182.648438 C 235.761719 180.921875 237.472656 179.015625 238.703125 176.710938 C 238.847656 176.433594 238.933594 176.152344 238.589844 175.933594 L 238.304688 175.902344 C 236.957031 177.292969 235.578125 178.65625 234.296875 180.105469 C 233.265625 181.253906 232.164062 182.324219 230.992188 183.324219 C 227.410156 186.40625 223.863281 189.527344 220.34375 192.6875 C 219.507812 193.433594 218.824219 194.347656 218.082031 195.203125 C 217.613281 195.746094 217.207031 196.351562 216.710938 196.867188 C 213.5625 200.152344 211.136719 203.984375 208.527344 207.679688 C 207.644531 208.9375 206.96875 210.339844 206.167969 211.660156 C 206.039062 211.875 205.804688 212.105469 205.46875 211.972656 C 205.246094 211.574219 205.257812 211.179688 205.503906 210.792969 C 207.574219 207.128906 209.648438 203.464844 211.730469 199.808594 L 211.90625 199.550781 C 213.6875 196.769531 215.847656 194.277344 217.871094 191.679688 C 220.15625 188.75 222.796875 186.1875 225.707031 183.878906 C 228.199219 181.902344 230.949219 180.25 233.132812 177.875 C 234.59375 176.285156 236.195312 174.828125 237.722656 173.296875 C 238.59375 172.421875 239.453125 171.527344 239.992188 170.390625 C 240.230469 169.886719 239.964844 169.65625 239.410156 169.613281 C 238.351562 170.679688 237.300781 171.804688 236.179688 172.855469 C 233.851562 175.03125 231.523438 177.230469 229.105469 179.296875 C 227.386719 180.761719 225.480469 182.007812 223.699219 183.394531 C 221.160156 185.347656 218.902344 187.589844 216.933594 190.117188 C 213.308594 194.84375 209.777344 199.65625 207.003906 204.964844 C 206.785156 205.378906 206.589844 205.886719 205.996094 205.929688 L 205.816406 205.671875 C 205.859375 205.265625 205.832031 204.816406 206.011719 204.472656 C 208.046875 200.554688 210.011719 196.589844 212.714844 193.066406 C 213.402344 192.171875 214.21875 191.382812 214.902344 190.484375 C 216.835938 187.933594 219.015625 185.613281 221.433594 183.523438 C 223.777344 181.515625 226.21875 179.613281 228.398438 177.4375 C 231.011719 174.820312 233.691406 172.285156 236.371094 169.742188 C 237.859375 168.332031 239.1875 166.75 240.5625 165.222656 C 240.835938 164.914062 240.949219 164.511719 240.460938 164.21875 C 239.683594 164.324219 239.289062 164.976562 238.777344 165.460938 C 235.113281 168.917969 231.582031 172.535156 227.742188 175.78125 C 224.769531 178.296875 222.050781 181.125 218.90625 183.445312 C 218.171875 183.988281 217.566406 184.726562 216.964844 185.429688 C 213.289062 189.734375 209.640625 194.054688 206.941406 199.082031 C 206.773438 199.398438 206.574219 199.777344 206.078125 199.589844 C 206.222656 197.886719 206.1875 197.863281 206.785156 196.996094 C 208.121094 195.050781 209.460938 193.105469 210.863281 191.203125 C 212.929688 188.398438 214.890625 185.46875 217.214844 182.882812 C 221.328125 178.292969 225.640625 173.878906 230.46875 170.007812 C 231.746094 168.984375 232.894531 167.785156 234.207031 166.8125 C 237.066406 164.6875 239.179688 161.929688 241.0625 158.964844 C 241.191406 158.757812 241.5 158.480469 241.113281 158.183594 C 240.523438 158.113281 240.207031 158.527344 239.917969 158.941406 C 238.269531 161.332031 236.222656 163.347656 233.949219 165.128906 C 229.984375 168.242188 226.128906 171.484375 222.496094 174.984375 C 220.722656 176.695312 218.964844 178.441406 217.347656 180.300781 C 213.433594 184.8125 209.816406 189.554688 206.496094 194.519531 C 206.238281 194.902344 206.039062 195.429688 205.300781 195.363281 C 205.300781 194.964844 205.199219 194.527344 205.324219 194.171875 C 205.636719 193.191406 206.03125 192.238281 206.496094 191.320312 C 208.394531 187.777344 210.527344 184.410156 213.363281 181.503906 C 216.308594 178.492188 219.113281 175.34375 222.4375 172.730469 C 225.761719 170.121094 228.953125 167.390625 231.890625 164.351562 C 234.898438 161.238281 237.867188 158.105469 240.039062 154.324219 C 240.601562 153.347656 241.109375 152.335938 241.589844 151.316406 C 241.695312 151.125 241.726562 150.925781 241.683594 150.71875 C 241.640625 150.507812 241.535156 150.335938 241.367188 150.199219 C 241.230469 150.34375 241.050781 150.460938 240.949219 150.632812 C 238.710938 154.472656 235.976562 157.890625 232.878906 161.089844 C 229.21875 164.867188 225.417969 168.453125 221.226562 171.613281 C 218.164062 173.921875 215.695312 176.835938 212.96875 179.488281 C 210.675781 181.722656 208.789062 184.285156 207.078125 186.992188 C 206.59375 187.75 206.0625 188.476562 205.535156 189.242188 C 205.117188 188.769531 205.214844 188.378906 205.429688 188.007812 C 205.945312 187.121094 206.558594 186.28125 206.980469 185.351562 C 207.71875 183.722656 208.796875 182.390625 210.03125 181.121094 C 211.75 179.359375 213.371094 177.503906 215.050781 175.699219 C 215.679688 175.027344 216.335938 174.371094 217.011719 173.742188 C 218.894531 172 220.882812 170.363281 222.671875 168.53125 C 225.6875 165.441406 228.804688 162.460938 231.996094 159.554688 C 233.273438 158.386719 234.386719 156.992188 235.375 155.5625 C 237.1875 152.945312 238.769531 150.175781 240.878906 147.765625 C 241.34375 147.230469 241.683594 146.570312 242.03125 145.941406 C 242.109375 145.804688 242.125 145.664062 242.074219 145.515625 C 242.027344 145.371094 241.929688 145.265625 241.789062 145.203125 C 241.613281 145.300781 241.375 145.351562 241.261719 145.5 C 239.445312 147.863281 237.484375 150.109375 235.789062 152.578125 C 234.453125 154.523438 232.890625 156.320312 231.292969 158.054688 C 229.066406 160.46875 226.507812 162.546875 224.191406 164.882812 C 220.441406 168.679688 216.289062 172.070312 212.691406 176.039062 C 210.148438 178.84375 207.285156 181.363281 205.503906 184.890625 C 204.984375 184.046875 205.042969 183.367188 205.4375 182.699219 C 205.753906 182.167969 206.128906 181.675781 206.402344 181.132812 C 207.566406 178.820312 209.097656 176.789062 210.726562 174.777344 C 212.421875 172.675781 214.578125 171.082031 216.332031 169.070312 C 217.203125 168.066406 218.164062 167.140625 219.128906 166.21875 C 221.359375 164.09375 223.605469 161.984375 225.824219 159.851562 C 230.894531 154.984375 235.234375 149.550781 239.039062 143.664062 C 239.484375 142.976562 239.894531 142.261719 240.28125 141.535156 C 240.421875 141.277344 240.453125 140.945312 240.136719 140.703125 C 239.316406 140.808594 239.089844 141.566406 238.699219 142.113281 C 236.492188 145.214844 234.367188 148.382812 231.816406 151.210938 C 227.757812 155.742188 223.453125 160.019531 219.03125 164.183594 C 217.980469 165.171875 216.917969 166.144531 215.910156 167.164062 C 213.675781 169.441406 211.476562 171.75 209.25 174.039062 C 209.050781 174.242188 208.769531 174.367188 208.515625 174.53125 C 208 173.753906 208.25 173.082031 208.773438 172.539062 C 209.628906 171.652344 210.65625 170.917969 211.273438 169.816406 C 213.179688 166.445312 216.011719 163.875 218.796875 161.292969 C 221.285156 158.992188 223.941406 156.882812 226.273438 154.40625 C 229.226562 151.277344 232.453125 148.425781 234.894531 144.800781 C 236.515625 142.394531 237.78125 139.835938 239.085938 137.277344 C 239.226562 137.003906 239.160156 136.683594 238.871094 136.417969 C 238.664062 136.613281 238.386719 136.777344 238.25 137.019531 C 235.441406 141.964844 232.023438 146.449219 227.996094 150.464844 C 224.632812 153.792969 221.289062 157.125 217.777344 160.28125 C 216.703125 161.246094 215.558594 162.113281 214.769531 163.351562 C 214.550781 163.691406 214.21875 163.960938 213.921875 164.246094 C 213.625 164.53125 213.34375 164.851562 212.996094 165.058594 C 212.75 165.210938 212.648438 165.863281 212.140625 165.433594 C 212.597656 163.773438 213.351562 162.382812 214.726562 161.320312 C 215.359375 160.828125 215.8125 160.085938 216.277344 159.410156 C 218.878906 155.65625 222.160156 152.539062 225.675781 149.707031 C 227.75 148.019531 229.589844 146.109375 231.199219 143.96875 C 233.804688 140.542969 236.332031 137.058594 238.871094 133.582031 C 239.402344 132.824219 239.886719 132.039062 240.320312 131.21875 C 240.449219 130.976562 240.347656 130.648438 239.929688 130.476562 C 239.257812 131.328125 238.570312 132.214844 237.871094 133.085938 C 235.433594 136.132812 232.847656 139.074219 230.59375 142.246094 C 228.652344 144.96875 226.292969 147.234375 223.789062 149.351562 C 221.894531 150.953125 220.050781 152.570312 218.46875 154.480469 C 218.289062 154.691406 218.023438 154.929688 217.714844 154.597656 C 217.691406 154.417969 217.585938 154.1875 217.664062 154.058594 C 218.070312 153.347656 218.492188 152.640625 218.957031 151.964844 C 220.359375 149.925781 222.089844 148.15625 223.6875 146.277344 C 225.292969 144.402344 227.03125 142.660156 228.90625 141.054688 C 229.761719 140.316406 230.484375 139.464844 231.199219 138.574219 C 232.929688 136.402344 234.457031 134.078125 236.183594 131.914062 C 237.996094 129.648438 239.332031 127.109375 240.832031 124.660156 C 241.03125 124.332031 241.03125 123.890625 240.515625 123.507812 C 239.410156 124.972656 238.59375 126.632812 237.511719 128.105469 C 236.429688 129.578125 235.292969 131.074219 234.164062 132.542969 C 232.96875 134.089844 231.808594 135.671875 230.519531 137.136719 C 229.304688 138.535156 228 139.847656 226.601562 141.0625 C 225.269531 142.203125 224.324219 143.796875 222.378906 144.851562 C 223.222656 142.496094 224.472656 140.382812 226.128906 138.511719 C 228.019531 136.339844 229.847656 134.128906 231.503906 131.773438 C 232.152344 130.859375 232.820312 129.957031 233.675781 129.1875 C 234.691406 128.289062 235.484375 127.222656 236.058594 125.992188 C 236.191406 125.703125 236.035156 125.417969 235.683594 125.1875 C 230.796875 130.273438 226.371094 135.757812 222.105469 141.371094 C 222.085938 141.183594 221.945312 140.851562 222.035156 140.625 C 223.421875 137.179688 224.964844 133.820312 227.367188 130.9375 C 229.078125 128.882812 230.839844 126.867188 232.429688 124.71875 C 234.386719 122.074219 236.140625 119.289062 237.222656 116.136719 C 237.351562 115.742188 237.414062 115.332031 237.066406 114.992188 L 236.808594 115.035156 C 236.558594 115.34375 236.269531 115.640625 236.101562 115.992188 C 234.316406 119.722656 232.046875 123.125 229.292969 126.207031 C 228.136719 127.515625 226.957031 128.8125 225.917969 130.210938 C 222.769531 134.460938 220.625 139.238281 218.789062 144.171875 C 217.136719 148.601562 215.628906 153.089844 213.78125 157.433594 C 211.082031 163.777344 208.128906 170.011719 205.285156 176.292969 C 205.171875 176.554688 205.144531 176.875 204.824219 176.894531 C 204.425781 176.785156 204.242188 176.519531 204.28125 176.199219 C 204.539062 174.054688 205.125 171.992188 205.765625 169.929688 C 206.738281 166.792969 207.53125 163.59375 209.074219 160.675781 C 209.683594 159.488281 210.199219 158.265625 210.625 157 C 212.324219 152.125 214.699219 147.558594 216.761719 142.847656 C 217.546875 141.058594 218.617188 139.371094 219.234375 137.53125 C 220.269531 134.46875 221.871094 131.746094 223.6875 129.128906 C 226.847656 124.574219 230.386719 120.289062 233.300781 115.539062 C 234.546875 113.5 235.523438 111.371094 236.484375 109.214844 C 236.644531 108.851562 236.660156 108.4375 236.175781 107.949219 C 235.667969 108.871094 235.140625 109.722656 234.6875 110.632812 C 234.179688 111.644531 233.667969 112.667969 233.023438 113.59375 C 230.09375 117.8125 227.144531 122.023438 223.9375 126.035156 C 222 128.453125 220.367188 131.066406 219.039062 133.871094 C 217.511719 137.125 216.007812 140.402344 214.601562 143.710938 C 212.585938 148.433594 210.191406 153.007812 208.78125 157.972656 C 208.621094 158.46875 208.402344 158.933594 208.121094 159.367188 C 206.6875 161.777344 205.890625 164.4375 205.054688 167.085938 C 204.867188 167.664062 204.757812 168.289062 204.203125 168.703125 C 203.796875 167.773438 204.113281 166.910156 204.351562 166.023438 C 205.542969 161.550781 207.144531 157.222656 208.878906 152.9375 C 209.222656 152.089844 209.8125 151.316406 210.015625 150.445312 C 210.488281 148.417969 211.480469 146.609375 212.214844 144.695312 C 213.835938 140.476562 215.496094 136.265625 217.539062 132.246094 C 219.726562 127.933594 222.496094 123.960938 225.375 120.089844 C 227.761719 116.878906 230.425781 113.894531 232.566406 110.472656 C 233.832031 108.453125 234.832031 106.328125 235.914062 104.230469 C 236.09375 103.886719 236.085938 103.453125 235.707031 103.164062 C 235.535156 103.273438 235.28125 103.347656 235.210938 103.5 C 233.824219 106.503906 231.71875 109.042969 229.941406 111.789062 C 229.222656 112.90625 228.308594 113.894531 227.484375 114.9375 C 224.675781 118.46875 221.832031 121.980469 219.464844 125.828125 C 217.414062 129.15625 215.667969 132.632812 214.0625 136.214844 C 212.46875 139.769531 211.1875 143.445312 209.601562 147 C 208.308594 149.902344 207.382812 152.972656 206.25 155.949219 C 205.519531 157.867188 204.703125 159.753906 203.921875 161.65625 L 203.660156 161.839844 C 203.574219 161.6875 203.402344 161.535156 203.410156 161.382812 C 203.410156 160.875 203.390625 160.347656 203.523438 159.859375 C 204.769531 155.40625 206.246094 151.042969 208.265625 146.859375 C 209.601562 144.085938 210.722656 141.207031 211.777344 138.316406 C 212.308594 136.867188 212.761719 135.398438 213.425781 134 C 214.300781 132.144531 215.164062 130.277344 215.933594 128.375 C 217.054688 125.589844 218.582031 123.058594 220.402344 120.683594 C 222.464844 117.996094 224.554688 115.335938 226.609375 112.644531 C 229.105469 109.375 231.566406 106.074219 233.492188 102.417969 C 233.714844 101.96875 233.898438 101.503906 234.035156 101.019531 C 234.074219 100.890625 233.917969 100.589844 233.777344 100.53125 C 233.570312 100.492188 233.394531 100.550781 233.25 100.707031 C 232.464844 101.910156 231.800781 103.199219 230.933594 104.335938 C 227.832031 108.429688 224.726562 112.535156 221.480469 116.511719 C 218.132812 120.601562 215.390625 125.042969 213.445312 129.925781 C 212.238281 132.972656 210.554688 135.84375 209.882812 139.101562 C 209.824219 139.398438 209.640625 139.667969 209.519531 139.953125 C 207.828125 143.925781 206.136719 147.894531 204.445312 151.867188 C 204.054688 152.777344 203.816406 153.777344 202.972656 154.488281 C 202.628906 153.386719 202.765625 152.386719 203.042969 151.378906 C 204.328125 146.71875 205.765625 142.117188 207.691406 137.675781 C 208.789062 135.125 209.78125 132.53125 210.890625 129.988281 C 212.304688 126.777344 214.109375 123.777344 215.859375 120.746094 C 216.945312 118.867188 218.058594 117.035156 219.550781 115.449219 C 219.96875 115.003906 220.289062 114.464844 220.667969 113.976562 C 222.9375 111.054688 225.121094 108.058594 227.519531 105.242188 C 229.132812 103.347656 230.492188 101.300781 231.707031 99.164062 C 233.105469 96.742188 234.128906 94.171875 234.78125 91.453125 C 234.890625 90.996094 235.070312 90.46875 234.523438 90.109375 C 233.941406 90.472656 233.875 91.121094 233.648438 91.675781 C 232.65625 94.046875 231.6875 96.410156 230.328125 98.625 C 228.328125 101.890625 225.816406 104.746094 223.507812 107.761719 C 221.636719 110.210938 219.738281 112.632812 217.808594 115.035156 C 215.679688 117.691406 214.136719 120.714844 212.355469 123.59375 C 211.550781 124.910156 210.839844 126.277344 210.226562 127.695312 C 207.523438 133.804688 204.875 139.929688 202.914062 146.328125 C 202.824219 146.617188 202.84375 147.167969 202.191406 147.011719 C 201.933594 146.425781 201.988281 145.824219 202.167969 145.21875 C 202.691406 143.445312 203.230469 141.675781 203.738281 139.894531 C 204.667969 136.621094 206.097656 133.542969 207.324219 130.371094 C 207.769531 129.222656 208.136719 128.027344 208.722656 126.957031 C 210.59375 123.53125 212.257812 119.984375 214.53125 116.792969 C 216.675781 113.78125 218.671875 110.640625 221.066406 107.84375 C 223.410156 105.09375 225.601562 102.261719 227.53125 99.214844 C 229.128906 96.695312 230.621094 94.117188 231.683594 91.316406 C 231.828125 90.925781 231.871094 90.535156 231.480469 90.242188 C 231.335938 90.378906 231.203125 90.53125 231.082031 90.691406 C 229.078125 93.804688 227.078125 96.914062 225.082031 100.027344 C 224.386719 101.117188 223.867188 102.375 222.496094 102.835938 C 222.410156 102.316406 222.582031 101.878906 222.863281 101.449219 C 223.488281 100.503906 224.109375 99.558594 224.699219 98.59375 C 226.417969 95.785156 228.015625 92.917969 229.097656 89.785156 C 230.445312 85.886719 231.15625 81.824219 232.21875 77.855469 C 232.53125 76.679688 232.488281 75.429688 232.242188 74.125 C 231.304688 74.988281 231.320312 74.992188 231.195312 75.59375 C 230.347656 79.601562 229.542969 83.589844 227.375 87.207031 C 225.84375 89.769531 224.273438 92.265625 222.523438 94.691406 C 218.972656 99.628906 214.738281 103.964844 210.855469 108.601562 C 208.804688 111.050781 206.824219 113.515625 205.046875 116.167969 C 203.503906 118.476562 202.046875 120.835938 200.699219 123.257812 C 200.507812 123.597656 200.441406 124.191406 199.8125 124.175781 C 199.628906 123.535156 199.683594 122.917969 199.984375 122.324219 C 201.3125 119.429688 202.441406 116.4375 204.464844 113.90625 C 206.265625 111.664062 207.941406 109.324219 209.683594 107.039062 C 209.9375 106.714844 210.21875 106.414062 210.523438 106.140625 C 214.484375 102.542969 217.910156 98.460938 221.242188 94.285156 C 223.921875 90.945312 225.6875 87.171875 226.539062 82.96875 C 226.597656 82.664062 226.660156 82.375 226.390625 82.132812 C 225.511719 82.339844 225.433594 83.140625 225.226562 83.800781 C 224.402344 86.484375 223.105469 88.90625 221.480469 91.191406 C 218.617188 95.21875 215.449219 98.988281 211.976562 102.503906 C 209.726562 104.78125 207.738281 107.246094 205.769531 109.75 C 204.433594 111.445312 203.128906 113.167969 201.777344 114.851562 C 201.59375 115.078125 201.585938 115.636719 201.050781 115.46875 C 200.828125 114.765625 201.148438 114.199219 201.429688 113.671875 C 202.550781 111.589844 203.628906 109.472656 204.898438 107.488281 C 206.0625 105.671875 207.308594 103.878906 208.769531 102.3125 C 213.820312 96.886719 218.507812 91.175781 222.605469 84.996094 C 223.417969 83.800781 224.085938 82.535156 224.617188 81.191406 C 225.492188 78.890625 226.191406 76.523438 227.273438 74.300781 C 227.5 73.835938 227.550781 73.304688 227.144531 72.859375 C 226.691406 72.898438 226.402344 73.171875 226.238281 73.5625 C 225.832031 74.503906 225.4375 75.449219 225.054688 76.398438 C 223.898438 79.25 222.828125 82.144531 220.976562 84.648438 C 218.714844 87.703125 216.78125 90.984375 214.085938 93.726562 C 212.152344 95.699219 210.59375 98.03125 208.789062 100.144531 C 204.839844 104.78125 201.304688 109.675781 199.140625 115.441406 C 199.046875 115.699219 198.820312 115.90625 198.503906 116.347656 C 198.214844 114.882812 198.28125 113.652344 198.71875 112.496094 C 200.328125 108.257812 202.011719 104.035156 204.855469 100.449219 C 207.410156 97.230469 210.066406 94.085938 212.839844 91.058594 C 214.296875 89.464844 215.722656 87.855469 217.082031 86.183594 C 218.636719 84.246094 219.925781 82.144531 220.949219 79.882812 C 221.761719 78.117188 222.613281 76.371094 223.386719 74.589844 C 223.957031 73.273438 224.441406 71.914062 224.921875 70.558594 C 225.011719 70.296875 224.890625 69.980469 224.503906 69.816406 C 224.324219 70.023438 224.070312 70.214844 223.945312 70.472656 C 222.628906 73.136719 221.289062 75.800781 220.042969 78.503906 C 218.339844 82.199219 215.953125 85.40625 213.1875 88.328125 C 209.503906 92.210938 206.140625 96.355469 202.824219 100.546875 C 202.644531 100.777344 202.46875 100.996094 202.152344 100.988281 C 202.210938 100.597656 202.175781 100.160156 202.367188 99.859375 C 203.726562 97.679688 205.042969 95.472656 206.710938 93.503906 C 209.363281 90.371094 212.003906 87.222656 214.585938 84.035156 C 215.425781 82.988281 216.152344 81.863281 216.761719 80.667969 C 218.683594 76.914062 220.394531 73.070312 221.679688 69.042969 C 221.722656 68.898438 221.578125 68.683594 221.53125 68.527344 C 221.179688 68.296875 220.925781 68.488281 220.804688 68.761719 C 219.871094 70.820312 219.015625 72.910156 218.039062 74.949219 C 216.375 78.382812 214.644531 81.769531 212.109375 84.667969 C 210.960938 85.980469 209.910156 87.382812 208.800781 88.726562 C 208.078125 89.597656 207.335938 90.453125 206.578125 91.289062 C 206.386719 91.5 206.101562 91.679688 205.886719 91.242188 C 206.152344 90.234375 206.796875 89.433594 207.390625 88.59375 C 209.703125 85.316406 211.992188 82.027344 214.027344 78.5625 C 214.859375 77.136719 215.667969 75.710938 216.300781 74.183594 C 217.722656 70.742188 218.585938 67.152344 219.171875 63.496094 C 219.316406 62.585938 219.269531 61.652344 219.230469 60.730469 C 219.21875 60.445312 218.886719 60.257812 218.421875 60.328125 C 217.601562 62.507812 217.796875 64.929688 217.191406 67.199219 C 216.59375 69.433594 216.195312 71.738281 214.5 74.03125 C 214.351562 69.808594 216.003906 66.160156 215.445312 62.410156 C 215.003906 62.238281 214.707031 62.375 214.582031 62.644531 C 214.230469 63.398438 214.03125 64.191406 213.992188 65.023438 C 213.832031 68.109375 213.265625 71.132812 212.699219 74.164062 C 211.972656 78.066406 210.839844 81.742188 207.925781 84.621094 C 207.773438 84.484375 207.679688 84.316406 207.648438 84.113281 C 207.613281 83.914062 207.652344 83.722656 207.753906 83.546875 C 208.710938 81.828125 209.519531 80.066406 209.675781 78.066406 C 209.691406 77.875 209.851562 77.695312 209.9375 77.507812 C 211.042969 74.820312 211.46875 71.957031 211.949219 69.132812 C 212.488281 66 212.796875 62.816406 213.054688 59.644531 C 213.21875 57.621094 213.324219 55.566406 212.996094 53.5625 C 212.164062 53.472656 211.976562 53.980469 211.960938 54.484375 C 211.902344 56.746094 211.617188 58.992188 211.511719 61.238281 C 211.382812 64.03125 210.980469 66.785156 210.507812 69.503906 C 209.429688 75.703125 207.53125 81.671875 204.65625 87.300781 C 204 88.578125 203.523438 89.949219 202.96875 91.277344 C 202.492188 92.414062 202.03125 93.558594 201.542969 94.691406 C 201.445312 94.929688 201.382812 95.273438 200.984375 95.066406 L 200.84375 94.789062 C 200.707031 93.820312 201.234375 92.996094 201.417969 92.09375 C 202.457031 86.828125 204.132812 81.773438 206.449219 76.929688 C 208.046875 73.582031 209.472656 70.179688 209.957031 66.476562 C 210.273438 64.042969 211.027344 61.648438 210.753906 59.148438 C 210.726562 58.878906 210.753906 58.554688 210.355469 58.507812 L 210.070312 58.613281 C 209.910156 58.871094 209.679688 59.144531 209.664062 59.425781 C 209.390625 62.8125 208.617188 66.09375 207.789062 69.378906 C 207.332031 71.171875 206.730469 72.914062 205.976562 74.605469 C 204.90625 77.050781 203.648438 79.425781 202.753906 81.933594 C 201.761719 84.734375 201.003906 87.628906 200.277344 90.515625 C 199.484375 93.675781 198.84375 96.871094 198.121094 100.144531 C 197.640625 99.597656 197.78125 99.058594 197.761719 98.558594 C 197.589844 94.5 198.667969 90.601562 199.441406 86.679688 C 200.097656 83.445312 201.132812 80.335938 202.546875 77.351562 C 203.242188 75.867188 203.683594 74.261719 204.179688 72.691406 C 205.1875 69.46875 206.589844 66.363281 206.824219 62.917969 C 206.941406 61.179688 207.371094 59.464844 207.558594 57.730469 C 207.816406 55.351562 207.800781 52.972656 207.5 50.597656 C 206.820312 51.894531 206.546875 52.90625 206.542969 53.890625 C 206.535156 55.875 206.054688 57.769531 205.71875 59.691406 C 205.4375 61.3125 205.046875 62.90625 204.960938 64.566406 C 204.90625 65.578125 204.625 66.605469 204.289062 67.566406 C 202.933594 71.441406 201.523438 75.304688 200.109375 79.160156 C 199.648438 80.414062 199.171875 81.652344 198.84375 82.960938 C 198.53125 84.21875 198.328125 85.578125 197.335938 86.707031 C 197.230469 86.335938 197.082031 86.0625 197.078125 85.785156 C 197.007812 83.382812 197.710938 81.105469 198.347656 78.847656 C 199.039062 76.382812 200.007812 73.988281 200.859375 71.5625 C 201.886719 68.636719 202.335938 65.585938 202.6875 62.523438 C 203.15625 58.40625 202.765625 54.285156 202.644531 50.171875 C 202.585938 48.335938 202.296875 46.503906 202.074219 44.675781 C 202.039062 44.378906 201.773438 44.183594 201.285156 44.421875 C 201.367188 48.035156 201.449219 51.710938 201.53125 55.386719 C 201.628906 58.894531 201.328125 62.371094 200.628906 65.8125 C 200.148438 68.128906 199.488281 70.371094 198.777344 72.628906 C 197.546875 76.519531 195.800781 80.277344 195.671875 84.5 C 195.636719 85.582031 195.222656 86.703125 195.226562 87.839844 C 195.226562 89.042969 194.625 90.203125 195.0625 91.453125 C 195.15625 91.722656 194.855469 92.210938 194.226562 91.851562 C 194.464844 88.714844 194.636719 85.539062 194.964844 82.386719 C 195.1875 80.242188 195.566406 78.105469 196 75.996094 C 196.710938 72.476562 197.335938 68.917969 198.351562 65.480469 C 199.125 62.855469 199.09375 60.207031 199.277344 57.570312 C 199.460938 54.90625 199.214844 52.21875 199.199219 49.539062 C 199.191406 47.792969 199.199219 46.0625 199.535156 44.316406 C 199.902344 42.382812 199.621094 40.414062 198.796875 38.582031 C 198.730469 38.4375 198.453125 38.3125 198.277344 38.324219 C 198.160156 38.324219 197.988281 38.554688 197.945312 38.710938 C 197.914062 38.917969 197.925781 39.117188 197.988281 39.3125 C 198.492188 41.347656 198.507812 43.382812 198.042969 45.421875 C 197.921875 46.027344 197.855469 46.640625 197.851562 47.257812 C 197.773438 50.65625 197.585938 54.050781 197.789062 57.453125 C 197.917969 59.625 197.609375 61.777344 197.101562 63.886719 C 196.40625 66.78125 195.679688 69.667969 194.957031 72.554688 C 194.863281 72.851562 194.804688 73.15625 194.777344 73.464844 C 194.734375 75.839844 193.855469 78.078125 193.699219 80.441406 C 193.648438 81.21875 193.617188 82.058594 193.011719 82.9375 C 192.613281 79.882812 192.855469 77.019531 193.234375 74.179688 C 193.84375 69.59375 194.753906 65.066406 195.046875 60.421875 C 195.363281 55.707031 195.386719 50.992188 195.113281 46.273438 C 194.851562 42.1875 193.976562 38.144531 193.363281 34.082031 C 193.292969 33.621094 192.976562 33.410156 192.429688 33.382812 C 191.96875 34.378906 192.40625 35.375 192.511719 36.363281 C 192.835938 39.328125 193.257812 42.28125 193.503906 45.253906 C 193.683594 47.394531 193.640625 49.554688 193.707031 51.710938 C 193.75 53.136719 193.886719 54.554688 193.851562 55.972656 C 193.796875 57.917969 193.617188 59.871094 193.492188 61.816406 C 193.445312 62.539062 193.453125 63.265625 193.351562 63.976562 C 192.945312 66.824219 192.507812 69.664062 192.078125 72.507812 C 191.988281 73.121094 191.878906 73.730469 191.257812 74.121094 C 191.070312 72.886719 190.871094 71.675781 190.707031 70.460938 C 190.652344 70.15625 190.679688 69.859375 190.78125 69.566406 C 191.296875 68.378906 191.152344 67.132812 191.152344 65.90625 C 191.152344 64.050781 191.011719 62.195312 191.046875 60.34375 C 191.152344 55.089844 191.066406 49.855469 190.5625 44.617188 C 190.136719 40.207031 189.238281 35.898438 188.320312 31.585938 C 188.242188 31.222656 187.921875 30.890625 187.652344 30.597656 C 187.566406 30.503906 187.285156 30.558594 187.101562 30.597656 L 186.886719 30.792969 C 186.820312 30.976562 186.792969 31.167969 186.8125 31.367188 C 187.464844 34.378906 188.082031 37.394531 188.625 40.433594 C 189.164062 43.472656 189.246094 46.570312 189.53125 49.625 C 189.875 53.367188 189.613281 57.160156 189.613281 61.628906 C 188.320312 57.734375 187.445312 54.507812 187.800781 51.027344 C 187.945312 49.621094 187.800781 48.175781 187.644531 46.753906 C 187.378906 44.40625 187.082031 42.054688 186.628906 39.734375 C 186.175781 37.414062 185.519531 35.144531 184.949219 32.851562 C 184.847656 32.441406 184.644531 32.09375 184.261719 31.886719 L 183.96875 31.824219 C 183.824219 31.941406 183.65625 32.09375 183.609375 32.261719 C 183.566406 32.46875 183.582031 32.667969 183.664062 32.863281 C 184.90625 36.078125 185.148438 39.476562 185.5 42.847656 C 185.53125 43.136719 185.433594 43.4375 185.394531 43.714844 C 184.84375 43.898438 184.542969 43.597656 184.402344 43.242188 C 183.898438 42.003906 183.433594 40.75 183 39.484375 C 182.308594 37.445312 181.601562 35.402344 180.550781 33.507812 C 180.410156 33.25 180.257812 32.957031 179.710938 33.148438 C 179.566406 34.011719 179.914062 34.832031 180.246094 35.667969 C 181.941406 39.972656 183.195312 44.429688 184.601562 48.832031 C 184.789062 49.421875 184.945312 50.027344 184.5625 50.722656 C 184.339844 50.375 184.136719 50.015625 183.953125 49.644531 C 182.238281 45.683594 180.609375 41.691406 179.363281 37.554688 C 179.101562 36.671875 178.917969 35.761719 178.351562 35.011719 C 178.277344 34.914062 177.992188 34.949219 177.8125 34.972656 L 177.632812 35.207031 C 177.632812 35.605469 177.605469 36.015625 177.691406 36.394531 C 178.460938 39.824219 179.761719 43.078125 181.0625 46.320312 C 182.167969 49.085938 183.386719 51.804688 184.546875 54.550781 C 184.742188 55.011719 185.003906 55.488281 184.636719 56.011719 C 184.507812 55.894531 184.308594 55.8125 184.25 55.671875 C 183.320312 53.285156 181.703125 51.222656 180.917969 48.757812 C 180.730469 48.179688 180.398438 47.640625 180.074219 47.121094 C 178.464844 44.570312 177.359375 41.816406 176.757812 38.859375 C 176.578125 37.953125 176.285156 37.066406 175.664062 36.339844 L 175.386719 36.257812 C 175.226562 36.332031 175.03125 36.425781 174.960938 36.566406 C 174.867188 36.757812 174.84375 36.957031 174.882812 37.164062 C 175.488281 39.875 176.191406 42.566406 177.394531 45.082031 C 178.765625 47.953125 180.230469 50.785156 181.648438 53.640625 C 182.332031 55.019531 183.019531 56.394531 183.683594 57.789062 C 185.628906 61.878906 186.617188 66.347656 188.671875 70.398438 C 189.167969 71.375 189.242188 72.453125 188.894531 73.976562 C 188.480469 73.140625 188.257812 72.691406 188.035156 72.246094 C 186.742188 69.671875 185.46875 67.082031 184.140625 64.527344 C 182.527344 61.417969 180.726562 58.410156 179.257812 55.242188 C 177.445312 51.328125 175.695312 47.367188 174.847656 43.089844 C 174.746094 42.578125 174.542969 42.089844 174.089844 41.792969 C 173.953125 41.703125 173.722656 41.734375 173.539062 41.761719 L 173.378906 42.007812 C 173.371094 42.410156 173.332031 42.824219 173.410156 43.210938 C 174.273438 47.578125 176.042969 51.640625 177.785156 55.695312 C 178.839844 58.144531 180.1875 60.472656 181.460938 62.828125 C 184.203125 67.898438 186.765625 73.050781 188.914062 78.410156 C 189.066406 78.789062 189.417969 79.269531 188.863281 79.597656 C 186.75 76.269531 184.625 73 182.578125 69.675781 C 181.339844 67.671875 180.121094 65.65625 179.304688 63.402344 C 178.679688 61.667969 177.824219 60.015625 177.136719 58.296875 C 175.226562 53.53125 173.117188 48.839844 171.859375 43.832031 C 171.644531 43.042969 171.386719 42.269531 171.082031 41.507812 C 171.027344 41.359375 170.792969 41.265625 170.628906 41.175781 C 170.425781 41.0625 170.070312 41.46875 170.109375 41.78125 C 170.472656 44.332031 171.046875 46.839844 171.972656 49.230469 C 173.597656 53.449219 175.300781 57.640625 177.027344 61.820312 C 178.753906 65.996094 180.785156 70.03125 183.242188 73.847656 C 184.914062 76.441406 186.410156 79.148438 187.933594 81.832031 C 188.898438 83.527344 189.777344 85.277344 190.679688 87.007812 C 190.808594 87.257812 190.875 87.554688 190.523438 87.765625 C 189.675781 87.28125 189.472656 86.292969 188.914062 85.578125 C 185.429688 81.109375 182.507812 76.269531 179.742188 71.328125 C 179.339844 70.609375 178.976562 69.875 178.652344 69.117188 C 177.140625 65.632812 175.308594 62.28125 174.203125 58.613281 C 173.96875 57.835938 173.511719 57.121094 173.167969 56.371094 C 172.910156 55.8125 172.667969 55.242188 172.457031 54.667969 C 171.472656 51.964844 170.507812 49.257812 169.511719 46.558594 C 169.382812 46.191406 169.136719 45.863281 168.921875 45.53125 L 168.628906 45.488281 L 168.425781 45.707031 C 168.648438 47.527344 169.078125 49.296875 169.71875 51.011719 C 170.707031 53.703125 171.84375 56.339844 172.800781 59.039062 C 173.597656 61.269531 174.328125 63.515625 175.394531 65.640625 C 176.269531 67.386719 177.03125 69.1875 177.902344 70.9375 C 179.875 74.898438 182.042969 78.765625 184.640625 82.34375 C 187.492188 86.265625 189.933594 90.429688 191.957031 94.839844 C 192.09375 95.140625 192.171875 95.410156 191.851562 95.738281 C 191.59375 95.441406 191.253906 95.1875 191.09375 94.847656 C 190.382812 93.34375 189.375 92.039062 188.425781 90.695312 C 186 87.246094 183.628906 83.757812 181.160156 80.339844 C 176.835938 74.359375 173.957031 67.65625 171.417969 60.789062 C 170.011719 57.027344 168.851562 53.191406 167.941406 49.277344 C 167.816406 48.738281 167.683594 48.03125 166.90625 47.921875 C 166.429688 47.859375 166.234375 48.710938 166.496094 49.78125 C 167.964844 55.773438 169.890625 61.613281 172.273438 67.304688 C 175.613281 75.335938 180.304688 82.578125 185.453125 89.542969 C 186.617188 91.109375 187.707031 92.726562 188.816406 94.332031 C 189.003906 94.601562 189.367188 94.96875 188.566406 95.289062 C 185.507812 91.355469 182.242188 87.519531 179.398438 83.367188 C 176.496094 79.132812 173.78125 74.765625 171.824219 69.96875 C 170.308594 66.25 168.65625 62.605469 168.105469 58.566406 C 167.953125 57.472656 167.429688 56.425781 167.070312 55.359375 C 166.984375 55.113281 166.925781 54.800781 166.371094 54.96875 C 166.542969 56.039062 166.734375 57.132812 166.882812 58.230469 C 167.035156 59.347656 167.039062 60.5 167.304688 61.589844 C 167.621094 62.886719 167.589844 64.234375 168.148438 65.492188 C 169.527344 68.59375 170.699219 71.792969 172.175781 74.84375 C 174.195312 79.027344 176.878906 82.839844 179.628906 86.546875 C 183.671875 91.992188 188.09375 97.152344 192.132812 102.613281 C 193.195312 104.011719 194.015625 105.546875 194.589844 107.210938 C 194.675781 107.472656 194.601562 107.792969 194.601562 108.398438 C 193.957031 107.488281 193.484375 106.847656 193.035156 106.191406 C 190.65625 102.703125 188.054688 99.375 185.148438 96.328125 C 182.144531 93.179688 179.597656 89.699219 177.238281 86.085938 C 175.21875 82.988281 173.421875 79.742188 171.53125 76.558594 C 171.375 76.292969 171.238281 76.015625 171.125 75.726562 C 169.214844 70.847656 166.535156 66.300781 164.890625 61.300781 C 164.601562 60.425781 164.148438 59.601562 163.703125 58.792969 C 163.496094 58.417969 163.109375 58.25 162.761719 58.730469 C 163.320312 61.347656 164.171875 63.867188 165.316406 66.289062 C 165.890625 67.492188 166.5 68.6875 166.964844 69.933594 C 169.035156 75.453125 171.820312 80.578125 175.125 85.441406 C 175.414062 85.863281 175.636719 86.332031 175.894531 86.777344 C 177.945312 90.234375 180.292969 93.476562 182.941406 96.5 C 185.226562 99.136719 187.496094 101.785156 189.75 104.457031 C 190.042969 104.800781 190.542969 105.179688 190.109375 105.882812 C 189.507812 105.703125 189.203125 105.164062 188.824219 104.75 C 186.960938 102.691406 185.203125 100.527344 183.242188 98.566406 C 180.234375 95.5625 177.742188 92.191406 175.519531 88.59375 C 174.710938 87.285156 173.710938 86.109375 173.121094 84.65625 C 172.691406 83.609375 172.1875 82.597656 171.605469 81.628906 C 169.511719 78.089844 167.207031 74.675781 165.472656 70.925781 L 165.289062 70.683594 C 165.09375 70.488281 164.933594 70.191406 164.484375 70.488281 C 164.484375 70.714844 164.390625 71.042969 164.496094 71.285156 C 165.855469 74.398438 167.121094 77.566406 169.007812 80.394531 C 170.109375 82.015625 171.054688 83.722656 171.839844 85.519531 C 173.390625 89.148438 175.730469 92.289062 178.207031 95.285156 C 181.484375 99.25 184.988281 103.019531 188.390625 106.875 C 188.863281 107.414062 189.367188 107.933594 189.78125 108.519531 C 191.257812 110.621094 192.660156 112.78125 194.179688 114.855469 C 194.980469 115.945312 195.578125 117.121094 196.125 118.339844 C 196.277344 118.675781 196.601562 118.988281 196.179688 119.367188 C 193.5625 116.1875 190.960938 113.003906 188.324219 109.847656 C 186.675781 107.875 185.019531 105.902344 183.28125 104.011719 C 178.867188 99.238281 174.789062 94.226562 171.484375 88.605469 C 171.015625 87.808594 170.460938 87.058594 169.964844 86.273438 C 166.175781 80.273438 162.484375 74.21875 160.136719 67.457031 C 160.042969 67.183594 159.691406 66.960938 159.398438 67.160156 C 159.175781 67.316406 158.882812 67.714844 158.941406 67.875 C 159.402344 69.015625 159.484375 70.257812 160.027344 71.390625 C 161.40625 74.265625 162.882812 77.078125 164.382812 79.882812 C 166.867188 84.511719 169.664062 88.949219 172.585938 93.292969 C 176.324219 98.847656 180.734375 103.882812 185.15625 108.898438 C 187.945312 112.058594 190.652344 115.296875 193.320312 118.558594 C 194.894531 120.472656 196.097656 122.632812 197.105469 124.898438 C 197.164062 125.035156 197.015625 125.265625 196.910156 125.652344 C 196.144531 124.746094 195.488281 123.871094 194.746094 123.089844 C 189.574219 117.65625 184.625 112.023438 179.898438 106.191406 C 177.242188 102.921875 174.375 99.835938 171.945312 96.371094 C 168.988281 92.152344 166.132812 87.886719 163.941406 83.203125 C 162.898438 80.96875 161.765625 78.769531 160.644531 76.566406 C 160.277344 75.84375 160.046875 75.011719 159.320312 74.527344 C 159.144531 74.414062 158.957031 74.386719 158.753906 74.441406 C 158.605469 74.503906 158.507812 74.734375 158.425781 74.90625 L 158.449219 75.210938 C 160.621094 80.328125 163.117188 85.285156 165.933594 90.074219 C 167.867188 93.339844 170.097656 96.429688 172.226562 99.582031 C 172.746094 100.34375 173.304688 101.105469 173.972656 101.726562 C 175.335938 102.996094 176.511719 104.417969 177.503906 105.996094 C 177.902344 106.59375 178.34375 107.164062 178.828125 107.699219 C 183.917969 113.625 188.941406 119.613281 194.335938 125.269531 C 195.773438 126.761719 196.953125 128.441406 197.867188 130.304688 C 198.136719 130.855469 198.355469 131.429688 198.527344 132.023438 C 198.65625 132.492188 199.027344 132.953125 198.714844 133.488281 C 198.25 133.445312 198.101562 133.058594 197.871094 132.753906 C 195.109375 129.050781 192.183594 125.476562 189.324219 121.851562 C 186.257812 117.972656 183.003906 114.257812 179.753906 110.554688 C 176.828125 107.234375 174.09375 103.757812 171.121094 100.480469 C 170.152344 99.40625 169.382812 98.199219 168.660156 96.945312 C 167.425781 94.804688 166.132812 92.699219 164.824219 90.605469 C 163.082031 87.8125 161.445312 84.964844 160.101562 81.949219 C 159.878906 81.492188 159.59375 81.078125 159.257812 80.699219 C 159.164062 80.589844 158.851562 80.558594 158.703125 80.632812 C 158.519531 80.742188 158.414062 80.902344 158.390625 81.117188 C 158.453125 82.28125 158.996094 83.289062 159.535156 84.277344 C 160.769531 86.527344 161.980469 88.792969 163.304688 90.988281 C 165.320312 94.324219 167.292969 97.707031 169.539062 100.890625 C 171.425781 103.566406 173.640625 106.019531 175.785156 108.507812 C 179.335938 112.628906 183.003906 116.652344 186.382812 120.917969 C 189.191406 124.460938 192.230469 127.820312 194.859375 131.519531 C 195.988281 133.109375 197.074219 134.730469 198.164062 136.347656 C 198.367188 136.644531 198.542969 137.050781 197.828125 137.359375 C 196.277344 134.726562 194.253906 132.40625 192.265625 130.066406 C 190.535156 128.035156 188.804688 125.996094 187.03125 124 C 185.183594 121.925781 183.253906 119.941406 181.296875 117.964844 C 179.34375 115.992188 177.527344 113.890625 175.738281 111.785156 C 173.15625 108.742188 170.046875 106.121094 168.105469 102.550781 C 167.863281 102.105469 167.472656 101.742188 167.160156 101.335938 C 164.496094 97.917969 162.257812 94.242188 160.441406 90.304688 C 160.113281 89.589844 159.871094 88.785156 159.179688 88.308594 C 158.546875 88.519531 158.363281 88.941406 158.558594 89.515625 C 159.625 92.65625 161.457031 95.402344 163.128906 98.21875 C 163.859375 99.445312 164.804688 100.546875 165.644531 101.703125 C 166.667969 103.109375 167.8125 104.417969 168.566406 106.023438 C 168.945312 106.832031 169.667969 107.5 170.296875 108.171875 C 173.171875 111.246094 175.777344 114.5625 178.800781 117.5 C 179.164062 117.867188 179.46875 118.28125 179.71875 118.734375 C 179.847656 118.964844 179.835938 119.273438 179.875 119.550781 C 179.4375 119.574219 179.171875 119.265625 178.898438 118.996094 C 176.785156 116.894531 174.683594 114.777344 172.5625 112.679688 C 167.097656 107.273438 162.601562 101.195312 159.703125 94.007812 C 159.339844 93.15625 158.929688 92.328125 158.472656 91.523438 C 158.335938 91.273438 158.089844 90.988281 157.726562 91.144531 C 157.433594 91.273438 157.277344 91.507812 157.445312 91.855469 L 157.546875 92.144531 C 158.390625 95.359375 159.964844 98.261719 161.558594 101.136719 C 162.394531 102.652344 163.152344 104.21875 164.246094 105.617188 C 166.847656 108.9375 169.644531 112.082031 172.640625 115.046875 C 175.984375 118.375 179.257812 121.78125 182.359375 125.355469 C 185.0625 128.46875 187.742188 131.59375 190.179688 134.890625 C 193.476562 139.355469 196.433594 144.078125 199.492188 148.714844 C 199.992188 149.476562 200.34375 150.351562 200.671875 151.210938 C 200.839844 151.660156 200.882812 152.195312 200.554688 152.652344 C 199.996094 152.472656 199.8125 151.96875 199.578125 151.519531 C 197.195312 146.949219 194.257812 142.726562 191.285156 138.539062 C 189.089844 135.4375 186.683594 132.488281 184.347656 129.488281 C 183.90625 128.921875 183.363281 128.441406 182.855469 127.929688 C 179.1875 124.203125 175.113281 120.878906 171.789062 116.800781 C 170.234375 114.894531 168.402344 113.203125 166.898438 111.257812 C 164.378906 108.003906 162.074219 104.59375 160.148438 100.9375 C 159.941406 100.585938 159.679688 100.285156 159.363281 100.03125 C 159.253906 99.933594 158.953125 99.949219 158.808594 100.03125 C 158.664062 100.113281 158.449219 100.382812 158.488281 100.503906 C 158.726562 101.28125 158.949219 102.074219 159.316406 102.789062 C 161.289062 106.648438 164.042969 109.996094 166.445312 113.574219 C 166.679688 113.917969 166.964844 114.210938 167.304688 114.453125 C 168.09375 114.984375 168.558594 115.796875 169.179688 116.476562 C 171.535156 119.058594 173.84375 121.695312 176.359375 124.113281 C 179.324219 126.964844 182.285156 129.808594 184.867188 133.019531 C 186.667969 135.261719 188.554688 137.449219 190.195312 139.808594 C 192.484375 143.097656 194.644531 146.480469 196.734375 149.898438 C 198.230469 152.34375 199.542969 154.90625 200.90625 157.433594 C 201.242188 158.054688 201.625 158.71875 201.183594 159.449219 C 200.734375 159.34375 200.539062 158.988281 200.328125 158.625 C 197.585938 153.910156 194.601562 149.359375 191.210938 145.085938 C 189.042969 142.34375 186.792969 139.664062 184.597656 136.941406 C 183.820312 135.980469 183.128906 134.957031 182.363281 133.992188 C 180.1875 131.269531 178.070312 128.480469 175.78125 125.851562 C 173.894531 123.683594 171.773438 121.726562 169.789062 119.628906 C 167.390625 117.089844 165.015625 114.546875 163.195312 111.507812 C 162.195312 109.851562 160.828125 108.410156 159.605469 106.890625 L 159.097656 106.863281 C 158.96875 106.96875 158.851562 107.253906 158.902344 107.390625 C 159.144531 108.0625 159.355469 108.773438 159.746094 109.355469 C 162.609375 113.625 165.488281 117.878906 169.238281 121.460938 C 173.628906 125.65625 177.710938 130.128906 181.136719 135.183594 C 182.070312 136.539062 183.101562 137.816406 184.234375 139.011719 C 185.347656 140.226562 186.382812 141.503906 187.335938 142.84375 C 187.9375 143.679688 188.589844 144.476562 189.25 145.265625 C 192.089844 148.664062 194.699219 152.222656 196.941406 156.050781 C 198.269531 158.34375 199.691406 160.601562 201.113281 162.859375 C 201.40625 163.289062 201.558594 163.765625 201.574219 164.285156 C 201.59375 165.3125 202.378906 166.328125 201.6875 167.410156 C 201.480469 167.246094 201.242188 167.148438 201.167969 166.992188 C 199.898438 164.160156 198.085938 161.648438 196.351562 159.113281 C 192.988281 154.191406 189.496094 149.359375 186.0625 144.488281 C 185.285156 143.398438 184.570312 142.265625 183.746094 141.21875 C 181.644531 138.5625 179.386719 136.027344 177.398438 133.285156 C 175.335938 130.445312 172.984375 127.878906 170.671875 125.261719 C 168.019531 122.265625 165.339844 119.285156 163.210938 115.859375 C 162.769531 115.167969 162.269531 114.511719 161.722656 113.898438 C 161.542969 113.691406 161.1875 113.636719 160.90625 113.535156 L 160.621094 113.585938 C 160.507812 113.738281 160.339844 113.9375 160.363281 114.089844 C 160.421875 114.394531 160.535156 114.671875 160.703125 114.929688 C 162.667969 118.070312 164.820312 121.078125 167.300781 123.828125 C 170.394531 127.261719 173.507812 130.675781 176.308594 134.367188 C 177.671875 136.171875 179.066406 137.953125 180.492188 139.710938 C 182.628906 142.339844 184.710938 145.011719 186.617188 147.816406 C 189.101562 151.472656 191.578125 155.140625 194.128906 158.75 C 195.257812 160.34375 196.304688 161.980469 197.355469 163.621094 C 198.5625 165.519531 199.242188 167.761719 200.964844 169.328125 C 201.472656 170.738281 202.519531 172.03125 201.917969 173.886719 C 201.585938 173.421875 201.34375 173.109375 201.136719 172.78125 C 199.609375 170.339844 198.21875 167.804688 196.542969 165.472656 C 192.894531 160.375 189.546875 155.070312 185.792969 150.039062 C 184.011719 147.652344 182.300781 145.214844 180.398438 142.917969 C 179.347656 141.65625 178.367188 140.335938 177.402344 139.007812 C 176.375 137.59375 175.367188 136.175781 174.179688 134.882812 C 173.074219 133.671875 171.980469 132.417969 171.089844 131.042969 C 170.019531 129.382812 168.753906 127.929688 167.375 126.53125 C 166.367188 125.511719 165.304688 124.480469 164.558594 123.273438 C 163.089844 120.921875 161.207031 118.84375 160.03125 116.296875 C 159.816406 115.828125 159.265625 115.617188 158.757812 116.128906 C 158.707031 117.207031 159.214844 118.074219 159.765625 118.945312 C 161.625 121.914062 163.601562 124.800781 165.964844 127.386719 C 166.757812 128.25 167.425781 128.988281 167.191406 130.28125 C 167.113281 130.71875 167.5 131.242188 167.675781 131.722656 C 168.871094 135 170.070312 138.273438 171.265625 141.550781 C 171.691406 142.707031 172.050781 143.882812 172.53125 145.027344 C 173.648438 147.675781 174.789062 150.320312 175.980469 152.9375 C 178.0625 157.523438 180.199219 162.078125 182.945312 166.324219 C 184.394531 168.566406 185.882812 170.78125 187.363281 172.996094 C 189.597656 176.339844 192.121094 179.449219 194.554688 182.625 C 196.742188 185.480469 198.84375 188.390625 200.613281 191.53125 C 201.371094 192.871094 201.984375 194.289062 202.929688 195.535156 C 203.65625 196.496094 203.578125 196.945312 202.914062 198.484375 C 202.707031 198.234375 202.476562 198.027344 202.328125 197.773438 C 200.75 194.988281 198.886719 192.417969 196.863281 189.941406 C 194.191406 186.683594 191.382812 183.535156 189.03125 180.019531 C 187.550781 177.800781 186.121094 175.546875 184.695312 173.292969 C 182.886719 170.425781 181.164062 167.507812 179.605469 164.507812 C 176.136719 157.851562 173.0625 151.011719 170.609375 143.898438 C 169.367188 140.304688 167.941406 136.777344 166.996094 133.085938 C 166.820312 132.398438 166.492188 131.75 166.1875 131.105469 C 166.121094 130.976562 165.832031 130.851562 165.667969 130.878906 C 165.34375 130.929688 165.117188 131.199219 165.207031 131.527344 C 165.878906 134.003906 166.523438 136.488281 167.289062 138.9375 C 167.933594 140.996094 168.734375 143.003906 169.449219 145.039062 C 169.859375 146.199219 170.167969 147.398438 170.640625 148.53125 C 171.953125 151.660156 173.316406 154.765625 174.675781 157.867188 C 177.527344 164.390625 181.039062 170.5625 184.820312 176.570312 C 187.0625 180.136719 189.40625 183.644531 192.132812 186.882812 C 194.316406 189.476562 196.441406 192.121094 198.511719 194.820312 C 199.546875 196.167969 200.738281 197.484375 200.859375 199.328125 C 200.679688 199.300781 200.46875 199.304688 200.375 199.195312 C 198.914062 197.472656 197.457031 195.742188 196.03125 193.980469 C 193.382812 190.707031 190.8125 187.367188 188.109375 184.144531 C 183.714844 178.894531 180.371094 172.96875 177.367188 166.894531 C 174.683594 161.472656 172.402344 155.839844 170.40625 150.105469 C 169.632812 147.875 168.796875 145.652344 167.835938 143.492188 C 165.875 139.082031 164.175781 134.5625 162.496094 130.039062 C 161.890625 128.402344 161.300781 126.753906 160.675781 125.121094 C 160.628906 124.96875 160.542969 124.84375 160.417969 124.746094 C 160.289062 124.652344 160.148438 124.601562 159.988281 124.601562 C 159.6875 124.601562 159.339844 125.121094 159.460938 125.53125 C 159.722656 126.523438 159.960938 127.527344 160.324219 128.480469 C 162.179688 133.382812 164.0625 138.277344 165.964844 143.160156 C 166.785156 145.269531 167.734375 147.328125 168.519531 149.445312 C 170.660156 155.234375 172.792969 161.023438 175.445312 166.605469 C 175.574219 166.878906 175.640625 167.1875 175.402344 167.480469 C 174.917969 167.46875 174.84375 166.996094 174.703125 166.703125 C 173.683594 164.574219 172.703125 162.421875 171.730469 160.277344 C 170.714844 158.03125 169.660156 155.796875 168.730469 153.507812 C 167.265625 149.898438 165.28125 146.496094 164.375 142.660156 C 164.328125 142.449219 164.226562 142.277344 164.066406 142.140625 C 163.898438 142.027344 163.714844 141.988281 163.511719 142.023438 C 163.335938 142.066406 163.097656 142.21875 163.058594 142.367188 C 162.996094 142.660156 162.996094 142.953125 163.058594 143.242188 C 163.574219 146.007812 164.910156 148.476562 166.015625 151.007812 C 169.050781 157.980469 172.261719 164.882812 175.402344 171.8125 C 175.53125 172.101562 175.53125 172.398438 175.046875 172.890625 C 173.8125 170.324219 172.308594 168.011719 171.207031 165.476562 C 170.222656 163.210938 169.222656 160.960938 167.929688 158.851562 C 167.847656 158.722656 167.589844 158.671875 167.402344 158.628906 C 167.21875 158.585938 166.910156 159.128906 166.996094 159.339844 C 167.386719 160.28125 167.757812 161.226562 168.183594 162.148438 C 169.476562 164.945312 170.738281 167.761719 172.121094 170.515625 C 173.457031 173.179688 174.945312 175.765625 176.34375 178.40625 C 177.253906 180.132812 178.21875 181.804688 179.429688 183.359375 C 181.640625 186.195312 183.699219 189.152344 185.820312 192.058594 C 185.996094 192.304688 186.152344 192.578125 185.746094 193.007812 C 183.347656 190.671875 181.078125 188.21875 179.148438 185.484375 C 177.136719 182.632812 175.171875 179.730469 173.527344 176.632812 C 172.128906 174.003906 170.679688 171.394531 169.328125 168.742188 C 168.070312 166.277344 166.613281 163.90625 165.695312 161.265625 C 165.367188 160.308594 164.761719 159.441406 164.230469 158.5625 C 164.089844 158.328125 163.746094 158.167969 163.46875 158.410156 C 163.335938 158.527344 163.199219 158.8125 163.25 158.953125 C 163.796875 160.390625 164.308594 161.847656 164.972656 163.230469 C 166.800781 167.03125 168.636719 170.832031 170.589844 174.570312 C 172.160156 177.574219 173.925781 180.46875 175.789062 183.308594 C 177.601562 186.070312 179.492188 188.738281 181.714844 191.1875 C 182.75 192.324219 183.722656 193.523438 184.789062 194.628906 C 185.429688 195.296875 186.097656 195.964844 186.589844 196.734375 C 188.59375 199.855469 191.140625 202.570312 193.085938 205.742188 C 195.125 209.066406 197.460938 212.214844 199.585938 215.492188 C 200.535156 216.957031 201.316406 218.53125 202.128906 220.078125 C 202.367188 220.535156 202.515625 221.019531 202.570312 221.53125 C 202.628906 222.042969 202.476562 222.539062 201.660156 222.601562 C 200.847656 220.410156 199.421875 218.511719 198.265625 216.449219 C 196.214844 212.769531 193.964844 209.214844 191.515625 205.789062 C 189.964844 203.617188 188.296875 201.53125 186.730469 199.378906 C 184.792969 196.707031 182.605469 194.261719 180.546875 191.707031 C 175.832031 185.847656 171.429688 179.796875 168.140625 173.003906 C 167.648438 171.988281 167.296875 170.910156 166.878906 169.859375 C 166.609375 169.175781 166.269531 168.539062 165.585938 168.191406 C 165.394531 168.125 165.214844 168.144531 165.046875 168.25 C 164.898438 168.351562 164.710938 168.609375 164.746094 168.742188 C 165.363281 171.035156 166.355469 173.1875 167.425781 175.285156 C 171.097656 182.472656 175.882812 188.914062 180.964844 195.136719 C 184.609375 199.597656 188.207031 204.09375 191.359375 208.925781 C 191.53125 209.183594 191.640625 209.464844 191.3125 209.703125 C 188.855469 207.503906 186.820312 204.917969 184.652344 202.457031 C 181.6875 199.085938 178.164062 196.453125 174.230469 194.386719 C 172.316406 193.378906 170.5 192.253906 168.6875 191.085938 C 167.066406 190.050781 165.507812 188.828125 163.703125 188.308594 C 163.277344 188.519531 163.101562 188.847656 163.273438 189.097656 C 163.554688 189.523438 163.90625 189.882812 164.328125 190.175781 C 165.527344 190.96875 166.765625 191.699219 167.992188 192.449219 C 169.574219 193.414062 171.097656 194.492188 172.75 195.3125 C 176.75 197.3125 180.207031 200.027344 183.324219 203.179688 C 185.492188 205.371094 187.492188 207.726562 189.535156 210.03125 C 189.839844 210.375 190.324219 210.695312 190.148438 211.328125 C 189.988281 211.257812 189.8125 211.226562 189.703125 211.125 C 189.167969 210.640625 188.644531 210.148438 188.136719 209.644531 C 183.890625 205.441406 179.605469 201.289062 174.40625 198.246094 C 172.1875 196.949219 170.007812 195.5625 167.699219 194.457031 C 164.460938 192.914062 161.148438 191.5 157.796875 190.210938 C 153.269531 188.46875 149.058594 186.136719 144.839844 183.804688 C 141.632812 182.03125 139.179688 179.394531 136.761719 176.710938 C 134.265625 173.933594 132.027344 171.015625 130.921875 167.367188 C 130.78125 166.898438 130.40625 166.496094 130.089844 166.105469 C 130.015625 166.015625 129.726562 166.074219 129.550781 166.105469 L 129.355469 166.332031 C 129.320312 166.628906 129.238281 166.953125 129.324219 167.21875 C 130.175781 169.875 131.285156 172.398438 132.914062 174.695312 C 134.597656 177.058594 136.582031 179.136719 138.589844 181.199219 C 140.328125 182.988281 142.285156 184.484375 144.464844 185.6875 C 147.785156 187.527344 151.125 189.351562 154.644531 190.804688 C 156.539062 191.582031 158.40625 192.4375 160.296875 193.230469 C 161.808594 193.867188 163.355469 194.421875 164.855469 195.089844 C 166.632812 195.886719 168.496094 196.585938 170.113281 197.644531 C 174.738281 200.679688 179.519531 203.5 183.453125 207.5 C 186.261719 210.363281 189.199219 213.101562 191.785156 216.1875 C 191.976562 216.417969 192.207031 216.652344 191.839844 217.046875 C 191.113281 216.363281 190.355469 215.703125 189.65625 214.984375 C 186.488281 211.75 183.066406 208.804688 179.398438 206.152344 C 175.269531 203.136719 170.699219 201.132812 165.6875 200.136719 C 163.144531 199.621094 160.792969 198.636719 158.390625 197.757812 C 157.417969 197.390625 156.5625 196.835938 155.828125 196.097656 C 155.246094 195.53125 154.535156 195.097656 153.867188 194.617188 C 153.617188 194.441406 153.101562 194.605469 153.078125 194.851562 C 153.0625 195.042969 153.011719 195.296875 153.109375 195.421875 C 154.492188 197.269531 156.28125 198.578125 158.410156 199.460938 C 161.296875 200.636719 164.265625 201.550781 167.3125 202.207031 C 167.84375 204.617188 169.507812 206.070312 171.410156 207.382812 C 173.855469 209.078125 176.222656 210.898438 178.644531 212.632812 C 181.152344 214.421875 183.742188 216.105469 186.195312 217.960938 C 190.382812 221.140625 194.222656 224.695312 197.710938 228.628906 C 199.234375 230.339844 200.507812 232.148438 201.464844 234.242188 C 202.046875 235.527344 202.125 236.730469 201.867188 238.066406 C 201.664062 237.992188 201.519531 237.984375 201.480469 237.917969 C 201.230469 237.476562 200.925781 237.046875 200.796875 236.570312 C 200.429688 235.164062 199.863281 233.84375 199.101562 232.609375 C 195.933594 227.582031 191.964844 223.300781 186.882812 220.210938 C 183.542969 218.179688 180.398438 215.859375 177.097656 213.777344 C 175.179688 212.566406 173.332031 211.277344 171.675781 209.71875 C 171.296875 209.363281 170.847656 209.085938 170.28125 209.546875 C 170.324219 210.570312 171.066406 211.125 171.773438 211.695312 C 175.371094 214.609375 179.222656 217.167969 183.046875 219.757812 C 184.152344 220.507812 185.375 221.097656 186.429688 221.902344 C 188.550781 223.519531 190.875 224.90625 192.628906 226.960938 C 194.03125 228.601562 195.304688 230.351562 196.683594 232.015625 C 198.09375 233.71875 198.863281 235.722656 199.511719 237.785156 C 199.589844 238.046875 199.464844 238.367188 199.417969 238.804688 C 199.222656 238.503906 199.042969 238.195312 198.878906 237.875 C 197.300781 234.257812 195.074219 231.089844 192.386719 228.210938 C 190.835938 226.542969 189.023438 225.199219 187.179688 223.914062 C 183.21875 221.15625 179.242188 218.421875 175.25 215.707031 C 174.820312 215.414062 174.304688 215.316406 173.746094 215.769531 C 174.496094 216.753906 175.441406 217.546875 176.410156 218.269531 C 179.292969 220.414062 182.191406 222.546875 185.160156 224.574219 C 187.457031 226.132812 189.605469 227.875 191.601562 229.804688 C 193.238281 231.390625 194.589844 233.191406 195.65625 235.210938 C 195.84375 235.5625 196.03125 235.949219 195.457031 236.464844 C 195.003906 235.925781 194.582031 235.332031 194.0625 234.839844 C 191.542969 232.425781 189.21875 229.800781 186.402344 227.707031 C 184.996094 226.675781 183.648438 225.574219 182.359375 224.398438 C 181.445312 223.558594 180.515625 222.734375 179.421875 222.167969 C 176.472656 220.640625 174.113281 218.304688 171.441406 216.398438 C 171.023438 216.09375 170.648438 215.742188 170.308594 215.351562 C 168.425781 213.195312 166.132812 211.371094 164.878906 208.695312 L 164.636719 208.515625 C 164.460938 208.476562 164.222656 208.402344 164.105469 208.480469 C 163.960938 208.582031 163.808594 208.855469 163.847656 209 C 164.269531 210.519531 165.027344 211.839844 166.128906 212.964844 C 170.015625 216.933594 173.996094 220.785156 178.738281 223.769531 C 180.46875 224.859375 182.070312 226.171875 183.660156 227.46875 C 185.484375 228.957031 187.152344 230.636719 189.023438 232.058594 C 191.253906 233.746094 193.007812 235.882812 194.894531 237.894531 C 195.117188 238.132812 195.160156 238.542969 195.261719 238.894531 C 195.105469 238.859375 194.964844 238.792969 194.839844 238.699219 C 192.335938 236.257812 189.855469 233.808594 187.128906 231.605469 C 185.601562 230.371094 183.972656 229.316406 182.414062 228.152344 C 178.136719 224.941406 173.640625 222.074219 168.921875 219.558594 C 166.109375 218.0625 163.335938 216.472656 160.859375 214.476562 C 156.847656 211.242188 153.160156 207.679688 150.863281 202.917969 C 150.015625 201.160156 149.109375 199.425781 148.199219 197.699219 C 147.96875 197.261719 147.8125 196.714844 147.269531 196.546875 C 147.140625 196.507812 146.824219 196.652344 146.785156 196.773438 C 146.703125 197.042969 146.636719 197.390625 146.742188 197.632812 C 148.207031 201.039062 149.773438 204.394531 151.882812 207.460938 C 154.894531 211.851562 158.746094 215.40625 163.246094 218.175781 C 169.71875 222.15625 176.375 225.851562 182.492188 230.398438 C 187.878906 234.398438 192.980469 238.699219 196.875 244.246094 C 197.3125 244.871094 198.039062 245.445312 197.796875 246.382812 C 197.617188 246.328125 197.386719 246.320312 197.289062 246.199219 C 195.371094 243.773438 193.222656 241.582031 190.996094 239.433594 C 187.335938 235.894531 183.265625 233.027344 178.636719 230.917969 C 175.644531 229.554688 172.746094 228.011719 170.15625 225.9375 C 169.285156 225.242188 168.328125 224.660156 167.445312 224.054688 C 167.089844 224.335938 166.800781 224.574219 166.980469 224.882812 C 167.222656 225.335938 167.535156 225.726562 167.921875 226.066406 C 170.570312 228.1875 173.320312 230.148438 176.417969 231.597656 C 178.550781 232.59375 180.78125 233.414062 182.710938 234.8125 C 184.121094 235.839844 185.511719 236.898438 186.945312 237.890625 C 188.664062 239.050781 190.128906 240.46875 191.34375 242.148438 C 191.484375 242.34375 191.441406 242.484375 191.023438 242.667969 C 189.808594 241.519531 188.289062 240.683594 186.71875 239.945312 C 184.957031 239.117188 183.191406 238.300781 181.417969 237.496094 C 179.0625 236.4375 176.875 235.101562 174.855469 233.488281 C 173.417969 232.332031 172.039062 231.101562 170.628906 229.910156 C 170.265625 229.605469 169.910156 229.59375 169.550781 230.0625 C 171.207031 232.4375 173.386719 234.292969 175.703125 236.015625 C 178.195312 237.863281 180.984375 239.148438 183.808594 240.386719 C 187.132812 241.84375 190.230469 243.644531 192.539062 246.554688 C 192.722656 246.789062 192.9375 247.058594 192.425781 247.417969 C 189.019531 245.507812 185.453125 243.746094 181.828125 242.101562 C 176.839844 239.839844 172.199219 237.03125 168.222656 233.21875 C 165.707031 230.800781 163.140625 228.425781 161.109375 225.550781 C 160.046875 224.046875 158.902344 222.605469 157.765625 221.152344 C 157.710938 221.078125 157.363281 221.121094 157.25 221.21875 C 157.097656 221.347656 157.035156 221.304688 157.015625 221.273438 C 157.027344 221.324219 157.035156 221.378906 157.039062 221.433594 C 157.078125 221.832031 157.101562 222.269531 157.28125 222.609375 C 158.148438 224.25 159.414062 225.613281 160.484375 227.113281 C 162.585938 230.070312 165.195312 232.5625 167.839844 234.992188 C 169.421875 236.464844 171.121094 237.789062 172.9375 238.960938 C 175.535156 240.605469 178.179688 242.15625 180.984375 243.628906 C 180.660156 243.765625 180.476562 243.917969 180.304688 243.90625 C 179.792969 243.886719 179.292969 243.808594 178.800781 243.671875 C 177.335938 243.203125 175.910156 242.605469 174.425781 242.210938 C 173.332031 241.914062 172.296875 241.472656 171.324219 240.886719 C 167.300781 238.503906 163.910156 235.394531 160.976562 231.773438 C 160.394531 231.054688 159.824219 230.328125 159.230469 229.617188 C 159.054688 229.40625 158.84375 229.164062 158.503906 229.332031 C 158.148438 229.738281 158.382812 230.117188 158.617188 230.4375 C 159.890625 232.179688 161.144531 233.9375 162.488281 235.625 C 164.816406 238.554688 167.882812 240.644531 170.9375 242.714844 C 171.867188 243.34375 172.941406 243.71875 174.050781 244.011719 C 176.234375 244.570312 178.398438 245.1875 180.550781 245.859375 C 182.015625 246.316406 183.460938 246.855469 184.878906 247.449219 C 186.386719 248.074219 187.425781 249.035156 188.398438 250.460938 C 188.1875 250.816406 187.855469 250.742188 187.578125 250.640625 C 184.382812 249.480469 181.070312 248.859375 177.730469 248.277344 C 175.316406 247.859375 172.878906 247.5 170.527344 246.722656 C 165.871094 245.179688 160.976562 244.25 156.882812 241.273438 C 156.753906 241.183594 156.308594 241.394531 156.121094 241.578125 C 155.871094 241.824219 155.972656 242.195312 156.222656 242.390625 C 158.007812 243.78125 159.871094 245.054688 162.050781 245.761719 C 164.289062 246.496094 166.523438 247.253906 168.785156 247.921875 C 172.113281 248.902344 175.449219 249.816406 178.933594 250.199219 C 181.894531 250.539062 184.761719 251.257812 187.535156 252.351562 C 189.25 253.003906 190.75 253.984375 192.035156 255.300781 C 191.613281 255.601562 191.363281 255.429688 191.105469 255.257812 C 189.90625 254.476562 188.707031 253.707031 187.375 253.128906 C 184.878906 252.046875 182.238281 251.65625 179.589844 251.496094 C 174.242188 251.175781 169 250.246094 163.835938 248.898438 C 160.570312 248.039062 157.253906 247.191406 154.253906 245.613281 C 148.828125 242.761719 144.183594 238.914062 140.648438 233.832031 C 139.183594 231.722656 137.761719 229.578125 136.609375 227.269531 C 136.390625 226.828125 135.996094 226.464844 135.667969 226.082031 L 135.382812 226.082031 C 135.21875 226.183594 134.992188 226.300781 134.949219 226.457031 C 134.808594 226.972656 134.957031 227.480469 135.207031 227.933594 C 135.8125 229.007812 136.410156 230.082031 137.054688 231.132812 C 138.449219 233.410156 139.835938 235.703125 141.65625 237.683594 C 142.558594 238.660156 143.589844 239.519531 144.488281 240.5 C 146.59375 242.792969 149.238281 244.390625 151.738281 246.148438 C 154.097656 247.804688 156.894531 248.65625 159.628906 249.523438 C 166.113281 251.585938 172.75 252.792969 179.546875 253.140625 C 185.085938 253.421875 189.515625 255.992188 193.691406 259.28125 C 193.886719 259.4375 194.128906 259.75 193.699219 259.996094 C 193.511719 259.972656 193.289062 260.007812 193.125 259.925781 C 188.460938 257.609375 183.570312 256.292969 178.324219 256.238281 C 174.484375 256.195312 170.820312 255.191406 167.382812 253.449219 C 166.746094 253.125 166.085938 252.847656 165.40625 252.621094 C 165.03125 252.488281 164.605469 252.480469 164.230469 252.75 C 164.042969 252.886719 163.90625 253.085938 164.070312 253.269531 C 164.339844 253.566406 164.648438 253.816406 164.996094 254.027344 C 169.699219 256.890625 174.992188 257.613281 180.3125 258.082031 C 182.679688 258.289062 185.007812 258.441406 187.214844 259.390625 C 187.585938 259.570312 187.96875 259.714844 188.363281 259.824219 C 190.816406 260.394531 192.871094 261.769531 194.929688 263.101562 C 196.210938 263.929688 197.394531 264.917969 198.210938 266.015625 C 198.441406 266.988281 197.996094 267.628906 197.832031 268.320312 C 197.683594 268.953125 197.898438 269.714844 197.386719 270.238281 C 197.171875 270.171875 197.054688 270.167969 196.984375 270.109375 C 196.667969 269.851562 196.375 269.566406 196.105469 269.257812 C 193.8125 266.363281 190.773438 264.429688 187.570312 262.773438 C 185.664062 261.785156 183.609375 261.085938 181.609375 260.28125 C 181.535156 260.25 181.351562 260.488281 181.222656 260.601562 L 181.308594 260.890625 C 182.71875 261.722656 184.078125 262.675781 185.570312 263.332031 C 188.234375 264.511719 190.539062 266.195312 192.8125 267.964844 C 194.207031 269.050781 195.328125 270.375 196.175781 271.929688 C 196.390625 272.316406 196.691406 272.746094 196.21875 273.164062 C 193.035156 269.519531 189.34375 266.652344 184.773438 265.054688 C 182.746094 264.347656 180.679688 263.738281 178.609375 263.152344 C 177.421875 262.835938 176.214844 262.609375 174.996094 262.472656 C 172.667969 262.179688 170.308594 261.980469 168.058594 261.195312 C 166.515625 260.65625 165.019531 259.988281 163.367188 259.746094 C 162.488281 259.617188 161.675781 259.113281 160.898438 258.558594 C 159.800781 257.78125 158.882812 256.828125 157.878906 255.957031 C 157.808594 255.894531 157.523438 256.046875 157.359375 256.136719 L 157.230469 256.394531 C 157.183594 256.960938 157.527344 257.386719 157.855469 257.753906 C 159.605469 259.710938 161.714844 261.125 164.269531 261.800781 C 165.0625 262.011719 165.871094 262.15625 166.652344 262.402344 C 168.8125 263.074219 170.992188 263.613281 173.257812 263.804688 C 174.582031 263.914062 175.9375 264.050781 177.191406 264.460938 C 178.871094 265.003906 180.6875 265.179688 182.210938 266.1875 L 182.078125 266.199219 C 181.789062 266.238281 181.445312 266.15625 181.273438 266.503906 C 181.203125 266.640625 181.179688 266.785156 181.210938 266.941406 C 181.246094 267.09375 181.324219 267.21875 181.445312 267.316406 C 183.476562 269.078125 185.6875 270.570312 188.074219 271.804688 C 190.265625 272.972656 192.253906 274.421875 194.039062 276.148438 C 194.96875 277.027344 195.558594 278.042969 195.203125 279.628906 C 193.664062 277.96875 192.167969 276.578125 190.492188 275.421875 C 188.210938 273.847656 185.835938 272.410156 183.59375 270.785156 C 180.648438 268.648438 177.371094 267.234375 173.976562 266.046875 C 172.929688 265.683594 171.839844 265.324219 170.726562 265.804688 C 170.726562 266.328125 170.921875 266.679688 171.332031 266.839844 C 171.804688 267.035156 172.292969 267.183594 172.78125 267.332031 C 175.726562 268.234375 178.664062 269.148438 181.261719 270.882812 C 183.652344 272.480469 186.082031 274.03125 188.402344 275.722656 C 190.726562 277.417969 193.027344 279.144531 194.765625 281.589844 C 194.703125 282.367188 194.667969 283.1875 194.5625 284 C 193.886719 289.210938 192.695312 294.328125 191.28125 299.363281 C 189.890625 304.3125 188.84375 309.347656 187.335938 314.261719 C 187.261719 314.5625 187.21875 314.867188 187.207031 315.175781 C 187.144531 315.839844 187.734375 316.246094 188.425781 316.121094 C 189.664062 315.902344 190.472656 315.214844 190.851562 314.035156 C 191.035156 313.453125 191.023438 312.777344 191.300781 312.253906 C 192.84375 309.394531 193.324219 306.214844 193.988281 303.109375 C 195.210938 297.382812 196.21875 291.609375 197.375 285.863281 C 198.054688 282.46875 198.09375 282.449219 201.304688 281.132812 C 204.34375 279.886719 207.425781 278.863281 210.722656 278.40625 C 213.179688 278.0625 215.636719 278.15625 218.082031 277.914062 C 220.222656 277.699219 222.425781 277.714844 224.488281 277.1875 C 229.761719 275.839844 234.476562 273.417969 237.96875 269.042969 C 238.148438 268.820312 238.320312 268.554688 238.117188 268.246094 C 237.847656 268.0625 237.542969 267.941406 237.269531 268.164062 C 236.628906 268.671875 236.015625 269.214844 235.433594 269.789062 C 232.21875 273.089844 228.179688 274.898438 223.792969 275.691406 C 219.875 276.398438 215.851562 276.59375 211.832031 276.46875 C 213.046875 275.980469 214.238281 275.519531 215.566406 275.414062 C 217.195312 275.285156 218.847656 275.109375 220.433594 274.726562 C 222.117188 274.324219 223.875 273.886719 225.371094 273.054688 C 228.964844 271.058594 232.507812 268.933594 235.125 265.621094 C 235.699219 264.898438 236.382812 264.261719 236.992188 263.566406 C 237.226562 263.308594 237.214844 262.996094 236.910156 262.773438 C 236.785156 262.679688 236.644531 262.636719 236.484375 262.652344 C 236.328125 262.667969 236.195312 262.734375 236.089844 262.851562 C 235.207031 263.710938 234.296875 264.554688 233.480469 265.480469 C 230.691406 268.65625 226.992188 270.46875 223.339844 272.339844 C 222.777344 272.609375 222.195312 272.796875 221.582031 272.90625 C 218.566406 273.511719 215.535156 273.996094 212.476562 274.320312 C 212.195312 274.347656 211.898438 274.199219 211.613281 274.136719 C 211.707031 273.617188 212.097656 273.464844 212.457031 273.308594 C 214.535156 272.410156 216.660156 271.605469 218.90625 271.300781 C 222.328125 270.839844 225.386719 269.410156 228.445312 267.945312 C 228.683594 267.828125 228.832031 267.507812 229.035156 267.265625 C 228.789062 267.175781 228.578125 267.015625 228.4375 267.0625 C 227.464844 267.386719 226.453125 267.496094 225.476562 267.855469 C 223.460938 268.601562 221.398438 269.402344 219.292969 269.671875 C 215.859375 270.117188 212.738281 271.261719 209.738281 272.882812 C 209.015625 273.269531 208.277344 273.640625 207.539062 273.992188 C 207.28125 274.125 206.976562 274.175781 206.671875 273.710938 C 207.964844 272.894531 209.238281 272.039062 210.554688 271.261719 C 213.226562 269.679688 216.167969 268.753906 219.113281 267.839844 C 222.546875 266.78125 225.921875 265.5625 229.070312 263.773438 C 231.742188 262.253906 234.503906 260.855469 237.066406 259.175781 C 239.984375 257.261719 242.820312 255.195312 245.164062 252.5625 C 245.476562 252.210938 245.40625 251.875 244.839844 251.640625 Z M 210.703125 250.234375 C 210.664062 250.5 210.667969 250.804688 210.519531 250.96875 C 209.734375 251.855469 208.894531 252.695312 207.75 253.878906 C 208.625 251.988281 208.859375 251.703125 210.703125 250.222656 Z M 207.039062 219.875 C 207.136719 221.148438 206.101562 221.78125 205.589844 222.707031 C 205.8125 220.917969 205.808594 220.894531 207.039062 219.882812 Z M 199.261719 105.523438 C 199.707031 104.148438 200.347656 102.875 201.1875 101.703125 C 201.394531 101.40625 201.640625 101.054688 202.082031 101.054688 C 201.695312 103.199219 200.414062 104.925781 199.414062 106.828125 C 198.835938 106.398438 199.136719 105.929688 199.261719 105.523438 Z M 187.046875 61.832031 C 186.410156 61.003906 186.160156 60.015625 185.816406 59.070312 C 185.542969 58.316406 185.585938 57.765625 185.90625 57.824219 C 186.515625 57.933594 186.648438 58.417969 186.753906 58.929688 C 186.953125 59.882812 187.628906 60.785156 187.046875 61.832031 Z M 191.769531 108.660156 C 191.6875 108.550781 191.78125 108.300781 191.796875 108.117188 C 193.261719 109.085938 193.441406 109.339844 194.699219 112.390625 C 193.132812 111.117188 192.605469 109.769531 191.769531 108.660156 Z M 196.683594 91.367188 C 196.683594 90.460938 196.671875 89.558594 196.691406 88.65625 C 196.699219 88.359375 196.796875 88.066406 196.859375 87.734375 L 197.058594 87.972656 C 197.066406 89.082031 197.066406 90.1875 197.066406 91.292969 Z M 217.601562 108.976562 C 217.667969 107.960938 218.476562 107.453125 219.316406 106.457031 C 218.832031 107.910156 218.824219 107.945312 217.597656 108.976562 Z M 220.152344 105.933594 C 220.914062 103.914062 220.972656 103.828125 222.457031 102.9375 C 222.378906 104.367188 221.230469 104.949219 220.148438 105.933594 Z M 199.769531 146.203125 C 199.40625 145.683594 199.101562 145.277344 198.820312 144.851562 C 196.539062 141.445312 194.304688 138.007812 191.980469 134.636719 C 189.351562 130.832031 186.289062 127.375 183.230469 123.921875 C 182.03125 122.566406 180.789062 121.242188 179.949219 119.609375 C 180.492188 119.542969 180.875 119.859375 181.210938 120.214844 C 183.105469 122.21875 185.050781 124.179688 186.851562 126.269531 C 190.394531 130.382812 193.941406 134.507812 197.046875 138.96875 C 198.210938 140.636719 199.382812 142.339844 199.914062 144.367188 C 200.046875 144.871094 200.195312 145.359375 199.769531 146.203125 Z M 201.265625 131.914062 C 200.988281 131.8125 200.707031 131.792969 200.65625 131.671875 C 200.230469 130.707031 200.179688 129.703125 200.414062 128.671875 C 201.054688 125.832031 202.289062 123.242188 203.789062 120.78125 C 204.855469 119.03125 206.050781 117.355469 207.1875 115.644531 C 209.128906 112.730469 211.542969 110.199219 213.785156 107.527344 C 215.433594 105.570312 217.242188 103.742188 218.933594 101.816406 C 220.355469 100.199219 221.8125 98.609375 222.949219 96.757812 C 223.207031 96.332031 223.574219 95.964844 223.882812 95.582031 C 224.28125 95.847656 224.289062 96.144531 224.117188 96.40625 C 221.417969 100.519531 218.628906 104.554688 215.46875 108.351562 C 212.515625 111.910156 209.769531 115.628906 207.230469 119.503906 C 204.703125 123.34375 202.550781 127.4375 201.265625 131.914062 Z M 201.738281 140.324219 C 201.398438 139.730469 201.5625 139.09375 201.65625 138.507812 C 201.980469 136.484375 202.296875 134.453125 202.789062 132.46875 C 203.132812 131.085938 203.695312 129.746094 204.269531 128.429688 C 206.628906 123.027344 209.824219 118.144531 213.511719 113.566406 C 214.027344 112.925781 214.492188 112.246094 215.003906 111.609375 C 215.742188 110.6875 216.320312 109.601562 217.511719 109.15625 C 217.523438 109.539062 217.417969 109.882812 217.195312 110.195312 C 215.277344 112.980469 213.371094 115.777344 211.480469 118.582031 C 209.53125 121.484375 208.105469 124.675781 206.453125 127.75 C 205.390625 131.933594 203.109375 135.679688 202.035156 139.863281 C 201.992188 140.035156 201.839844 140.167969 201.738281 140.324219 Z M 175.316406 138.957031 C 176.496094 140.5 177.78125 141.867188 178.273438 143.882812 C 178.933594 146.601562 180.609375 148.875 181.980469 151.277344 C 183.867188 154.574219 186.023438 157.699219 188.164062 160.828125 C 191.117188 165.152344 193.789062 169.648438 196.410156 174.164062 C 197.589844 176.199219 198.507812 178.386719 199.53125 180.511719 C 199.660156 180.789062 199.679688 181.097656 199.273438 181.441406 C 198.25 180.050781 197.191406 178.691406 196.214844 177.273438 C 193.769531 173.722656 191.347656 170.15625 188.949219 166.570312 C 187.523438 164.441406 186.269531 162.1875 184.769531 160.109375 C 181.433594 155.484375 179.390625 150.21875 177.199219 145.027344 C 176.519531 143.417969 175.820312 141.816406 175.148438 140.207031 C 174.996094 139.824219 174.894531 139.417969 175.316406 138.949219 Z M 200.613281 188.070312 C 199.90625 187.824219 199.691406 187.09375 199.304688 186.527344 C 196.757812 182.785156 193.890625 179.28125 191.183594 175.664062 C 188.664062 172.304688 186.09375 168.960938 184.085938 165.210938 C 182.589844 162.40625 180.753906 159.78125 179.441406 156.863281 C 178.808594 155.457031 178.214844 154.035156 177.539062 152.652344 C 174.460938 146.363281 172.125 139.777344 169.730469 133.214844 C 169.621094 132.917969 169.472656 132.644531 169.816406 132.285156 C 171.019531 133.3125 172.273438 134.296875 172.027344 136.1875 C 172.746094 138.109375 173.371094 140.078125 174.207031 141.941406 C 175.589844 145.03125 176.902344 148.144531 178.25 151.246094 C 179.636719 154.441406 180.914062 157.730469 183.265625 160.402344 C 183.59375 160.808594 183.875 161.238281 184.109375 161.699219 C 186.304688 165.667969 188.988281 169.316406 191.480469 173.09375 C 193.230469 175.75 195.113281 178.324219 196.871094 180.980469 C 198.226562 183.03125 199.488281 185.148438 200.765625 187.253906 C 200.90625 187.488281 201.011719 187.851562 200.613281 188.070312 Z M 202.632812 183.1875 C 201.265625 180.445312 200.046875 177.957031 198.789062 175.488281 C 197.902344 173.757812 197.191406 171.921875 195.800781 170.480469 C 195.460938 170.128906 195.335938 169.574219 195.105469 169.113281 C 193.027344 164.964844 190.226562 161.269531 187.703125 157.402344 C 186.1875 155.085938 184.632812 152.785156 183.265625 150.371094 C 183.121094 150.113281 182.910156 149.859375 183.28125 149.429688 C 183.871094 150.050781 184.519531 150.625 185.035156 151.300781 C 185.730469 152.195312 186.355469 153.132812 186.90625 154.117188 C 187.855469 155.835938 189 157.40625 190.167969 158.976562 C 191.878906 161.289062 193.492188 163.675781 195.082031 166.078125 C 196.78125 168.644531 198.445312 171.238281 200.050781 173.859375 C 200.847656 175.164062 201.199219 176.71875 202.300781 177.878906 C 202.558594 178.136719 202.632812 178.628906 202.679688 179.023438 C 202.839844 180.417969 202.824219 181.8125 202.632812 183.199219 Z M 203.222656 212.074219 C 202.589844 212.269531 202.460938 211.816406 202.273438 211.542969 C 200.796875 209.339844 199.402344 207.074219 197.851562 204.921875 C 196.367188 202.863281 194.703125 200.9375 193.175781 198.90625 C 192.589844 198.128906 191.753906 197.472656 191.664062 196.394531 C 192.179688 196.425781 192.519531 196.742188 192.839844 197.121094 C 194.75 199.375 196.738281 201.566406 198.347656 204.066406 C 199.503906 205.863281 200.773438 207.582031 201.941406 209.367188 C 202.484375 210.199219 203.078125 211.039062 203.222656 212.078125 Z M 202.796875 202.125 C 201.328125 201.171875 201.3125 201.148438 200.945312 199.449219 C 202.167969 199.851562 202.191406 201.054688 202.796875 202.132812 Z M 185.449219 185.136719 C 184.285156 183.453125 182.992188 181.867188 181.804688 180.195312 C 179.894531 177.496094 178.683594 174.4375 177.019531 171.621094 C 176.832031 171.304688 176.710938 170.84375 177.085938 170.425781 C 177.992188 171.011719 178.28125 172.027344 178.773438 172.890625 C 179.902344 174.835938 180.9375 176.847656 182.09375 178.78125 C 182.933594 180.191406 183.816406 181.589844 184.832031 182.871094 C 188.648438 187.691406 192.535156 192.457031 196.378906 197.25 C 197.273438 198.367188 198.125 199.515625 198.976562 200.667969 C 199.078125 200.808594 199.027344 201.058594 199.050781 201.257812 C 200.542969 201.816406 200.75 203.316406 201.785156 204.714844 C 200.042969 203.65625 199.484375 202.914062 199.015625 201.289062 C 197.761719 200.855469 197.1875 199.679688 196.480469 198.742188 C 195.488281 197.425781 194.34375 196.257812 193.324219 194.980469 C 190.703125 191.699219 187.84375 188.597656 185.449219 185.136719 Z M 191.554688 196.253906 C 190.648438 195.707031 189.871094 195.074219 189.835938 193.894531 C 190.808594 194.402344 191.433594 195.140625 191.554688 196.253906 Z M 187.308594 191.222656 C 189.121094 192.292969 189.152344 192.324219 189.722656 193.765625 C 188.324219 193.441406 188.082031 192.089844 187.308594 191.222656 Z M 189.316406 197.328125 C 189.457031 197.152344 189.414062 197.050781 189.382812 197.011719 C 189.421875 197.039062 189.464844 197.0625 189.511719 197.082031 C 190.09375 197.351562 190.5625 198.203125 190.636719 199.128906 C 190.207031 198.507812 189.367188 198.195312 189.316406 197.328125 Z M 202.40625 216.546875 C 202.1875 216.339844 201.917969 216.15625 201.769531 215.90625 C 198.667969 210.617188 194.984375 205.714844 192.019531 200.214844 C 193.851562 202.507812 195.832031 204.699219 197.480469 207.113281 C 199.316406 209.804688 200.863281 212.699219 202.511719 215.515625 C 202.648438 215.746094 202.621094 216.070312 202.664062 216.308594 C 202.535156 216.425781 202.414062 216.554688 202.40625 216.542969 Z M 195.667969 223.914062 C 195.070312 223.402344 194.53125 223.003906 194.054688 222.53125 C 190.824219 219.339844 187.054688 216.824219 183.390625 214.179688 C 178.972656 210.988281 174.542969 207.820312 170.132812 204.617188 C 169.730469 204.324219 169.4375 203.882812 169.101562 203.523438 C 169.535156 202.921875 170.082031 203.003906 170.507812 203.203125 C 172.738281 204.238281 175.015625 205.179688 177.097656 206.523438 C 179.691406 208.199219 182.21875 209.964844 184.488281 212.054688 C 188.042969 215.324219 191.679688 218.527344 194.808594 222.234375 C 195.171875 222.660156 195.800781 222.972656 195.667969 223.90625 Z M 195.046875 274.8125 C 194.167969 274.292969 193.441406 273.628906 192.675781 273.035156 C 190.992188 271.699219 189.179688 270.5625 187.246094 269.621094 C 185.871094 268.957031 184.570312 268.132812 183.257812 267.347656 C 182.855469 267.105469 182.421875 266.828125 182.410156 266.269531 C 183.558594 266.203125 184.519531 266.816406 185.515625 267.222656 C 188.964844 268.625 191.882812 270.835938 194.539062 273.40625 C 194.859375 273.691406 195.40625 273.988281 195.046875 274.804688 Z M 195.421875 239.097656 C 196.5625 239.582031 197.085938 240.636719 197.988281 241.882812 C 196.09375 240.652344 196.042969 240.625 195.421875 239.097656 Z M 200.0625 249.445312 C 198.40625 248.304688 198.378906 248.292969 197.835938 246.472656 C 199.035156 246.902344 198.980469 248.199219 200.0625 249.445312 Z M 195.859375 247.539062 C 194.546875 246.664062 194.519531 246.605469 193.730469 244.902344 C 195.34375 246.214844 195.410156 246.265625 195.859375 247.535156 Z M 198.113281 257.488281 C 196.878906 256.582031 196.316406 255.113281 195.257812 254.097656 C 194.234375 253.113281 193.285156 252.042969 192.242188 251.078125 C 191.125 250.039062 189.71875 249.347656 188.78125 248.058594 C 189.210938 247.457031 189.625 247.960938 189.96875 248.140625 C 191.234375 248.789062 192.542969 249.386719 193.695312 250.203125 C 196.09375 251.898438 197.78125 254.140625 198.375 257.09375 C 198.398438 257.160156 198.269531 257.25 198.113281 257.484375 Z M 199.933594 254.195312 C 199.6875 254.0625 199.335938 254.015625 199.21875 253.816406 C 198.125 251.972656 197.0625 250.105469 196.011719 248.230469 C 195.945312 248.109375 195.976562 247.929688 195.992188 247.761719 C 197.457031 248.855469 198.433594 250.394531 199.511719 251.820312 C 199.988281 252.457031 200.363281 253.25 199.933594 254.195312 Z M 199.933594 254.195312 "/>
</g>
</g>
</svg>
