<?xml version="1.0" encoding="UTF-8"?>
<svg xmlns="http://www.w3.org/2000/svg" xmlns:xlink="http://www.w3.org/1999/xlink" width="810pt" height="809.999993pt" viewBox="0 0 810 809.999993" version="1.2">
<defs>
<clipPath id="clip1">
  <path d="M 16.902344 0 L 809.652344 0 L 809.652344 792.75 L 16.902344 792.75 Z M 16.902344 0 "/>
</clipPath>
<filter id="alpha" filterUnits="objectBoundingBox" x="0%" y="0%" width="100%" height="100%">
  <feColorMatrix type="matrix" in="SourceGraphic" values="0 0 0 0 1 0 0 0 0 1 0 0 0 0 1 0 0 0 1 0"/>
</filter>
<mask id="mask0">
  <g filter="url(#alpha)">
<rect x="0" y="0" width="810" height="809.999993" style="fill:rgb(0%,0%,0%);fill-opacity:0.2471;stroke:none;"/>
  </g>
</mask>
<clipPath id="clip3">
  <path d="M 378 0 L 410 0 L 410 792.75 L 378 792.75 Z M 378 0 "/>
</clipPath>
<clipPath id="clip4">
  <path d="M 1 365 L 793.652344 365 L 793.652344 713 L 1 713 Z M 1 365 "/>
</clipPath>
<clipPath id="clip5">
  <path d="M 0.902344 153 L 793.652344 153 L 793.652344 399 L 0.902344 399 Z M 0.902344 153 "/>
</clipPath>
<clipPath id="clip2">
  <rect x="0" y="0" width="794" height="793"/>
</clipPath>
<g id="surface5" clip-path="url(#clip2)">
<g clip-path="url(#clip3)" clip-rule="nonzero">
<path style=" stroke:none;fill-rule:nonzero;fill:rgb(65.879822%,54.508972%,7.449341%);fill-opacity:1;" d="M 409.566406 792.75 C 402.035156 792.75 390.933594 615.570312 385.386719 396.769531 C 379.441406 177.972656 381.027344 0.394531 388.558594 0 C 387.367188 0 386.179688 0 384.988281 0 C 377.457031 0.394531 375.875 177.972656 381.820312 396.769531 C 387.765625 615.570312 398.464844 792.75 405.996094 792.75 C 407.1875 792.75 408.375 792.75 409.566406 792.75 Z M 409.566406 792.75 "/>
</g>
<path style=" stroke:none;fill-rule:nonzero;fill:rgb(65.879822%,54.508972%,7.449341%);fill-opacity:1;" d="M 451.976562 788.785156 C 414.71875 793.9375 360.8125 622.308594 331.480469 405.09375 C 302.148438 188.675781 308.886719 8.324219 345.75 3.171875 C 344.558594 3.171875 343.371094 3.566406 342.179688 3.566406 C 304.921875 8.71875 298.578125 188.675781 327.910156 405.492188 C 357.242188 622.308594 411.152344 793.9375 448.410156 789.183594 C 449.597656 789.183594 450.789062 789.183594 451.976562 788.785156 Z M 451.976562 788.785156 "/>
<path style=" stroke:none;fill-rule:nonzero;fill:rgb(65.879822%,54.508972%,7.449341%);fill-opacity:1;" d="M 495.976562 780.460938 C 431.367188 796.714844 335.839844 638.164062 282.328125 425.707031 C 228.816406 213.644531 237.539062 28.144531 301.75 11.496094 C 301.75 11.496094 301.75 11.496094 302.148438 11.496094 C 300.957031 11.890625 299.769531 12.289062 298.578125 12.289062 C 234.367188 28.933594 225.25 214.042969 279.15625 426.5 C 332.667969 638.558594 428.195312 797.109375 492.40625 781.253906 C 493.597656 780.859375 494.785156 780.460938 495.976562 780.460938 Z M 495.976562 780.460938 "/>
<path style=" stroke:none;fill-rule:nonzero;fill:rgb(65.879822%,54.508972%,7.449341%);fill-opacity:1;" d="M 542.351562 765.398438 C 455.542969 799.488281 320.777344 661.945312 241.503906 457.8125 C 162.226562 253.679688 168.171875 60.644531 254.980469 26.558594 C 254.980469 26.558594 255.375 26.558594 255.375 26.160156 C 254.582031 26.558594 253.394531 26.953125 252.203125 27.351562 C 165.398438 61.4375 159.054688 254.472656 238.726562 458.605469 C 318.003906 661.945312 451.976562 799.882812 539.179688 766.589844 C 539.972656 766.191406 541.160156 765.796875 542.351562 765.398438 Z M 542.351562 765.398438 "/>
<path style=" stroke:none;fill-rule:nonzero;fill:rgb(65.879822%,54.508972%,7.449341%);fill-opacity:1;" d="M 592.292969 741.617188 C 490.027344 799.09375 320.777344 691.277344 213.753906 500.226562 C 106.734375 309.171875 103.167969 107.417969 205.035156 49.941406 C 205.433594 49.941406 205.828125 49.546875 205.828125 49.546875 C 204.640625 50.339844 203.449219 50.734375 202.261719 51.527344 C 100.390625 109.003906 103.960938 310.363281 210.980469 501.414062 C 317.605469 691.675781 486.066406 799.882812 588.726562 743.597656 C 589.914062 742.808594 591.105469 742.015625 592.292969 741.617188 Z M 592.292969 741.617188 "/>
<path style=" stroke:none;fill-rule:nonzero;fill:rgb(65.879822%,54.508972%,7.449341%);fill-opacity:1;" d="M 645.40625 705.546875 C 537.992188 791.957031 340.199219 722.988281 203.847656 551.753906 C 67.492188 380.519531 43.710938 171.628906 151.523438 85.617188 C 151.921875 85.21875 152.316406 84.824219 152.714844 84.429688 C 151.523438 85.21875 150.335938 86.410156 149.148438 87.203125 C 41.730469 173.613281 65.113281 382.105469 201.46875 553.339844 C 337.425781 723.78125 534.027344 792.75 641.839844 708.320312 C 643.03125 707.53125 644.21875 706.339844 645.40625 705.546875 Z M 645.40625 705.546875 "/>
<path style=" stroke:none;fill-rule:nonzero;fill:rgb(65.879822%,54.508972%,7.449341%);fill-opacity:1;" d="M 700.109375 652.035156 C 600.617188 769.761719 384.988281 750.335938 218.117188 608.4375 C 51.242188 466.535156 -3.457031 256.453125 96.03125 138.730469 C 96.429688 137.9375 97.222656 137.542969 97.617188 136.75 C 96.429688 137.9375 95.636719 139.128906 94.445312 140.316406 C -5.042969 258.4375 49.65625 468.515625 216.53125 610.417969 C 382.214844 751.527344 596.652344 771.742188 696.9375 656 C 698.125 654.414062 698.917969 653.226562 700.109375 652.035156 Z M 700.109375 652.035156 "/>
<path style=" stroke:none;fill-rule:nonzero;fill:rgb(65.879822%,54.508972%,7.449341%);fill-opacity:1;" d="M 750.449219 576.328125 C 675.136719 723.78125 456.335938 762.625 261.71875 662.738281 C 67.097656 562.851562 -30.015625 362.285156 45.296875 214.4375 C 45.691406 213.644531 46.089844 212.457031 46.484375 211.664062 C 45.691406 213.25 44.898438 214.835938 44.105469 216.421875 C -31.203125 363.871094 65.90625 564.835938 260.527344 664.722656 C 453.960938 763.816406 671.570312 726.554688 748.070312 581.085938 C 748.863281 579.5 749.65625 577.914062 750.449219 576.328125 Z M 750.449219 576.328125 "/>
<path style=" stroke:none;fill-rule:nonzero;fill:rgb(65.879822%,54.508972%,7.449341%);fill-opacity:1;" d="M 785.328125 477.234375 C 750.050781 646.089844 547.898438 745.976562 333.859375 700.394531 C 119.816406 655.207031 -25.257812 481.59375 10.019531 313.136719 C 10.019531 311.945312 10.019531 311.15625 10.414062 309.964844 C 10.019531 311.945312 9.621094 313.53125 9.226562 315.515625 C -26.050781 483.972656 119.023438 657.585938 333.066406 702.773438 C 545.523438 747.960938 746.484375 649.660156 783.742188 483.179688 C 784.535156 481.199219 784.933594 479.21875 785.328125 477.234375 Z M 785.328125 477.234375 "/>
<g clip-path="url(#clip4)" clip-rule="nonzero">
<path style=" stroke:none;fill-rule:nonzero;fill:rgb(65.879822%,54.508972%,7.449341%);fill-opacity:1;" d="M 792.464844 365.0625 C 805.941406 537.882812 640.253906 691.675781 421.851562 708.320312 C 203.449219 724.96875 15.566406 598.527344 2.089844 425.308594 C 2.089844 424.121094 2.089844 422.933594 1.695312 421.742188 C 1.695312 423.726562 2.089844 425.707031 2.089844 427.292969 C 15.964844 600.507812 203.847656 727.347656 422.25 710.699219 C 638.667969 694.050781 803.957031 542.636719 792.859375 371.007812 C 792.859375 369.023438 792.464844 367.042969 792.464844 365.0625 Z M 792.464844 365.0625 "/>
</g>
<path style=" stroke:none;fill-rule:nonzero;fill:rgb(65.879822%,54.508972%,7.449341%);fill-opacity:1;" d="M 768.679688 258.039062 C 827.742188 416.988281 709.222656 607.246094 503.902344 682.953125 C 298.582031 758.660156 84.140625 691.277344 25.082031 532.332031 C 24.683594 531.539062 24.289062 530.351562 23.890625 529.558594 C 24.683594 531.140625 25.082031 532.726562 25.875 534.710938 C 84.933594 693.65625 299.371094 761.039062 504.695312 685.332031 C 708.433594 610.019531 827.34375 422.140625 770.664062 263.589844 C 769.871094 261.609375 769.472656 260.023438 768.679688 258.039062 Z M 768.679688 258.039062 "/>
<path style=" stroke:none;fill-rule:nonzero;fill:rgb(65.879822%,54.508972%,7.449341%);fill-opacity:1;" d="M 723.492188 171.234375 C 814.660156 303.226562 742.125 510.925781 561.375 634.597656 C 380.628906 758.265625 160.640625 751.527344 69.476562 619.535156 C 69.078125 618.742188 68.683594 617.949219 68.285156 617.15625 C 69.078125 618.742188 69.871094 619.929688 71.0625 621.515625 C 162.226562 753.507812 382.214844 760.246094 562.960938 636.578125 C 742.125 513.703125 815.453125 307.984375 726.269531 175.59375 C 725.476562 174.007812 724.683594 172.820312 723.492188 171.234375 Z M 723.492188 171.234375 "/>
<path style=" stroke:none;fill-rule:nonzero;fill:rgb(65.879822%,54.508972%,7.449341%);fill-opacity:1;" d="M 669.585938 108.210938 C 776.210938 208.890625 740.140625 418.96875 589.121094 577.519531 C 438.105469 736.070312 229.609375 783.238281 123.382812 682.558594 C 122.589844 682.160156 122.191406 681.765625 121.796875 681.367188 C 122.984375 682.558594 124.175781 683.351562 124.96875 684.539062 C 231.59375 785.21875 440.085938 738.050781 591.105469 579.5 C 740.933594 421.742188 777.796875 212.851562 672.757812 111.382812 C 671.570312 110.191406 670.378906 109.398438 669.585938 108.210938 Z M 669.585938 108.210938 "/>
<path style=" stroke:none;fill-rule:nonzero;fill:rgb(65.879822%,54.508972%,7.449341%);fill-opacity:1;" d="M 614.886719 65.003906 C 721.910156 135.164062 710.808594 340.484375 589.914062 522.820312 C 469.019531 705.546875 284.3125 796.316406 177.289062 726.160156 C 176.894531 725.761719 176.496094 725.761719 176.101562 725.367188 C 177.289062 726.160156 178.476562 726.953125 179.667969 727.746094 C 286.6875 797.902344 471.398438 707.132812 592.292969 524.402344 C 712.394531 342.863281 724.285156 138.335938 618.453125 67.382812 C 617.265625 66.589844 616.078125 65.796875 614.886719 65.003906 Z M 614.886719 65.003906 "/>
<path style=" stroke:none;fill-rule:nonzero;fill:rgb(65.879822%,54.508972%,7.449341%);fill-opacity:1;" d="M 563.359375 36.464844 C 659.28125 80.859375 662.054688 277.460938 569.699219 476.046875 C 477.34375 674.628906 324.34375 799.488281 228.421875 755.09375 C 228.023438 755.09375 228.023438 754.699219 227.628906 754.699219 C 228.816406 755.09375 230.007812 755.886719 231.195312 756.285156 C 327.117188 800.675781 480.121094 675.820312 572.476562 477.234375 C 664.832031 279.445312 662.054688 83.238281 566.925781 38.050781 C 565.738281 37.65625 564.546875 36.863281 563.359375 36.464844 Z M 563.359375 36.464844 "/>
<path style=" stroke:none;fill-rule:nonzero;fill:rgb(65.879822%,54.508972%,7.449341%);fill-opacity:1;" d="M 515.398438 17.835938 C 591.898438 41.621094 600.617188 230.292969 534.421875 439.183594 C 468.230469 648.074219 352.882812 797.507812 276.382812 773.722656 L 275.988281 773.722656 C 276.78125 774.121094 277.96875 774.515625 279.15625 774.914062 C 355.65625 798.695312 471.398438 649.261719 537.199219 440.371094 C 603.390625 231.878906 595.070312 43.601562 518.964844 19.027344 C 517.777344 18.628906 516.585938 18.234375 515.398438 17.835938 Z M 515.398438 17.835938 "/>
<path style=" stroke:none;fill-rule:nonzero;fill:rgb(65.879822%,54.508972%,7.449341%);fill-opacity:1;" d="M 470.210938 6.738281 C 521.34375 16.25 529.667969 198.582031 488.445312 413.417969 C 447.21875 628.253906 372.304688 794.730469 320.777344 785.21875 C 321.964844 785.613281 323.15625 785.613281 324.34375 786.011719 C 375.476562 795.523438 450.789062 629.046875 492.011719 414.210938 C 533.234375 199.375 524.910156 17.441406 473.777344 7.53125 C 472.589844 7.136719 471.398438 7.136719 470.210938 6.738281 Z M 470.210938 6.738281 "/>
<path style=" stroke:none;fill-rule:nonzero;fill:rgb(65.879822%,54.508972%,7.449341%);fill-opacity:1;" d="M 427.402344 1.1875 C 449.996094 3.171875 453.960938 181.539062 436.519531 399.546875 C 419.078125 617.949219 386.574219 793.144531 363.980469 791.5625 C 365.171875 791.5625 366.359375 791.5625 367.550781 791.957031 C 389.746094 793.542969 422.25 617.949219 440.085938 399.941406 C 457.527344 181.539062 453.5625 3.566406 430.96875 1.585938 C 429.382812 1.1875 428.195312 1.1875 427.402344 1.1875 Z M 427.402344 1.1875 "/>
<path style=" stroke:none;fill-rule:nonzero;fill:rgb(65.879822%,54.508972%,7.449341%);fill-opacity:1;" d="M 505.488281 15.0625 C 436.914062 -4.359375 357.640625 -4.359375 289.066406 15.0625 C 292.632812 13.875 296.203125 13.082031 299.371094 12.289062 C 362 -3.566406 432.160156 -3.566406 494.785156 12.289062 C 498.351562 13.082031 501.921875 13.875 505.488281 15.0625 Z M 505.488281 15.0625 "/>
<path style=" stroke:none;fill-rule:nonzero;fill:rgb(65.879822%,54.508972%,7.449341%);fill-opacity:1;" d="M 631.929688 76.898438 C 524.515625 -1.980469 332.273438 -13.082031 202.65625 52.320312 C 187.992188 59.851562 174.515625 67.78125 162.625 76.898438 C 164.207031 75.707031 165.792969 74.519531 167.378906 73.726562 C 275.988281 -3.964844 466.644531 -13.082031 593.878906 53.113281 C 605.769531 59.457031 616.871094 66.195312 627.175781 73.726562 C 628.761719 74.519531 630.347656 75.707031 631.929688 76.898438 Z M 631.929688 76.898438 "/>
<path style=" stroke:none;fill-rule:nonzero;fill:rgb(65.879822%,54.508972%,7.449341%);fill-opacity:1;" d="M 706.449219 148.640625 C 623.210938 44.789062 417.097656 1.585938 246.257812 52.320312 C 177.289062 72.535156 121.796875 106.625 88.105469 148.640625 C 89.292969 147.453125 90.085938 146.261719 91.277344 144.675781 C 175.703125 41.621094 381.421875 0 550.675781 51.527344 C 616.871094 71.742188 670.378906 104.246094 703.675781 144.675781 C 704.46875 145.867188 705.65625 147.054688 706.449219 148.640625 Z M 706.449219 148.640625 "/>
<path style=" stroke:none;fill-rule:nonzero;fill:rgb(65.879822%,54.508972%,7.449341%);fill-opacity:1;" d="M 755.996094 227.519531 C 699.316406 107.019531 492.804688 37.257812 294.617188 71.742188 C 170.949219 93.148438 74.230469 152.207031 38.953125 227.519531 C 39.351562 226.332031 40.144531 224.746094 40.539062 223.554688 C 98.808594 103.453125 305.714844 34.882812 502.714844 70.554688 C 623.609375 91.960938 718.339844 149.828125 754.015625 223.554688 C 754.410156 224.746094 755.203125 226.332031 755.996094 227.519531 Z M 755.996094 227.519531 "/>
<path style=" stroke:none;fill-rule:nonzero;fill:rgb(65.879822%,54.508972%,7.449341%);fill-opacity:1;" d="M 784.535156 311.945312 C 755.996094 181.539062 559.792969 89.976562 345.75 107.417969 C 170.949219 121.6875 33.40625 205.324219 10.019531 311.945312 C 10.414062 310.363281 10.8125 308.777344 10.8125 307.585938 C 40.9375 177.574219 237.933594 87.203125 451.582031 105.4375 C 624.003906 120.101562 759.5625 202.546875 783.742188 307.585938 C 783.742188 308.777344 784.140625 310.363281 784.535156 311.945312 Z M 784.535156 311.945312 "/>
<g clip-path="url(#clip5)" clip-rule="nonzero">
<path style=" stroke:none;fill-rule:nonzero;fill:rgb(65.879822%,54.508972%,7.449341%);fill-opacity:1;" d="M 793.652344 398.355469 C 794.445312 265.175781 617.265625 156.566406 398.464844 156.171875 C 179.667969 156.171875 1.695312 263.589844 0.902344 397.167969 C 0.902344 397.5625 0.902344 398.355469 0.902344 398.753906 C 0.902344 397.167969 0.902344 395.980469 0.902344 394.394531 C 1.695312 260.816406 179.667969 153.398438 398.464844 153.792969 C 616.472656 154.191406 792.859375 261.609375 793.652344 393.996094 C 793.652344 395.582031 793.652344 397.167969 793.652344 398.355469 Z M 793.652344 398.355469 "/>
</g>
<path style=" stroke:none;fill-rule:nonzero;fill:rgb(65.879822%,54.508972%,7.449341%);fill-opacity:1;" d="M 783.742188 485.164062 C 813.472656 355.152344 664.832031 235.445312 451.582031 217.214844 C 238.332031 198.980469 40.9375 289.355469 11.207031 419.363281 C 6.054688 441.164062 6.054688 463.363281 11.207031 485.164062 C 10.8125 483.578125 10.414062 482.386719 10.414062 480.804688 C -18.519531 350.792969 132.101562 231.085938 345.75 214.042969 C 559.792969 196.601562 755.996094 288.164062 784.535156 418.570312 C 788.894531 439.578125 788.894531 460.585938 784.535156 481.199219 C 784.140625 482.386719 783.742188 483.972656 783.742188 485.164062 Z M 783.742188 485.164062 "/>
<path style=" stroke:none;fill-rule:nonzero;fill:rgb(65.879822%,54.508972%,7.449341%);fill-opacity:1;" d="M 754.015625 569.195312 C 812.28125 449.09375 699.710938 323.441406 502.714844 288.164062 C 305.714844 252.886719 98.808594 321.0625 40.539062 441.164062 C 20.324219 483.179688 20.324219 527.574219 40.539062 569.195312 C 39.746094 568.003906 39.351562 566.417969 38.558594 565.230469 C -18.125 444.734375 96.429688 319.082031 294.21875 284.199219 C 492.40625 249.714844 699.316406 319.476562 755.996094 439.976562 C 775.417969 480.804688 775.417969 524.402344 755.996094 565.230469 C 755.203125 566.417969 754.410156 568.003906 754.015625 569.195312 Z M 754.015625 569.195312 "/>
<path style=" stroke:none;fill-rule:nonzero;fill:rgb(65.879822%,54.508972%,7.449341%);fill-opacity:1;" d="M 703.675781 648.074219 C 788.101562 545.015625 719.925781 419.761719 550.675781 368.230469 C 381.421875 316.703125 175.703125 358.324219 91.277344 461.378906 C 42.917969 520.042969 42.917969 589.410156 91.277344 648.074219 C 90.085938 646.882812 89.292969 645.695312 88.105469 644.109375 C 4.867188 540.257812 75.816406 414.609375 246.257812 363.871094 C 417.097656 313.53125 623.210938 356.738281 706.449219 460.585938 C 752.824219 518.457031 752.824219 586.238281 706.449219 644.503906 C 705.65625 645.695312 704.46875 646.882812 703.675781 648.074219 Z M 703.675781 648.074219 "/>
<path style=" stroke:none;fill-rule:nonzero;fill:rgb(65.879822%,54.508972%,7.449341%);fill-opacity:1;" d="M 627.175781 719.023438 C 735.78125 641.730469 720.71875 525.59375 593.878906 459.398438 C 467.039062 393.203125 275.988281 402.320312 167.378906 479.613281 C 70.664062 548.582031 70.664062 650.054688 167.378906 719.023438 C 165.792969 717.835938 164.207031 716.644531 162.625 715.851562 C 55.207031 636.972656 73.042969 520.042969 202.65625 454.640625 C 332.273438 389.242188 524.515625 400.339844 631.929688 479.21875 C 725.476562 547.789062 725.476562 647.28125 631.929688 715.851562 C 630.347656 717.042969 628.761719 718.230469 627.175781 719.023438 Z M 627.175781 719.023438 "/>
<path style=" stroke:none;fill-rule:nonzero;fill:rgb(65.879822%,54.508972%,7.449341%);fill-opacity:1;" d="M 495.183594 780.460938 C 624.003906 747.5625 685.046875 657.191406 631.140625 578.707031 C 577.230469 500.226562 428.589844 462.964844 299.371094 495.863281 C 170.550781 528.765625 109.507812 619.136719 163.417969 697.621094 C 189.179688 735.277344 237.933594 765.003906 299.371094 780.460938 C 295.804688 779.667969 292.238281 778.480469 289.066406 777.6875 C 161.039062 741.222656 105.546875 648.46875 165 570.382812 C 224.855469 492.296875 377.0625 458.605469 505.488281 495.074219 C 633.515625 531.539062 689.007812 624.289062 629.554688 702.375 C 604.183594 735.671875 560.1875 762.230469 505.488281 777.6875 C 501.921875 778.875 498.351562 779.667969 495.183594 780.460938 Z M 495.183594 780.460938 "/>
<path style=" stroke:none;fill-rule:nonzero;fill:rgb(65.879822%,54.508972%,7.449341%);fill-opacity:1;" d="M 593.878906 669.476562 C 593.878906 735.671875 505.882812 789.183594 397.277344 789.183594 C 288.671875 789.183594 200.675781 735.671875 200.675781 669.476562 C 200.675781 603.28125 288.671875 549.773438 397.277344 549.773438 C 505.882812 549.773438 593.878906 603.28125 593.878906 669.476562 Z M 597.050781 667.890625 C 597.050781 600.90625 507.867188 546.203125 397.277344 546.203125 C 287.085938 546.203125 197.503906 600.507812 197.503906 667.890625 C 197.503906 734.878906 286.6875 789.578125 397.277344 789.578125 C 507.46875 789.578125 597.050781 735.277344 597.050781 667.890625 Z M 597.050781 667.890625 "/>
<path style=" stroke:none;fill-rule:nonzero;fill:rgb(65.879822%,54.508972%,7.449341%);fill-opacity:1;" d="M 531.253906 692.46875 C 531.253906 737.652344 471.398438 774.121094 397.277344 774.121094 C 323.15625 774.121094 263.300781 737.257812 263.300781 692.46875 C 263.300781 647.28125 323.15625 610.8125 397.277344 610.8125 C 471.398438 610.8125 531.253906 647.28125 531.253906 692.46875 Z M 534.421875 691.277344 C 534.421875 645.296875 472.984375 607.644531 397.277344 607.644531 C 321.570312 607.644531 260.132812 644.902344 260.132812 691.277344 C 260.132812 737.652344 321.570312 774.914062 397.277344 774.914062 C 472.984375 774.914062 534.421875 737.652344 534.421875 691.277344 Z M 534.421875 691.277344 "/>
<path style=" stroke:none;fill-rule:nonzero;fill:rgb(65.879822%,54.508972%,7.449341%);fill-opacity:1;" d="M 464.265625 706.339844 C 464.265625 728.933594 434.140625 747.167969 397.277344 747.167969 C 360.019531 747.167969 330.289062 728.933594 330.289062 706.339844 C 330.289062 683.746094 360.019531 665.511719 397.277344 665.511719 C 434.535156 665.511719 464.265625 683.746094 464.265625 706.339844 Z M 467.832031 705.945312 C 467.832031 682.160156 436.121094 663.136719 397.277344 663.136719 C 358.433594 663.136719 326.722656 682.160156 326.722656 705.945312 C 326.722656 729.726562 358.433594 748.753906 397.277344 748.753906 C 436.121094 748.753906 467.832031 729.726562 467.832031 705.945312 Z M 467.832031 705.945312 "/>
</g>
<clipPath id="clip6">
  <path d="M 400 0 L 433 0 L 433 792.75 L 400 792.75 Z M 400 0 "/>
</clipPath>
<clipPath id="clip7">
  <path d="M 305 777 L 522 777 L 522 792.75 L 305 792.75 Z M 305 777 "/>
</clipPath>
<clipPath id="clip8">
  <path d="M 16.902344 393 L 809.652344 393 L 809.652344 639 L 16.902344 639 Z M 16.902344 393 "/>
</clipPath>
</defs>
<g id="surface1">
<rect x="0" y="0" width="810" height="809.999993" style="fill:rgb(100%,100%,100%);fill-opacity:1;stroke:none;"/>
<rect x="0" y="0" width="810" height="809.999993" style="fill:rgb(100%,100%,100%);fill-opacity:1;stroke:none;"/>
<rect x="0" y="0" width="810" height="809.999993" style="fill:rgb(100%,100%,100%);fill-opacity:1;stroke:none;"/>
<g clip-path="url(#clip1)" clip-rule="nonzero">
<use xlink:href="#surface5" transform="matrix(1,0,0,1,16,0.000000000000039746)" mask="url(#mask0)"/>
</g>
<g clip-path="url(#clip6)" clip-rule="nonzero">
<path style=" stroke:none;fill-rule:nonzero;fill:rgb(65.879822%,54.508972%,7.449341%);fill-opacity:1;" d="M 400.988281 0 C 408.519531 0 419.621094 177.179688 425.167969 395.980469 C 431.113281 614.777344 429.527344 792.355469 421.996094 792.75 C 423.1875 792.75 424.375 792.75 425.566406 792.75 C 433.097656 792.355469 434.683594 614.777344 428.734375 395.980469 C 422.789062 177.179688 412.089844 0 404.558594 0 C 403.367188 0 402.179688 0 400.988281 0 Z M 400.988281 0 "/>
</g>
<path style=" stroke:none;fill-rule:nonzero;fill:rgb(65.879822%,54.508972%,7.449341%);fill-opacity:1;" d="M 358.578125 3.964844 C 395.835938 -1.1875 449.742188 170.441406 479.074219 387.65625 C 508.40625 604.867188 501.667969 784.425781 464.804688 789.578125 C 465.996094 789.578125 467.183594 789.183594 468.375 789.183594 C 505.632812 784.03125 511.976562 604.074219 482.644531 387.257812 C 453.3125 170.441406 399.40625 -1.1875 362.144531 3.566406 C 360.957031 3.566406 359.765625 3.566406 358.578125 3.964844 Z M 358.578125 3.964844 "/>
<path style=" stroke:none;fill-rule:nonzero;fill:rgb(65.879822%,54.508972%,7.449341%);fill-opacity:1;" d="M 314.578125 12.289062 C 379.1875 -3.964844 474.714844 154.585938 528.226562 367.042969 C 581.738281 579.105469 573.015625 764.605469 508.804688 781.253906 C 508.804688 781.253906 508.804688 781.253906 508.40625 781.253906 C 509.597656 780.859375 510.785156 780.460938 511.976562 780.460938 C 576.1875 763.816406 585.304688 578.707031 531.398438 366.25 C 477.886719 154.191406 382.359375 -4.359375 318.148438 11.496094 C 316.957031 11.890625 315.769531 12.289062 314.578125 12.289062 Z M 314.578125 12.289062 "/>
<path style=" stroke:none;fill-rule:nonzero;fill:rgb(65.879822%,54.508972%,7.449341%);fill-opacity:1;" d="M 268.203125 27.351562 C 355.011719 -6.738281 489.777344 130.804688 569.054688 334.9375 C 648.328125 539.070312 642.382812 732.105469 555.574219 766.191406 C 555.574219 766.191406 555.179688 766.191406 555.179688 766.589844 C 555.972656 766.191406 557.160156 765.796875 558.351562 765.398438 C 645.15625 731.3125 651.5 538.277344 571.828125 334.144531 C 492.550781 130.804688 358.578125 -7.132812 271.375 26.160156 C 270.582031 26.558594 269.394531 26.953125 268.203125 27.351562 Z M 268.203125 27.351562 "/>
<path style=" stroke:none;fill-rule:nonzero;fill:rgb(65.879822%,54.508972%,7.449341%);fill-opacity:1;" d="M 218.261719 51.132812 C 320.527344 -6.34375 489.777344 101.472656 596.800781 292.523438 C 703.820312 483.578125 707.386719 685.332031 605.519531 742.808594 C 605.121094 742.808594 604.726562 743.203125 604.726562 743.203125 C 605.914062 742.410156 607.105469 742.015625 608.292969 741.222656 C 710.164062 683.746094 706.59375 482.386719 599.574219 291.335938 C 492.949219 101.074219 324.488281 -7.132812 221.828125 49.152344 C 220.640625 49.941406 219.449219 50.734375 218.261719 51.132812 Z M 218.261719 51.132812 "/>
<path style=" stroke:none;fill-rule:nonzero;fill:rgb(65.879822%,54.508972%,7.449341%);fill-opacity:1;" d="M 165.148438 87.203125 C 272.5625 0.792969 470.355469 69.761719 606.707031 240.996094 C 743.0625 412.230469 766.84375 621.121094 659.03125 707.132812 C 658.632812 707.53125 658.238281 707.925781 657.839844 708.320312 C 659.03125 707.53125 660.21875 706.339844 661.40625 705.546875 C 768.824219 619.136719 745.441406 410.644531 609.085938 239.410156 C 473.128906 68.96875 276.527344 0 168.714844 84.429688 C 167.523438 85.21875 166.335938 86.410156 165.148438 87.203125 Z M 165.148438 87.203125 "/>
<path style=" stroke:none;fill-rule:nonzero;fill:rgb(65.879822%,54.508972%,7.449341%);fill-opacity:1;" d="M 110.445312 140.714844 C 209.9375 22.988281 425.566406 42.414062 592.4375 184.3125 C 759.3125 326.214844 814.011719 536.296875 714.523438 654.019531 C 714.125 654.8125 713.332031 655.207031 712.9375 656 C 714.125 654.8125 714.917969 653.621094 716.109375 652.433594 C 815.597656 534.3125 760.898438 324.234375 594.023438 182.332031 C 428.339844 41.222656 213.902344 21.007812 113.617188 136.75 C 112.429688 138.335938 111.636719 139.523438 110.445312 140.714844 Z M 110.445312 140.714844 "/>
<path style=" stroke:none;fill-rule:nonzero;fill:rgb(65.879822%,54.508972%,7.449341%);fill-opacity:1;" d="M 60.105469 216.421875 C 135.417969 68.96875 354.21875 30.125 548.835938 130.011719 C 743.457031 229.898438 840.570312 430.464844 765.257812 578.3125 C 764.863281 579.105469 764.464844 580.292969 764.070312 581.085938 C 764.863281 579.5 765.65625 577.914062 766.449219 576.328125 C 841.757812 428.878906 744.648438 227.914062 550.027344 128.027344 C 356.597656 28.933594 138.984375 66.195312 62.484375 211.664062 C 61.691406 213.25 60.898438 214.835938 60.105469 216.421875 Z M 60.105469 216.421875 "/>
<path style=" stroke:none;fill-rule:nonzero;fill:rgb(65.879822%,54.508972%,7.449341%);fill-opacity:1;" d="M 25.226562 315.515625 C 60.503906 146.660156 262.65625 46.773438 476.699219 92.355469 C 690.738281 137.542969 835.8125 311.15625 800.535156 479.613281 C 800.535156 480.804688 800.535156 481.59375 800.140625 482.785156 C 800.535156 480.804688 800.933594 479.21875 801.328125 477.234375 C 836.605469 308.777344 691.53125 135.164062 477.488281 89.976562 C 265.035156 44.789062 64.070312 143.089844 26.8125 309.570312 C 26.019531 311.550781 25.621094 313.53125 25.226562 315.515625 Z M 25.226562 315.515625 "/>
<path style=" stroke:none;fill-rule:nonzero;fill:rgb(65.879822%,54.508972%,7.449341%);fill-opacity:1;" d="M 18.089844 427.6875 C 4.613281 254.867188 170.300781 101.074219 388.703125 84.429688 C 607.105469 67.78125 794.988281 194.222656 808.464844 367.441406 C 808.464844 368.628906 808.464844 369.816406 808.859375 371.007812 C 808.859375 369.023438 808.464844 367.042969 808.464844 365.457031 C 794.589844 192.242188 606.707031 65.402344 388.304688 82.050781 C 171.886719 98.699219 6.597656 250.113281 17.695312 421.742188 C 17.695312 423.726562 18.089844 425.707031 18.089844 427.6875 Z M 18.089844 427.6875 "/>
<path style=" stroke:none;fill-rule:nonzero;fill:rgb(65.879822%,54.508972%,7.449341%);fill-opacity:1;" d="M 41.875 534.710938 C -17.1875 375.761719 101.332031 185.503906 306.652344 109.796875 C 511.976562 34.089844 726.414062 101.472656 785.472656 260.417969 C 785.871094 261.210938 786.265625 262.398438 786.664062 263.191406 C 785.871094 261.609375 785.472656 260.023438 784.679688 258.039062 C 725.621094 99.09375 511.183594 31.710938 305.859375 107.417969 C 102.125 182.730469 -16.789062 370.609375 39.890625 529.160156 C 40.683594 531.140625 41.082031 532.726562 41.875 534.710938 Z M 41.875 534.710938 "/>
<path style=" stroke:none;fill-rule:nonzero;fill:rgb(65.879822%,54.508972%,7.449341%);fill-opacity:1;" d="M 87.0625 621.515625 C -4.105469 489.523438 68.429688 282.21875 249.179688 158.152344 C 429.925781 34.484375 649.914062 41.222656 741.078125 173.214844 C 741.476562 174.007812 741.871094 174.800781 742.269531 175.59375 C 741.476562 174.007812 740.683594 172.820312 739.492188 171.234375 C 648.328125 39.242188 428.339844 32.503906 247.59375 156.171875 C 68.429688 279.046875 -4.898438 484.765625 84.285156 617.15625 C 85.078125 618.742188 85.871094 619.929688 87.0625 621.515625 Z M 87.0625 621.515625 "/>
<path style=" stroke:none;fill-rule:nonzero;fill:rgb(65.879822%,54.508972%,7.449341%);fill-opacity:1;" d="M 140.96875 684.539062 C 34.34375 583.859375 70.414062 373.78125 221.433594 215.230469 C 372.449219 56.683594 580.945312 9.511719 687.171875 110.191406 C 687.964844 110.589844 688.363281 110.984375 688.757812 111.382812 C 687.570312 110.191406 686.378906 109.398438 685.585938 108.210938 C 578.960938 7.53125 370.46875 54.699219 219.449219 213.25 C 69.621094 371.007812 32.757812 579.898438 137.796875 681.367188 C 138.984375 682.558594 140.175781 683.351562 140.96875 684.539062 Z M 140.96875 684.539062 "/>
<path style=" stroke:none;fill-rule:nonzero;fill:rgb(65.879822%,54.508972%,7.449341%);fill-opacity:1;" d="M 195.667969 727.746094 C 88.644531 657.585938 99.746094 452.265625 220.640625 269.929688 C 341.535156 87.203125 526.246094 -3.566406 633.265625 66.589844 C 633.660156 66.988281 634.058594 66.988281 634.453125 67.382812 C 633.265625 66.589844 632.078125 65.796875 630.886719 65.003906 C 523.867188 -5.152344 339.15625 85.617188 218.261719 268.347656 C 98.160156 449.886719 86.269531 654.414062 192.101562 725.367188 C 193.289062 726.160156 194.476562 726.953125 195.667969 727.746094 Z M 195.667969 727.746094 "/>
<path style=" stroke:none;fill-rule:nonzero;fill:rgb(65.879822%,54.508972%,7.449341%);fill-opacity:1;" d="M 247.195312 756.285156 C 151.273438 711.890625 148.5 515.289062 240.855469 316.703125 C 333.210938 118.121094 486.210938 -6.738281 582.132812 37.65625 C 582.53125 37.65625 582.53125 38.050781 582.925781 38.050781 C 581.738281 37.65625 580.546875 36.863281 579.359375 36.464844 C 483.4375 -7.925781 330.433594 116.929688 238.078125 315.515625 C 145.722656 513.304688 148.5 709.511719 243.628906 754.699219 C 244.816406 755.09375 246.007812 755.886719 247.195312 756.285156 Z M 247.195312 756.285156 "/>
<path style=" stroke:none;fill-rule:nonzero;fill:rgb(65.879822%,54.508972%,7.449341%);fill-opacity:1;" d="M 295.15625 774.914062 C 218.65625 751.128906 209.9375 562.457031 276.132812 353.566406 C 342.328125 144.675781 457.671875 -4.757812 534.171875 19.027344 L 534.566406 19.027344 C 533.777344 18.628906 532.585938 18.234375 531.398438 17.835938 C 454.898438 -5.945312 339.15625 143.488281 273.355469 352.378906 C 207.164062 560.871094 215.484375 749.148438 291.589844 773.722656 C 292.78125 774.121094 293.96875 774.515625 295.15625 774.914062 Z M 295.15625 774.914062 "/>
<path style=" stroke:none;fill-rule:nonzero;fill:rgb(65.879822%,54.508972%,7.449341%);fill-opacity:1;" d="M 340.34375 786.011719 C 289.210938 776.5 280.886719 594.167969 322.109375 379.332031 C 363.335938 164.496094 438.25 -1.980469 489.777344 7.53125 C 488.589844 7.136719 487.398438 7.136719 486.210938 6.738281 C 435.078125 -2.773438 359.765625 163.703125 318.542969 378.539062 C 277.320312 593.375 285.644531 775.308594 336.777344 785.21875 C 337.964844 785.613281 339.15625 785.613281 340.34375 786.011719 Z M 340.34375 786.011719 "/>
<path style=" stroke:none;fill-rule:nonzero;fill:rgb(65.879822%,54.508972%,7.449341%);fill-opacity:1;" d="M 383.152344 791.5625 C 360.558594 789.578125 356.597656 611.210938 374.035156 393.203125 C 391.476562 174.800781 423.980469 -0.394531 446.574219 1.1875 C 445.382812 1.1875 444.195312 1.1875 443.003906 0.792969 C 420.808594 -0.792969 388.304688 174.800781 370.46875 392.808594 C 353.027344 611.210938 356.992188 789.183594 379.585938 791.164062 C 381.171875 791.5625 382.359375 791.5625 383.152344 791.5625 Z M 383.152344 791.5625 "/>
<g clip-path="url(#clip7)" clip-rule="nonzero">
<path style=" stroke:none;fill-rule:nonzero;fill:rgb(65.879822%,54.508972%,7.449341%);fill-opacity:1;" d="M 305.066406 777.6875 C 373.640625 797.109375 452.914062 797.109375 521.488281 777.6875 C 517.921875 778.875 514.351562 779.667969 511.183594 780.460938 C 448.554688 796.316406 378.394531 796.316406 315.769531 780.460938 C 312.203125 779.667969 308.632812 778.875 305.066406 777.6875 Z M 305.066406 777.6875 "/>
</g>
<path style=" stroke:none;fill-rule:nonzero;fill:rgb(65.879822%,54.508972%,7.449341%);fill-opacity:1;" d="M 178.625 715.851562 C 286.042969 794.730469 478.28125 805.832031 607.898438 740.429688 C 622.5625 732.898438 636.039062 724.96875 647.929688 715.851562 C 646.347656 717.042969 644.761719 718.230469 643.175781 719.023438 C 534.566406 796.714844 343.910156 805.832031 216.675781 739.636719 C 204.785156 733.292969 193.6875 726.554688 183.378906 719.023438 C 181.792969 718.230469 180.207031 717.042969 178.625 715.851562 Z M 178.625 715.851562 "/>
<path style=" stroke:none;fill-rule:nonzero;fill:rgb(65.879822%,54.508972%,7.449341%);fill-opacity:1;" d="M 104.105469 644.109375 C 187.34375 747.960938 393.457031 791.164062 564.296875 740.429688 C 633.265625 720.214844 688.757812 686.125 722.449219 644.109375 C 721.261719 645.296875 720.46875 646.488281 719.277344 648.074219 C 634.851562 751.128906 429.132812 792.75 259.878906 741.222656 C 193.6875 721.007812 140.175781 688.503906 106.878906 648.074219 C 106.085938 646.882812 104.898438 645.695312 104.105469 644.109375 Z M 104.105469 644.109375 "/>
<path style=" stroke:none;fill-rule:nonzero;fill:rgb(65.879822%,54.508972%,7.449341%);fill-opacity:1;" d="M 54.558594 565.230469 C 111.238281 685.730469 317.75 755.492188 515.9375 721.007812 C 639.609375 699.601562 736.324219 640.542969 771.601562 565.230469 C 771.203125 566.417969 770.410156 568.003906 770.015625 569.195312 C 711.746094 689.296875 504.839844 757.867188 307.839844 722.195312 C 186.949219 700.789062 92.214844 642.921875 56.539062 569.195312 C 56.144531 568.003906 55.351562 566.417969 54.558594 565.230469 Z M 54.558594 565.230469 "/>
<path style=" stroke:none;fill-rule:nonzero;fill:rgb(65.879822%,54.508972%,7.449341%);fill-opacity:1;" d="M 26.019531 480.804688 C 54.558594 611.210938 250.765625 702.773438 464.804688 685.332031 C 639.609375 671.0625 777.148438 587.425781 800.535156 480.804688 C 800.140625 482.386719 799.742188 483.972656 799.742188 485.164062 C 769.617188 615.175781 572.621094 705.546875 358.972656 687.3125 C 186.550781 672.648438 50.992188 590.203125 26.8125 485.164062 C 26.8125 483.972656 26.414062 482.386719 26.019531 480.804688 Z M 26.019531 480.804688 "/>
<g clip-path="url(#clip8)" clip-rule="nonzero">
<path style=" stroke:none;fill-rule:nonzero;fill:rgb(65.879822%,54.508972%,7.449341%);fill-opacity:1;" d="M 16.902344 393.996094 C 16.109375 527.179688 193.289062 635.785156 412.089844 636.183594 C 630.886719 636.578125 808.859375 529.160156 809.652344 395.582031 C 809.652344 395.1875 809.652344 394.394531 809.652344 393.996094 C 809.652344 395.582031 809.652344 396.769531 809.652344 398.355469 C 808.859375 531.933594 630.886719 639.351562 412.089844 638.957031 C 194.082031 638.558594 17.695312 531.140625 16.902344 398.355469 C 16.902344 397.167969 16.902344 395.582031 16.902344 393.996094 Z M 16.902344 393.996094 "/>
</g>
<path style=" stroke:none;fill-rule:nonzero;fill:rgb(65.879822%,54.508972%,7.449341%);fill-opacity:1;" d="M 26.8125 307.585938 C -2.917969 437.597656 145.722656 557.304688 358.972656 575.535156 C 572.222656 593.769531 769.617188 503.394531 799.347656 373.386719 C 804.5 351.585938 804.5 329.386719 799.347656 307.585938 C 799.742188 309.171875 800.140625 310.363281 800.140625 311.945312 C 829.074219 441.957031 678.847656 561.664062 464.804688 578.707031 C 250.765625 596.148438 54.558594 504.585938 26.019531 374.179688 C 21.660156 353.171875 21.660156 332.164062 26.019531 311.550781 C 26.414062 310.363281 26.8125 308.777344 26.8125 307.585938 Z M 26.8125 307.585938 "/>
<path style=" stroke:none;fill-rule:nonzero;fill:rgb(65.879822%,54.508972%,7.449341%);fill-opacity:1;" d="M 56.539062 223.554688 C -1.726562 343.65625 110.84375 469.308594 307.839844 504.585938 C 504.839844 539.863281 711.746094 471.6875 770.015625 351.585938 C 790.230469 309.570312 790.230469 265.175781 770.015625 223.554688 C 770.808594 224.746094 771.203125 226.332031 771.996094 227.519531 C 828.679688 348.015625 714.125 473.667969 516.335938 508.550781 C 318.148438 543.035156 111.238281 473.273438 54.558594 352.773438 C 35.136719 311.945312 35.136719 268.347656 54.558594 227.519531 C 55.351562 226.332031 56.144531 224.746094 56.539062 223.554688 Z M 56.539062 223.554688 "/>
<path style=" stroke:none;fill-rule:nonzero;fill:rgb(65.879822%,54.508972%,7.449341%);fill-opacity:1;" d="M 106.878906 144.675781 C 22.453125 247.734375 90.628906 372.988281 259.878906 424.519531 C 429.132812 476.046875 634.851562 434.425781 719.277344 331.371094 C 767.636719 272.707031 767.636719 203.339844 719.277344 144.675781 C 720.46875 145.867188 721.261719 147.054688 722.449219 148.640625 C 805.6875 252.492188 734.738281 378.140625 564.296875 428.878906 C 393.457031 479.21875 187.34375 436.011719 104.105469 332.164062 C 57.730469 274.292969 57.730469 206.511719 104.105469 148.246094 C 104.898438 147.054688 106.085938 145.867188 106.878906 144.675781 Z M 106.878906 144.675781 "/>
<path style=" stroke:none;fill-rule:nonzero;fill:rgb(65.879822%,54.508972%,7.449341%);fill-opacity:1;" d="M 183.378906 73.726562 C 74.773438 151.019531 89.835938 267.15625 216.675781 333.351562 C 343.515625 399.546875 534.566406 390.429688 643.175781 313.136719 C 739.890625 244.167969 739.890625 142.695312 643.175781 73.726562 C 644.761719 74.914062 646.347656 76.105469 647.929688 76.898438 C 755.347656 155.777344 737.511719 272.707031 607.898438 338.109375 C 478.28125 403.507812 286.042969 392.410156 178.625 313.53125 C 85.078125 244.960938 85.078125 145.46875 178.625 76.898438 C 180.207031 75.707031 181.792969 74.519531 183.378906 73.726562 Z M 183.378906 73.726562 "/>
<path style=" stroke:none;fill-rule:nonzero;fill:rgb(65.879822%,54.508972%,7.449341%);fill-opacity:1;" d="M 315.371094 12.289062 C 186.550781 45.1875 125.507812 135.558594 179.417969 214.042969 C 233.324219 292.523438 381.964844 329.785156 511.183594 296.886719 C 640.003906 263.984375 701.046875 173.613281 647.140625 95.128906 C 621.375 57.472656 572.621094 27.746094 511.183594 12.289062 C 514.75 13.082031 518.316406 14.269531 521.488281 15.0625 C 649.515625 51.527344 705.007812 144.28125 645.554688 222.367188 C 585.699219 300.453125 433.492188 334.144531 305.066406 297.675781 C 177.039062 261.210938 121.546875 168.460938 181 90.375 C 206.371094 57.078125 250.367188 30.519531 305.066406 15.0625 C 308.632812 13.875 312.203125 13.082031 315.371094 12.289062 Z M 315.371094 12.289062 "/>
<path style=" stroke:none;fill-rule:nonzero;fill:rgb(65.879822%,54.508972%,7.449341%);fill-opacity:1;" d="M 216.675781 123.273438 C 216.675781 57.078125 304.671875 3.566406 413.277344 3.566406 C 521.882812 3.566406 609.878906 57.078125 609.878906 123.273438 C 609.878906 189.46875 521.882812 242.976562 413.277344 242.976562 C 304.671875 242.976562 216.675781 189.46875 216.675781 123.273438 Z M 213.503906 124.859375 C 213.503906 191.84375 302.6875 246.546875 413.277344 246.546875 C 523.46875 246.546875 613.050781 192.242188 613.050781 124.859375 C 613.050781 57.871094 523.867188 3.171875 413.277344 3.171875 C 303.085938 3.171875 213.503906 57.472656 213.503906 124.859375 Z M 213.503906 124.859375 "/>
<path style=" stroke:none;fill-rule:nonzero;fill:rgb(65.879822%,54.508972%,7.449341%);fill-opacity:1;" d="M 279.300781 100.28125 C 279.300781 55.097656 339.15625 18.628906 413.277344 18.628906 C 487.398438 18.628906 547.253906 55.492188 547.253906 100.28125 C 547.253906 145.46875 487.398438 181.9375 413.277344 181.9375 C 339.15625 181.9375 279.300781 145.46875 279.300781 100.28125 Z M 276.132812 101.472656 C 276.132812 147.453125 337.570312 185.105469 413.277344 185.105469 C 488.984375 185.105469 550.421875 147.847656 550.421875 101.472656 C 550.421875 55.492188 488.984375 17.835938 413.277344 17.835938 C 337.570312 17.835938 276.132812 55.097656 276.132812 101.472656 Z M 276.132812 101.472656 "/>
<path style=" stroke:none;fill-rule:nonzero;fill:rgb(65.879822%,54.508972%,7.449341%);fill-opacity:1;" d="M 346.289062 86.410156 C 346.289062 63.816406 376.414062 45.582031 413.277344 45.582031 C 450.535156 45.582031 480.265625 63.816406 480.265625 86.410156 C 480.265625 109.003906 450.140625 127.238281 413.277344 127.238281 C 376.019531 127.238281 346.289062 109.003906 346.289062 86.410156 Z M 342.722656 86.804688 C 342.722656 110.589844 374.433594 129.613281 413.277344 129.613281 C 452.121094 129.613281 483.832031 110.589844 483.832031 86.804688 C 483.832031 63.023438 452.121094 43.996094 413.277344 43.996094 C 374.433594 43.996094 342.722656 63.023438 342.722656 86.804688 Z M 342.722656 86.804688 "/>
</g>
</svg>
